<?xml version="1.0" standalone="no"?>
<!DOCTYPE svg PUBLIC "-//W3C//DTD SVG 1.1//EN" "http://www.w3.org/Graphics/SVG/1.1/DTD/svg11.dtd" >
<svg>
<metadata>
Created by FontForge 20090914 at Thu Feb 15 02:38:22 2018
 By www-data
Copyright (c) The Chank Company, 1997, 2005.

Cyrillic symbols by Ruslan Nasretdinov (cc) CA "Magic of Friendship", 2017.
</metadata>
<defs>
<font id="WoodrowW00Reg" horiz-adv-x="422" >
  <font-face 
    font-family="Woodrow W00 Reg"
    font-weight="400"
    font-style="italic"
    font-stretch="normal"
    units-per-em="1000"
    panose-1="2 0 6 6 8 0 0 2 0 4"
    ascent="748"
    descent="-252"
    x-height="373"
    cap-height="748.002"
    bbox="-121.45 -498.005 995.999 976.996"
    underline-thickness="20"
    underline-position="-153"
    slope="-2"
    unicode-range="U+001D-U+FB02"
  />
<missing-glyph horiz-adv-x="546" 
d="M472 64v573l-183 -287zM69 639v-577l184 288zM271 379l183 289h-367zM85 31h371l-185 291zM503 -1h-465v701h465v-701z" />
    <glyph glyph-name=".notdef" horiz-adv-x="546" 
d="M472 64v573l-183 -287zM69 639v-577l184 288zM271 379l183 289h-367zM85 31h371l-185 291zM503 -1h-465v701h465v-701z" />
    <glyph glyph-name=".null" horiz-adv-x="0" 
 />
    <glyph glyph-name=".null" horiz-adv-x="0" 
 />
    <glyph glyph-name="space" unicode=" " horiz-adv-x="255" 
 />
    <glyph glyph-name="exclam" unicode="!" horiz-adv-x="215" 
d="M141 74c5.33301 -8 8.5 -15.498 9.5 -22.498s0.666992 -13.5 -1 -19.5s-3.83398 -12 -6.50098 -18s-4.66699 -12 -6 -18c-2.66699 -10 -8 -17.5 -16 -22.5s-16.667 -8.83301 -26 -11.5c-15.333 -4.66699 -30.166 -3.83398 -44.499 2.49902s-24.5 16.5 -30.5 30.5
c-3.33301 9.33301 -5 19.666 -5 30.999s2.66699 21.333 8 30c7.33301 11.333 15.5 21.333 24.5 30s19.167 14 30.5 16c12 2 23.5 0.833008 34.5 -3.5s20.5 -12.5 28.5 -24.5zM184 594.002c-1.33301 -21.333 -4.83203 -41.8398 -10.499 -61.5068
s-10.834 -40.167 -15.501 -61.5c-4 -19.333 -9.16699 -38.166 -15.5 -56.499s-12.166 -36.833 -17.499 -55.5c-4 -14.667 -6.16699 -29.5 -6.5 -44.5s-0.333008 -30 0 -45s0.333008 -30 0 -45s-2.16602 -29.5 -5.49902 -43.5c-2 -7.33301 -4 -12.5 -6 -15.5
s-4.33301 -4.83301 -7 -5.5c-7.33301 -2.66699 -14 2 -20 14c-6 10.667 -9 23.334 -9 38.001s-1.33301 28.667 -4 42c2 6.66699 1.33301 13.834 -2 21.501s-5 14.834 -5 21.501c-0.666992 17.333 -1 33.5 -1 48.5s-1 31.167 -3 48.5s-5.5 34 -10.5 50s-9.5 32.667 -13.5 50
c-4.66699 18.667 -7.66699 39.334 -9 62.001c0 12 0.333008 24 1 36s2 23.667 4 35l9 43.5c3.33301 15.667 8.66602 29.834 15.999 42.501c5.33301 8.66699 11.5 16.167 18.5 22.5s15.5 10.5 25.5 12.5c11.333 2.66699 22 1.33398 32 -3.99902s19 -12.666 27 -21.999
c5.33301 -5.33301 10 -11.5 14 -18.5s7.66699 -13.833 11 -20.5c6 -12.667 8.16699 -27.334 6.5 -44.001s-2.83398 -31.667 -3.50098 -45z" />
    <glyph glyph-name="quotedbl" unicode="&#x22;" horiz-adv-x="307" 
d="M133 652c4.66699 -16.667 5.50195 -33.3301 2.50195 -49.9971s-8.5 -31 -16.5 -43c-6.66699 -3.33301 -13.5 -7.83301 -20.5 -13.5s-14.167 -5.83398 -21.5 -0.500977c-4 -13.333 -5 -27.333 -3 -42s4.66699 -28 8 -40c0 -5.33301 1.33301 -10.333 4 -15l8 -13.5
c2.66699 -4.33301 4.66699 -8.83301 6 -13.5s1 -9.66699 -1 -15c-3.33301 0 -6.5 -0.333008 -9.5 -1s-5.83301 0.333008 -8.5 3l-23 41.5c-8 14.333 -15.667 28.833 -23 43.5c-3.33301 13.333 -7.5 26.166 -12.5 38.499s-7.16699 26.166 -6.5 41.499
c-4 16 -5.16699 33 -3.5 51s4.5 34.667 8.5 50c5.33301 12.667 12.666 23.334 21.999 32.001s19.333 12.667 30 12c12.667 -2.66699 24.667 -9.83398 36 -21.501s19.666 -26.5 24.999 -44.5h-1zM289.002 651.004c4.66699 -16.667 5.50391 -33.3291 2.50391 -49.9961
s-8.5 -31 -16.5 -43c-6.66699 -3.33301 -13.5 -7.83301 -20.5 -13.5s-14.167 -5.83398 -21.5 -0.500977c-4 -13.333 -4.83301 -27.333 -2.5 -42s5.16602 -28 8.49902 -40c0.666992 -5.33301 2.33398 -10.333 5.00098 -15l7.5 -13.5
c2.33301 -4.33301 4.16602 -8.83301 5.49902 -13.5s0.666016 -9.66699 -2.00098 -15c-3.33301 0 -6.5 -0.333008 -9.5 -1s-5.83301 0 -8.5 2l-23 41.5c-8 14.333 -15.667 29.166 -23 44.499c-3.33301 13.333 -7.5 26.166 -12.5 38.499s-7.16699 26.166 -6.5 41.499
c-4 16 -5.16699 33 -3.5 51s4.5 34.667 8.5 50c5.33301 12.667 12.666 23.334 21.999 32.001s19.333 12.667 30 12c12.667 -2.66699 24.667 -9.83398 36 -21.501s19.666 -26.5 24.999 -44.5h-1z" />
    <glyph glyph-name="numbersign" unicode="#" horiz-adv-x="466" 
d="M215 420l-20 -120h62l27 113zM458 470c0 -2.66699 -0.323242 -6.98828 -0.990234 -12.9883s-1.66699 -12 -3 -18c-1.33301 -7.33301 -2.33301 -15.333 -3 -24h-113c-4.66699 -16.667 -8.33398 -31.667 -11.001 -45c-3.33301 -12 -6 -23.5 -8 -34.5s-3 -18.5 -3 -22.5
c0 -4.66699 -0.333008 -8.33398 -1 -11.001s-1.33398 -4.66699 -2.00098 -6c-0.666992 -2 -1.33398 -3.66699 -2.00098 -5h51c13.333 0 25.5 -0.333008 36.5 -1s17.5 -1.33398 19.5 -2.00098s3.16699 -3.5 3.5 -8.5s0.333008 -10.5 0 -16.5s-1.16602 -11.833 -2.49902 -17.5
s-3 -8.83398 -5 -9.50098c-2 -1.33301 -8.83301 -2.16602 -20.5 -2.49902s-24.167 -0.5 -37.5 -0.5c-16 0 -33.333 0.333008 -52 1l-13 -50l-9.5 -37c-3 -11.333 -4.5 -18.333 -4.5 -21s-2.83301 -4.5 -8.5 -5.5s-11.834 -1.5 -18.501 -1.5s-12.334 0.666992 -17.001 2
s-6.33398 3.33301 -5.00098 6c1.33301 2 3 8.66699 5 20s3.83301 23.166 5.5 35.499s3 23.833 4 34.5s1.16699 16.667 0.5 18c-0.666992 0.666992 -5 1.5 -13 2.5s-16.5 1.66699 -25.5 2s-17.333 0.5 -25 0.5h-11.5c-2.66699 -20 -5.33398 -38.333 -8.00098 -55
c-2 -14 -4.33301 -27 -7 -39s-4.66699 -18.667 -6 -20c-2 -1.33301 -5.33301 -2.33301 -10 -3s-9.33398 -1.16699 -14.001 -1.5s-8.83398 -0.333008 -12.501 0s-5.5 1.16602 -5.5 2.49902s0.666992 8.16602 2 20.499s2.66602 25.833 3.99902 40.5l6 58
c-17.333 -1.33301 -33 -2 -47 -2c-12 0 -23.667 0.333008 -35 1s-18.666 2 -21.999 4s-5.33301 5.83301 -6 11.5s-0.5 11.667 0.5 18s2.66699 12.166 5 17.499s4.83301 8.66602 7.5 9.99902c3.33301 1.33301 11 2.16602 23 2.49902s24.667 0.833008 38 1.5
c16 0.666992 33.667 1 53 1l15 119c-18 -1.33301 -34 -2 -48 -2c-12.667 0 -24.334 0.333008 -35.001 1s-17.667 2 -21 4s-4.66602 6.33301 -3.99902 13s2.33398 13.667 5.00098 21s5.83398 14.166 9.50098 20.499s6.5 9.83301 8.5 10.5s8 0.666992 18 0
s20.667 -1.66699 32 -3c12.667 -1.33301 27.334 -3 44.001 -5c1.33301 19.333 3 37.666 5 54.999c1.33301 14.667 3.16602 28.5 5.49902 41.5s5.16602 22.167 8.49902 27.5c3.33301 4.66699 8.33301 8.66699 15 12s13.334 5.66602 20.001 6.99902s12.5 1.5 17.5 0.5
s7.5 -3.5 7.5 -7.5c0 -4.66699 -0.833008 -14.5 -2.5 -29.5s-3.83398 -31.167 -6.50098 -48.5l-9 -65l78 1l13 65c3.33301 16.667 7.16602 32.5 11.499 47.5s8.16602 24.167 11.499 27.5c7.33301 6 16.166 9 26.499 9s18.166 -4.66699 23.499 -14
c2.66699 -5.33301 2.5 -15.5 -0.5 -30.5s-6.83301 -30.833 -11.5 -47.5c-5.33301 -19.333 -11.666 -40.333 -18.999 -63c19.333 0.666992 37 1 53 1c13.333 0 25.5 -0.333008 36.5 -1s16.5 -2.33398 16.5 -5.00098z" />
    <glyph glyph-name="dollar" unicode="$" horiz-adv-x="408" 
d="M384 485c-6 -8.66699 -11.335 -18.1631 -16.002 -28.4961s-9.66699 -20.333 -15 -30s-11.833 -18.167 -19.5 -25.5s-17.5 -12.333 -29.5 -15c-6.66699 6.66699 -9.66699 15.5 -9 26.5s2.33398 22.667 5.00098 35s5.16699 24.5 7.5 36.5s2 22.5 -1 31.5
s-9.66699 15.667 -20 20s-27.166 4.83301 -50.499 1.5c-4.66699 -3.33301 -10.334 -8.5 -17.001 -15.5s-13 -14.667 -19 -23s-11.333 -16.5 -16 -24.5s-7.33398 -14.333 -8.00098 -19c-2 -18.667 1.66699 -35.667 11 -51c6 -10 13.5 -19.333 22.5 -28s18.5 -17 28.5 -25
l30.5 -24c10.333 -8 19.5 -16.333 27.5 -25c10 -11.333 17.833 -23 23.5 -35s7.5 -25.667 5.5 -41c3.33301 -15.333 4.5 -28.333 3.5 -39s-3.66699 -20.167 -8 -28.5s-9.66602 -15.833 -15.999 -22.5s-13.166 -13.334 -20.499 -20.001
c-3.33301 -2.66699 -8.33301 -5.16699 -15 -7.5s-13.834 -4.5 -21.501 -6.5l-22.5 -6c-7.33301 -2 -12.666 -4.33301 -15.999 -7c-4.66699 -10.667 -7.5 -21.334 -8.5 -32.001s-1.5 -21 -1.5 -31s0.333008 -19.833 1 -29.5s0.666992 -18.834 0 -27.501
c-1.33301 -10.667 -4.16602 -20 -8.49902 -28s-12.5 -15 -24.5 -21c-12 -5.33301 -23.5 -5.33301 -34.5 0s-18.833 14 -23.5 26s-4.66699 24.667 0 38s10.5 26.5 17.5 39.5l20 37.5c6.33301 12 9.16602 22.667 8.49902 32c-16 1.33301 -28.667 4.16602 -38 8.49902
s-21.666 12.5 -36.999 24.5l-19 -19c-6 -6 -13.667 -8.33301 -23 -7c-4 1.33301 -7 3.83301 -9 7.5s-2.33301 7.5 -1 11.5l4 20c3.33301 8 5 17 5 27s0.333008 19.667 1 29s2.66699 17.833 6 25.5s10 13.167 20 16.5c5.33301 -1.33301 9.83301 -5.5 13.5 -12.5
s7.16699 -14.833 10.5 -23.5s7 -17.5 11 -26.5s8.5 -16.167 13.5 -21.5s11.167 -8 18.5 -8s16.333 4.66699 27 14c4 3.33301 7 8 9 14s3.5 12.5 4.5 19.5s1 13.833 0 20.5s-2.5 12.667 -4.5 18c-18.667 19.333 -39.5 38.833 -62.5 58.5s-42.167 41.167 -57.5 64.5
c-10 15.333 -17.333 31.833 -22 49.5s-4.66699 36.834 0 57.501c9.33301 28.667 26.333 56 51 82c15.333 15.333 32.166 28.5 50.499 39.5s37.166 17.167 56.499 18.5c0 12.667 -1.83301 28.167 -5.5 46.5s-6 36.833 -7 55.5s1 36 6 52s15.833 28 32.5 36
c7.33301 1.33301 14.333 0.833008 21 -1.5s11.667 -7.5 15 -15.5c4.66699 -10.667 5 -24.334 1 -41.001s-8.33301 -33.667 -13 -51s-8 -33.5 -10 -48.5s1 -25.833 9 -32.5c9.33301 -8 24.666 -11.667 45.999 -11c6.66699 0 12.834 -2.16699 18.501 -6.5s11 -9.5 16 -15.5
s10 -11.667 15 -17s10.167 -8.66602 15.5 -9.99902c4.66699 -1.33301 9.5 -1 14.5 1s10.833 6.66699 17.5 14c8 -3.33301 13.167 -7.83301 15.5 -13.5s3.33301 -11.834 3 -18.501s-1.66602 -13.5 -3.99902 -20.5s-3.83301 -13.167 -4.5 -18.5h-1z" />
    <glyph glyph-name="percent" unicode="%" horiz-adv-x="501" 
d="M149 402c4 9.33301 5.6709 19.332 5.00391 29.999s-3.16699 20.5 -7.5 29.5s-10 16.5 -17 22.5s-15.167 9 -24.5 9c-18.667 0 -31.5 -4.66699 -38.5 -14s-12.833 -20.333 -17.5 -33s-2.83398 -25.667 5.49902 -39s18.166 -23.666 29.499 -30.999s23.166 -9.5 35.499 -6.5
s22.166 13.833 29.499 32.5zM419.004 212.999c-15.333 6 -28.6689 7.83301 -40.002 5.5s-20.833 -7 -28.5 -14s-13.667 -15.167 -18 -24.5s-7.5 -17.333 -9.5 -24s-1.33301 -15 2 -25s8.66602 -18.833 15.999 -26.5s16.333 -13 27 -16s22.334 -0.5 35.001 7.5
s23.5 17.333 32.5 28s14.833 21.5 17.5 32.5s1.33398 21.5 -3.99902 31.5s-15.666 18 -30.999 24zM448.001 501.999c-2.66699 -1.33301 -9.82812 -8.66699 -21.4951 -22l-37.5 -44l-37.5 -45c-11.667 -14 -18.834 -22 -21.501 -24s-5 -5.5 -7 -10.5l-6 -15
c-2 -5 -4.33301 -9.83301 -7 -14.5s-5.33398 -7.66699 -8.00098 -9c-2 -1.33301 -8.33301 -9 -19 -23l-38.5 -53l-48 -68l-47.5 -68l-37 -53c-10 -14 -15.667 -21.667 -17 -23s-4.83301 0 -10.5 4s-11.167 9 -16.5 15c-7.33301 6.66699 -14.666 14.667 -21.999 24l16 18
c4 5.33301 8.16699 10.166 12.5 14.499s7.16602 7.83301 8.49902 10.5l18 26.5l36.5 53.5l41.5 60l33 48l36 52.5l42 60.5l48 70l-43 -18c-11.333 -4.66699 -22.833 -8.66699 -34.5 -12s-20.5 -5 -26.5 -5s-11.833 0.333008 -17.5 1s-10.5 1.66699 -14.5 3
c-5.33301 1.33301 -10 3 -14 5c0.666992 -6 1 -12.667 1 -20s-0.5 -16 -1.5 -26s-3.16699 -22.333 -6.5 -37s-9.33301 -26.334 -18 -35.001s-18.834 -14.667 -30.501 -18s-24.334 -4 -38.001 -2s-27.167 6 -40.5 12c-26.667 12.667 -42.334 34.834 -47.001 66.501
s3 69.834 23 114.501c10 22 22 35.5 36 40.5s28 5.83301 42 2.5s26.833 -8.66602 38.5 -15.999s20.167 -12 25.5 -14s9.33301 -4.66699 12 -8s6 -7 10 -11s9.83301 -8.16699 17.5 -12.5s19.167 -8.5 34.5 -12.5s31.333 -2.33301 48 5s32 15.666 46 24.999
s26 17.666 36 24.999s16.667 9 20 5c2.66699 -4 7.5 -8.16699 14.5 -12.5l20 -12.5c6.33301 -4 11.5 -7.66699 15.5 -11s4.66699 -5.66602 2 -6.99902zM487.007 102.998c-4 -6.66699 -13.1719 -14.167 -27.5049 -22.5s-30.333 -15 -48 -20s-35.5 -7 -53.5 -6
s-32.667 7.16699 -44 18.5s-19.166 24 -23.499 38s-6.16602 27.667 -5.49902 41s3.33398 25.666 8.00098 36.999s10.667 20.666 18 27.999l23.5 23c9 8.66699 18.833 15.834 29.5 21.501s22.334 8.83398 35.001 9.50098s26.334 -3 41.001 -11s26.167 -19.5 34.5 -34.5
s14 -30.5 17 -46.5s4 -31 3 -45s-3.5 -24.333 -7.5 -31z" />
    <glyph glyph-name="ampersand" unicode="&#x26;" horiz-adv-x="602" 
d="M616 420c2 -5.33301 0 -12.334 -6 -21.001s-12.667 -15.667 -20 -21c-8 -5.33301 -16.833 -10.666 -26.5 -15.999s-19 -11 -28 -17s-16.833 -12.667 -23.5 -20s-10.667 -15.666 -12 -24.999c-3.33301 -18.667 -7.5 -35.5 -12.5 -50.5s-8.5 -31.5 -10.5 -49.5
c-4 -30 -8.66699 -59.5 -14 -88.5s-10.333 -58.5 -15 -88.5c-1.33301 -8 -0.5 -16 2.5 -24s8.16699 -14 15.5 -18c6 -7.33301 12.833 -10.833 20.5 -10.5s16.167 0.5 25.5 0.5c3.33301 0 6 -1 8 -3v-5c-1.33301 -6 -4.83301 -11.167 -10.5 -15.5
s-12.167 -7.83301 -19.5 -10.5s-15 -4.5 -23 -5.5s-14.667 -1.5 -20 -1.5c-20 0.666992 -33.667 6.16699 -41 16.5s-11.5 23 -12.5 38s-0.333008 30.833 2 47.5s3.16602 31 2.49902 43l-51 -37c-16.667 -12.667 -34 -24 -52 -34s-36.667 -18.167 -56 -24.5
s-40 -9.16602 -62 -8.49902c-1.33301 0 -5.16602 1 -11.499 3s-10.833 3.33301 -13.5 4c-19.333 4 -36.833 7.16699 -52.5 9.5s-31.167 9.5 -46.5 21.5c-18.667 14.667 -29.667 30.334 -33 47.001s-5 36 -5 58c0 12 2.66699 28.167 8 48.5s14.166 42.5 26.499 66.5
s28.5 48.667 48.5 74s44.333 48.666 73 69.999c0 5.33301 -2.66699 9.83301 -8 13.5s-11.666 6.83398 -18.999 9.50098l-21.5 7.5c-7 2.33301 -12.5 5.5 -16.5 9.5c-10 11.333 -18.333 24.5 -25 39.5s-10.334 33.167 -11.001 54.5c0 4 1.33301 10.333 4 19
s5.66699 17.667 9 27s7 18.166 11 26.499s7.33301 14.833 10 19.5c17.333 28 40.333 53.167 69 75.5s59.667 38.166 93 47.499c16 4 32.667 6 50 6c22.667 -0.666992 42.834 -5.33398 60.501 -14.001s32 -20.334 43 -35.001s18.833 -31.334 23.5 -50.001
s5.33398 -38 2.00098 -58c-3.33301 -17.333 -10.666 -31 -21.999 -41s-26.666 -14.333 -45.999 -13c-8 0 -16 1.5 -24 4.5s-15 7.16699 -21 12.5s-10.833 11.5 -14.5 18.5s-4.83398 14.5 -3.50098 22.5c1.33301 6.66699 4 13.167 8 19.5s8.66699 12.333 14 18
s11 11.167 17 16.5s11.333 10.333 16 15c1.33301 14 -2.5 25 -11.5 33s-21.167 12 -36.5 12c-4 0 -9.16699 -1 -15.5 -3s-12.833 -4.5 -19.5 -7.5s-13 -6.16699 -19 -9.5s-10.333 -6.33301 -13 -9c-25.333 -26.667 -42.333 -51.167 -51 -73.5s-14.667 -44.833 -18 -67.5
c-2 -14 -1.5 -26.167 1.5 -36.5s7.66699 -19 14 -26s13.833 -12.5 22.5 -16.5s17.667 -6.66699 27 -8c8.66699 -1.33301 17.667 -1.16602 27 0.500977s16.666 2.5 21.999 2.5h10c3.33301 0 4.33301 -2.66699 3 -8c-6.66699 -15.333 -15.334 -31 -26.001 -47
s-22.334 -32 -35.001 -48l-40.5 -53.5c-13 -17.667 -23.167 -34.167 -30.5 -49.5c-7.33301 -14.667 -13 -28.167 -17 -40.5s-6.66699 -25.833 -8 -40.5c-1.33301 -11.333 -0.666016 -23.166 2.00098 -35.499s7.33398 -23.833 14.001 -34.5s16 -19.667 28 -27
s27 -11.333 45 -12s34.167 5.66602 48.5 18.999s26.833 29 37.5 47c11.333 20.667 20.166 42 26.499 64s11.5 43.667 15.5 65c2 12 2.16699 24 0.5 36s-5.5 22.667 -11.5 32c-6 -0.666992 -12.833 -2.66699 -20.5 -6s-15.167 -7 -22.5 -11s-14.5 -7.66699 -21.5 -11
s-12.833 -5 -17.5 -5c-2 0 -4.33301 1.33301 -7 4c-5.33301 1.33301 -7.33301 5 -6 11c0.666992 4.66699 3.5 10.167 8.5 16.5s10.833 12.5 17.5 18.5s13.5 11.333 20.5 16s12.833 7.33398 17.5 8.00098c7.33301 1.33301 14.833 1.83301 22.5 1.5
s15.167 -0.166016 22.5 0.500977c14 1.33301 26.833 3.16602 38.5 5.49902s23 5.16602 34 8.49902s21.833 7.5 32.5 12.5l36 16.5c4.66699 2 10.5 5.5 17.5 10.5l21 14.5c7 4.66699 13.833 8.83398 20.5 12.501s12 5.5 16 5.5s8.83301 -0.666992 14.5 -2
s9.16699 -4.33301 10.5 -9z" />
    <glyph glyph-name="quotesingle" unicode="'" horiz-adv-x="175" 
d="M147 574c0.666992 -13.333 -1.50098 -25.6689 -6.50098 -37.002s-9.16699 -23 -12.5 -35c-6.66699 -13.333 -14 -26.5 -22 -39.5s-15.333 -25.833 -22 -38.5c-2.66699 -2 -5.5 -2.66699 -8.5 -2s-6.16699 1 -9.5 1c-2.66699 4.66699 -3.5 9.16699 -2.5 13.5
s2.66699 8.5 5 12.5l7.5 12.5c2.66699 4.33301 4.66699 8.83301 6 13.5c3.33301 11.333 6 23.5 8 36.5s1 25.5 -3 37.5c-3.33301 -2.66699 -6.66602 -3.66699 -9.99902 -3s-6.83301 1.83398 -10.5 3.50098s-7.16699 3.66699 -10.5 6s-6.66602 4.16602 -9.99902 5.49902
c-8.66699 11.333 -14.5 24.5 -17.5 39.5s-2.16699 30.167 2.5 45.5c4.66699 16 12.667 29.333 24 40s23.333 17.334 36 20.001c10.667 0.666992 20.667 -3 30 -11s16.666 -18 21.999 -30c3.33301 -13.333 5.83301 -28.166 7.5 -44.499s0.5 -31.833 -3.5 -46.5z" />
    <glyph glyph-name="parenleft" unicode="(" horiz-adv-x="291" 
d="M301 -126c0 -4 -1.00195 -7.50195 -3.00195 -10.502s-5.66699 -4.5 -11 -4.5c-8.66699 0 -17.5 3.33301 -26.5 10s-16.5 12.667 -22.5 18c-23.333 20 -46.833 42.5 -70.5 67.5s-43.5 50.5 -59.5 76.5c-12.667 20 -24 42.167 -34 66.5s-18.5 49.5 -25.5 75.5
s-12.333 52 -16 78s-5.5 50.667 -5.5 74c0 32.667 2.5 66.334 7.5 101.001s13.833 67.334 26.5 98.001l25 59c8.66699 20.667 20 38.667 34 54c6 6.66699 14.333 14.334 25 23.001l33.5 26.5c11.667 9 23.334 17.5 35.001 25.5s21.5 14.333 29.5 19
c4 2.66699 8.83301 5.33398 14.5 8.00098s11.167 4 16.5 4c7.33301 0 11 -3.66699 11 -11s-2.83301 -16 -8.5 -26s-11.167 -17.667 -16.5 -23c-19.333 -19.333 -38.333 -43.833 -57 -73.5s-31.667 -60.834 -39 -93.501c-7.33301 -32 -12.333 -63.833 -15 -95.5
s-4 -60.167 -4 -85.5c0 -65.333 5 -130.333 15 -195c2 -13.333 6.83301 -28.333 14.5 -45s16.834 -33.834 27.501 -51.501l33 -52.5l32 -49c10 -15.333 18.167 -29 24.5 -41s9.5 -21 9.5 -27z" />
    <glyph glyph-name="parenright" unicode=")" horiz-adv-x="276" 
d="M251 325c0 -23.333 -1.83203 -47.9961 -5.49902 -73.9961s-9 -52 -16 -78s-15.5 -51.167 -25.5 -75.5s-21.333 -46.5 -34 -66.5c-16 -26 -35.833 -51.5 -59.5 -76.5s-47.167 -47.5 -70.5 -67.5c-6 -5.33301 -13.5 -11.333 -22.5 -18s-17.833 -10 -26.5 -10
c-5.33301 0 -9 1.5 -11 4.5s-3 6.5 -3 10.5c0 9.33301 6 24.666 18 45.999l41 71c15.333 26 29.666 52.333 42.999 79s21.666 50 24.999 70c10 64.667 15 129.667 15 195c0 22.667 -1.16699 47.834 -3.5 75.501s-6.16602 56.167 -11.499 85.5
c-6.66699 36 -17.334 70.833 -32.001 104.5s-32.667 61.167 -54 82.5c-5.33301 5.33301 -10.833 13 -16.5 23s-8.5 18.667 -8.5 26s3.66699 11 11 11c5.33301 0 10.833 -1.33301 16.5 -4s10.5 -5.33398 14.5 -8.00098c8 -4.66699 17.833 -11 29.5 -19
s23.334 -16.5 35.001 -25.5l33.5 -26.5c10.667 -8.66699 19 -16.334 25 -23.001c14 -15.333 25.333 -33.333 34 -54l25 -59c12.667 -30.667 21.5 -63.334 26.5 -98.001s7.5 -68.334 7.5 -101.001z" />
    <glyph glyph-name="asterisk" unicode="*" horiz-adv-x="331" 
d="M319 498c2.66699 -7.33301 1.67578 -13.8291 -2.99121 -19.4961s-9.66699 -10.167 -15 -13.5c-6.66699 -4 -13 -5.66699 -19 -5s-12 2 -18 4l-18 6c-6 2 -12 3 -18 3c0 -6 1.16699 -11.833 3.5 -17.5l7 -17.5c2.33301 -6 4.16602 -12.167 5.49902 -18.5
s1.66602 -12.833 0.999023 -19.5c-1.33301 -10 -3.16602 -20.833 -5.49902 -32.5s-9.83301 -20.167 -22.5 -25.5c-12 6 -20 14.167 -24 24.5s-6.66699 21.166 -8 32.499s-2.5 23.166 -3.5 35.499s-4.83301 23.5 -11.5 33.5c-6.66699 -6.66699 -13.167 -14.167 -19.5 -22.5
s-13.333 -16.166 -21 -23.499s-15.834 -13.5 -24.501 -18.5s-18.334 -7.83301 -29.001 -8.5c-5.33301 2.66699 -11.5 5.16699 -18.5 7.5s-11.167 6.83301 -12.5 13.5c-4 10 -2 19.167 6 27.5s17.667 16 29 23s22.666 13.333 33.999 19s19 11 23 16
s2.16699 9.83301 -5.5 14.5s-24.5 9.66699 -50.5 15c-28.667 22.667 -41.334 52 -38.001 88c8.66699 6.66699 17 8.5 25 5.5s16 -6.5 24 -10.5c13.333 -9.33301 25.166 -20.333 35.499 -33s22.166 -24.334 35.499 -35.001c4 4 6.33301 8.66699 7 14s1 11 1 17
s-0.166992 12 -0.5 18s0.5 11.667 2.5 17c0.666992 6.66699 1.16699 13.667 1.5 21s1.16602 14.5 2.49902 21.5s3.5 13.667 6.5 20s8.16699 11.833 15.5 16.5c7.33301 -0.666992 14.333 -2.16699 21 -4.5s11.667 -7.16602 15 -14.499c2 -9.33301 3 -19 3 -29
s-0.333008 -19.833 -1 -29.5s-1.16699 -19.334 -1.5 -29.001s0.5 -18.834 2.5 -27.501c5.33301 7.33301 11.833 14.5 19.5 21.5s16.167 11.5 25.5 13.5c4.66699 -6 6.66699 -12 6 -18s-2.33398 -11.833 -5.00098 -17.5s-5.66699 -11.334 -9 -17.001s-5.33301 -11.5 -6 -17.5
c3.33301 -2 7.33301 -3.33301 12 -4s9.5 -1.66699 14.5 -3s9.66699 -3.33301 14 -6s7.83301 -6.66699 10.5 -12z" />
    <glyph glyph-name="plus" unicode="+" horiz-adv-x="528" 
d="M484 322c0 -10 -0.827148 -17.6719 -2.49414 -23.0049s-4 -9.16602 -7 -11.499s-6.33301 -3.83301 -10 -4.5s-6.83398 -1 -9.50098 -1c-19.333 0.666992 -43.166 0 -71.499 -2s-58.5 -3.66699 -90.5 -5c-0.666992 -28.667 -0.833984 -56.5 -0.500977 -83.5
s1.16602 -51.5 2.49902 -73.5c0 -3.33301 -1.66699 -7 -5 -11s-12.666 -9.33301 -27.999 -16c-19.333 -0.666992 -30.833 2.5 -34.5 9.5s-5.5 13.833 -5.5 20.5c0.666992 18 0.166992 40 -1.5 66s-3.16699 53.667 -4.5 83c-22 -1.33301 -42.833 -2.5 -62.5 -3.5
s-37.167 -1.5 -52.5 -1.5s-28 0.5 -38 1.5s-16 2.83301 -18 5.5c2 2.66699 2.83301 5.66699 2.5 9l-1 10.5c-0.333008 3.66699 -0.666016 7 -0.999023 10s0.5 5.5 2.5 7.5l4 3c0 1.33301 -0.5 4 -1.5 8s-1.66699 8.5 -2 13.5s0.666992 9.66699 3 14s7.16602 7.5 14.499 9.5
c1.33301 -3.33301 4.16602 -5.33301 8.49902 -6s9.16602 -0.833984 14.499 -0.500977s10.833 1 16.5 2s10.167 1.16699 13.5 0.5c13.333 0.666992 27.666 1 42.999 1h48c-1.33301 22 -2.5 43.167 -3.5 63.5s-1.5 38.5 -1.5 54.5s0.5 29.167 1.5 39.5s2.83301 16.5 5.5 18.5
c2.66699 -2 5.66699 -2.83301 9 -2.5l10.5 1c3.66699 0.333008 7 0.666016 10 0.999023s5.5 -0.5 7.5 -2.5l4 -4c1.33301 0 4 0.5 8 1.5s8.5 1.66699 13.5 2s9.66699 -0.666992 14 -3s7.16602 -7.16602 8.49902 -14.499c-3.33301 -1.33301 -5.33301 -4.16602 -6 -8.49902
s-0.833984 -9.16602 -0.500977 -14.499s1 -10.666 2 -15.999s1.16699 -9.66602 0.5 -12.999c0.666992 -15.333 1 -31.666 1 -48.999v-54c30 -0.666992 58.833 -1 86.5 -1s53.167 0.666992 76.5 2c3.33301 0 7 -1.83301 11 -5.5s9.33301 -13.167 16 -28.5v1z" />
    <glyph glyph-name="comma" unicode="," horiz-adv-x="175" 
d="M162 16c0 -13.333 -2.6709 -25.3291 -8.00391 -35.9961s-9.66602 -21.667 -12.999 -33c-7.33301 -13.333 -15.833 -26.333 -25.5 -39s-18.5 -25.334 -26.5 -38.001c-3.33301 -2 -6.66602 -2.66699 -9.99902 -2s-6.66602 1 -9.99902 1c-3.33301 4.66699 -4.33301 9 -3 13
s3.33301 8 6 12l8.5 12.5c3 4.33301 4.83301 8.83301 5.5 13.5c3.33301 11.333 6.5 23.333 9.5 36s1.83301 25 -3.5 37c-4 -2.66699 -8 -3.83398 -12 -3.50098s-8 1.5 -12 3.5s-7.83301 4.16699 -11.5 6.5s-7.5 4.16602 -11.5 5.49902
c-9.33301 10.667 -16 23.334 -20 38.001s-3.33301 29.667 2 45s14.666 28.166 27.999 38.499s27.333 16.166 42 17.499c12.667 1.33301 24.334 -2 35.001 -10s19.334 -17.667 26.001 -29c4 -13.333 6.66699 -27.833 8 -43.5s0 -30.5 -4 -44.5v-1z" />
    <glyph glyph-name="hyphen" unicode="-" horiz-adv-x="369" 
d="M342 184c-4.66699 -2 -10.6631 -3 -17.9961 -3s-14.666 0.5 -21.999 1.5s-14.166 2 -20.499 3s-11.166 1.83301 -14.499 2.5c-27.333 0 -54 -1.16699 -80 -3.5l-70.5 -6.5c-21 -2 -38.833 -2.83301 -53.5 -2.5s-24 2.83301 -28 7.5c2 3.33301 2.66699 6.16602 2 8.49902
s-1.66699 4.66602 -3 6.99902s-2.83301 5.33301 -4.5 9s-1.83398 8.16699 -0.500977 13.5v7c0 3.33301 0.5 6.83301 1.5 10.5s3.5 7.33398 7.5 11.001s10 6.5 18 8.5c1.33301 -3.33301 4.16602 -4.83301 8.49902 -4.5s9.16602 1.33301 14.499 3s10.666 3.5 15.999 5.5
s9.66602 2.66699 12.999 2c23.333 0.666992 40.5 0.666992 51.5 0s20.833 -1.5 29.5 -2.5s18.5 -1.83301 29.5 -2.5s28.167 -0.333984 51.5 0.999023c3.33301 0 6.66602 -0.5 9.99902 -1.5s6.66602 -0.833008 9.99902 0.5c8 -3.33301 14 -4.16602 18 -2.49902
s7.33301 3.66699 10 6s5.16699 4.16602 7.5 5.49902s5.5 0.333008 9.5 -3c6 -5.33301 9.33301 -11.666 10 -18.999s0.166992 -14.666 -1.5 -21.999s-3.16699 -14.5 -4.5 -21.5s-0.333008 -12.833 3 -17.5v-1z" />
    <glyph glyph-name="period" unicode="." horiz-adv-x="172" 
d="M152 64c2.66699 -8 2.33398 -16.334 -0.999023 -25.001s-8.16602 -16.834 -14.499 -24.501s-14 -13.834 -23 -18.501s-17.833 -7 -26.5 -7c-18 0 -33.333 7.33301 -46 22s-19 32.334 -19 53.001c0 10 2 20.667 6 32s9.16699 21.833 15.5 31.5s13.666 17.5 21.999 23.5
s17.166 9 26.499 9c8.66699 0 16.167 -3.16699 22.5 -9.5s11.833 -14.166 16.5 -23.499s8.5 -19.666 11.5 -30.999s6.16699 -22 9.5 -32z" />
    <glyph glyph-name="slash" unicode="/" horiz-adv-x="400" 
d="M393 750c1.33301 -6 -2.50195 -22.333 -11.502 -49s-21 -59.667 -36 -99l-52 -130l-58.5 -142l-55 -135l-43 -109l-6 -23.5l-9 -34c-3.33301 -12.333 -7.16602 -24.333 -11.499 -36s-8.83301 -20.834 -13.5 -27.501c-2 11.333 -5 19 -9 23s-8.83301 6.16699 -14.5 6.5
s-11.667 -0.333984 -18 -2.00098s-12.166 -2.83398 -17.499 -3.50098s-10 0 -14 2s-6.66699 7 -8 15s-0.5 13.5 2.5 16.5s6.66699 6.33301 11 10s8.33301 8.83398 12 15.501s6.16699 17 7.5 31c4 4.66699 6.5 9.66699 7.5 15s2.83301 10.666 5.5 15.999l48 129l52.5 146.5
l52.5 146l48 128.5c1.33301 6 4.16602 13.333 8.49902 22s8.33301 17.334 12 26.001s6.33398 16.667 8.00098 24s1.16699 12.666 -1.5 15.999c-4 18 -3.66699 28.5 1 31.5s10.667 2.66699 18 -1s14.833 -8.66699 22.5 -15s12.167 -9.5 13.5 -9.5l6 4
c3.33301 2.66699 6.5 3.33398 9.5 2.00098s6.16699 -3.16602 9.5 -5.49902s6.83301 -4.16602 10.5 -5.49902s7.5 -1 11.5 1h1z" />
    <glyph glyph-name="zero" unicode="0" horiz-adv-x="540" 
d="M370 427c-0.666992 10 -2.66504 22.166 -5.99805 36.499s-7.33301 29 -12 44s-9.66699 29.5 -15 43.5s-10.333 25.667 -15 35c-3.33301 7.33301 -8.66602 13 -15.999 17s-14.666 6 -21.999 6c-15.333 0 -28.833 -5 -40.5 -15s-21.834 -23 -30.501 -39
s-16 -33.833 -22 -53.5s-11.333 -39.167 -16 -58.5s-8.5 -37.333 -11.5 -54s-6.16699 -30 -9.5 -40s-5.33301 -20.167 -6 -30.5s-0.666992 -20.833 0 -31.5c1.33301 -18 3.66602 -36.167 6.99902 -54.5s5.66602 -36.833 6.99902 -55.5c1.33301 -10 0.833008 -20 -1.5 -30
s-3.16602 -19.667 -2.49902 -29c0.666992 -6 3.16699 -12.833 7.5 -20.5s9.66602 -14.667 15.999 -21s13.166 -11.833 20.499 -16.5s14.333 -7 21 -7c6 0 12 0.666992 18 2s11.667 2.66602 17 3.99902c22.667 5.33301 38.667 13.833 48 25.5s17 27.167 23 46.5
c7.33301 22.667 13 45.667 17 69s7.16699 46.833 9.5 70.5s4.5 47.334 6.5 71.001s4.33301 47.5 7 71.5c0.666992 2.66699 1 7.33398 1 14.001zM508.002 333.999c2.66699 -42.667 -1.83203 -84.498 -13.499 -125.498s-29.334 -77.5 -53.001 -109.5
s-52.834 -57.667 -87.501 -77s-73.667 -28.666 -117 -27.999c-34 0 -64.333 6.5 -91 19.5s-49.167 31 -67.5 54s-32.833 50.167 -43.5 81.5s-17 65.666 -19 102.999c-2 35.333 -0.333008 70.833 5 106.5s14.333 69.667 27 102s28.834 62.5 48.501 90.5
s42.834 51.667 69.501 71c17.333 12.667 36 23.167 56 31.5s40.667 12.166 62 11.499c32.667 0 63.667 -9 93 -27c27.333 -16.667 49.166 -36.334 65.499 -59.001s29 -47.167 38 -73.5s15.333 -54 19 -83s6.5 -58.5 8.5 -88.5z" />
    <glyph glyph-name="one" unicode="1" horiz-adv-x="359" 
d="M306 -18c0 -8 -1.66699 -14.166 -5 -18.499s-7.5 -7.83301 -12.5 -10.5s-10.167 -5 -15.5 -7s-10 -4.33301 -14 -7c-14 -2.66699 -26.667 -1.66699 -38 3s-23 8 -35 10c-10 -0.666992 -20.167 -0.666992 -30.5 0s-20.5 1 -30.5 1s-19.667 -0.666992 -29 -2
s-18.333 -4 -27 -8c-9.33301 8.66699 -15 19.334 -17 32.001s0.666992 23.667 8 33c4 4.66699 8.83301 7.5 14.5 8.5s11.334 1.83301 17.001 2.5s11.167 1.83398 16.5 3.50098s9.33301 5.16699 12 10.5c5.33301 19.333 8 39.5 8 60.5v54.5l21 334
c-4.66699 2.66699 -9.66699 1.83398 -15 -2.49902s-11 -10.666 -17 -18.999s-12.167 -17.833 -18.5 -28.5s-12.666 -20.5 -18.999 -29.5s-12.333 -16.5 -18 -22.5s-10.834 -8.66699 -15.501 -8c-1.33301 2.66699 -3.83301 5.66699 -7.5 9s-7 7.16602 -10 11.499
s-4.5 9.66602 -4.5 15.999s3 14.166 9 23.499c8.66699 9.33301 19.167 22.666 31.5 39.999s24.833 36 37.5 56l37.5 60.5c12.333 20.333 23.5 37.833 33.5 52.5c3.33301 4.66699 8 10.5 14 17.5l18.5 21.5c6.33301 7.33301 12 14.333 17 21s8.5 12 10.5 16
c7.33301 -2 12.5 -3.66699 15.5 -5s5.5 -3.33301 7.5 -6s4.33301 -6.5 7 -11.5s7.33398 -12.5 14.001 -22.5c7.33301 -16.667 9.16602 -34.834 5.49902 -54.501s-6.83398 -38.167 -9.50098 -55.5c0 -38.667 -1.83301 -78.667 -5.5 -120s-7.66699 -83 -12 -125l-13.5 -125
c-4.66699 -41.333 -8.33398 -81.333 -11.001 -120c-4 -9.33301 -4.16699 -17.5 -0.5 -24.5s6.5 -14.167 8.5 -21.5c4 -4 9.5 -7.33301 16.5 -10s14.167 -5.66699 21.5 -9s13.833 -6.83301 19.5 -10.5s8.83398 -8.5 9.50098 -14.5z" />
    <glyph glyph-name="two" unicode="2" horiz-adv-x="503" 
d="M477 140c1.33301 -18 -0.165039 -35.5 -4.49805 -52.5s-9.33301 -33.833 -15 -50.5s-10.667 -33.5 -15 -50.5s-5.83301 -34.5 -4.5 -52.5c-2.66699 -7.33301 -5.83398 -14.666 -9.50098 -21.999s-9.16699 -12.666 -16.5 -15.999c-8 4.66699 -14 10.5 -18 17.5
s-7.33301 14.5 -10 22.5s-5.83398 15.667 -9.50098 23s-8.83398 13.666 -15.501 18.999c-26 -6 -51.5 -7.16699 -76.5 -3.5s-50 8 -75 13s-50.167 8.5 -75.5 10.5s-51.333 -1 -78 -9c-4 0 -8.5 0.5 -13.5 1.5s-9.33301 2.5 -13 4.5s-6 5 -7 9s0.5 9.33301 4.5 16
c12 28.667 29 58.667 51 90s43.667 59.666 65 84.999c18.667 30 37.834 59 57.501 87s38 56.5 55 85.5s32 58.833 45 89.5s22.5 63.667 28.5 99c-1.33301 10 -7 19.833 -17 29.5s-20 16.167 -30 19.5c-10 0.666992 -21 2.16699 -33 4.5s-23.667 3.5 -35 3.5
s-21.833 -2.16699 -31.5 -6.5s-17.834 -12.833 -24.501 -25.5c-1.33301 -6 -0.833008 -10.667 1.5 -14s5.16602 -6.16602 8.49902 -8.49902s6.5 -4.83301 9.5 -7.5s5.16699 -6.33398 6.5 -11.001c0 -6 0.666992 -11.833 2 -17.5s2.33301 -11.167 3 -16.5
s0.166992 -10.5 -1.5 -15.5s-5.16699 -9.5 -10.5 -13.5c-4.66699 -8.66699 -10.167 -14.667 -16.5 -18s-13 -5.66602 -20 -6.99902s-14.333 -2.5 -22 -3.5s-14.834 -2.83301 -21.501 -5.5c-11.333 0.666992 -21.666 4.66699 -30.999 12s-17.333 15.333 -24 24
c-11.333 25.333 -12.833 51 -4.5 77s21.5 48.333 39.5 67c16 16 33.833 29.667 53.5 41s40.334 19.5 62.001 24.5s43.834 6.66699 66.501 5s44.667 -7.16699 66 -16.5c25.333 -7.33301 49.5 -20 72.5 -38s39.5 -39.667 49.5 -65c9.33301 -25.333 12.5 -51.333 9.5 -78
s-9.16699 -52.334 -18.5 -77.001s-20.166 -47.667 -32.499 -69s-23.166 -39.333 -32.499 -54c-10 -20 -24.5 -40.667 -43.5 -62s-39.167 -42.5 -60.5 -63.5l-62.5 -60.5c-20.333 -19.333 -36.5 -37 -48.5 -53c8.66699 -6 22.667 -10.5 42 -13.5s40.166 -4.83301 62.499 -5.5
s44.166 0.5 65.499 3.5s38.333 7.5 51 13.5c12 4 21.333 10.833 28 20.5s12.834 20.167 18.501 31.5l17 34c5.66699 11.333 13.5 21 23.5 29c3.33301 -0.666992 5.5 -2.16699 6.5 -4.5s1.83301 -5 2.5 -8s1.16699 -6.16699 1.5 -9.5s1.16602 -6.33301 2.49902 -9v1z" />
    <glyph glyph-name="three" unicode="3" horiz-adv-x="494" 
d="M443 669c-5.33301 -22 -14.8291 -43.1641 -28.4961 -63.4971s-28.5 -40.5 -44.5 -60.5l-46 -60c-14.667 -20 -25 -40.667 -31 -62c10 0.666992 22.333 -1.33301 37 -6s29.167 -11.334 43.5 -20.001s27.166 -18.5 38.499 -29.5s18.666 -21.833 21.999 -32.5
c14 -44 18 -88.5 12 -133.5s-19.667 -86.167 -41 -123.5c-32 -40.667 -69.5 -69.834 -112.5 -87.501s-89.5 -21.834 -139.5 -12.501c-11.333 6 -23.333 11.5 -36 16.5s-25 10.833 -37 17.5s-22.667 15.167 -32 25.5s-16.333 23.833 -21 40.5c-8 16 -10.167 31.333 -6.5 46
s8.16699 29.667 13.5 45c6 10 13 17.167 21 21.5s16.667 7.5 26 9.5c8 -2.66699 16.167 -4 24.5 -4s15.166 -3.66699 20.499 -11c7.33301 -9.33301 13 -19.833 17 -31.5s4.66699 -23.167 2 -34.5c-1.33301 -10 -4.66602 -18.833 -9.99902 -26.5s-8 -16.5 -8 -26.5
c9.33301 -11.333 19.666 -21.166 30.999 -29.499s24.666 -11.5 39.999 -9.5c29.333 4.66699 52 17.667 68 39s29.333 47.666 40 78.999c3.33301 10 5.33301 21.333 6 34s0.166992 25.167 -1.5 37.5s-4.33398 24.166 -8.00098 35.499s-7.83398 21 -12.501 29
c-13.333 20 -32.333 34.833 -57 44.5s-52.334 12.834 -83.001 9.50098c-5.33301 -0.666992 -10.5 2 -15.5 8s-5.16699 16.333 -0.5 31c1.33301 4.66699 4.5 9.16699 9.5 13.5l15 13.5c5 4.66699 9.66699 9.33398 14 14.001s6.5 9.33398 6.5 14.001
c10 14 17.667 26.167 23 36.5s10 20.333 14 30l13 30c4.66699 10.333 11.334 22.5 20.001 36.5c0.666992 5.33301 1.33398 13 2.00098 23s1 18 1 24c-13.333 6.66699 -27 8.5 -41 5.5s-27.667 -4.83301 -41 -5.5c-9.33301 2.66699 -19.833 3.83398 -31.5 3.50098
s-20.167 -6.5 -25.5 -18.5c-6 -10 -10.5 -21.667 -13.5 -35s-6.16699 -26.666 -9.5 -39.999s-7.5 -26 -12.5 -38s-12.5 -21.667 -22.5 -29c-4.66699 2 -9.66699 3.33301 -15 4s-9.66602 4.66699 -12.999 12c-1.33301 16 -1 31.667 1 47l6 45.5c2 15 3.83301 29.667 5.5 44
s2.16699 29.166 1.5 44.499c3.33301 6 6.5 12.167 9.5 18.5s7.16699 11.166 12.5 14.499c4.66699 0 9.16699 -1 13.5 -3l13 -6c4.33301 -2 8.83301 -3.33301 13.5 -4s9.66699 0.666016 15 3.99902c16 4 32.333 5.33301 49 4s33.5 -3.33301 50.5 -6s34 -4.83398 51 -6.50098
s34.167 -0.166992 51.5 4.5c19.333 2 39 3.5 59 4.5s39.333 3.83301 58 8.5z" />
    <glyph glyph-name="four" unicode="4" horiz-adv-x="512" 
d="M498 291c-0.666992 -9.33301 -3.82715 -15.5 -9.49414 -18.5s-11.834 -4.83301 -18.501 -5.5c-5.33301 4 -11.333 6.16699 -18 6.5s-13.5 0 -20.5 -1s-13.833 -1.83301 -20.5 -2.5s-12.667 -0.333984 -18 0.999023c-7.33301 -13.333 -11.333 -28.333 -12 -45
s-0.166992 -33.667 1.5 -51s3.16699 -34.666 4.5 -51.999s0.666016 -33.333 -2.00098 -48c4.66699 -3.33301 10.167 -5.83301 16.5 -7.5s12.5 -3.5 18.5 -5.5s11.5 -4.66699 16.5 -8s8.5 -8.66602 10.5 -15.999c2 -6.66699 1.83301 -12.167 -0.5 -16.5
s-5.66602 -8.16602 -9.99902 -11.499s-9 -6.16602 -14 -8.49902l-13.5 -6.5c-8.66699 -4.66699 -17 -6.66699 -25 -6s-16 2.16699 -24 4.5l-24.5 7c-8.33301 2.33301 -16.833 2.5 -25.5 0.5c-14.667 5.33301 -29.334 6.83301 -44.001 4.5l-42.5 -6.5
c-13.667 -2 -26.667 -1.83301 -39 0.5s-23.166 10.833 -32.499 25.5c0 10.667 3 18.667 9 24s13.167 9.33301 21.5 12s17.166 5 26.499 7s17.333 5.33301 24 10c11.333 6 19.666 12.5 24.999 19.5s8.66602 14.5 9.99902 22.5s1.83301 16.333 1.5 25s-0.5 17 -0.5 25
c0.666992 15.333 1.66699 31.833 3 49.5s1.33301 35.5 0 53.5c-19.333 0 -40.333 -0.166992 -63 -0.5s-45.667 -0.333008 -69 0s-46.166 1.33301 -68.499 3s-42.5 4.83398 -60.5 9.50098c-5.33301 13.333 -5.83301 25.833 -1.5 37.5s10.666 22.667 18.999 33
s17.5 20.5 27.5 30.5s18.333 20 25 30l76 104.5c26 35 46.667 72.167 62 111.5l11 12c6 -6 10 -12.5 12 -19.5s3.33301 -14.333 4 -22l2 -23c0.666992 -7.66699 2.66699 -15.167 6 -22.5c-0.666992 -12.667 -4.83398 -25.334 -12.501 -38.001s-17.334 -25.5 -29.001 -38.5
s-24.334 -25.833 -38.001 -38.5l-40.5 -37.5c-13.333 -12.333 -25.5 -24.333 -36.5 -36s-19.5 -22.5 -25.5 -32.5c2.66699 -1.33301 9 -2.5 19 -3.5s22 -2 36 -3s28.833 -1.66699 44.5 -2s30.5 -0.666016 44.5 -0.999023s26.167 -0.333008 36.5 0s16.833 0.833008 19.5 1.5
c2.66699 13.333 4.83398 28 6.50098 44s2.66699 32.167 3 48.5s0.333008 32.166 0 47.499s-0.833008 29.666 -1.5 42.999c2.66699 12.667 4.16699 26.667 4.5 42s1.83301 30.166 4.5 44.499s7.33398 27.833 14.001 40.5s17.334 22.667 32.001 30
c8 -2.66699 15.833 -3.83398 23.5 -3.50098l22.5 1c7.33301 0.333008 14.5 -0.166992 21.5 -1.5s13.5 -5 19.5 -11c-6.66699 -49.333 -12.5 -101.5 -17.5 -156.5s-9.16699 -112.167 -12.5 -171.5c3.33301 -3.33301 7.66602 -5.5 12.999 -6.5s11.166 -1.33301 17.499 -1
s13 1 20 2s13.833 1.83301 20.5 2.5c11.333 0.666992 20.5 -0.833008 27.5 -4.5s9.83301 -12.5 8.5 -26.5h-1z" />
    <glyph glyph-name="five" unicode="5" horiz-adv-x="429" 
d="M404 247c0.666992 -24 0.333008 -47.999 -1 -71.999s-5.16602 -47 -11.499 -69s-16.166 -42.333 -29.499 -61s-31.666 -35 -54.999 -49c-19.333 -11.333 -40.5 -19.833 -63.5 -25.5s-46.333 -8.16699 -70 -7.5s-46.834 4.33398 -69.501 11.001s-43 17 -61 31
c-18.667 10.667 -30.334 25.667 -35.001 45s-6 38.333 -4 57c1.33301 10.667 6.5 20.334 15.5 29.001s17.833 16.667 26.5 24c6.66699 -1.33301 13.834 -2.33301 21.501 -3s15.167 -2.16699 22.5 -4.5s14 -5.66602 20 -9.99902s10.667 -10.833 14 -19.5
c2.66699 -5.33301 4.16699 -12.166 4.5 -20.499s-0.166992 -17 -1.5 -26s-3 -17.667 -5 -26l-5 -20.5c14 -8 30.5 -12.333 49.5 -13s34.5 3.66602 46.5 12.999c10 8 17.667 18.667 23 32s9.5 27.5 12.5 42.5s5.16699 30 6.5 45s3 28.167 5 39.5
c-2 12 -5.33301 24.167 -10 36.5s-10.834 24 -18.501 35s-16.5 20.5 -26.5 28.5s-21 14 -33 18c-19.333 -0.666992 -39.833 -4.33398 -61.5 -11.001s-42.167 -11.667 -61.5 -15c-7.33301 14.667 -11 31.167 -11 49.5s1.33301 37 4 56l8 56.5
c2.66699 18.667 3 36.334 1 53.001c1.33301 12.667 2.16602 25 2.49902 37s0.833008 23.667 1.5 35s2 22.666 4 33.999s5.66699 22.666 11 33.999c54.667 -1.33301 107.334 -3.83301 158.001 -7.5s104 -6.83398 160 -9.50098c8.66699 -7.33301 14.167 -15.833 16.5 -25.5
s2.83301 -19.834 1.5 -30.501s-3.5 -21.5 -6.5 -32.5s-5.5 -20.833 -7.5 -29.5c-4 -3.33301 -8.66699 -6 -14 -8s-10.666 -1.66699 -15.999 1c-1.33301 6 -2.33301 12.333 -3 19s-1.5 13.167 -2.5 19.5s-2.5 12.333 -4.5 18s-5.33301 10.834 -10 15.501
c-10.667 1.33301 -21.667 1.66602 -33 0.999023s-22.5 -1 -33.5 -1s-21.667 0.833008 -32 2.5s-19.833 5.5 -28.5 11.5l-26.5 -2c-9 -0.666992 -16.167 -4.66699 -21.5 -12c1.33301 -14 1.16602 -29.667 -0.500977 -47s-3.83398 -34.833 -6.50098 -52.5
s-4.83398 -35.167 -6.50098 -52.5s-1.5 -33.333 0.5 -48c16.667 4 33.667 7.33301 51 10s34.333 3.66699 51 3s32.834 -3.5 48.501 -8.5s30.5 -13.167 44.5 -24.5c15.333 -13.333 27 -28.5 35 -45.5s14.667 -34.833 20 -53.5z" />
    <glyph glyph-name="six" unicode="6" horiz-adv-x="428" 
d="M258 171c-1.33301 14.667 -1.16406 28.4971 0.50293 41.4971s3 25.667 4 38s0.666992 24.5 -1 36.5s-6.5 24.333 -14.5 37c-6.66699 5.33301 -15.5 9.66602 -26.5 12.999s-21.5 4.33301 -31.5 3c-11.333 -4.66699 -19.666 -10 -24.999 -16s-9.5 -12.667 -12.5 -20
s-5.5 -15.166 -7.5 -23.499s-5 -16.833 -9 -25.5c-1.33301 -14 -2.33301 -29.5 -3 -46.5s-0.833984 -34.167 -0.500977 -51.5s2 -34.166 5 -50.499s8.16699 -30.833 15.5 -43.5c3.33301 0.666992 8 0.833984 14 0.500977s12.333 -0.5 19 -0.5s13 0.333008 19 1
s10.667 2.33398 14 5.00098c10.667 4.66699 18.167 11.167 22.5 19.5s7.16602 17.333 8.49902 27s2.16602 19.5 2.49902 29.5s2.16602 18.667 5.49902 26h1zM412.002 255.997c0 -22.667 -1.66602 -45.332 -4.99902 -67.999s-8.83301 -44.167 -16.5 -64.5
s-18.167 -39.333 -31.5 -57s-30 -32.834 -50 -45.501c-23.333 -15.333 -49 -26.166 -77 -32.499s-57 -6.83301 -87 -1.5c-6 4 -12.5 7.16699 -19.5 9.5s-13.833 5 -20.5 8s-12.834 6.83301 -18.501 11.5s-9.83398 11.334 -12.501 20.001c-12 4 -20.833 12.5 -26.5 25.5
s-11.5 24.833 -17.5 35.5c-7.33301 22 -12.333 45.333 -15 70s-3.66699 49.667 -3 75s3 50.166 7 74.499s9.66699 47.166 17 68.499c5.33301 29.333 15.5 59.333 30.5 90s33.833 60.167 56.5 88.5s48.334 54.666 77.001 78.999s59 45.166 91 62.499
c14 2 23.5 4.16699 28.5 6.5s8 4 9 5s1.5 0.5 1.5 -1.5s2 -6.33301 6 -13s5 -12.667 3 -18s-5 -9.66602 -9 -12.999c-4.66699 -4 -10.667 -7.66699 -18 -11c-20.667 -5.33301 -40.667 -18 -60 -38s-36.5 -43.333 -51.5 -70s-27.333 -54.5 -37 -83.5
s-15.167 -54.833 -16.5 -77.5c7.33301 4 17.833 6.83301 31.5 8.5s27.5 2.5 41.5 2.5s27.167 -0.666992 39.5 -2s21.166 -3.33301 26.499 -6c16 -2.66699 31 -8.5 45 -17.5s26.5 -19.833 37.5 -32.5s20.333 -26.667 28 -42s12.834 -30.666 15.501 -45.999z" />
    <glyph glyph-name="seven" unicode="7" horiz-adv-x="480" 
d="M497 642c5.33301 -13.333 5.66602 -24.0059 0.999023 -32.0059s-11.167 -15.167 -19.5 -21.5l-26.5 -20.5c-9.33301 -7.33301 -16 -16.666 -20 -27.999c-8 -24.667 -17.333 -49.167 -28 -73.5l-33.5 -73l-34 -72.5c-11 -24 -20.833 -48 -29.5 -72
c-6 -17.333 -13 -34.5 -21 -51.5l-24.5 -50.5l-24 -49.5c-7.66699 -16.333 -14.167 -32.5 -19.5 -48.5c8.66699 -5.33301 18 -9.83301 28 -13.5s17.333 -11.167 22 -22.5c2 -9.33301 1.66699 -18.166 -1 -26.499s-8 -13.166 -16 -14.499c-10.667 -2 -20.5 -1 -29.5 3
s-18 8.5 -27 13.5s-18.167 9.5 -27.5 13.5s-19.666 5 -30.999 3c-15.333 4 -29 3.33301 -41 -2s-23.833 -11 -35.5 -17s-23.167 -10.5 -34.5 -13.5s-23.666 0.166992 -36.999 9.5c-2.66699 7.33301 -3.16699 14.166 -1.5 20.499s4.33398 12 8.00098 17
s8.16699 9.33301 13.5 13s10.333 6.83398 15 9.50098c5.33301 3.33301 12.333 6.83301 21 10.5s17.167 7.66699 25.5 12s16.333 9.33301 24 15s13.167 12.167 16.5 19.5l22.5 48.5l18.5 40l19.5 41.5l26.5 54c4.66699 10 10.5 25.833 17.5 47.5l23 70.5
c8.33301 25.333 17.166 50.333 26.499 75s19 45.334 29 62.001c2 2.66699 4.33301 7.5 7 14.5l8 21.5c2.66699 7.33301 5 14.5 7 21.5s3 12.5 3 16.5c-11.333 6 -23.666 9.83301 -36.999 11.5s-27.333 2.33398 -42 2.00098s-29.167 -1.16602 -43.5 -2.49902
s-27.833 -2.33301 -40.5 -3c-11.333 -0.666992 -20.666 -4.66699 -27.999 -12s-14 -16.166 -20 -26.499s-11.5 -21.333 -16.5 -33s-10.667 -22.167 -17 -31.5s-13.833 -16.666 -22.5 -21.999s-19.334 -7 -32.001 -5c-4.66699 9.33301 -4.83398 19.666 -0.500977 30.999
s8.16602 22 11.499 32c8 24 16.667 48 26 72s20.666 47 33.999 69c10 -0.666992 18.5 -4.83398 25.5 -12.501s15.167 -12.5 24.5 -14.5c23.333 -1.33301 46.333 -1.5 69 -0.5s45.167 1.83301 67.5 2.5s44.833 0.5 67.5 -0.5s45.334 -3.83301 68.001 -8.5l45.5 -2
c15 -0.666992 28.167 -6 39.5 -16z" />
    <glyph glyph-name="eight" unicode="8" horiz-adv-x="449" 
d="M314 185c0 20 -2.83203 38.001 -8.49902 54.001s-12.167 32.667 -19.5 50c-5.33301 13.333 -14 21.833 -26 25.5s-24 5.5 -36 5.5c-13.333 0 -24.333 -4.83301 -33 -14.5s-15.834 -21.334 -21.501 -35.001s-9.66699 -28.167 -12 -43.5s-3.5 -28.333 -3.5 -39
c0 -15.333 0.5 -31 1.5 -47s2.16699 -31.667 3.5 -47c0.666992 -9.33301 4 -18.166 10 -26.499s13.5 -15.5 22.5 -21.5s18.333 -10.667 28 -14s18.5 -5 26.5 -5c26.667 0 43 14.667 49 44l12.5 56c4.33301 19.333 6.5 38.666 6.5 57.999zM292.001 532.001
c0 10 -1.16699 22.8369 -3.5 38.5039s-5.16602 31.834 -8.49902 48.501s-6.66602 32.5 -9.99902 47.5l-8 35.5c-2 8.66699 -7.83301 14.334 -17.5 17.001s-17.834 4 -24.501 4c-8 0 -14.167 -1.16699 -18.5 -3.5s-7.66602 -5.5 -9.99902 -9.5s-4 -8.83301 -5 -14.5
s-2.16699 -11.834 -3.5 -18.501c-8.66699 -42 -12.667 -84.333 -12 -127s0 -85.334 -2 -128.001c-0.666992 -10.667 2.83301 -19.334 10.5 -26.001s17.167 -10 28.5 -10c3.33301 0 8.16602 1 14.499 3s12.666 4.33301 18.999 7s12 5.66699 17 9s7.83301 6.66602 8.5 9.99902
c1.33301 6.66699 3.33301 15.167 6 25.5l8.5 32.5c3 11.333 5.5 22.166 7.5 32.499s3 19.166 3 26.499zM435.001 202.005c0 -15.333 -1.66699 -32.3311 -5 -50.998h-1c-11.333 -60.667 -32.666 -105.334 -63.999 -134.001s-76.333 -43 -135 -43
c-26.667 0 -54.834 3.66699 -84.501 11s-56.5 17.333 -80.5 30c-8 4 -15.5 11.333 -22.5 22s-13.333 22.167 -19 34.5s-10 24.833 -13 37.5s-4.5 23.667 -4.5 33c0 46 7.5 85.833 22.5 119.5s41.5 62.167 79.5 85.5c-6 9.33301 -13 17.166 -21 23.499s-15.333 14.5 -22 24.5
c-11.333 17.333 -21 35.5 -29 54.5s-12 39.167 -12 60.5c0 32.667 4.83301 64.167 14.5 94.5s23.5 57.166 41.5 80.499s40 42 66 56s55 21 87 21c24.667 0 47 -4.5 67 -13.5s37 -21.667 51 -38s24.833 -35.5 32.5 -57.5s11.5 -46 11.5 -72
c0 -21.333 -2.33301 -44.5 -7 -69.5s-11 -47.833 -19 -68.5c-4 -9.33301 -9.33301 -17.833 -16 -25.5s-10.667 -16.834 -12 -27.501c29.333 -21.333 52.333 -48.166 69 -80.499s25 -68.166 25 -107.499z" />
    <glyph glyph-name="nine" unicode="9" horiz-adv-x="484" 
d="M332 581c-1.33301 18 -6.49805 35.333 -15.498 52s-23.5 28.667 -43.5 36c-3.33301 0.666992 -7.5 0.333984 -12.5 -0.999023s-10 -3.33301 -15 -6l-14.5 -8c-4.66699 -2.66699 -8.33398 -4.66699 -11.001 -6c-14.667 -8.66699 -28 -24 -40 -46s-20.333 -46.667 -25 -74
s-4.33398 -55.333 0.999023 -84s17.666 -53.334 36.999 -74.001c5.33301 -6 13 -8.33301 23 -7s20.5 3.83301 31.5 7.5s21.333 7.66699 31 12s16.5 6.5 20.5 6.5c7.33301 14 13.5 29.5 18.5 46.5s8.66699 34.167 11 51.5s3.83301 34 4.5 50s0.333984 30.667 -0.999023 44z
M454.002 593c4.66699 -22 8 -45.667 10 -71s2.5 -51 1.5 -77s-3 -51.5 -6 -76.5s-6.83301 -47.833 -11.5 -68.5c-2 -10 -8.83301 -27 -20.5 -51s-26.834 -50.667 -45.501 -80s-40.167 -59.5 -64.5 -90.5s-50.5 -58.5 -78.5 -82.5c-5.33301 -4 -13.333 -11.333 -24 -22
s-22.167 -21.5 -34.5 -32.5s-24.5 -20.833 -36.5 -29.5s-21.333 -13 -28 -13c-7.33301 -0.666992 -13 0.5 -17 3.5s-6.5 6.66699 -7.5 11s-0.833008 9.16602 0.5 14.499s3 10 5 14c6 9.33301 13.667 19.333 23 30l27.5 30l25 26c7.66699 8 12.5 14.333 14.5 19
c10.667 21.333 22.167 42.666 34.5 63.999s24.166 43 35.499 65s21.5 44.333 30.5 67s15.167 46 18.5 70c-1.33301 3.33301 -3 6.33301 -5 9s-4 5 -6 7c-12 -11.333 -28.167 -19.666 -48.5 -24.999s-41 -7.83301 -62 -7.5s-40.833 3.5 -59.5 9.5s-33 14.333 -43 25
c-30 34 -49.667 71.667 -59 113s-6.66602 82 8.00098 122c6.66699 20.667 16.334 38.834 29.001 54.501s27 29.5 43 41.5s33 22.167 51 30.5s36 15.166 54 20.499c12.667 4.66699 26.167 8 40.5 10s28.5 2.83301 42.5 2.5s27.667 -2.16602 41 -5.49902
s25.333 -8.33301 36 -15c20 -12 38.167 -28.333 54.5 -49s26.833 -41.667 31.5 -63z" />
    <glyph glyph-name="colon" unicode=":" horiz-adv-x="238" 
d="M154 138c2 -6.66699 1.66699 -13.5 -1 -20.5s-6.66699 -13.5 -12 -19.5s-11.5 -11 -18.5 -15s-14.167 -6 -21.5 -6c-14.667 0 -27.167 6 -37.5 18s-15.5 26.667 -15.5 44c0 8.66699 1.66699 17.667 5 27s7.66602 17.833 12.999 25.5s11.333 14 18 19s13.667 7.5 21 7.5
s13.5 -2.66699 18.5 -8s9.16699 -11.833 12.5 -19.5s6.33301 -16.167 9 -25.5s5.33398 -18 8.00098 -26zM164 412c3.33301 -6.66699 3.83594 -13.333 1.50293 -20s-6.16602 -13.5 -11.499 -20.5s-11.5 -13.833 -18.5 -20.5l-20.5 -19
c-4.66699 -4.66699 -10.667 -7.5 -18 -8.5s-14.666 -0.5 -21.999 1.5s-14.333 5.33301 -21 10s-11.334 10.334 -14.001 17.001c-6.66699 13.333 -7.16699 27.5 -1.5 42.5s16.167 26.5 31.5 34.5c7.33301 4 15.666 6.66699 24.999 8s18.666 1.16602 27.999 -0.500977
s17.666 -4.5 24.999 -8.5s12.666 -9.33301 15.999 -16z" />
    <glyph glyph-name="semicolon" unicode=";" horiz-adv-x="226" 
d="M163 92c-0.666992 -10.667 -3.16895 -20.3291 -7.50195 -28.9961s-8.16602 -17.667 -11.499 -27c-6.66699 -10 -14.167 -20 -22.5 -30l-23.5 -29c-2.66699 -1.33301 -5.5 -1.83301 -8.5 -1.5s-5.83301 0.5 -8.5 0.5c-2.66699 4 -3.5 7.5 -2.5 10.5s2.66699 6.16699 5 9.5
s4.83301 6.5 7.5 9.5s4.33398 6.5 5.00098 10.5c4 8 7 17.167 9 27.5s0.666992 20.166 -4 29.499c-7.33301 -4 -14.5 -4 -21.5 0s-14.167 7.33301 -21.5 10c-8.66699 8 -14.5 17.667 -17.5 29s-2.16699 22.666 2.5 33.999c5.33301 12.667 13.833 23.167 25.5 31.5
s23.834 13.166 36.501 14.499c11.333 1.33301 21.833 -1.16699 31.5 -7.5s17.5 -13.833 23.5 -22.5c3.33301 -10.667 5.66602 -22.334 6.99902 -35.001s0.333008 -24.667 -3 -36zM154.998 343.005c2 -6 1.66504 -12.5029 -1.00195 -19.5029s-7 -13.5 -13 -19.5
s-13 -10.833 -21 -14.5s-16 -5.5 -24 -5.5c-16 0 -29.667 5.66699 -41 17s-17 25.333 -17 42c0 8 1.83301 16.333 5.5 25s8.33398 16.834 14.001 24.501s12.334 13.834 20.001 18.501s15.5 7 23.5 7s14.833 -2.66699 20.5 -8s10.5 -11.666 14.5 -18.999
s7.5 -15.333 10.5 -24l8.5 -25v1z" />
    <glyph glyph-name="less" unicode="&#x3c;" horiz-adv-x="448" 
d="M419 109c-11.333 -1.33301 -18.167 -5.99219 -20.5 -13.9922s-3.5 -16.667 -3.5 -26s-0.5 -17.833 -1.5 -25.5s-5.5 -11.834 -13.5 -12.501c-5.33301 -0.666992 -8.83301 0.666016 -10.5 3.99902s-3.33398 7.16602 -5.00098 11.499s-4.33398 8.66602 -8.00098 12.999
s-9.83398 7.5 -18.501 9.5c-2.66699 4.66699 -5.66699 7.66699 -9 9s-6.66602 3.33301 -9.99902 6c-22.667 18 -42.5 33 -59.5 45l-50 35l-50.5 35c-17.333 12 -37.333 27 -60 45c-4.66699 2 -10 6 -16 12s-11.667 11.333 -17 16c-5.33301 0.666992 -10.333 1 -15 1
s-8.66699 0.666992 -12 2c-10.667 -0.666992 -15.334 3.66602 -14.001 12.999v3c0 4.66699 1.66699 8 5 10c3.33301 7.33301 7.33301 14.166 12 20.499s7.33398 10.166 8.00098 11.499l-2 6c-1.33301 3.33301 -1.33301 6.66602 0 9.99902s3 6.5 5 9.5s3.66699 6.33301 5 10
s1.66602 7.5 0.999023 11.5c3.33301 1.33301 8.33301 0.166016 15 -3.50098s14.667 -9.16699 24 -16.5c17.333 18 32.333 34.333 45 49l37 43.5l38 44l48 51.5c2 3.33301 5.66699 7.33301 11 12l15.5 14c5 4.66699 9 9 12 13s3.16699 7.66699 0.5 11
c-2 12.667 -0.5 19.334 4.5 20.001s11 -1.16602 18 -5.49902s13.833 -9.33301 20.5 -15s10.667 -8.83398 12 -9.50098l6 2c4 0.666992 7.5 0.166992 10.5 -1.5s6 -3.66699 9 -6s6.16699 -4.5 9.5 -6.5s7 -3 11 -3c0.666992 -6 -7.16602 -18.333 -23.499 -37
s-37.166 -40.334 -62.499 -65.001l-82 -78.5l-81 -78.5l94 -79.5c33.333 -29 65 -54.5 95 -76.5c2.66699 -2 7.33398 -4.66699 14.001 -8s13.667 -7.16602 21 -11.499s14.5 -9 21.5 -14s12.5 -9.83301 16.5 -14.5v-1z" />
    <glyph glyph-name="equal" unicode="=" horiz-adv-x="556" 
d="M518 180c-4.66699 -2 -10.666 -3 -17.999 -3s-14.666 0.5 -21.999 1.5s-14.166 2 -20.499 3s-11.166 1.83301 -14.499 2.5c-18.667 0 -41.167 -0.833008 -67.5 -2.5s-54.166 -3.33398 -83.499 -5.00098s-58.666 -3.5 -87.999 -5.5s-56.166 -3.33301 -80.499 -4
s-44.666 -0.666992 -60.999 0s-25.833 2.66699 -28.5 6c2 2.66699 2.83301 5.66699 2.5 9l-1 10.5c-0.333008 3.66699 -0.5 7 -0.5 10s1 5.5 3 7.5l3 4c0 1.33301 -0.833008 6 -2.5 14s-2.66699 15.833 -3 23.5s0.666992 12.834 3 15.501s8.16602 -0.333008 17.499 -9
c1.33301 -3.33301 4.16602 -5.33301 8.49902 -6s9.16602 -0.833984 14.499 -0.500977s10.666 1 15.999 2s9.66602 1.16699 12.999 0.5c23.333 0.666992 49.666 1 78.999 1h90c30.667 0 60.667 -0.166992 90 -0.5s55.666 0.166992 78.999 1.5
c3.33301 0 6.66602 -0.5 9.99902 -1.5s6.66602 -0.833008 9.99902 0.5c8 -3.33301 14 -4.16602 18 -2.49902s7.33301 3.66699 10 6s5.33398 4.16602 8.00098 5.49902s6 0.333008 10 -3c6 -5.33301 8.16699 -11.166 6.5 -17.499s-4 -13 -7 -20s-4.83301 -14.167 -5.5 -21.5
s3.33301 -14.333 12 -21v-1zM518.001 355c-3.33301 -3.33301 -12.999 -5.33105 -28.999 -5.99805s-36.167 -0.666992 -60.5 0s-51.166 2 -80.499 4l-88 6c-29.333 2 -57.333 3.66699 -84 5s-49 2.33301 -67 3c-3.33301 -0.666992 -8 -1.5 -14 -2.5s-12.667 -2 -20 -3
s-14.666 -1.5 -21.999 -1.5s-13.333 1 -18 3c8.66699 7.33301 12.667 14.666 12 21.999s-2.5 14.5 -5.5 21.5s-5.33301 13.667 -7 20s0.833008 12.166 7.5 17.499c4 3.33301 7.16699 4.16602 9.5 2.49902s4.83301 -3.66699 7.5 -6s6 -4.16602 10 -5.49902
s9.66699 -0.333008 17 3c3.33301 -2 6.66602 -2.5 9.99902 -1.5s6.66602 1.5 9.99902 1.5c23.333 -1.33301 49.666 -1.83301 78.999 -1.5s59.333 0.5 90 0.5h90c29.333 0 55.666 -0.666992 78.999 -2c3.33301 0.666992 7.83301 0.666992 13.5 0s11.167 -1.16699 16.5 -1.5
s10.166 -0.166016 14.499 0.500977s7.16602 2.66699 8.49902 6c8.66699 8.66699 14.334 11.667 17.001 9s3.83398 -7.83398 3.50098 -15.501s-1.5 -15.5 -3.5 -23.5s-3 -12.667 -3 -14l4 -4c2 -2 2.83301 -4.5 2.5 -7.5s-0.666016 -6.33301 -0.999023 -10l-1 -10.5
c-0.333008 -3.33301 0.5 -6.33301 2.5 -9z" />
    <glyph glyph-name="greater" unicode="&#x3e;" horiz-adv-x="448" 
d="M419 289c2 -9.33301 -2.33496 -14.001 -13.002 -14.001c-4 -1.33301 -8.33301 -2 -13 -2s-9.33398 -0.333008 -14.001 -1c-6 -4.66699 -12 -10 -18 -16s-11.667 -10.333 -17 -13c-22.667 -18 -42.5 -33 -59.5 -45l-50 -34.5l-50 -35l-59.5 -44.5
c-3.33301 -2.66699 -6.66602 -4.66699 -9.99902 -6s-6.33301 -4.33301 -9 -9c-9.33301 -2 -15.666 -5.33301 -18.999 -10s-5.83301 -9.16699 -7.5 -13.5s-3.33398 -8.16602 -5.00098 -11.499s-5.16699 -4.66602 -10.5 -3.99902c-8 0.666992 -12.5 5 -13.5 13
s-1.5 16.667 -1.5 26s-1.16699 18.166 -3.5 26.499s-9.16602 13.166 -20.499 14.499c4 5.33301 9.5 10.5 16.5 15.5s14.167 9.66699 21.5 14s14.333 8.16602 21 11.499s11.667 5.66602 15 6.99902c14.667 10.667 30 22.5 46 35.5l48 40l48 41l46 38.5l-53 52l-56 54l-54 52
c-17.333 16.667 -32.5 31.834 -45.5 45.501s-23.167 25.5 -30.5 35.5s-10.666 17 -9.99902 21c4 0 7.66699 1 11 3s6.5 4.16699 9.5 6.5s6 4.16602 9 5.49902s6.5 1.66602 10.5 0.999023l6 -1c1.33301 0.666992 5.33301 3.83398 12 9.50098s13.5 10.667 20.5 15s13 6 18 5
s6.5 -7.83301 4.5 -20.5c-2.66699 -2.66699 -2.5 -6.16699 0.5 -10.5s7 -8.66602 12 -12.999l15.5 -13.5c5.33301 -4.66699 9.33301 -8.66699 12 -12l48 -51.5l38 -43.5l36.5 -43c12.333 -14.667 27.166 -31 44.499 -49c9.33301 6.66699 17.333 11.834 24 15.501
s11.667 5.16699 15 4.5c-0.666992 -4 -0.166992 -7.83301 1.5 -11.5s3.5 -7.16699 5.5 -10.5s3.66699 -6.5 5 -9.5s1.33301 -6.5 0 -10.5l-3 -6c0.666992 -1.33301 3.33398 -5.16602 8.00098 -11.499s8.66699 -12.833 12 -19.5c3.33301 -2 5 -5.66699 5 -11v-2z" />
    <glyph glyph-name="question" unicode="?" horiz-adv-x="363" 
d="M211 32c-3.33301 -8.66699 -7.83398 -15.168 -13.501 -19.501s-11.834 -8.16602 -18.501 -11.499c-13.333 -2.66699 -25.166 -1.5 -35.499 3.5s-19.166 13.167 -26.499 24.5c-0.666992 4.66699 -1.5 9.66699 -2.5 15s-1.66699 10.833 -2 16.5
s-0.166016 10.834 0.500977 15.501s2.66699 8.33398 6 11.001c2.66699 12 8.5 20.667 17.5 26s17.5 10.666 25.5 15.999c9.33301 -1.33301 18.666 -3 27.999 -5s16.333 -9 21 -21c8 -9.33301 11 -20.833 9 -34.5s-5 -25.834 -9 -36.501zM331.999 561.999
c-0.666992 -2.66699 -0.669922 -6.50391 -0.00292969 -11.5039s0 -9.16699 -2 -12.5c-5.33301 -19.333 -12 -38 -20 -56s-15 -36.667 -21 -56c-0.666992 -4 -2.33398 -7.83301 -5.00098 -11.5s-5.5 -7.33398 -8.5 -11.001s-5.83301 -7.5 -8.5 -11.5
s-4.33398 -8.33301 -5.00098 -13c-11.333 -14.667 -21.5 -29.5 -30.5 -44.5s-16.167 -31.167 -21.5 -48.5c1.33301 -2 2.33301 -4 3 -6s2.66699 -3.66699 6 -5c14.667 -3.33301 26.334 -2.66602 35.001 2.00098s15.834 9.83398 21.501 15.501s10.667 9.83398 15 12.501
s9.16602 0.333984 14.499 -6.99902c-2 -14 -8.16699 -26 -18.5 -36s-22.5 -18.667 -36.5 -26c-15.333 -7.33301 -31 -13.333 -47 -18s-30.667 -8.66699 -44 -12c-15.333 1.33301 -28.666 7.83301 -39.999 19.5s-19.666 24.167 -24.999 37.5
c-5.33301 20.667 -6.5 39.834 -3.5 57.501s8.16699 35.167 15.5 52.5c6 14.667 13.333 28.834 22 42.501l25.5 41.5l24 42c7.66699 14 13.834 28.667 18.501 44c2.66699 8.66699 5.33398 18.334 8.00098 29.001s4 21.334 4 32.001s-1.83301 20.667 -5.5 30
s-10.5 17.666 -20.5 24.999c-8 3.33301 -16.333 5.5 -25 6.5s-16.667 -0.833008 -24 -5.5c-6.66699 -7.33301 -14.334 -14.166 -23.001 -20.499s-13.667 -14.166 -15 -23.499c2.66699 -4.66699 7 -5.33398 13 -2.00098c6.66699 -2.66699 13.5 -6 20.5 -10
s11.167 -9.66699 12.5 -17c2.66699 -7.33301 3.33398 -14.333 2.00098 -21s-3.83301 -13 -7.5 -19s-7.83398 -12 -12.501 -18s-9 -12 -13 -18c-10.667 -4 -21.334 -6 -32.001 -6s-20.667 2.66699 -30 8c-16 9.33301 -25.667 22.166 -29 38.499s-3.33301 33.166 0 50.499
c6.66699 13.333 14.834 26.833 24.501 40.5s20.834 26.167 33.501 37.5c14.667 13.333 30.667 24.166 48 32.499s36 12.833 56 13.5c18 0.666992 35.667 -1 53 -5s33.333 -10.667 48 -20c20 -10.667 36.667 -27 50 -49c8 -30 8 -60 0 -90z" />
    <glyph glyph-name="at" unicode="@" horiz-adv-x="624" 
d="M337 252c-0.666992 20.667 -2.33105 42.501 -4.99805 65.501s-2.33398 44.833 0.999023 65.5c-2.66699 4 -6.33398 5.33301 -11.001 4c-9.33301 13.333 -17.666 20.666 -24.999 21.999s-14.666 2 -21.999 2c-3.33301 -2.66699 -6.83301 -4.66699 -10.5 -6
s-7.33398 -3 -11.001 -5s-6.83398 -4.33301 -9.50098 -7s-4.33398 -6.66699 -5.00098 -12c-4 -8.66699 -6.5 -20.5 -7.5 -35.5s-0.833008 -30.667 0.5 -47s4 -32 8 -47s8.66699 -26.5 14 -34.5c5.33301 -4 10.5 -5 15.5 -3s10.833 2 17.5 0c10.667 2 19.834 7 27.501 15z
M599.003 436.001c-1.33301 -32 -5.8291 -64.3281 -13.4961 -96.9951s-19.167 -60.667 -34.5 -84c-15.333 -22.667 -31.666 -40.334 -48.999 -53.001s-37.333 -22.667 -60 -30c-6 -2 -13.167 -3 -21.5 -3s-17 0.666992 -26 2s-17.5 3.33301 -25.5 6s-14.667 5.66699 -20 9
c-2.66699 2 -5 4.83301 -7 8.5s-4.16699 6.83398 -6.5 9.50098s-4.83301 4.16699 -7.5 4.5s-6 -1.83398 -10 -6.50098c-15.333 -12 -31.833 -20 -49.5 -24s-35.834 -3.33301 -54.501 2c-19.333 5.33301 -38 15.666 -56 30.999s-29 34.666 -33 57.999l2.5 39.5
c1 15.667 3 31.167 6 46.5s7.33301 29.666 13 42.999s13.167 23 22.5 29c5.33301 2.66699 10.5 5.66699 15.5 9s10.833 5.33301 17.5 6c1.33301 1.33301 2.5 2.66602 3.5 3.99902s2.5 1.66602 4.5 0.999023c2 0.666992 5 0.833984 9 0.500977s7.66699 0.5 11 2.5
c15.333 2 32.333 0.5 51 -4.5s37.667 -13.5 57 -25.5c2 2.66699 1.33301 8 -2 16s-5 15.667 -5 23c1.33301 6.66699 7.16602 9.5 17.499 8.5s22 -3.33301 35 -7s25.333 -7.5 37 -11.5s19.5 -5.33301 23.5 -4l2 7c2 -4 1.33301 -6 -2 -6
c-3.33301 -20 -5.66602 -40.333 -6.99902 -61s-3 -41 -5 -61c2.66699 -4.66699 4.16699 -10.834 4.5 -18.501s0.5 -15.834 0.5 -24.501s0.5 -16.667 1.5 -24s3.83301 -12.666 8.5 -15.999c5.33301 -2.66699 11.166 -3.5 17.499 -2.5s12.5 2.66699 18.5 5
s11.333 5.16602 16 8.49902l11 8c7.33301 13.333 14 26.5 20 39.5s10 28.5 12 46.5s1.16699 40.167 -2.5 66.5s-11.5 59.5 -23.5 99.5c-2 8 -7.33301 18.167 -16 30.5s-19.5 24.833 -32.5 37.5s-27.833 24.334 -44.5 35.001s-34.667 18.667 -54 24
c-19.333 4.66699 -35.166 6 -47.499 4s-23.666 -5.66699 -33.999 -11s-21.333 -11.5 -33 -18.5s-26.834 -12.833 -45.501 -17.5c-28 -7.33301 -50.833 -24 -68.5 -50s-31.5 -58 -41.5 -96c-9.33301 -36 -15.333 -75.333 -18 -118s-2.33398 -85.334 0.999023 -128.001
c2 -29.333 11 -54.5 27 -75.5s35 -38.833 57 -53.5c21.333 -13.333 44 -23.333 68 -30s45.667 -10.334 65 -11.001c12.667 0 29.167 1.5 49.5 4.5s40.166 6.83301 59.499 11.5s36.5 9.16699 51.5 13.5s24.167 7.5 27.5 9.5c2.66699 2 5.66699 5.83301 9 11.5
s6.5 11.5 9.5 17.5s6 11.167 9 15.5s5.5 6.5 7.5 6.5c6 -0.666992 10 -1.66699 12 -3s3.16699 -3.5 3.5 -6.5s0 -7.5 -1 -13.5s-1.83301 -14 -2.5 -24c-1.33301 -10 -5.33301 -19.333 -12 -28s-14.334 -16.334 -23.001 -23.001c-10 -7.33301 -21 -14 -33 -20
c-16.667 -4 -33.667 -7.33301 -51 -10c-15.333 -3.33301 -32.666 -6.33301 -51.999 -9s-38.666 -4.66699 -57.999 -6s-38.333 -1.5 -57 -0.5s-36.667 4.16699 -54 9.5s-34.5 13 -51.5 23s-33.833 23 -50.5 39c-34.667 34.667 -57 81.334 -67 140.001
c-6.66699 36 -8.33398 75.333 -5.00098 118s10.666 88 21.999 136c18 72.667 44.667 126.334 80 161.001c23.333 23.333 50.166 39.333 80.499 48s63.5 13.667 99.5 15c40 1.33301 78.333 -2.16699 115 -10.5s68.667 -20.166 96 -35.499
c32.667 -18.667 55.667 -39.667 69 -63c6 -11.333 10.5 -28.166 13.5 -50.499s3.83301 -47.5 2.5 -75.5z" />
    <glyph glyph-name="A" unicode="A" horiz-adv-x="649" 
d="M376 315c-0.666992 6.66699 -2 14.333 -4 23l-6.5 27c-2.33301 9.33301 -4.33301 18.5 -6 27.5s-2.5 16.833 -2.5 23.5l-6.5 34.5c-3 15.667 -6.5 32 -10.5 49s-8 32.833 -12 47.5s-8 24.667 -12 30c-5.33301 -13.333 -12 -31.333 -20 -54l-24.5 -71.5l-23.5 -72
c-7.33301 -23 -13 -41.5 -17 -55.5zM625 3.99902c-6 -8.66699 -13.6719 -13.0049 -23.0049 -13.0049s-18 -1.66699 -26 -5l-225 4c-6.66699 7.33301 -13.167 13 -19.5 17s-7.16602 9.66699 -2.49902 17c4 4 9.83301 6.5 17.5 7.5s15.5 2.5 23.5 4.5s15.167 5.33301 21.5 10
s10.5 12.667 12.5 24c-4 16 -7.16699 32.833 -9.5 50.5s-4.33301 35.5 -6 53.5s-3.5 35.833 -5.5 53.5s-5.33301 34.5 -10 50.5c-7.33301 0.666992 -18 2 -32 4s-28.833 3.5 -44.5 4.5s-30.167 1.33301 -43.5 1s-23 -2.83301 -29 -7.5
c-8 -35.333 -17.167 -71.666 -27.5 -108.999s-21.166 -73 -32.499 -107c4 -4 10.833 -6.33301 20.5 -7s19.167 -1.66699 28.5 -3s17.333 -3.66602 24 -6.99902s9.33398 -10 8.00098 -20c-8.66699 -11.333 -20.334 -18.333 -35.001 -21s-28.334 -3.33398 -41.001 -2.00098
c-12 8 -24.333 12.5 -37 13.5s-25.334 0 -38.001 -3s-25.334 -6.66699 -38.001 -11s-25 -7.5 -37 -9.5c-4 12 -2.33301 23 5 33l22 29c27.333 1.33301 45.5 7.33301 54.5 18s15.167 26.334 18.5 47.001c25.333 78.667 48 158.334 68 239.001s41.667 160.667 65 240
c6 22 6 35.333 0 40s-14.167 5.66699 -24.5 3s-21.166 -6.66699 -32.499 -12s-19 -7.33301 -23 -6c-6.66699 -2.66699 -12.167 -1.33398 -16.5 3.99902s-6.83301 10.666 -7.5 15.999c2.66699 13.333 10.5 23.333 23.5 30s27.833 11.667 44.5 15s33.334 5.83301 50.001 7.5
s29.667 4.5 39 8.5l62 11.5c20.667 3.66699 39.334 12.834 56.001 27.501c2 -0.666992 4.5 -0.5 7.5 0.5s5.16699 -0.166992 6.5 -3.5c-3.33301 -7.33301 -4.66602 -14.5 -3.99902 -21.5s1.83398 -14.167 3.50098 -21.5s2.66699 -14.666 3 -21.999
s-1.83398 -14.666 -6.50098 -21.999c0 -18.667 2 -36.5 6 -53.5s8.5 -33.667 13.5 -50l15.5 -49.5c5.33301 -16.667 9 -34 11 -52c6.66699 -31.333 12.834 -63.833 18.501 -97.5l17.5 -101.5c6 -34 12.833 -67.333 20.5 -100s17.167 -63.667 28.5 -93
c4 -10 10.833 -16.5 20.5 -19.5s18.834 -5.16699 27.501 -6.5s15 -3.66602 19 -6.99902s2 -10.333 -6 -21z" />
    <glyph glyph-name="B" unicode="B" horiz-adv-x="533" 
d="M362 159c4 32 4.16602 64.5 0.499023 97.5s-9.5 61.5 -17.5 85.5c-3.33301 10.667 -9.66602 19 -18.999 25s-19.5 10.5 -30.5 13.5s-22 5 -33 6s-19.5 1.83301 -25.5 2.5c3.33301 -60.667 4 -121 2 -181s-1.33301 -119.333 2 -178c2 0 6.66699 0.166992 14 0.5l23 1
c8 0.333008 15.5 1 22.5 2s11.167 1.83301 12.5 2.5c14 14.667 24.833 32.667 32.5 54s13.167 44.333 16.5 69zM362.999 549c0.666992 11.333 1.00293 23.4961 1.00293 36.4961s-0.833008 25.833 -2.5 38.5s-4.16699 24.834 -7.5 36.501s-7.66602 22.5 -12.999 32.5
c-3.33301 2.66699 -10.5 5.33398 -21.5 8.00098s-22.667 4.83398 -35 6.50098s-23.833 1.83398 -34.5 0.500977s-17.334 -4.66602 -20.001 -9.99902c3.33301 -38.667 4.66602 -79.334 3.99902 -122.001s-0.333984 -83 0.999023 -121l79 2c9.33301 2 16.666 6.5 21.999 13.5
s9.5 15 12.5 24s5.5 18.333 7.5 28s4 18.5 6 26.5h1zM507.002 251.996c2 -9.33301 2.5 -18.001 1.5 -26.001s-2.16699 -15.833 -3.5 -23.5s-2.5 -15.167 -3.5 -22.5s-0.5 -14.666 1.5 -21.999c-4.66699 -14 -10.167 -28.833 -16.5 -44.5s-14 -30.5 -23 -44.5
s-19.167 -26.5 -30.5 -37.5s-24.333 -19.167 -39 -24.5l-116 -14.5c-44 -5.66699 -87.333 -9.83398 -130 -12.501c-21.333 -1.33301 -41.666 -1.83301 -60.999 -1.5s-36.666 1.16602 -51.999 2.49902c-4.66699 0.666992 -8.66699 2.83398 -12 6.50098l-10 10.5
c-2 4.66699 -1.33301 8.16699 2 10.5s7.66602 4.16602 12.999 5.49902s11 2.5 17 3.5s10 2.5 12 4.5c7.33301 2.66699 15.166 4.66699 23.499 6s15.5 5.66602 21.5 12.999c2.66699 3.33301 4.33398 7.83301 5.00098 13.5s1.33398 12.834 2.00098 21.501
c8 98 11.167 195.333 9.5 292s-8.5 193.667 -20.5 291c0.666992 9.33301 -0.166016 16.833 -2.49902 22.5s-5.5 10.167 -9.5 13.5c-8.66699 8 -19.334 12.333 -32.001 13s-22.334 2.33398 -29.001 5.00098c-2 0.666992 -4.83301 1.5 -8.5 2.5s-7 2.33301 -10 4
s-5.33301 3.33398 -7 5.00098s-1.5 3.83398 0.5 6.50098s6.16699 5.33398 12.5 8.00098s15.833 5.66699 28.5 9c26.667 -2 54.667 -2.66699 84 -2s59 1.83398 89 3.50098s59.167 3.16699 87.5 4.5s54.833 1.66602 79.5 0.999023c21.333 -4.66699 41.833 -14.667 61.5 -30
s33.834 -33.666 42.501 -54.999c27.333 -52.667 29.666 -104.334 6.99902 -155.001c-2 -8 -6 -16 -12 -24s-12.667 -15.333 -20 -22s-15.333 -12.334 -24 -17.001s-17 -7.66699 -25 -9c13.333 -10 25.166 -22.833 35.499 -38.5s19.333 -32.334 27 -50.001
s14.167 -35.5 19.5 -53.5z" />
    <glyph glyph-name="C" unicode="C" horiz-adv-x="501" 
d="M472 755c-1.33301 -17.333 -3.66309 -36.668 -6.99609 -58.001s-5.83301 -45 -7.5 -71s-2.16699 -54.333 -1.5 -85s4.33398 -64 11.001 -100l-15 -32c-12 0.666992 -20.5 8 -25.5 22s-8.66699 31.333 -11 52s-4.5 42.5 -6.5 65.5s-5.66699 43.5 -11 61.5
c-5.33301 9.33301 -13.333 17.333 -24 24s-22.334 12.334 -35.001 17.001s-25.334 8 -38.001 10s-24 2.66699 -34 2c-13.333 -2 -26.166 -5.33301 -38.499 -10s-22.833 -13.334 -31.5 -26.001c-3.33301 -16.667 -6.83301 -33 -10.5 -49s-5.83398 -33 -6.50098 -51
c-1.33301 -34.667 -2.5 -68.834 -3.5 -102.501s-1 -67.167 0 -100.5s3.66699 -66.666 8 -99.999s11.166 -67 20.499 -101c6.66699 -10.667 15 -20.5 25 -29.5s20.333 -14.167 31 -15.5c16 -2.66699 31.167 -3.5 45.5 -2.5s28.166 5.83301 41.499 14.5s26.833 22.5 40.5 41.5
s27.834 45.167 42.501 78.5l30 -1c-2 -22 -7 -43.333 -15 -64s-17.333 -39.667 -28 -57s-22 -32.333 -34 -45s-23 -22.334 -33 -29.001c-20 -4 -41.5 -8.66699 -64.5 -14s-46 -8.5 -69 -9.5s-45 1.33301 -66 7s-39.167 17.834 -54.5 36.501c-14 22 -26 45.167 -36 69.5
s-18.333 49.333 -25 75s-11.834 51.5 -15.501 77.5s-6.16699 51.667 -7.5 77c-1.33301 26 -0.666016 54.167 2.00098 84.5s7.16699 59.833 13.5 88.5s14.166 55 23.499 79s19.666 42.667 30.999 56c21.333 36 49.166 61.167 83.499 75.5s71.5 20.166 111.5 17.499
c16.667 -3.33301 33 -11 49 -23l45 -35c14 4 23.5 10.833 28.5 20.5s8.83301 19.167 11.5 28.5c1.33301 4.66699 4 10 8 16s8.83301 10.833 14.5 14.5s11.834 5.83398 18.501 6.50098s13 -1.66602 19 -6.99902z" />
    <glyph glyph-name="D" unicode="D" horiz-adv-x="572" 
d="M408 364c0 23.333 -1.83301 49 -5.5 77s-8.5 56.333 -14.5 85s-13.167 56.5 -21.5 83.5s-16.833 51.167 -25.5 72.5c-3.33301 4.66699 -8.16602 7.33398 -14.499 8.00098s-13 0.5 -20 -0.5s-14 -2.33301 -21 -4s-13.167 -2.16699 -18.5 -1.5
c-8 0.666992 -16 0.5 -24 -0.5s-13.333 -3.5 -16 -7.5c2 -49.333 3.33301 -100.333 4 -153l2 -160c0.666992 -54 1.5 -107.667 2.5 -161s3.16699 -104.666 6.5 -153.999c4 0 10.5 0.166992 19.5 0.5s18.167 1.16602 27.5 2.49902s18.166 3 26.499 5s13.833 4.33301 16.5 7
c14.667 20.667 26 43.5 34 68.5s14.333 50.833 19 77.5s8.5 53.167 11.5 79.5s6.83301 51.166 11.5 74.499v1zM552 426c-2 -4 -3.00195 -8.83496 -3.00195 -14.502s0.333008 -11.5 1 -17.5s1.16699 -12 1.5 -18s-0.5 -11.333 -2.5 -16c1.33301 -32 -2.5 -61.667 -11.5 -89
s-19.833 -54.333 -32.5 -81v-13c-8 -18 -17.333 -36.667 -28 -56s-23 -37.333 -37 -54s-29.667 -30.667 -47 -42s-36.666 -18 -57.999 -20c-48 -4.66699 -98.5 -8.33398 -151.5 -11.001s-104.5 -4.33398 -154.5 -5.00098c-1.33301 2.66699 -3.33301 5.33398 -6 8.00098
s-4.83398 5.5 -6.50098 8.5s-2.33398 6 -2.00098 9s2.5 6.16699 6.5 9.5c5.33301 11.333 12.833 17 22.5 17s19.5 0.166992 29.5 0.5s19.167 3.83301 27.5 10.5s13.5 22.334 15.5 47.001c-3.33301 36.667 -5 74 -5 112s0.333008 76.333 1 115s1 77.167 1 115.5
s-1.33301 76.5 -4 114.5c1.33301 8.66699 2 16.834 2 24.501s-0.333008 15.334 -1 23.001l-2 23.5c-0.666992 8 -1 16.667 -1 26c-3.33301 13.333 -9.66602 22.333 -18.999 27s-18.666 8.33398 -27.999 11.001s-17.333 5.66699 -24 9s-9 10.666 -7 21.999l10 14
c29.333 -2.66699 61.333 -2.66699 96 0s69.334 4.5 104.001 5.5s68.334 -1 101.001 -6s62 -16.5 88 -34.5c26 -14 46.833 -31.333 62.5 -52s27.667 -43.167 36 -67.5s14.166 -50 17.499 -77s6 -53.5 8 -79.5v1z" />
    <glyph glyph-name="E" unicode="E" horiz-adv-x="552" 
d="M526 740c-2.66699 -32 -8.16895 -62.3281 -16.502 -90.9951s-17.5 -57.334 -27.5 -86.001c-8 -9.33301 -17.167 -13.166 -27.5 -11.499s-18.166 8.16699 -23.499 19.5c0.666992 6 2.16699 12.667 4.5 20s4 14.666 5 21.999s0.666992 14 -1 20s-5.5 11 -11.5 15
c-4 -6.66699 -8.66699 -8.66699 -14 -6s-10.666 4.66699 -15.999 6c-14.667 -2.66699 -29.334 -4.16699 -44.001 -4.5s-29.167 -0.5 -43.5 -0.5s-28.666 -0.833008 -42.999 -2.5s-28.166 -4.83398 -41.499 -9.50098c0.666992 -16 1.16699 -35.667 1.5 -59s1 -47.5 2 -72.5
l3 -73c1 -23.667 2.16699 -43.834 3.5 -60.501c2.66699 -4 8 -6 16 -6s16.667 0.5 26 1.5s18.166 2.33301 26.499 4s14.166 2.5 17.499 2.5c10 2 18.667 8.33301 26 19c4.66699 6.66699 8.66699 14 12 22s6.66602 15.333 9.99902 22s6.66602 12 9.99902 16
s7.33301 5.66699 12 5c5.33301 -9.33301 7.66602 -20.166 6.99902 -32.499s-2.66699 -25.166 -6 -38.499s-7 -26.166 -11 -38.499s-6.33301 -22.833 -7 -31.5c-1.33301 -6 -2.16602 -12.5 -2.49902 -19.5l-1 -21c-0.333008 -7 -1.5 -13.667 -3.5 -20
s-5.66699 -11.833 -11 -16.5c-9.33301 -4.66699 -15.333 -3.83398 -18 2.49902s-5 14.166 -7 23.499s-5.33301 18.666 -10 27.999s-14 15 -28 17l-59 -7l1 -212c8.66699 -3.33301 17.834 -5.16602 27.501 -5.49902s19.334 -0.333008 29.001 0s19.334 0.5 29.001 0.5
s19.5 -1 29.5 -3c6 0.666992 13 0.833984 21 0.500977s16 -0.5 24 -0.5s15.833 0.666992 23.5 2s14.834 3.66602 21.501 6.99902c2.66699 8 6.16699 14.833 10.5 20.5l14 17.5c5 6 10 12.667 15 20s9.83301 17 14.5 29c5.33301 0.666992 10.333 0.666992 15 0
s8.66699 -3.66699 12 -9c3.33301 -8.66699 4 -16.834 2 -24.501s-4.83301 -15 -8.5 -22s-7.66699 -14.167 -12 -21.5s-7.5 -15 -9.5 -23c-3.33301 -15.333 -8.33301 -29.833 -15 -43.5s-11 -28.167 -13 -43.5c-6 -7.33301 -11 -14.833 -15 -22.5s-11 -12.167 -21 -13.5
c-9.33301 4.66699 -14.666 10.5 -15.999 17.5s-1.83301 14.167 -1.5 21.5s0.166016 14.333 -0.500977 21s-5 12.334 -13 17.001c-34 1.33301 -66.333 0.333008 -97 -3s-60.834 -7 -90.501 -11s-59.667 -7.83301 -90 -11.5s-62.166 -5.5 -95.499 -5.5
c-1.33301 0.666992 -3 1.66699 -5 3s-3.83301 2.83301 -5.5 4.5s-2.5 3.66699 -2.5 6s1.33301 4.83301 4 7.5c2.66699 4 6.16699 6.66699 10.5 8s9 2.16602 14 2.49902l15 1c5 0.333008 9.5 1.5 13.5 3.5c5.33301 2.66699 10 7.66699 14 15s6.33301 19.333 7 36l7.5 266.5
c2.33301 86.333 1.5 174.166 -2.5 263.499c-2.66699 6 -4 12.667 -4 20v21.5c0 7 -0.666992 13.833 -2 20.5s-4.33301 12.334 -9 17.001c-10 5.33301 -19.5 7.66602 -28.5 6.99902s-17 -2.33398 -24 -5.00098s-12.833 -5 -17.5 -7s-8 -1.33301 -10 2
c-0.666992 4 2 8.83301 8 14.5s13 11.167 21 16.5s15.833 10.166 23.5 14.499l16.5 9.5c8 2.66699 15.5 3.83398 22.5 3.50098s13.833 -1.16602 20.5 -2.49902c8.66699 -2.66699 17.167 -6 25.5 -10l25.5 -12c8.66699 -4 17.5 -7.33301 26.5 -10
s19.167 -3.33398 30.5 -2.00098c25.333 2.66699 49.666 2 72.999 -2s46.333 -5.66699 69 -5c21.333 0 42.5 3 63.5 9s41.833 17.667 62.5 35c2.66699 -0.666992 6 -0.666992 10 0s7.66699 1 11 1s6.33301 -0.5 9 -1.5s4.66699 -3.83301 6 -8.5h1z" />
    <glyph glyph-name="F" unicode="F" horiz-adv-x="529" 
d="M519 754c-4 -10.667 -6.99805 -24.4922 -8.99805 -41.4922s-3.5 -35.333 -4.5 -55l-3 -61.5c-1 -21.333 -2.83301 -41.333 -5.5 -60s-6.5 -35.334 -11.5 -50.001s-12.167 -25.667 -21.5 -33c-8 4 -13.333 11.833 -16 23.5s-4.16699 25.5 -4.5 41.5s-0.333008 33 0 51
s-0.333984 35.167 -2.00098 51.5s-5.33398 30.833 -11.001 43.5s-14.5 21.667 -26.5 27c-18.667 -2.66699 -32 -3.83398 -40 -3.50098s-14.833 0.666016 -20.5 0.999023s-12.334 0 -20.001 -1s-20.834 -3.83301 -39.501 -8.5l-9 -10c2 -20.667 2 -44.834 0 -72.501l-6 -85
c-2 -29 -3.16699 -57.167 -3.5 -84.5s2.16699 -51 7.5 -71c2.66699 -6.66699 6.16699 -10.334 10.5 -11.001s8.83301 -0.166992 13.5 1.5s9.5 3.5 14.5 5.5s9.16699 2.66699 12.5 2c10 5.33301 16.5 14.5 19.5 27.5s5.5 25.5 7.5 37.5s5.33301 21.833 10 29.5
s13.667 9.16699 27 4.5c6.66699 -2 9.5 -10.5 8.5 -25.5s-3.33301 -32.667 -7 -53s-7.16699 -41.5 -10.5 -63.5s-4.33301 -41.333 -3 -58c-3.33301 -5.33301 -7.33301 -9.5 -12 -12.5s-10.334 -3.83301 -17.001 -2.5c-4 3.33301 -6.66699 7.5 -8 12.5
s-2.33301 10.167 -3 15.5s-1.66699 10.5 -3 15.5s-4 9.5 -8 13.5c-9.33301 0 -20.5 0.333008 -33.5 1s-22.833 -2.33301 -29.5 -9c3.33301 -22.667 5.33301 -42.834 6 -60.501s1 -34.5 1 -50.5s0.166992 -31.833 0.5 -47.5s1.83301 -32.834 4.5 -51.501
c1.33301 -8 3.66602 -14.833 6.99902 -20.5s9.33301 -9.5 18 -11.5c9.33301 1.33301 18.333 0.833008 27 -1.5s14.667 -7.83301 18 -16.5c2 -4.66699 2.5 -9 1.5 -13s-3 -7.5 -6 -10.5s-6.5 -5.66699 -10.5 -8s-7.66699 -4.16602 -11 -5.49902
c-25.333 -5.33301 -49.333 -6.33301 -72 -3s-45.167 7.33301 -67.5 12s-44.666 8 -66.999 10s-45.5 -1 -69.5 -9l-24 4l4 16c5.33301 12.667 14.333 22.834 27 30.501l36 22.5c11.333 7.33301 19.833 16.166 25.5 26.499s3.83398 24.833 -5.49902 43.5
c-0.666992 47.333 -1.16699 96.666 -1.5 147.999s-2.16602 102 -5.49902 152l7 35c0.666992 15.333 0.166992 31.166 -1.5 47.499s-3.16699 32.833 -4.5 49.5s-2.16602 33.167 -2.49902 49.5s1.16699 31.833 4.5 46.5c-1.33301 8.66699 -7.66602 13.667 -18.999 15
s-23.333 2.16602 -36 2.49902s-23.5 2.16602 -32.5 5.49902s-11.5 11 -7.5 23l68 17c32.667 8 60.167 11.833 82.5 11.5s44.166 -2.16602 65.499 -5.49902s44.333 -6.16602 69 -8.49902s55.667 -1.5 93 2.5c12 6 23.167 8.5 33.5 7.5s19.833 -1.5 28.5 -1.5
s16.667 2.5 24 7.5s14 16.5 20 34.5c4 2.66699 8.83301 4 14.5 4s10.5 -1.66699 14.5 -5v-27z" />
    <glyph glyph-name="G" unicode="G" horiz-adv-x="560" 
d="M535 431c4 -10 4.00781 -19.1689 0.0078125 -27.502s-9.33301 -16.333 -16 -24s-13 -15.667 -19 -24s-9 -17.5 -9 -27.5c1.33301 -52.667 1 -105.334 -1 -158.001s-3.66699 -105 -5 -157c-5.33301 -8.66699 -12.166 -14.334 -20.499 -17.001s-17 -4.33398 -26 -5.00098
s-18.167 -1.16699 -27.5 -1.5s-18 -2.5 -26 -6.5c-26 -2 -52.5 -3.33301 -79.5 -4s-53 1.66602 -78 6.99902s-48.333 14.833 -70 28.5s-40.834 33.834 -57.501 60.501c-20 33.333 -35.333 69 -46 107s-20.334 77 -29.001 117c-5.33301 26 -7.33301 50.5 -6 73.5
s4.16602 45.5 8.49902 67.5s9.16602 43.833 14.499 65.5s9 44.167 11 67.5c8.66699 12 16.167 25.167 22.5 39.5s12.833 28.166 19.5 41.499s14.334 25.833 23.001 37.5s20 21.167 34 28.5c17.333 14 37.166 24.5 59.499 31.5s45.166 11 68.499 12s46.333 -0.666992 69 -5
s43.667 -10.833 63 -19.5c5.33301 -7.33301 11.666 -12.166 18.999 -14.499s14.666 -4.16602 21.999 -5.49902c3.33301 4 6.33301 8.83301 9 14.5s5.33398 11 8.00098 16s6 9 10 12s9.33301 4.16699 16 3.5c5.33301 -8.66699 6.83301 -19.5 4.5 -32.5
s-3.16602 -25.5 -2.49902 -37.5c-2 -13.333 -2.83301 -27.166 -2.5 -41.499s0.5 -28.666 0.5 -42.999s-1 -28.166 -3 -41.499s-6.33301 -26 -13 -38c-8 7.33301 -14.5 16.166 -19.5 26.499s-9.83301 20.833 -14.5 31.5l-14 32c-4.66699 10.667 -11 20.334 -19 29.001
c-12.667 14 -25.834 24.667 -39.501 32s-27.834 13 -42.501 17c-28 -8.66699 -51.167 -24 -69.5 -46s-32.166 -47.333 -41.499 -76c-16.667 -70.667 -23.5 -143.667 -20.5 -219s9.83301 -150.666 20.5 -225.999c6 -13.333 12.833 -26.833 20.5 -40.5
s18.167 -24.167 31.5 -31.5c11.333 -1.33301 21.833 2.83398 31.5 12.501s17.167 19.5 22.5 29.5c4.66699 84.667 4.66699 171.667 0 261c-4 4.66699 -7.83301 7.66699 -11.5 9s-7.33398 2.33301 -11.001 3s-7.33398 1.5 -11.001 2.5s-7.5 3.83301 -11.5 8.5
c-1.33301 8.66699 -1.83301 17.167 -1.5 25.5s4.5 15.166 12.5 20.499c21.333 1.33301 42 1.83301 62 1.5s39.833 -1 59.5 -2s39.667 -1.83301 60 -2.5s41.166 0 62.499 2h-1z" />
    <glyph glyph-name="H" unicode="H" horiz-adv-x="602" 
d="M595 711c-0.666992 -13.333 -3.50293 -22.832 -8.50293 -28.499s-11.167 -9.5 -18.5 -11.5s-15 -3.33301 -23 -4s-15.333 -2.33398 -22 -5.00098s-11.834 -7.5 -15.501 -14.5s-4.5 -18.167 -2.5 -33.5c-1.33301 -99.333 -3 -197 -5 -293s-2.33301 -195.333 -1 -298
c2 -5.33301 4.5 -8.83301 7.5 -10.5s6.16699 -3 9.5 -4s6.5 -2.33301 9.5 -4s5.5 -5.16699 7.5 -10.5c2 -17.333 -2.33301 -30.666 -13 -39.999c-16.667 2.66699 -33.5 5.66699 -50.5 9s-34 6 -51 8s-34 2.83301 -51 2.5s-33.833 -2.83301 -50.5 -7.5
c-6.66699 5.33301 -8.5 11.166 -5.5 17.499s4.5 12.5 4.5 18.5c1.33301 7.33301 4.16602 12 8.49902 14s9 3.5 14 4.5s9.66699 2.16699 14 3.5s7.5 5 9.5 11c0.666992 25.333 1.33398 45.333 2.00098 60s1 28 1 40s-0.5 25 -1.5 39s-2.83301 32.667 -5.5 56
c-8 4.66699 -17.333 7.16699 -28 7.5s-21.667 0.166016 -33 -0.500977l-33 -2c-10.667 -0.666992 -19.667 0.333008 -27 3l-9 -12c-2.66699 -24 -4.16699 -42.333 -4.5 -55s-0.333008 -24.334 0 -35.001s0.5 -22.5 0.5 -35.5s-1 -32.5 -3 -58.5
c2.66699 -6.66699 6.83398 -10.667 12.501 -12s10.834 -2.5 15.501 -3.5s8.33398 -3.33301 11.001 -7s3 -10.834 1 -21.501c-6.66699 -8 -15 -13 -25 -15s-20.5 -2.5 -31.5 -1.5s-21.833 2.83301 -32.5 5.5s-20 4.66699 -28 6
c-6.66699 2.66699 -15.834 3.33398 -27.501 2.00098s-23.667 -3 -36 -5s-24.5 -3 -36.5 -3s-21.333 3 -28 9c-1.33301 14 0.833984 24.833 6.50098 32.5s13.167 13.834 22.5 18.501c7.33301 -5.33301 13 -7.16602 17 -5.49902s7.16699 4.83398 9.5 9.50098
s4 9.83398 5 15.501s2.16699 10.167 3.5 13.5c4 30 5.83301 60.167 5.5 90.5s-1.16602 60.833 -2.49902 91.5s-2.5 61.167 -3.5 91.5s-0.833008 60.166 0.5 89.499l9 190c-3.33301 5.33301 -4.5 11.333 -3.5 18s0.5 12.667 -1.5 18c-4 7.33301 -9.66699 12 -17 14
s-14.5 3.83301 -21.5 5.5s-12.833 4.5 -17.5 8.5s-6.33398 12 -5.00098 24l16 21c16 -3.33301 35.333 -4.16602 58 -2.49902s46.167 3.5 70.5 5.5s47.666 3.16699 69.999 3.5s41.166 -2.5 56.499 -8.5l6 -13c0 -10 -3.5 -19 -10.5 -27s-14.167 -13.667 -21.5 -17
c-21.333 7.33301 -34.666 6.66602 -39.999 -2.00098s-7.66602 -20.834 -6.99902 -36.501s2 -32.167 4 -49.5s-0.333008 -31 -7 -41c-2 -23.333 -2.66699 -49.5 -2 -78.5s1.66699 -56.167 3 -81.5c2 -30 4.33301 -60 7 -90c6.66699 0 16.834 -0.666992 30.501 -2
s27.834 -2.5 42.501 -3.5s28.667 -1 42 0s23 3.5 29 7.5c3.33301 20 5.66602 45.833 6.99902 77.5s1.83301 64.334 1.5 98.001s-1.33301 66.334 -3 98.001s-3.83398 58.167 -6.50098 79.5c-5.33301 5.33301 -11.5 9.33301 -18.5 12s-12.833 8 -17.5 16
c-2 8.66699 -0.5 16 4.5 22s10.167 10.667 15.5 14c12 -1.33301 24.667 -1.5 38 -0.5l39.5 3c13 1 26 1.5 39 1.5s25.5 -1.33301 37.5 -4c8 -0.666992 16 -0.833984 24 -0.500977s15.667 0.5 23 0.5s14.333 -0.833008 21 -2.5s13.334 -4.83398 20.001 -9.50098z" />
    <glyph glyph-name="I" unicode="I" horiz-adv-x="328" 
d="M309 718c3.33301 -8.66699 3.16992 -15.0068 -0.49707 -19.0068s-9.16699 -7.66699 -16.5 -11l-25 -11c-9.33301 -4 -18 -10 -26 -18c-6 -1.33301 -10.333 -4.83301 -13 -10.5s-4.5 -12.167 -5.5 -19.5s-1.66699 -14.833 -2 -22.5s-1.16602 -14.5 -2.49902 -20.5
c0 -42 -0.166992 -82.167 -0.5 -120.5l-1 -114l-1 -114.5c-0.333008 -38.667 -0.5 -79 -0.5 -121c0 -5.33301 -1 -10.833 -3 -16.5s-1.33301 -11.167 2 -16.5c4 -8 9.33301 -13.667 16 -17s13.667 -5.5 21 -6.5s15 -1.5 23 -1.5s15 -0.333008 21 -1
c8 -0.666992 14.167 -2.83398 18.5 -6.50098s5.16602 -11.167 2.49902 -22.5c-12.667 -12 -27.334 -20 -44.001 -24c-12.667 -3.33301 -25.667 -3.33301 -39 0c-16 4 -35 9.16699 -57 15.5s-43.667 9.5 -65 9.5c-14 0 -27.333 -2.16699 -40 -6.5
s-23.667 -12.166 -33 -23.499c-4.66699 -1.33301 -8.83398 -1.5 -12.501 -0.5s-6.66699 2.66699 -9 5s-4 5 -5 8s-1.5 5.5 -1.5 7.5c0.666992 7.33301 5.16699 16 13.5 26s16.166 16.667 23.499 20c6 2.66699 12.333 5.33398 19 8.00098s12.667 6.33398 18 11.001
s9.5 10.834 12.5 18.501s3.83301 17.834 2.5 30.501c1.33301 48.667 3 92.834 5 132.501s3.66699 78.334 5 116.001s2.16602 76.667 2.49902 117s-0.5 85.5 -2.5 135.5c0 13.333 -2.66699 23.5 -8 30.5s-11.833 12.333 -19.5 16s-15.667 5.83398 -24 6.50098
s-15.833 1.33398 -22.5 2.00098c-5.33301 0.666992 -9.66602 3.16699 -12.999 7.5s-5.66602 9.16602 -6.99902 14.499l9 12.5c2.66699 3.66699 6.66699 6.5 12 8.5c10 4 19.833 5.33301 29.5 4s18.167 -2.66602 25.5 -3.99902c13.333 -3.33301 28.666 -6.33301 45.999 -9
s31 -4.33398 41 -5.00098s20.5 -0.166992 31.5 1.5s22 3 33 4s22.167 1.33301 33.5 1s22.333 -2.5 33 -6.5z" />
    <glyph glyph-name="J" unicode="J" horiz-adv-x="428" 
d="M420 689c-4 -9.33301 -9.16895 -14.9932 -15.502 -16.9932s-12.666 -3.5 -18.999 -4.5s-12.166 -3.33301 -17.499 -7s-8.33301 -11.834 -9 -24.501c-3.33301 -52 -5.33301 -103.167 -6 -153.5s-1.16699 -100.333 -1.5 -150s-1.83301 -99.5 -4.5 -149.5
s-7.66699 -100.333 -15 -151c-9.33301 -23.333 -21.166 -41.833 -35.499 -55.5s-30 -23.5 -47 -29.5s-34.333 -9.33301 -52 -10s-34.834 0.333008 -51.501 3c-12 2 -24.833 6.16699 -38.5 12.5s-26.167 15 -37.5 26s-20.666 24.167 -27.999 39.5s-11.333 32.666 -12 51.999
c-0.666992 28.667 4.16602 56.5 14.499 83.5s26.166 46.167 47.499 57.5c14 7.33301 27.333 7.33301 40 0s24.667 -17.333 36 -30c6 -6.66699 10.5 -14.5 13.5 -23.5s4.66699 -18.167 5 -27.5s-0.333984 -18.333 -2.00098 -27s-4.16699 -16 -7.5 -22
c-5.33301 -9.33301 -10.166 -20.333 -14.499 -33s-4.5 -24.334 -0.5 -35.001c2 -4.66699 7.66699 -8.83398 17 -12.501s18 -3.83398 26 -0.500977c5.33301 2 10.5 6.16699 15.5 12.5s8.16699 13.166 9.5 20.499c1.33301 5.33301 0.333008 10.833 -3 16.5
s-4.33301 10.167 -3 13.5c7.33301 42 11.166 85 11.499 129s-0.333984 88.5 -2.00098 133.5s-3.16699 90.167 -4.5 135.5s0 90.666 4 135.999c-0.666992 14 -2.66699 28 -6 42s-10.666 23 -21.999 27c-11.333 1.33301 -22.166 3.83301 -32.499 7.5
s-19.166 12.834 -26.499 27.501c-3.33301 6 -5.66602 13.167 -6.99902 21.5s2.66699 12.833 12 13.5c18 -5.33301 36 -8.66602 54 -9.99902s36.167 -2 54.5 -2s36.666 0.166992 54.999 0.5s36.5 0.166016 54.5 -0.500977c6 6.66699 13.167 9.66699 21.5 9
s16.166 -0.333984 23.499 0.999023c9.33301 -3.33301 13.333 -9.83301 12 -19.5s-3.66602 -18.167 -6.99902 -25.5h1z" />
    <glyph glyph-name="K" unicode="K" horiz-adv-x="584" 
d="M567 118c2 -2 0.342773 -7.48926 -4.99023 -16.4893s-11.666 -18.5 -18.999 -28.5c-6.66699 -8.66699 -13.334 -16.334 -20.001 -23.001s-12 -10.667 -16 -12c-6.66699 -2 -15.167 -5.16699 -25.5 -9.5l-33.5 -14l-36.5 -15l-35.5 -14.5
c-12.667 -5.33301 -23.834 -9.5 -33.501 -12.5s-16.5 -4.5 -20.5 -4.5c-4.66699 0 -7 1.66699 -7 5v12c0 4.66699 1.33301 9.66699 4 15c2 5.33301 4.83301 10.666 8.5 15.999s5.5 10.666 5.5 15.999c0 15.333 -2.66699 30.5 -8 45.5s-12.666 28.5 -21.999 40.5l-10 37.5
c-4 15 -8.66699 31.167 -14 48.5s-11.166 35 -17.499 53s-13.166 34.667 -20.499 50s-15 28.833 -23 40.5s-16.667 20.167 -26 25.5c-5.33301 -26 -8.33301 -52.833 -9 -80.5s-1 -54.834 -1 -81.501s0.333008 -53.167 1 -79.5s1 -52.833 1 -79.5c2.66699 -4 7.5 -7 14.5 -9
s14.167 -4.16699 21.5 -6.5s14.166 -5 20.499 -8s10.5 -7.16699 12.5 -12.5c-0.666992 -14.667 -5.33398 -24 -14.001 -28s-19 -6 -31 -6c-13.333 0 -26.5 1.33301 -39.5 4s-26.167 4 -39.5 4c-19.333 0 -38.333 -1.33301 -57 -4s-37.667 -5 -57 -7l-4 12
c-1.33301 4 -2 8 -2 12c0 7.33301 2.33301 13.333 7 18s10 8.83398 16 12.501l17.5 11c5.66699 3.66699 9.5 8.5 11.5 14.5c2 4.66699 3.5 14.5 4.5 29.5s1.83301 31 2.5 48s1.16699 33.167 1.5 48.5s0.5 26.333 0.5 33c0 34 -0.833008 68 -2.5 102s-2.5 68 -2.5 102
c0 35.333 0.833008 70.166 2.5 104.499s2.5 69.166 2.5 104.499c0 12 -1.33301 23 -4 33c-2.66699 11.333 -7.33398 19.166 -14.001 23.499s-13.5 7.5 -20.5 9.5s-13.167 3.5 -18.5 4.5s-8 3.5 -8 7.5c0 2 0.666992 4.33301 2 7c4.66699 5.33301 10.167 9.16602 16.5 11.499
s12.833 3.5 19.5 3.5c12 0 23.833 -1.66699 35.5 -5s23.5 -5 35.5 -5c6.66699 0 14 1.66699 22 5c15.333 6 31 9.16699 47 9.5s31.667 3.5 47 9.5c6 -2 11.667 -4.16699 17 -6.5s10 -6.16602 14 -11.499c0 -10.667 -2.83301 -17.834 -8.5 -21.501
s-12.334 -6.33398 -20.001 -8.00098s-15 -3.83398 -22 -6.50098s-11.833 -8 -14.5 -16c0 -5.33301 0.166992 -10.166 0.5 -14.499s0.5 -8.83301 0.5 -13.5c0 -15.333 -0.5 -29 -1.5 -41l-3 -35l-3 -35c-1 -12 -1.5 -25.333 -1.5 -40c0 -18.667 1.33301 -35.667 4 -51
c1.33301 -1.33301 3.33301 -2 6 -2c11.333 0 23.666 3.33301 36.999 10s24.666 13 33.999 19c27.333 18 50.166 40.5 68.499 67.5s35.833 55.167 52.5 84.5c0.666992 0.666992 1.5 2.66699 2.5 6s2.16699 6.83301 3.5 10.5l3.5 10c1 3 1.5 4.83301 1.5 5.5
c0 6.66699 -1.16699 11.667 -3.5 15s-5.16602 5.66602 -8.49902 6.99902s-7 2.66602 -11 3.99902s-8 3.66602 -12 6.99902c-4 1.33301 -6.66699 4.16602 -8 8.49902s-2 8.5 -2 12.5c0 2.66699 0.666992 6.66699 2 12c5.33301 4.66699 12.666 7 21.999 7
c7.33301 0 14.833 -1.16699 22.5 -3.5s15.167 -3.83301 22.5 -4.5c8.66699 3.33301 19.334 5.83301 32.001 7.5s23.667 2.5 33 2.5c5.33301 0 12.666 -0.666992 21.999 -2s15.666 -5 18.999 -11c0 -6 -2.33301 -11.167 -7 -15.5s-10.334 -8.16602 -17.001 -11.499
l-20.5 -10.5c-7 -3.66699 -12.5 -7.5 -16.5 -11.5c-16 -17.333 -29.167 -36.5 -39.5 -57.5l-30.5 -63.5c-4.66699 -10 -10.167 -18.833 -16.5 -26.5s-13 -15 -20 -22l-22 -21.5c-7.66699 -7.33301 -14.834 -15.333 -21.501 -24c20.667 -33.333 36.667 -66.833 48 -100.5
s20.333 -69.834 27 -108.501c2.66699 -15.333 6 -29.333 10 -42s8.66699 -24.667 14 -36s11.333 -22.666 18 -33.999l22 -36c4.66699 -2 10 -3 16 -3c9.33301 0 18.5 1.83301 27.5 5.5l26.5 10.5c7.33301 3.33301 13.666 6 18.999 8s9.66602 3 12.999 3s5.33301 -1 6 -3z
" />
    <glyph glyph-name="L" unicode="L" horiz-adv-x="508" 
d="M478 134c2 -16 0.666016 -30.501 -4.00098 -43.501s-10.167 -25.667 -16.5 -38l-18.5 -37.5c-6 -12.667 -9.33301 -26.667 -10 -42c-2.66699 -4 -4.83398 -8.83301 -6.50098 -14.5s-3.66699 -10.667 -6 -15s-5.16602 -7.5 -8.49902 -9.5s-8 -1.33301 -14 2
c-5.33301 4.66699 -8 10.5 -8 17.5s0.5 14 1.5 21s1 13.667 0 20s-4.83301 11.5 -11.5 15.5c-28 -2.66699 -57.333 -3.33398 -88 -2.00098s-61.167 2.5 -91.5 3.5s-59.666 1 -87.999 0s-54.166 -5.5 -77.499 -13.5c-6.66699 4.66699 -9.5 11.667 -8.5 21s2.16699 17 3.5 23
c2.66699 2.66699 5.66699 4.66699 9 6l10 4c3.33301 1.33301 6.16602 3.33301 8.49902 6s4.16602 7 5.49902 13c3.33301 48 6 96.833 8 146.5s4.33301 99.167 7 148.5c-1.33301 19.333 -2.16602 39.833 -2.49902 61.5s-0.333008 43.334 0 65.001s0.333008 43.167 0 64.5
s-1.16602 41 -2.49902 59l-28 19c-10 6.66699 -16.667 17.667 -20 33c0 7.33301 1.5 14 4.5 20s6.83301 10.667 11.5 14c12.667 -1.33301 26 -2.83301 40 -4.5s28.167 -2.83398 42.5 -3.50098s28.666 -0.333984 42.999 0.999023s28.166 4.66602 41.499 9.99902
c4 0.666992 10 1.5 18 2.5s16.333 1.5 25 1.5s16.5 -1.33301 23.5 -4s11.833 -7.66699 14.5 -15c2.66699 -18 0.666992 -30 -6 -36s-15.167 -10.333 -25.5 -13s-20.666 -5.5 -30.999 -8.5s-17.5 -10.833 -21.5 -23.5c1.33301 -34 1.33301 -73.167 0 -117.5
s-2.5 -90.166 -3.5 -137.499s-1 -94.5 0 -141.5s4.83301 -90.167 11.5 -129.5l9 -8c16 -6 32.333 -9.66699 49 -11s33.5 -1.66602 50.5 -0.999023s34 2 51 4s33.167 3.33301 48.5 4l11.5 23c4.33301 8.66699 9 16.334 14 23.001s10.5 11.834 16.5 15.501
s12.333 4.16699 19 1.5z" />
    <glyph glyph-name="M" unicode="M" horiz-adv-x="638" 
d="M615 -37c-19.333 -1.33301 -38.4971 -1.32617 -57.4971 0.00683594s-37.667 2.5 -56 3.5s-36.666 1 -54.999 0s-36.5 -4.5 -54.5 -10.5c-6.66699 -0.666992 -13.167 -0.333984 -19.5 0.999023s-10.833 7 -13.5 17c1.33301 10.667 4.33301 18.167 9 22.5s10 8 16 11
s11.667 6.33301 17 10s9.33301 10.5 12 20.5c3.33301 26 4 52.833 2 80.5s-4.66699 54.5 -8 80.5c-0.666992 57.333 -1.83398 117.166 -3.50098 179.499s-1.83398 120.5 -0.500977 174.5l-21.5 -28.5c-8.33301 -11 -16.333 -22.833 -24 -35.5s-14.167 -25.334 -19.5 -38.001
s-8 -24.667 -8 -36c7.33301 -4.66699 11 -12 11 -22s-0.666992 -18.667 -2 -26c-8.66699 -12.667 -16.5 -25.334 -23.5 -38.001s-14.167 -24.667 -21.5 -36s-15.5 -21.5 -24.5 -30.5s-19.833 -15.833 -32.5 -20.5c-12.667 16.667 -23.334 34.5 -32.001 53.5l-25.5 57
c-8.33301 19 -17.333 37.667 -27 56s-21.834 35.166 -36.501 50.499l-6 -7c2 -30 3 -60.167 3 -90.5v-91c0 -30.333 0.5 -61 1.5 -92s3.5 -62.167 7.5 -93.5c4 -14.667 9.83301 -24.667 17.5 -30s16 -9.33301 25 -12s17.833 -5.83398 26.5 -9.50098
s15.667 -10.834 21 -21.501c1.33301 -5.33301 1.33301 -9.16602 0 -11.499s-3.16602 -4 -5.49902 -5s-4.83301 -2.16699 -7.5 -3.5s-4.66699 -3.33301 -6 -6c-25.333 4 -51.166 6.83301 -77.499 8.5s-51.166 -3.83301 -74.499 -16.5c-5.33301 -2 -9.83301 -1.33301 -13.5 2
s-7.16699 7.33301 -10.5 12c1.33301 8 4.16602 15.833 8.49902 23.5s9.5 14.167 15.5 19.5c5.33301 -2.66699 9.33301 -2.16699 12 1.5l9 12.5c1.33301 91.333 0.666016 180.333 -2.00098 267s-6.66699 174 -12 262c1.33301 6.66699 0.5 11.834 -2.5 15.501
s-6.83301 6.5 -11.5 8.5c-5.33301 2 -12.833 0.833008 -22.5 -3.5s-17.167 -5.83301 -22.5 -4.5c-6.66699 1.33301 -8.16699 6.83301 -4.5 16.5s12.5 21.167 26.5 34.5c9.33301 8.66699 18.833 19 28.5 31s19.834 23 30.501 33s22.167 17.167 34.5 21.5
s25.5 3.16602 39.5 -3.50098c14.667 -17.333 27.667 -37.666 39 -60.999l33 -70.5c10.667 -23.667 22 -46.167 34 -67.5s26.333 -38.666 43 -51.999h10c12.667 24 26.667 48.5 42 73.5s31.166 49.5 47.499 73.5s33.166 47.5 50.499 70.5l51 65.5l32 -21.5
c11.333 -7.66699 22 -16.5 32 -26.5s18.333 -21.5 25 -34.5s10.667 -28.167 12 -45.5c-2.66699 -8.66699 -6 -12.834 -10 -12.501s-8 1.16602 -12 2.49902s-7.83301 1.66602 -11.5 0.999023s-6.16699 -6 -7.5 -16c-4 -23.333 -6.83301 -47.833 -8.5 -73.5
s-2.5 -51.334 -2.5 -77.001s0.833008 -50.834 2.5 -75.501s4.16699 -48 7.5 -70c0 -43.333 -1.66699 -88.333 -5 -135s-2 -92 4 -136c3.33301 -12.667 8.83301 -20.5 16.5 -23.5s15.5 -5.16699 23.5 -6.5s15 -4.16602 21 -8.49902s9 -14.166 9 -29.499z" />
    <glyph glyph-name="N" unicode="N" horiz-adv-x="620" 
d="M576 656c-4.66699 -8 -11.0029 -13.1699 -19.0029 -15.5029l-23.5 -7c-7.66699 -2.33301 -14.167 -6 -19.5 -11s-7.66602 -14.167 -6.99902 -27.5c-4 -73.333 -7 -146.5 -9 -219.5s-6 -145.167 -12 -216.5c0.666992 -6 3.33398 -10.167 8.00098 -12.5
s9.33398 -4.5 14.001 -6.5s8 -5 10 -9s0.333008 -10.333 -5 -19c-10 -26.667 -23.333 -51.5 -40 -74.5s-32.667 -46.833 -48 -71.5c-9.33301 -1.33301 -17.666 1 -24.999 7l-22 18c-11.333 24.667 -26 47.5 -44 68.5s-33.333 43.167 -46 66.5c-24.667 46 -47 91.5 -67 136.5
l-62 138.5c-7.33301 -9.33301 -11 -20.5 -11 -33.5s-1.33301 -25.833 -4 -38.5c-3.33301 -47.333 -5.83301 -93.666 -7.5 -138.999s-1.83398 -91 -0.500977 -137c2 -2.66699 6 -5.66699 12 -9l18.5 -10c6.33301 -3.33301 12 -7 17 -11s7.83301 -8.33301 8.5 -13
c1.33301 -9.33301 0.333008 -18 -3 -26s-9 -12.667 -17 -14c-11.333 4.66699 -22.833 7 -34.5 7s-23.167 -0.833008 -34.5 -2.5s-22.833 -3.66699 -34.5 -6s-23.5 -3.16602 -35.5 -2.49902c-8 7.33301 -12.667 15.833 -14 25.5s1 18.167 7 25.5
c4 4.66699 8.33301 8.5 13 11.5l14.5 9c5 3 9.5 6.5 13.5 10.5s7 9.66699 9 17c3.33301 12.667 5.16602 25 5.49902 37s0.166016 24 -0.500977 36s-1.16699 24.167 -1.5 36.5s0.833984 25.166 3.50098 38.499c-0.666992 32.667 -1.16699 63.667 -1.5 93s-1 58.5 -2 87.5
s-2.5 59 -4.5 90s-4.33301 64.5 -7 100.5c-2 2.66699 -4.66699 5.5 -8 8.5s-6 6 -8 9s-3.16699 6.33301 -3.5 10s1.16699 7.83398 4.5 12.501c8.66699 12 17.334 22 26.001 30l26.5 23.5l28 24.5c9.66699 8.66699 19.5 19.334 29.5 32.001
c9.33301 0 16.833 -1.83301 22.5 -5.5s10.334 -8.5 14.001 -14.5s6.5 -12.833 8.5 -20.5s4.33301 -15.167 7 -22.5c7.33301 -37.333 17.833 -71.166 31.5 -101.499s28.334 -60 44.001 -89l48.5 -87c16.667 -29 31.667 -60.5 45 -94.5
c3.33301 -9.33301 9.16602 -20.333 17.499 -33s16.166 -21.334 23.499 -26.001l3 17c2.66699 20 5.66699 44.667 9 74s6.5 60.166 9.5 92.499s5.33301 64.833 7 97.5s1.83398 62.334 0.500977 89.001c-8.66699 8.66699 -20.334 15 -35.001 19s-27 8.33301 -37 13
c-8 5.33301 -14.333 12.333 -19 21s-6.66699 18.667 -6 30l16 11c33.333 -1.33301 65.5 -5 96.5 -11s63.5 -8.66699 97.5 -8c7.33301 -7.33301 10 -17 8 -29h1z" />
    <glyph glyph-name="O" unicode="O" horiz-adv-x="548" 
d="M369 346c0.666992 18.667 1.33105 39.1689 1.99805 61.502s0.833984 45 0.500977 68s-1.66602 45.833 -3.99902 68.5s-6.5 43.667 -12.5 63c-7.33301 25.333 -17.666 46 -30.999 62c-12 9.33301 -24.5 15.5 -37.5 18.5s-24.167 3.83301 -33.5 2.5
c-5.33301 -0.666992 -10.833 -3.16699 -16.5 -7.5s-11 -9.33301 -16 -15s-9.33301 -11.667 -13 -18s-6.5 -11.833 -8.5 -16.5c-10 -26.667 -17.5 -54.167 -22.5 -82.5s-8.5 -56.833 -10.5 -85.5s-2.83301 -57.167 -2.5 -85.5s1.16602 -55.5 2.49902 -81.5
c2 -44 5 -86.5 9 -127.5s13.667 -79.5 29 -115.5c3.33301 -8 8.5 -14.167 15.5 -18.5s15.167 -7.16602 24.5 -8.49902c5.33301 -0.666992 12 -0.333984 20 0.999023s15.833 3.33301 23.5 6s14.5 5.66699 20.5 9s10 6.66602 12 9.99902c10.667 20.667 19 43.167 25 67.5
s10.833 49.166 14.5 74.499s6 50.833 7 76.5s1.83301 50.167 2.5 73.5h1h-1zM521.997 465.002c4.66699 -34 6.5 -68.502 5.5 -103.502s-4.16699 -70.167 -9.5 -105.5v-1c-5.33301 -33.333 -13.833 -67 -25.5 -101s-27.167 -64 -46.5 -90
c-13.333 -17.333 -28.833 -32.166 -46.5 -44.499s-37.5 -20.5 -59.5 -24.5l-62 -10.5c-21.333 -3.66699 -42.333 -5 -63 -4s-40.667 5 -60 12s-37.333 19.167 -54 36.5s-30.334 37 -41.001 59s-19 45 -25 69c-5.33301 22.667 -8.83301 46.334 -10.5 71.001
s-2 49.334 -1 74.001s3.33301 48.834 7 72.501s8.16699 46.5 13.5 68.5c8.66699 34.667 19.834 70.5 33.501 107.5s31.167 70.5 52.5 100.5c14.667 21.333 31.334 39.833 50.001 55.5s40 27.167 64 34.5c23.333 -0.666992 47.5 -3.33398 72.5 -8.00098
s48.667 -12.167 71 -22.5s42.166 -24.333 59.499 -42s30 -39.834 38 -66.501c18.667 -42 31 -87.667 37 -137z" />
    <glyph glyph-name="P" unicode="P" horiz-adv-x="585" 
d="M406 350c5.33301 17.333 9.33496 37.498 12.002 60.498s3.83398 46.5 3.50098 70.5s-2.5 47.333 -6.5 70s-10 42.667 -18 60l-19 42c-32 12.667 -61 16.167 -87 10.5s-46 -18.834 -60 -39.501c0 -11.333 -0.5 -30.166 -1.5 -56.499s-1.83301 -54.166 -2.5 -83.499
s-0.5 -57.166 0.5 -83.499s3.16699 -44.5 6.5 -54.5c3.33301 -9.33301 9.16602 -16.666 17.499 -21.999s17.666 -9.66602 27.999 -12.999s20.833 -6.33301 31.5 -9s20 -5.33398 28 -8.00098c4.66699 -2.66699 10.167 -1.83398 16.5 2.49902s12.666 10 18.999 17
s12.333 14 18 21s10.167 12.167 13.5 15.5zM559.002 399.998c-6 -15.333 -12.666 -31.5039 -19.999 -48.5039s-16.166 -32.833 -26.499 -47.5s-22.166 -26.667 -35.499 -36s-28.666 -14.333 -45.999 -15c-11.333 -3.33301 -23.666 -6.33301 -36.999 -9s-26.833 -4 -40.5 -4
s-27 1.5 -40 4.5s-24.5 8.5 -34.5 16.5l-22.5 20c-9.66699 8.66699 -20.167 20 -31.5 34c-5.33301 -8.66699 -7.83301 -19 -7.5 -31s1.33301 -24.333 3 -37s3.16699 -25.167 4.5 -37.5s1 -23.5 -1 -33.5c0 -14 -0.166992 -26.333 -0.5 -37s-0.333008 -21 0 -31
s1 -20.5 2 -31.5s2.5 -23.833 4.5 -38.5c0 -9.33301 3.5 -15.333 10.5 -18s14.333 -4.5 22 -5.5s14.5 -2.66699 20.5 -5s8.66699 -8.16602 8 -17.499l-6 -7c-42 -2.66699 -83.5 -5.66699 -124.5 -9s-81.167 -7.33301 -120.5 -12
c-2.66699 1.33301 -6.83398 2.33301 -12.501 3s-11.167 1.5 -16.5 2.5s-9.5 2.33301 -12.5 4s-2.5 4.16699 1.5 7.5c3.33301 6.66699 9.33301 10.5 18 11.5s17.5 2.66699 26.5 5s17.167 7.66602 24.5 15.999s11.666 23.166 12.999 44.499c4.66699 68.667 7 137.167 7 205.5
s-2 138.5 -6 210.5c-0.666992 8.66699 0 19.167 2 31.5s3.5 24.833 4.5 37.5s0.333008 24.5 -2 35.5s-7.83301 19.5 -16.5 25.5c-8.66699 0.666992 -18.167 -2.66602 -28.5 -9.99902s-24.5 -13.666 -42.5 -18.999c0 6 1.66699 11.833 5 17.5s7.33301 11.334 12 17.001
s9.66699 10.834 15 15.501s9.66602 8.66699 12.999 12l122 121c7.33301 4 16 5.83301 26 5.5s16.333 -6.16602 19 -17.499c0 -14 1.66699 -29 5 -45s6.33301 -29.667 9 -41c8 8 17.333 15.167 28 21.5s22 12.333 34 18l35.5 16c11.667 5 22.167 10.167 31.5 15.5
c29.333 4.66699 58.666 1.33398 87.999 -9.99902s53.666 -31 72.999 -59c8 -16 15.5 -35 22.5 -57s12.667 -44.833 17 -68.5s7 -47.334 8 -71.001s-0.5 -45.5 -4.5 -65.5z" />
    <glyph glyph-name="Q" unicode="Q" horiz-adv-x="548" 
d="M278 65c-10 12 -16.332 27 -18.999 45s-5.83398 35.667 -9.50098 53s-9.83398 32.666 -18.501 45.999s-24 21.333 -46 24c1.33301 -6.66699 1.83301 -17.167 1.5 -31.5s-0.666016 -29.666 -0.999023 -45.999s0 -31.666 1 -45.999s3.5 -24.833 7.5 -31.5
c6.66699 -11.333 14 -19.333 22 -24s15.833 -7 23.5 -7s15 1.66699 22 5s12.5 7.66602 16.5 12.999zM336.001 642c2 11.333 1.16699 20.501 -2.5 27.501s-8.5 12.167 -14.5 15.5s-12.333 5.5 -19 6.5s-12.334 1.16699 -17.001 0.5c-9.33301 -5.33301 -16.5 -13 -21.5 -23
s-9.16699 -20.833 -12.5 -32.5s-6.16602 -23.5 -8.49902 -35.5s-4.83301 -22.333 -7.5 -31c-9.33301 -16.667 -16.5 -37 -21.5 -61s-8.66699 -49.833 -11 -77.5s-4 -55.834 -5 -84.501s-1.83301 -56 -2.5 -82c14 -1.33301 27.833 -6.5 41.5 -15.5s26.5 -20 38.5 -33
s23 -26.833 33 -41.5s18 -28 24 -40c14.667 80.667 22 165.167 22 253.5s-5.33301 172.833 -16 253.5zM565.001 -58.999c-4 -20.667 -13.167 -38.0029 -27.5 -52.0029s-30.166 -23 -47.499 -27c-7.33301 -6.66699 -15.166 -10.5 -23.499 -11.5s-16.666 -0.5 -24.999 1.5
s-16.5 4.83301 -24.5 8.5s-15.667 6.5 -23 8.5c-10 9.33301 -20.5 18.5 -31.5 27.5s-21.333 18.833 -31 29.5s-18.167 22.667 -25.5 36s-12.666 29 -15.999 47c-26.667 -4.66699 -52.667 -5.83398 -78 -3.50098s-48.666 12.166 -69.999 29.499
c-26.667 21.333 -49 46.166 -67 74.499s-32 58.833 -42 91.5s-16.167 66.5 -18.5 101.5s-0.833008 70.167 4.5 105.5c4.66699 31.333 11.667 62.166 21 92.499s21.166 59.5 35.499 87.5s31.166 54.167 50.499 78.5s41 45.833 65 64.5c15.333 6 30.666 9.33301 45.999 10
s30.666 -0.166016 45.999 -2.49902s30.5 -5.66602 45.5 -9.99902s29.833 -8.16602 44.5 -11.499c25.333 -6 48.333 -20 69 -42s35.667 -47 45 -75c16 -33.333 25.667 -69.5 29 -108.5l10 -117.5c-4.66699 -62.667 -16 -122.5 -34 -179.5s-47.667 -107.833 -89 -152.5
c1.33301 -7.33301 4.5 -13.666 9.5 -18.999s8.5 -11.666 10.5 -18.999c3.33301 -16.667 8.83301 -32.5 16.5 -47.5s20.167 -24.167 37.5 -27.5c12.667 -2 25.667 -1 39 3s25.666 10.667 36.999 20c3.33301 0.666992 6.83301 0.333984 10.5 -0.999023
s4.5 -4.66602 2.5 -9.99902h-1z" />
    <glyph glyph-name="R" unicode="R" horiz-adv-x="555" 
d="M352 384c4 15.333 6.99805 33.834 8.99805 55.501s2.5 43.5 1.5 65.5s-3.5 43 -7.5 63s-9.33301 36 -16 48c-7.33301 12.667 -17.166 22 -29.499 28s-25 8.66699 -38 8s-25.5 -4 -37.5 -10s-21.333 -14.667 -28 -26c0 -13.333 -0.666992 -27.833 -2 -43.5
s-0.666016 -29.167 2.00098 -40.5c-0.666992 -13.333 -1.5 -29 -2.5 -47s-1.5 -36.5 -1.5 -55.5s0.333008 -37.333 1 -55s2.66699 -32.834 6 -45.501c10.667 0.666992 23.334 1.16699 38.001 1.5s29.167 2 43.5 5s27.166 8 38.499 15s19 18.167 23 33.5zM596.998 115.001
c-1.33301 -9.33301 -5.83203 -19.1748 -13.499 -29.5078s-16.667 -20.833 -27 -31.5l-31 -30.5c-10.333 -9.66699 -18.166 -18.167 -23.499 -25.5c-4.66699 -6.66699 -10 -11.167 -16 -13.5s-12.333 -3.66602 -19 -3.99902s-13.334 0 -20.001 1s-13.334 1.83301 -20.001 2.5
c-25.333 18 -45.833 39 -61.5 63s-29.5 49.5 -41.5 76.5s-23 54.5 -33 82.5s-21.667 55 -35 81l-42 -4l-9 -12c0 -38 2.5 -74 7.5 -108s6.83301 -70 5.5 -108c3.33301 -4.66699 7.83301 -7.66699 13.5 -9s11 -2.66602 16 -3.99902s9.16699 -3.83301 12.5 -7.5
s4.66602 -9.83398 3.99902 -18.501c-6 -7.33301 -13.167 -12 -21.5 -14s-17.166 -3.16699 -26.499 -3.5s-18.833 -0.333008 -28.5 0s-18.834 -0.166992 -27.501 -1.5c-14.667 6.66699 -30.834 11 -48.501 13s-33.834 -1 -48.501 -9c-2.66699 0 -5.16699 -0.833008 -7.5 -2.5
s-4.66602 -3 -6.99902 -4s-4.66602 -1.5 -6.99902 -1.5s-4.83301 1.33301 -7.5 4c-6 8 -9 17.667 -9 29c16.667 6.66699 27.834 16.334 33.501 29.001s8.66699 26.834 9 42.501s-0.5 32 -2.5 49s-2 32.833 0 47.5c0 34.667 0.5 69 1.5 103l3 102
c1 34 1.16699 68.5 0.5 103.5s-3 70.5 -7 106.5c-4 6.66699 -9.16699 11 -15.5 13s-13.333 2.33301 -21 1s-16 -3.5 -25 -6.5s-18.5 -5.83301 -28.5 -8.5c-3.33301 7.33301 -5.5 13.833 -6.5 19.5s0.833008 11.834 5.5 18.501c16 2.66699 33 7.33398 51 14.001
s36 14.5 54 23.5s35.167 18.5 51.5 28.5s31.166 19.667 44.499 29c8 -2.66699 13.5 -7 16.5 -13s5 -12.833 6 -20.5s1.83301 -15.5 2.5 -23.5s2 -15.333 4 -22c12.667 12.667 27 21.834 43 27.501s32.667 8.83398 50 9.50098s34.666 -0.833008 51.999 -4.5
s33.666 -8.16699 48.999 -13.5c37.333 -21.333 64.333 -49.333 81 -84s24.334 -73.334 23.001 -116.001c0.666992 -14.667 -3.16602 -31 -11.499 -49s-18.666 -35.5 -30.999 -52.5s-25.833 -32.333 -40.5 -46s-27.334 -23.5 -38.001 -29.5c3.33301 -22 9.33301 -45 18 -69
s18.834 -46.667 30.501 -68s24.167 -40.333 37.5 -57s26 -29 38 -37c10 -3.33301 19.5 -2.66602 28.5 2.00098s17.333 10.334 25 17.001s15 12.667 22 18s13.5 7 19.5 5h-1z" />
    <glyph glyph-name="S" unicode="S" horiz-adv-x="496" 
d="M462 478c0.666992 -10 -0.168945 -18.3252 -2.50195 -24.9922s-5.33301 -11 -9 -13s-7.5 -1.33301 -11.5 2s-7.33301 10 -10 20c-5.33301 34 -14.5 66.167 -27.5 96.5s-28.167 52.166 -45.5 65.499c-12 18 -26.333 31.667 -43 41s-34 16.333 -52 21
c-6 -0.666992 -14 -2.5 -24 -5.5s-19.833 -7.66699 -29.5 -14s-18.334 -14.833 -26.001 -25.5s-12.5 -24 -14.5 -40c-3.33301 -30 1.66699 -56 15 -78s30.833 -42.333 52.5 -61s45.5 -36.667 71.5 -54s49.667 -36.666 71 -57.999c18 -17.333 33.167 -36 45.5 -56
s19.5 -42.333 21.5 -67c6.66699 -18 9.5 -36.833 8.5 -56.5s-5 -38.834 -12 -57.501s-16 -36.167 -27 -52.5s-23.167 -30.166 -36.5 -41.499c-10.667 -5.33301 -21.5 -10.333 -32.5 -15s-22.5 -8.5 -34.5 -11.5s-24.333 -4.66699 -37 -5s-25.334 1.16699 -38.001 4.5
c-8 4 -17.167 6.83301 -27.5 8.5s-21.166 4 -32.499 7s-23 7.66699 -35 14s-24 16.166 -36 29.499c-11.333 -5.33301 -18.5 -13.166 -21.5 -23.499s-5.33301 -20.666 -7 -30.999s-4.33398 -19.833 -8.00098 -28.5s-11.834 -13.334 -24.501 -14.001
c-10.667 26.667 -16 53.667 -16 81s1.5 53.833 4.5 79.5s5.33301 50.334 7 74.001s-1.5 45.167 -9.5 64.5c2 4 5.33301 8.16699 10 12.5s9.33398 8.16602 14.001 11.499c10 -3.33301 16.833 -12 20.5 -26s6.66699 -29.333 9 -46s5.33301 -32.334 9 -47.001
s11.167 -24.334 22.5 -29.001c6.66699 -14 15.167 -27.333 25.5 -40s21.666 -23.167 33.999 -31.5s25.5 -14.333 39.5 -18s28.333 -3.83398 43 -0.500977c11.333 5.33301 20.333 12.833 27 22.5s11.667 20.167 15 31.5c2 23.333 0.333008 47.166 -5 71.499
s-13 44.166 -23 59.499s-21.667 29.5 -35 42.5s-27.166 25.167 -41.499 36.5l-42.5 34c-14 11.333 -26.333 23 -37 35l-43 48.5c-13.333 15 -24.166 31.167 -32.499 48.5s-13.166 36.833 -14.499 58.5s2.33398 47.834 11.001 78.501c4.66699 30 15.167 59 31.5 87
s40.5 48.667 72.5 62l117 -3c22.667 -9.33301 43.834 -19 63.501 -29s38.834 -26.333 57.501 -49c12 0 20.833 4 26.5 12s10 17.333 13 28s5.5 20.834 7.5 30.501s5.66699 16.167 11 19.5c6.66699 1.33301 11.5 0.666016 14.5 -2.00098s5 -6 6 -10s1.66699 -8.16699 2 -12.5
s1.5 -7.83301 3.5 -10.5c-1.33301 -14.667 -2.83301 -32.834 -4.5 -54.501s-2.83398 -44.334 -3.50098 -68.001s-0.5 -46.834 0.5 -69.501s3.83301 -42.334 8.5 -59.001z" />
    <glyph glyph-name="T" unicode="T" horiz-adv-x="605" 
d="M586 397c0 -2 -1.32812 -5.00391 -3.99512 -9.00391s-6 -7.5 -10 -10.5s-7.83301 -4.5 -11.5 -4.5s-6.5 3.66699 -8.5 11l-9 57c-3.33301 20.667 -7.5 40.834 -12.5 60.501s-11.333 38.334 -19 56.001s-17.5 32.167 -29.5 43.5c-18 18 -40.667 26 -68 24l-31 -24
c-1.33301 -89.333 -3 -181 -5 -275s-2.33301 -186.333 -1 -277c4.66699 -4.66699 11.334 -8 20.001 -10s17 -4.33301 25 -7s14.667 -6.5 20 -11.5s7.66602 -12.833 6.99902 -23.5l-19 -16c-22 0 -43.667 1 -65 3s-42.833 3.83301 -64.5 5.5s-43.5 2.33398 -65.5 2.00098
s-44.333 -2.5 -67 -6.5c-1.33301 0.666992 -4 0.833984 -8 0.500977l-12.5 -1c-4.33301 -0.333008 -8.5 0 -12.5 1s-6.66699 3.16699 -8 6.5c2.66699 10 3.83398 17.333 3.50098 22s3.16699 10.667 10.5 18c4 4.66699 9.83301 7.16699 17.5 7.5s15.667 0.833008 24 1.5
s16.333 2.83398 24 6.50098s13.5 11.5 17.5 23.5c2 40 3 81.5 3 124.5v130c0 43.667 0.333008 86.5 1 128.5s2 81.667 4 119c-0.666992 4.66699 -0.333984 10 0.999023 16s2.33301 11.667 3 17s0.5 10.5 -0.5 15.5s-3.83301 9.5 -8.5 13.5c-14 0 -24.167 0.333008 -30.5 1
s-12 1.16699 -17 1.5s-10.5 0.333008 -16.5 0s-15.667 -1.83301 -29 -4.5c-10 4.66699 -18.333 4 -25 -2s-12.334 -15.667 -17.001 -29s-8.5 -28.833 -11.5 -46.5s-5.83301 -35.834 -8.5 -54.501s-5.5 -36.5 -8.5 -53.5s-7.16699 -31.167 -12.5 -42.5
c-6.66699 -14.667 -16 -22.667 -28 -24c-4 0 -6.66699 2.66699 -8 8l-2 8c6 18.667 9.83301 42.667 11.5 72s2.66699 60 3 92l1 93.5c0.333008 30.333 2.5 56.5 6.5 78.5c2.66699 5.33301 6.66699 10.166 12 14.499s10.5 6.83301 15.5 7.5s9.33301 -0.833008 13 -4.5
s5.16699 -10.5 4.5 -20.5c6 -10.667 11.333 -18.167 16 -22.5s9.5 -6.83301 14.5 -7.5s10.667 -0.333984 17 0.999023s14.166 2.33301 23.499 3c22 -4.66699 44 -7.16699 66 -7.5s44.333 -0.333008 67 0l68 1c22.667 0.333008 45 -1.5 67 -5.5
c9.33301 3.33301 19.666 3.83301 30.999 1.5s22.333 -4 33 -5s19.667 0.833008 27 5.5s11.666 15.667 12.999 33c4.66699 5.33301 9.16699 10.833 13.5 16.5s10.166 6.83398 17.499 3.50098c14.667 -10.667 23 -28.167 25 -52.5s2 -52.666 0 -84.999s-3.5 -67 -4.5 -104
s2.83301 -73.167 11.5 -108.5z" />
    <glyph glyph-name="U" unicode="U" horiz-adv-x="635" 
d="M625 687c3.33301 -7.33301 4.00195 -14.834 2.00195 -22.501s-4.66699 -14.834 -8 -21.501c-5.33301 -2 -11.666 -3.16699 -18.999 -3.5s-14.5 -1 -21.5 -2s-13.667 -2.83301 -20 -5.5s-11.166 -7.33398 -14.499 -14.001c-8 -60 -12.167 -121.167 -12.5 -183.5
s-2.16602 -123.5 -5.49902 -183.5c-1.33301 -28 -4.66602 -56.167 -9.99902 -84.5s-13.333 -55.166 -24 -80.499s-24.334 -48.333 -41.001 -69s-37 -37 -61 -49c-14.667 2 -27 -2 -37 -12c-34.667 -7.33301 -70.5 -8.33301 -107.5 -3s-71.5 16.333 -103.5 33
c-28 20.667 -47.667 47.667 -59 81s-16.333 67.333 -15 102c-2 64.667 -0.666992 129 4 193s7.33398 128.667 8.00098 194c0 6.66699 0.833008 15.5 2.5 26.5s2.83398 22 3.50098 33s0.333984 21 -0.999023 30s-5 15.167 -11 18.5c-4.66699 4 -11.834 6.16699 -21.501 6.5
s-19.334 0.833008 -29.001 1.5s-18.167 2.66699 -25.5 6s-11 10 -11 20c6 16.667 15.667 26.334 29 29.001s28.333 2.16699 45 -1.5s33.834 -8.16699 51.501 -13.5s34.167 -7.66602 49.5 -6.99902c14.667 0.666992 28 1.5 40 2.5s23.667 1.5 35 1.5s22.333 -0.5 33 -1.5
s21.667 -3.5 33 -7.5c3.33301 -4.66699 6.5 -10.167 9.5 -16.5s1.16699 -12.166 -5.5 -17.499c-2.66699 -3.33301 -7.16699 -5.16602 -13.5 -5.49902s-13.166 -0.833008 -20.499 -1.5s-14.333 -2.5 -21 -5.5s-11.667 -8.83301 -15 -17.5
c-5.33301 -76.667 -8 -151.334 -8 -224.001s4.66699 -149.334 14 -230.001l12.5 -48c4.33301 -17.333 9.83301 -34 16.5 -50s15 -30 25 -42s23 -19.667 39 -23c22.667 -0.666992 43.167 5.66602 61.5 18.999s34.166 31 47.499 53c10.667 25.333 18.5 52.666 23.5 81.999
s8.66699 59.5 11 90.5s4.16602 62 5.49902 93s3.66602 61.167 6.99902 90.5c-0.666992 16 -0.666992 32 0 48s0.666992 31.833 0 47.5s-2.83398 30.834 -6.50098 45.501s-9.83398 28.334 -18.501 41.001c-7.33301 8 -13.5 13 -18.5 15s-9.83301 3.33301 -14.5 4
s-9.83398 1.66699 -15.501 3s-12.5 5.33301 -20.5 12c-1.33301 3.33301 -4 6.83301 -8 10.5s-5.33301 7.5 -4 11.5c3.33301 8 7.66602 13.167 12.999 15.5s14.666 2.83301 27.999 1.5c1.33301 -2 5.33301 -4 12 -6c5.33301 -1.33301 13.166 -2.66602 23.499 -3.99902
s24.5 -1.66602 42.5 -0.999023c19.333 0.666992 33 1.16699 41 1.5s14.667 0.166016 20 -0.500977s11.833 -1.33398 19.5 -2.00098s20.834 -1.66699 39.501 -3z" />
    <glyph glyph-name="V" unicode="V" horiz-adv-x="620" 
d="M622 673c2 -10 1.16602 -19.335 -2.50098 -28.002s-9.16699 -14.667 -16.5 -18c-7.33301 -1.33301 -14.666 -1.83301 -21.999 -1.5s-14.5 0 -21.5 -1s-13.333 -3.83301 -19 -8.5s-9.83398 -12.334 -12.501 -23.001c-22 -82.667 -47 -163.167 -75 -241.5
s-55 -157.833 -81 -238.5c-5.33301 -8 -7 -14.333 -5 -19s4.83301 -9.16699 8.5 -13.5s6.33398 -9 8.00098 -14s0.166992 -11.5 -4.5 -19.5l-71 -94c-8 -2 -15.833 -0.666992 -23.5 4s-14.834 11 -21.501 19s-12.834 16.667 -18.501 26s-10.5 18 -14.5 26
c-18.667 27.333 -32.5 57.166 -41.5 89.499s-15.667 65.666 -20 99.999s-7.83301 69.5 -10.5 105.5s-6.66699 71 -12 105l-31.5 115c-10.333 38 -25.833 73.667 -46.5 107c-11.333 1.33301 -22.666 3 -33.999 5s-22.333 5 -33 9c-5.33301 9.33301 -5.66602 18 -0.999023 26
s7.66699 16 9 24c13.333 6.66699 26.833 9.83398 40.5 9.50098s27.167 -1.16602 40.5 -2.49902c12 1.33301 24.5 1.33301 37.5 0s24.5 1.66699 34.5 9l98 -1c4 -1.33301 8.16699 -2.33301 12.5 -3s8.66602 -1.66699 12.999 -3s8.33301 -3.16602 12 -5.49902
s6.5 -6.16602 8.5 -11.499c5.33301 -10 7 -16.667 5 -20s-5.66699 -5.5 -11 -6.5s-11 -2 -17 -3s-10 -4.16699 -12 -9.5c-3.33301 -8 -4.66602 -15.333 -3.99902 -22s2 -13.334 4 -20.001l6 -20.5c2 -7 2.66699 -14.167 2 -21.5
c-3.33301 -32.667 -3.83301 -64.167 -1.5 -94.5s5.66602 -60.333 9.99902 -90s9.33301 -59.334 15 -89.001s10.167 -59.5 13.5 -89.5c2.66699 -12 5 -24 7 -36s6.33301 -23 13 -33c10 15.333 18 31.833 24 49.5s11.5 36 16.5 55s9.5 38 13.5 57s9 37.833 15 56.5l69 226
c-2.66699 11.333 -7 20.5 -13 27.5s-13 12.833 -21 17.5s-16.5 8.33398 -25.5 11.001s-17.5 5 -25.5 7l-25 35c4.66699 2.66699 8.83398 6.33398 12.501 11.001s8.5 6.33398 14.5 5.00098c18 -12.667 36.5 -20.167 55.5 -22.5s38.333 -3.33301 58 -3l59 1
c19.667 0.333008 39.167 -3.5 58.5 -11.5z" />
    <glyph glyph-name="W" unicode="W" horiz-adv-x="816" 
d="M819 686c-4.66699 -2.66699 -11.3301 -5.83984 -19.9971 -9.50684s-17.834 -7.16699 -27.501 -10.5s-19 -6.33301 -28 -9l-20.5 -6c-6.66699 -13.333 -12.834 -32 -18.501 -56s-11.5 -50.167 -17.5 -78.5l-18.5 -85.5c-6.33301 -28.667 -13.833 -54 -22.5 -76l-45 -159
c-0.666992 -19.333 3.33301 -36.333 12 -51c2.66699 -2 5.83398 -3.83301 9.50098 -5.5s6.83398 -3.5 9.50098 -5.5s4.16699 -4.83301 4.5 -8.5s-0.833984 -8.5 -3.50098 -14.5c-9.33301 -10 -17.666 -21 -24.999 -33l-22.5 -35.5c-7.66699 -11.667 -15.667 -22.667 -24 -33
s-17.833 -18.833 -28.5 -25.5c-22 21.333 -40.167 49.333 -54.5 84s-27.333 71 -39 109l-34.5 111c-11.333 36 -24.666 66.333 -39.999 91c-6 -11.333 -13.667 -21.666 -23 -30.999s-18.333 -19 -27 -29s-16.334 -20.5 -23.001 -31.5s-10.667 -23.5 -12 -37.5
c-0.666992 -6.66699 0.5 -14 3.5 -22l9.5 -24.5c3.33301 -8.33301 6.33301 -16.5 9 -24.5s3.66699 -15.333 3 -22c-2 -14 -7 -25.167 -15 -33.5s-16.667 -16.166 -26 -23.499s-18.333 -15.5 -27 -24.5s-15.334 -21.167 -20.001 -36.5c-2 -4 -3.5 -8.5 -4.5 -13.5l-3 -14.5
c-1 -4.66699 -2.66699 -9.16699 -5 -13.5s-6.16602 -8.16602 -11.499 -11.499c-4 -2.66699 -7.83301 -3.16699 -11.5 -1.5s-7.16699 4.5 -10.5 8.5s-6.16602 8.83301 -8.49902 14.5s-3.83301 11.5 -4.5 17.5l-28.5 155.5l-28.5 152.5
c-9.33301 50.667 -18.166 101.834 -26.499 153.501s-15.833 104.5 -22.5 158.5c-4 8.66699 -9.5 15.667 -16.5 21l-20 15c-6.33301 4.66699 -11.833 9.5 -16.5 14.5s-7 12.167 -7 21.5c6 6.66699 12.667 10.5 20 11.5s14.666 0.5 21.999 -1.5s14.5 -4.5 21.5 -7.5
s13.833 -5.5 20.5 -7.5c15.333 -0.666992 30.833 -1.66699 46.5 -3s31.334 -1.5 47.001 -0.5s31 3.83301 46 8.5s29.5 12 43.5 22c9.33301 9.33301 18.833 13.333 28.5 12s17.167 -6.33301 22.5 -15c5.33301 -7.33301 5.83301 -14.666 1.5 -21.999s-8.83301 -13 -13.5 -17
c-4 -1.33301 -9.5 -4.5 -16.5 -9.5l-21.5 -15.5c-7.33301 -5.33301 -14.833 -9.83301 -22.5 -13.5s-13.834 -4.83398 -18.501 -3.50098c-3.33301 -5.33301 -4.83301 -10.666 -4.5 -15.999s1.5 -10.833 3.5 -16.5l6 -17.5c2 -6 3 -12 3 -18
c3.33301 -20 5.66602 -39.167 6.99902 -57.5s2.5 -36.5 3.5 -54.5s2.33301 -36 4 -54s4.5 -37 8.5 -57c4.66699 -27.333 11.334 -40.333 20.001 -39c5.33301 0 11.166 4.33301 17.499 13l20.5 28c8.66699 13.333 17.667 29.166 27 47.499l27.5 54.5l25.5 50.5
c8 15.667 15.333 27.834 22 36.501c10.667 6 19.667 7 27 3s13.666 -10.333 18.999 -19s10.5 -18 15.5 -28s10.5 -18 16.5 -24c15.333 -33.333 29.333 -67.333 42 -102s26.667 -68.334 42 -101.001c10 14 17.333 30.833 22 50.5l14 57.5
c7.33301 12.667 13.166 28.834 17.499 48.501s8.16602 40.167 11.499 61.5l9.5 62.5c3 20.333 6.83301 37.5 11.5 51.5c0 15.333 -3.83301 26.333 -11.5 33s-16.5 11.667 -26.5 15l-31 10c-10.667 3.33301 -19 9.66602 -25 18.999c-8.66699 7.33301 -13 14.333 -13 21
s7.66699 8.33398 23 5.00098c28 -6.66699 54.333 -10 79 -10s53.334 4.66699 86.001 14c8.66699 -2 16.667 -2.66699 24 -2s14.166 1.5 20.499 2.5s12.333 1.5 18 1.5s11.167 -1.33301 16.5 -4c6 -3.33301 8.33301 -8.16602 7 -14.499s-3.33301 -13.166 -6 -20.499z" />
    <glyph glyph-name="X" unicode="X" horiz-adv-x="640" 
d="M641 660c3.33301 -8.66699 2.84375 -17.6768 -1.48926 -27.0098s-10.166 -16 -17.499 -20l-45 -1c-10.667 -15.333 -22.334 -30.666 -35.001 -45.999l-38 -47c-12.667 -16 -24.834 -32.333 -36.501 -49s-21.5 -33.667 -29.5 -51c6 -24 13.333 -47.5 22 -70.5l27 -68.5
l27.5 -68c9 -22.667 17.167 -45.667 24.5 -69c5.33301 -10.667 11.833 -16.5 19.5 -17.5s15.167 -3.83301 22.5 -8.5c6.66699 -9.33301 14 -18.166 22 -26.499s10.667 -19.833 8 -34.5c-6 -4 -12.333 -5.66699 -19 -5s-13.334 1.83398 -20.001 3.50098s-13.5 3.5 -20.5 5.5
s-13.833 2.66699 -20.5 2c-21.333 -8 -43 -14 -65 -18s-43.667 -9.33301 -65 -16c-6.66699 -8.66699 -14.834 -13.834 -24.501 -15.501s-18.5 -2.16699 -26.5 -1.5c-4 6.66699 -5.33301 12.834 -4 18.501s3.66602 11.167 6.99902 16.5s7.16602 10.333 11.499 15
s7.83301 9 10.5 13c-6.66699 32 -16 62.333 -28 91s-23 58 -33 88l-7 1c-18 -32 -34.333 -64.5 -49 -97.5l-45 -98.5c0.666992 -8 3.66699 -13.167 9 -15.5s10.666 -4.33301 15.999 -6s9.5 -4.33398 12.5 -8.00098s2.5 -10.5 -1.5 -20.5l-10 -5
c-14.667 1.33301 -28.834 1.33301 -42.501 0l-41 -4c-13.667 -1.33301 -27.5 -2.33301 -41.5 -3s-28.333 0.333008 -43 3c-6 11.333 -6.5 21.833 -1.5 31.5s10.167 18.5 15.5 26.5l41 21c28 38 53.167 77.167 75.5 117.5s46.833 79.833 73.5 118.5
c-1.33301 10.667 -4.33301 21.167 -9 31.5s-10 20.5 -16 30.5s-12.333 19.833 -19 29.5s-12 19.834 -16 30.501c-2.66699 12 -6.83398 23 -12.501 33l-17.5 30l-17.5 30c-5.66699 10 -9.83398 21 -12.501 33c-6.66699 12 -14.5 23.667 -23.5 35s-18.667 21.333 -29 30
s-21.5 15.334 -33.5 20.001s-24.667 6.33398 -38 5.00098c-3.33301 2 -5.16602 4.66699 -5.49902 8s-0.5 7 -0.5 11s-0.333008 7.66699 -1 11s-2.66699 6 -6 8c4.66699 9.33301 9.66699 14.833 15 16.5s11 1.66699 17 0s12.167 -3.66699 18.5 -6s12.833 -2.5 19.5 -0.5
c12.667 -2.66699 25.167 -3 37.5 -1s24.5 4.66699 36.5 8s24.333 6.33301 37 9s25.667 3.66699 39 3c9.33301 5.33301 19.166 8.83301 29.499 10.5s20.166 3.83398 29.499 6.50098c4.66699 0 9.5 0.166992 14.5 0.5s9.66699 0.166016 14 -0.500977s8.33301 -2.16699 12 -4.5
s6.5 -6.5 8.5 -12.5c2.66699 -8.66699 2.16699 -16.167 -1.5 -22.5s-8.16699 -11.166 -13.5 -14.499c-4.66699 2 -8.33398 1.33301 -11.001 -2s-5.33398 -6.33301 -8.00098 -9c12 -34.667 25.333 -68.167 40 -100.5s31.334 -63.833 50.001 -94.5
c9.33301 5.33301 16.666 14.333 21.999 27l15 36c0.666992 8.66699 4 17.334 10 26.001s11.5 17 16.5 25s7.66699 15.833 8 23.5s-4.5 15.167 -14.5 22.5c-5.33301 3.33301 -11.666 5.16602 -18.999 5.49902s-14.333 1.33301 -21 3s-11.834 4.83398 -15.501 9.50098
s-4.5 13.334 -2.5 26.001c22.667 6.66699 43.834 8.33398 63.501 5.00098s39 -7.66602 58 -12.999s38 -10 57 -14s39.167 -3.33301 60.5 2h1z" />
    <glyph glyph-name="Y" unicode="Y" horiz-adv-x="608" 
d="M631 683c-5.33301 -5.33301 -11.1699 -7.16211 -17.5029 -5.49512s-13 3.66699 -20 6s-14 3.16602 -21 2.49902s-13.833 -6 -20.5 -16l-42 -62.5l-49.5 -73l-50 -73c-16.333 -23.667 -30.166 -44.5 -41.499 -62.5c-2 -20.667 -4.5 -48.334 -7.5 -83.001
s-5.5 -70.834 -7.5 -108.501s-3.66699 -74 -5 -109s-1.33301 -63.167 0 -84.5c2 -7.33301 7.16699 -11.666 15.5 -12.999s17.333 -1.83301 27 -1.5s18.667 0.333008 27 0s13.166 -3.16602 14.499 -8.49902s0.166016 -9.83301 -3.50098 -13.5
s-8.16699 -6.83398 -13.5 -9.50098s-11.166 -5 -17.499 -7s-11.166 -4 -14.499 -6c-16 2 -33.167 3.66699 -51.5 5s-37 1.83301 -56 1.5s-37.5 -1.83301 -55.5 -4.5s-34.667 -6.33398 -50 -11.001c-3.33301 0.666992 -6.83301 0.666992 -10.5 0
s-7.16699 -1.16699 -10.5 -1.5s-6.5 0.333984 -9.5 2.00098s-4.83301 5.16699 -5.5 10.5l-4 23c-0.666992 4 1 9.33301 5 16c14 -2.66699 25.167 -3.33398 33.5 -2.00098s14.833 4 19.5 8s8.16699 8.5 10.5 13.5s4.16602 10.167 5.49902 15.5c4 20.667 6.83301 45 8.5 73
s2.83398 56.833 3.50098 86.5s1 58.667 1 87s0.333008 53.5 1 75.5c-12.667 34.667 -29.334 67 -50.001 97l-65 90c-4 8.66699 -9.33301 17.5 -16 26.5s-15 16.833 -25 23.5s-22.333 11.5 -37 14.5s-32 2.83301 -52 -0.5c-2.66699 3.33301 -3.66699 6.5 -3 9.5
s1.66699 5.83301 3 8.5s2.66602 5.66699 3.99902 9s1 7 -1 11c18 6 38.5 12.333 61.5 19s46.833 13 71.5 19s48.834 11.333 72.501 16s45.5 8 65.5 10c3.33301 -8 2.5 -14.5 -2.5 -19.5s-11.5 -9.33301 -19.5 -13l-24.5 -11c-8.33301 -3.66699 -13.833 -8.16699 -16.5 -13.5
s-0.833984 -12.166 5.49902 -20.499s19.833 -18.833 40.5 -31.5l43 -55.5l44 -58.5c3.33301 -4.66699 6.33301 -9.66699 9 -15s5.5 -10.166 8.5 -14.499s6.5 -8 10.5 -11s9 -4.5 15 -4.5c9.33301 10 20 25.5 32 46.5s23.833 43.167 35.5 66.5s22.5 46.166 32.5 68.499
l23 52.5c-1.33301 10 -4.16602 16.167 -8.49902 18.5s-9 3.16602 -14 2.49902s-10.167 -1.5 -15.5 -2.5s-10 0.166992 -14 3.5c-3.33301 2 -7.16602 3.66699 -11.499 5s-8.16602 3.33301 -11.499 6s-5.66602 6.16699 -6.99902 10.5s0 10.166 4 17.499
c35.333 -1.33301 72 -2.83301 110 -4.5s74.667 -2.83398 110 -3.50098c5.33301 -7.33301 7.83301 -14 7.5 -20s-1.5 -13 -3.5 -21z" />
    <glyph glyph-name="Z" unicode="Z" horiz-adv-x="576" 
d="M583 225c-8 -38.667 -18.4971 -76.3379 -31.4971 -113.005s-23.5 -74.667 -31.5 -114c-4 -10 -9.66699 -17.667 -17 -23s-15.666 -7.33301 -24.999 -6c-3.33301 3.33301 -5.33301 7.5 -6 12.5s-1 10.333 -1 16s-0.166992 11 -0.5 16s-2.16602 9.16699 -5.49902 12.5
c-52 -3.33301 -104.667 -4.5 -158 -3.5s-106 -0.833008 -158 -5.5c-5.33301 -1.33301 -11 -2.66602 -17 -3.99902s-12 -1.66602 -18 -0.999023s-11.667 2.66699 -17 6s-10 9 -14 17l5 50l79.5 219c25.667 73.333 49.167 148 70.5 224
c4.66699 4.66699 6.33398 10.834 5.00098 18.501s-0.333008 14.167 3 19.5c-9.33301 6.66699 -19.666 11.167 -30.999 13.5s-22.833 3.5 -34.5 3.5s-23.334 -0.333008 -35.001 -1s-22.5 0 -32.5 2c-7.33301 1.33301 -13.833 -0.666992 -19.5 -6
s-10.834 -11.666 -15.501 -18.999s-9.16699 -15.166 -13.5 -23.499s-8.83301 -15 -13.5 -20s-10 -7.5 -16 -7.5s-13 4.66699 -21 14c4.66699 24 10.834 47.167 18.501 69.5s13.834 45.5 18.501 69.5c-0.666992 15.333 1.16602 29.666 5.49902 42.999
s11.166 24.333 20.499 33c8.66699 -1.33301 13.5 -5.66602 14.5 -12.999s1.33301 -15.166 1 -23.499s0.333984 -16.333 2.00098 -24s7.5 -12.167 17.5 -13.5l311 13c3.33301 6 7.16602 9 11.499 9s8.66602 -0.5 12.999 -1.5s8.66602 -1.66699 12.999 -2
s8.16602 2.5 11.499 8.5l15.5 -18c5 -6 6.16699 -13.667 3.5 -23c-13.333 -22.667 -27.833 -46 -43.5 -70s-26.834 -50 -33.501 -78l-86 -202c-28.667 -66.667 -53 -136.334 -73 -209.001c-1.33301 -6.66699 0.166992 -11.167 4.5 -13.5s8.16602 -4.5 11.499 -6.5
c18 -3.33301 35.833 -4.33301 53.5 -3s35.334 3.33301 53.001 6s35.167 5.66699 52.5 9s34.666 5.66602 51.999 6.99902c8 10.667 15.333 22.667 22 36l20.5 40.5c7 13.667 14.5 26.834 22.5 39.501s17 23.667 27 33l9 -12v-1z" />
    <glyph glyph-name="bracketleft" unicode="[" horiz-adv-x="341" 
d="M294 -92c-8 9.33301 -19.1748 15.1709 -33.5078 17.5039s-30.166 2.66602 -47.499 0.999023s-35.333 -4.16699 -54 -7.5s-36.167 -6.16602 -52.5 -8.49902s-31 -3.33301 -44 -3s-22.5 3.83301 -28.5 10.5c-5.33301 6.66699 -6.83301 12.167 -4.5 16.5
s5.33301 9.16602 9 14.499s6.66699 12 9 20s0.5 18.667 -5.5 32c3.33301 6 4 11.833 2 17.5s-3 11.5 -3 17.5c0 42 -1 88.833 -3 140.5s-4.33301 104.5 -7 158.5s-5 107 -7 159s-3 99 -3 141c-1.33301 6 -1.5 14 -0.5 24s1.66699 19.833 2 29.5
s-0.166992 18.334 -1.5 26.001s-4.66602 12.167 -9.99902 13.5c-10 9.33301 -15.5 16.666 -16.5 21.999s0.833008 9.16602 5.5 11.499s11.334 3.5 20.001 3.5s17.334 -0.333008 26.001 -1s16.334 -1.5 23.001 -2.5s10.667 -1.16699 12 -0.5l6 8
c2.66699 4 6.66699 6.16699 12 6.5s10.833 0.166016 16.5 -0.500977s11.334 -0.833984 17.001 -0.500977s10.5 2.5 14.5 6.5c6.66699 0 18.334 0.5 35.001 1.5s33.667 1.16699 51 0.5s32.666 -3 45.999 -7s20 -10.333 20 -19c0 -12 -3.66699 -20.5 -11 -25.5
s-16.666 -8.5 -27.999 -10.5s-23.666 -3 -36.999 -3s-25.666 -1 -36.999 -3s-20.833 -5.66699 -28.5 -11s-11.834 -14 -12.501 -26c-2 -50 -2.83301 -101.667 -2.5 -155s1.33301 -106.666 3 -159.999s3.5 -106.333 5.5 -159s3.66699 -103.667 5 -153
c-1.33301 -17.333 1.16699 -31 7.5 -41s14.666 -17.667 24.999 -23s21.833 -9 34.5 -11s24.834 -3.66699 36.501 -5s21.834 -2.83301 30.501 -4.5s14 -4.5 16 -8.5l10 -22.5c3.33301 -7.66699 2.66602 -15.834 -2.00098 -24.501z" />
    <glyph glyph-name="backslash" unicode="\" horiz-adv-x="400" 
d="M392 6c-1.33301 -8 -4.00098 -13.168 -8.00098 -15.501s-8.66699 -3.16602 -14 -2.49902s-11.166 2 -17.499 4s-12.333 2.83301 -18 2.5s-10.667 -2.66602 -15 -6.99902s-7.16602 -11.833 -8.49902 -22.5c-4.66699 6.66699 -9.16699 15.834 -13.5 27.501
s-8.16602 23.667 -11.499 36l-9 34c-2.66699 10.333 -4.33398 18.166 -5.00098 23.499l-43 109l-55 135l-58.5 142l-52 130c-15 39.333 -27 72.333 -36 99s-12.833 43 -11.5 49c4 -2 7.83301 -2.16699 11.5 -0.5s7.16699 3.66699 10.5 6s6.5 4.16602 9.5 5.49902
s6.16699 0.666016 9.5 -2.00098l6 -5c1.33301 0 5.83301 3.16699 13.5 9.5s15.167 11.333 22.5 15s13.333 4 18 1s5 -13.5 1 -31.5c-3.33301 -3.33301 -4 -8.66602 -2 -15.999s4.83301 -15.333 8.5 -24s7.66699 -17.334 12 -26.001s7.16602 -16 8.49902 -22l48 -128.5
l53 -146l52.5 -146.5c17 -48 33.167 -91 48.5 -129c2 -5.33301 3.5 -10.666 4.5 -15.999s3.83301 -10.333 8.5 -15c0.666992 -14 3 -24.167 7 -30.5s8 -11.333 12 -15l10.5 -10c3 -3 3.83301 -8.5 2.5 -16.5v-1z" />
    <glyph glyph-name="bracketright" unicode="]" horiz-adv-x="341" 
d="M315 728c-6 -1.33301 -9.67188 -5.83691 -11.0049 -13.5039s-1.83301 -16.5 -1.5 -26.5s1 -20 2 -30s0.833008 -18 -0.5 -24c0 -42 -1 -89 -3 -141s-4.33301 -105 -7 -159s-5 -106.833 -7 -158.5s-3 -98.5 -3 -140.5c0 -5.33301 -1 -10.833 -3 -16.5
s-1.33301 -11.834 2 -18.501c-6 -13.333 -8 -23.833 -6 -31.5s4.83301 -14.167 8.5 -19.5s6.66699 -10.166 9 -14.499s0.833008 -9.5 -4.5 -15.5c-6 -6.66699 -15.5 -10.334 -28.5 -11.001s-27.667 0.166016 -44 2.49902s-33.833 5.16602 -52.5 8.49902
s-36.667 5.83301 -54 7.5s-33.166 1.33398 -47.499 -0.999023s-25.5 -8.16602 -33.5 -17.499l-19 3c-4.66699 8.66699 -5.33398 16.834 -2.00098 24.501l10 22.5c2 4 7.33301 6.83301 16 8.5s18.667 3.16699 30 4.5s23.333 3 36 5s24.334 5.66699 35.001 11s19 13 25 23
s8.33301 23.667 7 41c1.33301 48.667 3 99.334 5 152.001s3.83301 105.667 5.5 159s2.66699 106.666 3 159.999s-0.5 105 -2.5 155c-0.666992 12 -4.83398 20.833 -12.501 26.5s-17.167 9.5 -28.5 11.5s-23.5 3 -36.5 3s-25.167 1 -36.5 3s-20.666 5.5 -27.999 10.5
s-11 13.5 -11 25.5c0 8.66699 6.66699 15 20 19s28.666 6.33301 45.999 7s34.333 0.5 51 -0.5s28.334 -1.5 35.001 -1.5c4 -4 8.83301 -6.16699 14.5 -6.5s11.334 -0.166016 17.001 0.500977s11 0.833984 16 0.500977s9.16699 -2.5 12.5 -6.5l6 -8
c1.33301 -0.666992 5.33301 -0.5 12 0.5s14.334 1.83301 23.001 2.5s17.334 1 26.001 1s15.334 -1.16699 20.001 -3.5s6.5 -6.16602 5.5 -11.499s-6.5 -12.666 -16.5 -21.999h1z" />
    <glyph glyph-name="asciicircum" unicode="^" 
d="M365 471c-2 -6.66699 -3.66895 -10.333 -5.00195 -11c-1.33301 -1.33301 -2.33301 -1.66602 -3 -0.999023l-43 33c-11.333 8.66699 -22.833 16.667 -34.5 24s-20.834 11.666 -27.501 12.999s-13 2.83301 -19 4.5s-11.667 3.5 -17 5.5l-16 7
c-12.667 -10 -24.667 -18.667 -36 -26c-9.33301 -6.66699 -19.166 -13 -29.499 -19s-18.166 -9.33301 -23.499 -10c-6 -1.33301 -11 -3.5 -15 -6.5s-7.66699 -6.16699 -11 -9.5c-3.33301 -4 -6.33301 -8.33301 -9 -13l-34 6l67 79l26.5 30l24.5 27l19.5 20.5
c5.66699 5.66699 9.83398 9.16699 12.501 10.5c5.33301 3.33301 11.166 4 17.499 2s12.166 -4.66699 17.499 -8c6.66699 -4 13.334 -8.66699 20.001 -14l30 -27l23.5 -22.5c7.66699 -7.66699 13.834 -13.167 18.501 -16.5c4 -4 8.83301 -9.66699 14.5 -17s11 -15 16 -23
s9 -15.667 12 -23s4.16699 -12.333 3.5 -15z" />
    <glyph glyph-name="underscore" unicode="_" horiz-adv-x="459" 
d="M470 -163c-4.66699 -2 -10.6621 -2.83398 -17.9951 -2.50098s-14.666 1 -21.999 2s-14.166 2 -20.499 3s-10.833 1.83301 -13.5 2.5c-18.667 0 -41.167 -0.5 -67.5 -1.5s-54.166 -2.16699 -83.499 -3.5l-88.5 -4c-29.667 -1.33301 -56.5 -2.16602 -80.5 -2.49902
s-44.167 0 -60.5 1s-25.833 3.16699 -28.5 6.5c4 5.33301 5.66699 9.5 5 12.5s-1.33398 7.16699 -2.00098 12.5l-3 25c0 1.33301 1.16699 3 3.5 5s5 3.83301 8 5.5s5.66699 3 8 4l3.5 1.5c0.666992 -3.33301 3.16699 -5.33301 7.5 -6s9.16602 -0.833984 14.499 -0.500977
s10.666 1 15.999 2s9.66602 1.16699 12.999 0.5c23.333 0.666992 49.666 0.666992 78.999 0s59.333 -1.5 90 -2.5s60.667 -1.83301 90 -2.5s55.666 -0.666992 78.999 0c3.33301 0 6.66602 -0.5 9.99902 -1.5s6.66602 -0.5 9.99902 1.5c8 -3.33301 14 -4.33301 18 -3
s7.5 3.16602 10.5 5.49902l7.5 6c2 1.66699 5 0.833984 9 -2.49902c6 -5.33301 8.16699 -10.166 6.5 -14.499s-4 -9 -7 -14s-4.83301 -10.333 -5.5 -16s3.33301 -12.167 12 -19.5z" />
    <glyph glyph-name="grave" unicode="`" horiz-adv-x="362" 
d="M283 503c4.66699 -4.66699 4.5 -10 -0.5 -16s-12.5 -8.33301 -22.5 -7c-5.33301 0.666992 -14.833 4.16699 -28.5 10.5l-45 21l-49 23c-16.333 7.66699 -29.5 13.5 -39.5 17.5s-17.5 8.83301 -22.5 14.5s-8.16699 12 -9.5 19s-1.5 14.333 -0.5 22
s2.16699 15.167 3.5 22.5s4.66602 12.5 9.99902 15.5s11.166 4.83301 17.499 5.5s12.833 0.166992 19.5 -1.5s12.334 -3.5 17.001 -5.5c2.66699 -1.33301 8.16699 -5.66602 16.5 -12.999l28.5 -25.5c10.667 -9.66699 21.834 -20.334 33.501 -32.001l32.5 -32l26 -25.5z" />
    <glyph glyph-name="a" unicode="a" 
d="M243 73c-0.666992 20.667 -2.32617 42.501 -4.99316 65.501s-2.33398 44.833 0.999023 65.5c-2.66699 4 -6.33398 5.33301 -11.001 4c-3.33301 -8.66699 -9 -14.167 -17 -16.5s-15.667 -3.5 -23 -3.5c-3.33301 -2.66699 -6.83301 -4.66699 -10.5 -6
s-7.33398 -3 -11.001 -5s-6.83398 -4.5 -9.50098 -7.5s-4.33398 -7.16699 -5.00098 -12.5c-8.66699 -17.333 -12.334 -37.333 -11.001 -60s7.66602 -42.334 18.999 -59.001c5.33301 -4 10.5 -5 15.5 -3s10.5 2 16.5 0c10.667 2 20 7 28 15zM420.008 91.001
l-20.0068 -26.4941c-6.66699 -9 -13.667 -17.333 -21 -25s-15 -14.667 -23 -21s-17 -10.833 -27 -13.5c-12 -3.33301 -24.5 -5 -37.5 -5s-24.833 3 -35.5 9c-2.66699 2 -5 4.83301 -7 8.5s-4.16699 6.83398 -6.5 9.50098s-4.83301 4.16699 -7.5 4.5
s-6 -1.83398 -10 -6.50098c-15.333 -12 -33.166 -19.833 -53.499 -23.5s-39.833 -2.83398 -58.5 2.49902c-10 2.66699 -20.333 6.66699 -31 12s-20.5 11.666 -29.5 18.999s-16.5 15.666 -22.5 24.999s-9.33301 19.666 -10 30.999c-1.33301 21.333 2.66699 42.666 12 63.999
s23.333 38.333 42 51c5.33301 2.66699 11.833 5.66699 19.5 9s15.167 5.33301 22.5 6c1.33301 1.33301 2.5 2.66602 3.5 3.99902s2.5 1.66602 4.5 0.999023c2 0.666992 5 0.833984 9 0.500977s7.33301 0.5 10 2.5c19.333 2 37.5 6.5 54.5 13.5s30.833 20.167 41.5 39.5
c4.66699 30.667 0.333984 60 -12.999 88c-6 6.66699 -12.333 10.5 -19 11.5s-13.5 0.666992 -20.5 -1s-13.833 -4.16699 -20.5 -7.5s-13 -6 -19 -8c-6.66699 -6 -11.334 -11.333 -14.001 -16s-1.33398 -11.334 3.99902 -20.001
c3.33301 -3.33301 5.16602 -7.83301 5.49902 -13.5s-0.166992 -10.5 -1.5 -14.5c1.33301 -3.33301 0.5 -7.16602 -2.5 -11.499s-5.16699 -8.5 -6.5 -12.5c-9.33301 -10.667 -19.666 -18.834 -30.999 -24.501s-23.666 -7.16699 -36.999 -4.5
c-11.333 2 -21.166 8.66699 -29.499 20s-13.166 23 -14.499 35c-3.33301 18 0.333984 32.333 11.001 43s23 20 37 28c20 11.333 43.333 21.833 70 31.5s53.334 14.5 80.001 14.5c20.667 0 40.167 -4 58.5 -12s33.833 -21.667 46.5 -41c3.33301 -8.66699 6.5 -16.5 9.5 -23.5
s5.66699 -14 8 -21s4.5 -14.167 6.5 -21.5s3.66699 -16 5 -26c-3.33301 -21.333 -5.83301 -42.666 -7.5 -63.999s-3.5 -42.666 -5.5 -63.999c2.66699 -4.66699 4.16699 -10.834 4.5 -18.501s0.5 -15.834 0.5 -24.501s0.5 -16.667 1.5 -24s3.83301 -12.666 8.5 -15.999
c8.66699 2 15 4.83301 19 8.5s7 7.66699 9 12s3.83301 8.66602 5.5 12.999s4.83398 8.5 9.50098 12.5c3.33301 -1.33301 8.33301 -4.16602 15 -8.49902s9.33398 -7.83301 8.00098 -10.5z" />
    <glyph glyph-name="b" unicode="b" horiz-adv-x="458" 
d="M316 110c1.33301 12.667 3.00098 27.501 5.00098 44.501s3 34.333 3 52s-1.66699 34.334 -5 50.001s-9.33301 28.5 -18 38.5c-6.66699 8 -14.5 11.667 -23.5 11s-18 -3.5 -27 -8.5s-17.667 -11.5 -26 -19.5s-15.5 -15.333 -21.5 -22
c-2.66699 -8.66699 -4.66699 -20.5 -6 -35.5s-2 -30.833 -2 -47.5s0.5 -32.667 1.5 -48s2.5 -27.333 4.5 -36c9.33301 -23.333 19.666 -40.333 30.999 -51s26.333 -16.334 45 -17.001c7.33301 2 12.833 7 16.5 15s6.66699 16.667 9 26s4.33301 18.666 6 27.999
s4.16699 16.333 7.5 21v-1zM445.001 231.001c1.33301 -8.66699 1.66309 -18.501 0.996094 -29.501s-1.66699 -22.333 -3 -34s-3.16602 -23 -5.49902 -34s-4.5 -20.5 -6.5 -28.5c-2.66699 -9.33301 -6 -17.833 -10 -25.5s-6.66699 -16.5 -8 -26.5
c-1.33301 -10.667 -7 -20 -17 -28s-19.667 -15 -29 -21c-19.333 -6.66699 -39.5 -10.5 -60.5 -11.5s-39.833 1.5 -56.5 7.5c-9.33301 4.66699 -18.333 10.667 -27 18s-16.667 21 -24 41c-3.33301 -2 -4 -4 -2 -6s3 -4 3 -6c-3.33301 -6.66699 -5.16602 -12 -5.49902 -16
s-1 -7.5 -2 -10.5s-3 -6 -6 -9s-8.5 -6.5 -16.5 -10.5c-10 -2 -17.5 -2.83301 -22.5 -2.5s-9.5 1 -13.5 2s-8.83301 1.66699 -14.5 2s-13.834 -0.5 -24.501 -2.5h-28.5c-9 0 -19.167 -0.333008 -30.5 -1c-4 3.33301 -6.16699 7.5 -6.5 12.5s0.5 9.83301 2.5 14.5
c2.66699 3.33301 6 5.66602 10 6.99902s7.83301 2.5 11.5 3.5s7.33398 2.16699 11.001 3.5s7.16699 3.66602 10.5 6.99902c1.33301 26 1 50 -1 72s-1.66699 45.667 1 71c1.33301 18 1.33301 37.333 0 58s0 40 4 58c-1.33301 26.667 -1.33301 54.667 0 84s0 57.333 -4 84
c3.33301 22 5 45.5 5 70.5s-2.66699 48.167 -8 69.5c-1.33301 6.66699 -4.5 10.5 -9.5 11.5s-10.333 1.33301 -16 1s-10.5 0.166992 -14.5 1.5s-5.66699 6 -5 14c0.666992 6.66699 2.83398 11.834 6.50098 15.501s8.16699 6.83398 13.5 9.50098s10.833 5 16.5 7
s10.834 4.66699 15.501 8c19.333 13.333 37.5 29.166 54.5 47.499s33.167 36.833 48.5 55.5c2.66699 -2 5.66699 -3 9 -3s5.66602 -2 6.99902 -6c5.33301 -40 6.66602 -79.333 3.99902 -118s-3.66699 -77 -3 -115c-4 -22.667 -5.5 -43 -4.5 -61s0.833008 -38 -0.5 -60
c2.66699 -8 3.33398 -16.667 2.00098 -26s0.333984 -17.666 5.00098 -24.999c-2 -10.667 -3.66699 -22.334 -5 -35.001s1.33398 -24 8.00098 -34l30 21.5c12 8.33301 24.667 15.833 38 22.5s26.666 11.667 39.999 15s25.666 3 36.999 -1
c24 -9.33301 44.833 -26.166 62.5 -50.499s28.834 -50.166 33.501 -77.499v-1z" />
    <glyph glyph-name="c" unicode="c" horiz-adv-x="334" 
d="M316 370c-3.33301 -26.667 -4.32715 -52.8389 -2.99414 -78.5059s1.33301 -52.167 0 -79.5c-0.666992 -2 -2 -4.33301 -4 -7s-4.66699 -3.33398 -8 -2.00098c-5.33301 0.666992 -9.5 2.5 -12.5 5.5s-5.5 6.66699 -7.5 11s-3.66699 8.83301 -5 13.5s-3.33301 9 -6 13
l-26 39.5c-8.66699 13 -18.667 25.5 -30 37.5c-6 2 -12.5 3.83301 -19.5 5.5s-13.5 0.5 -19.5 -3.5c-9.33301 -6 -16 -16 -20 -30s-6.5 -28.833 -7.5 -44.5s-1 -31 0 -46s1.5 -26.833 1.5 -35.5c3.33301 -5.33301 4.83301 -12.5 4.5 -21.5s0.166992 -16.167 1.5 -21.5
c3.33301 -15.333 8.16602 -30.166 14.499 -44.499s15.166 -26.5 26.499 -36.5c20.667 0.666992 39.334 6 56.001 16s33.667 19.667 51 29c7.33301 1.33301 10.833 -0.833984 10.5 -6.50098s-0.5 -10.167 -0.5 -13.5c-2 -11.333 -5.66699 -22.166 -11 -32.499
s-14 -16.833 -26 -19.5c-18 -12 -37.833 -20 -59.5 -24s-43.167 -7.66699 -64.5 -11c-10 -1.33301 -21 0.166992 -33 4.5s-23.5 10.5 -34.5 18.5s-20.833 16.833 -29.5 26.5s-14.334 18.834 -17.001 27.501c-4 10.667 -6.83301 20.334 -8.5 29.001s-3 16.834 -4 24.501
s-2.16699 15.334 -3.5 23.001s-3.33301 16.5 -6 26.5c-2 16.667 -2.83301 32.834 -2.5 48.501s2.16602 30.834 5.49902 45.501c4.66699 18.667 12 36 22 52s23.667 30.333 41 43c16.667 12 34.667 19.5 54 22.5l56 8.5c6.66699 -2 13.5 -3.66699 20.5 -5
s13.833 -2.83301 20.5 -4.5s13.167 -4 19.5 -7s12.166 -7.5 17.499 -13.5c4 1.33301 7.33301 3.83301 10 7.5s5.16699 7.5 7.5 11.5s5.16602 7.33301 8.49902 10s7.66602 3.66699 12.999 3z" />
    <glyph glyph-name="d" unicode="d" horiz-adv-x="476" 
d="M292 246c-8.66699 4 -16.8281 8.49902 -24.4951 13.499s-15.334 9.66699 -23.001 14s-15.834 7.83301 -24.501 10.5s-18.334 3.33398 -29.001 2.00098c-7.33301 -3.33301 -13.333 -8 -18 -14s-9 -12.667 -13 -20c-2 -4.66699 -4 -9.83398 -6 -15.501s-3 -10.167 -3 -13.5
c-3.33301 -5.33301 -4.83301 -12 -4.5 -20s1.16602 -15.333 2.49902 -22c2 -12.667 3.16699 -26 3.5 -40s1 -27.833 2 -41.5s3.33301 -26.5 7 -38.5s10.5 -22.667 20.5 -32c18 -3.33301 33.5 -0.5 46.5 8.5s26.167 19.167 39.5 30.5l11 -2
c3.33301 2.66699 5.16602 5.66699 5.49902 9s0.5 7 0.5 11v11.5c0 3.66699 1.33301 6.83398 4 9.50098l2 139h1zM488.006 619.999c-4 -0.666992 -9.32617 2 -15.9932 8l-21 18.5c-7.33301 6.33301 -14.5 11 -21.5 14s-12.5 1.5 -16.5 -4.5
c1.33301 -10 2.16602 -19.667 2.49902 -29s-0.833984 -18.333 -3.50098 -27c0 -2.66699 -1.5 -6.33398 -4.5 -11.001s-3.83301 -8.66699 -2.5 -12c0.666992 -13.333 1.5 -22.833 2.5 -28.5s1.66699 -10.5 2 -14.5s0.666016 -9 0.999023 -15s0.5 -15.667 0.5 -29
c-3.33301 -3.33301 -3.66602 -6.66602 -0.999023 -9.99902s2.33398 -6.66602 -0.999023 -9.99902c1.33301 -9.33301 2.16602 -19.166 2.49902 -29.499s-1.16699 -19.833 -4.5 -28.5c3.33301 -6.66699 3.83301 -14.334 1.5 -23.001s-2.83301 -16.667 -1.5 -24
c-2 -46.667 -2.66699 -93.5 -2 -140.5s1.66699 -94.167 3 -141.5c2.66699 -4 8.16699 -4.83301 16.5 -2.5s16.666 4.83301 24.999 7.5s15.5 4 21.5 4s8 -4.33301 6 -13c-2.66699 -11.333 -7.66699 -19.666 -15 -24.999s-15.5 -9.5 -24.5 -12.5s-18.167 -5.83301 -27.5 -8.5
s-17.333 -7.33398 -24 -14.001c-8 -3.33301 -15.333 -7 -22 -11s-13.167 -7.66699 -19.5 -11s-13 -6 -20 -8s-14.833 -2.66699 -23.5 -2c-2 6 -4.66699 11.667 -8 17s-5 11.666 -5 18.999c-10.667 -9.33301 -23 -16.833 -37 -22.5s-28.667 -10 -44 -13
s-30.833 -4.33301 -46.5 -4s-30.5 2.16602 -44.5 5.49902c-13.333 6 -26.666 11.5 -39.999 16.5s-24.333 14.5 -33 28.5c-10.667 12 -17 25.667 -19 41s-3.66699 30.666 -5 45.999c1.33301 11.333 2.5 22.833 3.5 34.5s2.16699 23 3.5 34s3.66602 21.833 6.99902 32.5
s8 20.667 14 30c16.667 24.667 38.167 43 64.5 55s54.166 19.667 83.499 23c10 0.666992 19.167 -0.166016 27.5 -2.49902s16.333 -5.5 24 -9.5s15.167 -8.33301 22.5 -13s14.666 -8.66699 21.999 -12c6 2.66699 8.16699 7.33398 6.5 14.001s-1.83398 12 -0.500977 16
c-3.33301 17.333 -4.83301 35.666 -4.5 54.999s2.16602 38.666 5.49902 57.999c-1.33301 4.66699 -2.33301 10.667 -3 18s-1 13.666 -1 18.999c-2 18.667 -2.5 33.334 -1.5 44.001s2.16699 20.334 3.5 29.001s2 18.167 2 28.5s-2 24.5 -6 42.5l-4.5 55
c-1.66699 20 -2.66699 39 -3 57s0.333984 33.833 2.00098 47.5s5.16699 22.5 10.5 26.5c10 -3.33301 18.833 -7.5 26.5 -12.5s15 -10.333 22 -16l21.5 -17.5c7.33301 -6 15.666 -12 24.999 -18c5.33301 -8.66699 14.833 -17.167 28.5 -25.5s26.667 -17.166 39 -26.499
s22 -19.5 29 -30.5s6.83301 -23.167 -0.5 -36.5z" />
    <glyph glyph-name="e" unicode="e" horiz-adv-x="355" 
d="M220 249c-0.666992 2 0.00292969 3.99609 2.00293 5.99609c-3.33301 8 -6.33301 16.667 -9 26s-4 18.333 -4 27c-3.33301 4.66699 -5.5 10.334 -6.5 17.001s-2.5 13.167 -4.5 19.5s-5 12 -9 17s-10.333 8.16699 -19 9.5c-8.66699 -3.33301 -15.334 -8 -20.001 -14
s-8 -12.5 -10 -19.5s-3 -14.333 -3 -22s0.333008 -14.5 1 -20.5c-2.66699 -6 -3.83398 -12.667 -3.50098 -20s1.16602 -14.666 2.49902 -21.999s3 -14.333 5 -21s3.66699 -12 5 -16c3.33301 -3.33301 7.33301 -3.33301 12 0s8.66699 3.33301 12 0
c4 2.66699 8.33301 4.33398 13 5.00098s9.33398 1 14.001 1s9.16699 0.333008 13.5 1s8.16602 2.33398 11.499 5.00098zM328.003 101.996c-6 -24 -18.333 -44.3301 -37 -60.9971s-38.334 -28.334 -59.001 -35.001c-20 -6.66699 -40.333 -8.66699 -61 -6
s-40.334 7.66699 -59.001 15c-19.333 11.333 -37 25.666 -53 42.999s-26.667 37.666 -32 60.999c-6 10 -10.333 22 -13 36s-4 27 -4 39c-0.666992 20.667 1.5 41.334 6.5 62.001s12.333 40.167 22 58.5s21.834 34.833 36.501 49.5s31.334 26 50.001 34
c20.667 9.33301 42.5 12.833 65.5 10.5s44.833 -8.5 65.5 -18.5l30 -36l26 -59.5c8.66699 -19.667 14 -41.5 16 -65.5c-2 -7.33301 -5.83301 -12.5 -11.5 -15.5s-12 -5.16699 -19 -6.5s-14 -2.33301 -21 -3s-13.167 -2.33398 -18.5 -5.00098
c-6 1.33301 -12.333 0.833008 -19 -1.5s-12.667 -5.16602 -18 -8.49902l-6 4c-10.667 -3.33301 -23.167 -6.16602 -37.5 -8.49902s-27.166 -3.5 -38.499 -3.5c-4 -6.66699 -4.5 -15.167 -1.5 -25.5s5.83301 -19.5 8.5 -27.5c2.66699 -1.33301 4.16699 -3.83301 4.5 -7.5
s-0.166992 -6.5 -1.5 -8.5c4.66699 -12.667 12 -23.334 22 -32.001s21.667 -14.667 35 -18c8 0.666992 16.333 0.166992 25 -1.5s16.667 -3.5 24 -5.5c4.66699 4 9.66699 7 15 9s10.5 4.5 15.5 7.5s9.66699 7.5 14 13.5s8.16602 15.333 11.499 28
c4 3.33301 7.5 3.16602 10.5 -0.500977s5.16699 -7.16699 6.5 -10.5z" />
    <glyph glyph-name="f" unicode="f" horiz-adv-x="350" 
d="M329 278l-100.003 -5.99805c-3.33301 -5.33301 -4.83301 -10.5 -4.5 -15.5s1 -10.167 2 -15.5l3 -16c1 -5.33301 0.833008 -11 -0.5 -17c-2 -22.667 -1.83301 -45.334 0.5 -68.001s1.5 -45 -2.5 -67c2.66699 -3.33301 4.16699 -7 4.5 -11s0.833008 -8 1.5 -12
s2 -7.5 4 -10.5s6 -5.16699 12 -6.5c3.33301 -1.33301 7.16602 -2 11.499 -2s8.33301 -0.333008 12 -1s6.83398 -1.83398 9.50098 -3.50098s3.66699 -5.16699 3 -10.5c0.666992 -6 -0.666016 -11.667 -3.99902 -17s-7.33301 -9 -12 -11c-32 2 -64.667 4.5 -98 7.5
s-65.666 1.5 -96.999 -4.5c-4 0 -7.33301 1.33301 -10 4s-5.66699 5.33398 -9 8.00098c2 6.66699 5.33301 12 10 16s10 7.33301 16 10l17.5 8c5.66699 2.66699 10.5 6.66699 14.5 12c2 20 2.16699 40.167 0.5 60.5s-0.833984 40.166 2.49902 59.499
c-2 18.667 -2.16699 35.167 -0.5 49.5s1.5 30.833 -0.5 49.5l-7 6c-16 1.33301 -31.833 2 -47.5 2s-31.167 0.333008 -46.5 1c0 3.33301 -0.5 6.83301 -1.5 10.5s-1.5 7.33398 -1.5 11.001s0.666992 6.66699 2 9s4.66602 4.16602 9.99902 5.49902
c7.33301 2 14.833 2.83301 22.5 2.5s15.334 -0.833008 23.001 -1.5s15.334 -1.16699 23.001 -1.5s15.167 0.833984 22.5 3.50098l4 11c1.33301 23.333 2.5 51.166 3.5 83.499l3 99c1 33.667 1.83301 66.167 2.5 97.5s1 57.666 1 78.999c2.66699 4 4.66699 8.16699 6 12.5
s2.5 8.83301 3.5 13.5s2.33301 9.16699 4 13.5s4.83398 8.16602 9.50098 11.499c12 9.33301 25 18.333 39 27s30 11.334 48 8.00098c13.333 -3.33301 26.5 -8.5 39.5 -15.5s23.167 -17.167 30.5 -30.5s12.833 -26 16.5 -38s2.5 -24.667 -3.5 -38
c-5.33301 -13.333 -13 -21.833 -23 -25.5s-20.667 -5.83398 -32 -6.50098c-8 0 -15.5 1.83301 -22.5 5.5s-13.5 8.5 -19.5 14.5s-11.333 12.667 -16 20l-13 21c-8.66699 2.66699 -14 1 -16 -5s-2.16699 -13.667 -0.5 -23s4 -18.5 7 -27.5s5.16699 -14.833 6.5 -17.5
c5.33301 -7.33301 9 -11.666 11 -12.999s6.66699 -3.66602 14 -6.99902c2 -14.667 2.83301 -33.167 2.5 -55.5s-0.833008 -46.333 -1.5 -72s-0.5 -51.167 0.5 -76.5s4.16699 -48.333 9.5 -69c4 -1.33301 9.16699 -2.33301 15.5 -3s13 -1.16699 20 -1.5
s13.833 -0.333008 20.5 0s12 0.833008 16 1.5c2 -1.33301 4.33301 -2 7 -2s5.5 0.166992 8.5 0.5s6 0.333008 9 0s5.16699 -1.5 6.5 -3.5z" />
    <glyph glyph-name="g" unicode="g" horiz-adv-x="386" 
d="M210 -107c-8.66699 18 -20.499 29 -35.499 33s-30.833 5.33301 -47.5 4c-4.66699 -6 -8.5 -12.667 -11.5 -20s-4.83301 -15.666 -5.5 -24.999c-0.666992 -12 -1 -24.167 -1 -36.5s1 -24 3 -35s5.5 -21.167 10.5 -30.5s12.167 -16.666 21.5 -21.999
c8.66699 -4 17.5 -4.83301 26.5 -2.5s17.167 5.5 24.5 9.5c7.33301 7.33301 12.166 16.333 14.499 27s3.5 21.667 3.5 33s-0.5 22.666 -1.5 33.999s-1.5 21.666 -1.5 30.999zM236.001 299c0 6 -2.33203 10.335 -6.99902 13.002s-10 4 -16 4s-12 -1.16699 -18 -3.5
s-10.333 -5.5 -13 -9.5c-2.66699 -4.66699 -4.33398 -10.167 -5.00098 -16.5s-0.333984 -11.833 0.999023 -16.5l-3 -3c-1.33301 -31.333 -3.33301 -62 -6 -92s-3 -60.667 -1 -92c2 -6.66699 6.5 -10.334 13.5 -11.001s14.167 -1 21.5 -1
c7.33301 2.66699 13.333 6.5 18 11.5s7 10.5 7 16.5c7.33301 33.333 12.333 66.666 15 99.999s0.333984 66.333 -6.99902 99v1zM375.002 382.002c-4.66699 -15.333 -12.1611 -29.8271 -22.4941 -43.4941s-21.166 -25.5 -32.499 -35.5
c1.33301 -9.33301 4.83301 -17.333 10.5 -24s7.83398 -15 6.50098 -25l5 -5l-1 -70c-6 -12 -10 -24.833 -12 -38.5s-6.66699 -26.167 -14 -37.5c-10 -16.667 -21.5 -31.167 -34.5 -43.5s-28.167 -19.166 -45.5 -20.499c-12 -6.66699 -25.833 -9.5 -41.5 -8.5
s-30.167 1.83301 -43.5 2.5c-3.33301 1.33301 -6.83301 2.83301 -10.5 4.5s-7.16699 1.16699 -10.5 -1.5c-2 -6 -4.5 -11.833 -7.5 -17.5s-5.5 -11.5 -7.5 -17.5s-3.33301 -12.167 -4 -18.5s0.333008 -13.166 3 -20.499c10 0.666992 19.833 2.5 29.5 5.5s19.5 5.5 29.5 7.5
s19.667 3 29 3s18.666 -2.33301 27.999 -7c18 -2.66699 34.5 -9 49.5 -19s28.833 -22.667 41.5 -38c-2 -4 -1.5 -7 1.5 -9s4.5 -4.66699 4.5 -8c2 -31.333 -2.33301 -60.333 -13 -87s-28.334 -48.334 -53.001 -65.001c-4.66699 -3.33301 -9.5 -5.33301 -14.5 -6
s-10.167 -1.66699 -15.5 -3c-6.66699 -4.66699 -13.5 -8 -20.5 -10s-14.167 -4.66699 -21.5 -8h-40c-2 3.33301 -4.83301 4.33301 -8.5 3s-6.83398 -0.666016 -9.50098 2.00098c-6.66699 -2 -13.167 -1.16699 -19.5 2.5s-13.166 6.16699 -20.499 7.5l-30 24.5
c-10.667 9 -17 20.167 -19 33.5c-12 14 -19.333 29.667 -22 47s-2.5 34.833 0.5 52.5s7.66699 35.167 14 52.5s12.5 33 18.5 47c7.33301 8.66699 13.166 17.834 17.499 27.501s10.166 19.167 17.499 28.5c0.666992 7.33301 -0.333008 14 -3 20s-6 12 -10 18l-11.5 18
c-3.66699 6 -5.83398 12.667 -6.50098 20c-1.33301 9.33301 -3 19.166 -5 29.499s-3.66699 20.666 -5 30.999s-1.5 20.5 -0.5 30.5s4.5 19.667 10.5 29c0.666992 9.33301 3.66699 17.166 9 23.499s9.66602 13.166 12.999 20.499c12 12 25 23.667 39 35s28.667 20.5 44 27.5
s31 11 47 12s32 -2.83301 48 -11.5c3.33301 1.33301 6.5 1.16602 9.5 -0.500977s6 -3.66699 9 -6s6 -4.83301 9 -7.5s6.16699 -4.33398 9.5 -5.00098c5.33301 -1.33301 8.66602 0.166992 9.99902 4.5s3.33301 8.16602 6 11.499c-1.33301 6 -3.33301 11.5 -6 16.5
s-5.16699 10.167 -7.5 15.5s-4 10.833 -5 16.5s0.166992 11.834 3.5 18.501c3.33301 9.33301 8.83301 16.166 16.5 20.499s15.167 7.16602 22.5 8.49902s13.666 0.666016 18.999 -2.00098s10.333 -6 15 -10c1.33301 -7.33301 3.83301 -15 7.5 -23s3.16699 -15.667 -1.5 -23
l1 -3z" />
    <glyph glyph-name="h" unicode="h" horiz-adv-x="498" 
d="M498 9c-2 -6 -6.66699 -10.9961 -14 -14.9961s-13.666 -6.66699 -18.999 -8c-16 -3.33301 -31.167 -4.33301 -45.5 -3s-29.166 1.66602 -44.499 0.999023c-5.33301 0 -10.333 -0.5 -15 -1.5l-17 -3.5c-5.33301 -1.33301 -11.333 -1.5 -18 -0.5s-10.667 3.83301 -12 8.5
c-4.66699 21.333 -7.33398 35.833 -8.00098 43.5s-0.5 13 0.5 16s2.5 5.66699 4.5 8s3.33301 8.5 4 18.5c0.666992 9.33301 1.5 22.166 2.5 38.499s1.66699 33.333 2 51s0 34.667 -1 51s-2.83301 29.166 -5.5 38.499c-1.33301 4 -3.5 8 -6.5 12s-4.83301 7.66699 -5.5 11
c-0.666992 2.66699 -1 5.83398 -1 9.50098s-1 6.16699 -3 7.5c-12 6 -20.833 9.83301 -26.5 11.5s-11 1 -16 -2s-10.833 -8.16699 -17.5 -15.5s-17 -17 -31 -29c-1.33301 -4 -1.66602 -10.667 -0.999023 -20s1.5 -19.5 2.5 -30.5s2.16699 -21.333 3.5 -31
s2 -16.834 2 -21.501c0.666992 -16.667 -1 -33.5 -5 -50.5s-4 -33.5 0 -49.5c4 -5.33301 9.66699 -9.16602 17 -11.499s14.333 -4.83301 21 -7.5s11.834 -6 15.501 -10s3.83398 -10.333 0.500977 -19c-1.33301 -4.66699 -5.33301 -7.5 -12 -8.5s-12.667 -0.5 -18 1.5
c-8.66699 2.66699 -18.167 4.33398 -28.5 5.00098s-20.833 0.666992 -31.5 0s-21.5 -1.16699 -32.5 -1.5s-21.5 0.5 -31.5 2.5c-6 1.33301 -13 1.33301 -21 0s-15.333 -3.33301 -22 -6c-3.33301 2 -7.33301 2.66699 -12 2s-9.33398 -1.16699 -14.001 -1.5
s-8.83398 0 -12.501 1s-6.16699 3.83301 -7.5 8.5c-2.66699 5.33301 -2 9.5 2 12.5l11 8.5c8.66699 0.666992 15.667 2 21 4s9.83301 4.5 13.5 7.5s6.83398 6.33301 9.50098 10s5.66699 7.5 9 11.5c6 26 8.5 55.333 7.5 88s-2.66699 66.334 -5 101.001
s-4.16602 69.167 -5.49902 103.5s0.333984 66.5 5.00098 96.5c-0.666992 14.667 -0.666992 29.334 0 44.001s1.16699 29.167 1.5 43.5s-0.333984 28.5 -2.00098 42.5s-5.16699 27.333 -10.5 40c-8.66699 6 -17 8.33301 -25 7s-15.333 -3.5 -22 -6.5s-12.5 -5.5 -17.5 -7.5
s-8.83301 -0.666992 -11.5 4c0 2 1.5 5.5 4.5 10.5s6.5 10 10.5 15s8 9.66699 12 14s7.33301 7.16602 10 8.49902c23.333 13.333 45.333 30.666 66 51.999l57 61c6 2.66699 12.5 3.66699 19.5 3s11.5 -5.33398 13.5 -14.001
c-0.666992 -5.33301 -0.333984 -10.666 0.999023 -15.999s0.333008 -10 -3 -14c2 -12 2.16699 -25 0.5 -39s-1.83398 -26.667 -0.500977 -38c2 -13.333 2.5 -26.5 1.5 -39.5l-3 -39c-1 -13 -1.16699 -26 -0.5 -39s3 -25.833 7 -38.5c2.66699 -12 4 -24.5 4 -37.5
s-0.5 -26.167 -1.5 -39.5l-3 -40c-1 -13.333 -0.833008 -26.333 0.5 -39c0.666992 -8 2.66699 -15.167 6 -21.5s5 -13.5 5 -21.5c6.66699 8 14.834 16.167 24.501 24.5s19.334 16.166 29.001 23.499l27 20c8.33301 6 14.833 10 19.5 12c13.333 6.66699 26.666 8 39.999 4
s25 -8.33301 35 -13c9.33301 -4.66699 17.833 -11 25.5 -19s13.5 -17.333 17.5 -28c2 -6 4.33301 -11.167 7 -15.5s4.66699 -10.5 6 -18.5s1.66602 -18.833 0.999023 -32.5s-3.33398 -32.5 -8.00098 -56.5c2 -9.33301 2.16699 -20.833 0.5 -34.5s-3.5 -27.834 -5.5 -42.501
s-3.33301 -28.667 -4 -42s0.666016 -24.333 3.99902 -33c4.66699 -12 11.5 -19.5 20.5 -22.5s17.833 -4.66699 26.5 -5s15.667 -1.33301 21 -3s7 -6.83398 5 -15.501v-1z" />
    <glyph glyph-name="i" unicode="i" horiz-adv-x="241" 
d="M233 19c-1.33301 -3.33301 -2.49805 -6.67285 -3.49805 -10.0059s-3.5 -6.33301 -7.5 -9c-11.333 -3.33301 -24.333 -4 -39 -2s-27.667 3.66699 -39 5c-8 0.666992 -16.5 0.833984 -25.5 0.500977s-17.833 -1.16602 -26.5 -2.49902c-1.33301 2 -3 2.83301 -5 2.5
s-4 -0.166016 -6 0.500977l-3 -3c-3.33301 3.33301 -6.5 4 -9.5 2s-6.16699 -3.33301 -9.5 -4c-6.66699 1.33301 -13.667 1.33301 -21 0s-13.666 1.33398 -18.999 8.00098c-1.33301 6.66699 -0.833008 12.667 1.5 18s5.83301 9.33301 10.5 12c8.66699 2 17.167 4.5 25.5 7.5
s14.833 8.5 19.5 16.5c2.66699 10 4.16699 21.833 4.5 35.5s0.166016 27.834 -0.500977 42.501s-1.16699 28.834 -1.5 42.501s0.5 25.167 2.5 34.5c-0.666992 4 -0.833984 9.16699 -0.500977 15.5s0.5 12.666 0.5 18.999s-0.5 12.333 -1.5 18s-3.5 9.83398 -7.5 12.501
s-8 4 -12 4h-11.5c-3.66699 0 -7.33398 0.166992 -11.001 0.5s-6.83398 2.16602 -9.50098 5.49902c-2.66699 10 -2 17.167 2 21.5s9.33301 7.16602 16 8.49902l21 4c7.33301 1.33301 13.333 4 18 8c16.667 4.66699 32.5 10.5 47.5 17.5s29.167 16.5 42.5 28.5
c6 1.33301 9.66699 -0.333984 11 -5.00098s3 -8.66699 5 -12c1.33301 -3.33301 1.33301 -6.16602 0 -8.49902s-2.33301 -5.16602 -3 -8.49902l2 -2c-2 -1.33301 -2.83301 -2.83301 -2.5 -4.5s0.5 -3.16699 0.5 -4.5c0 -2 -0.166992 -7 -0.5 -15s0.5 -13.333 2.5 -16
c-1.33301 -16 -2 -33.667 -2 -53v-59c0 -20 -0.333008 -39.667 -1 -59s-2.33398 -37 -5.00098 -53c2.66699 -4 4 -8.83301 4 -14.5s0.5 -11 1.5 -16s2.83301 -9.16699 5.5 -12.5s7.66699 -5 15 -5c4.66699 -2 8.83398 -4.16699 12.501 -6.5
s7.83398 -4.16602 12.501 -5.49902zM173.002 566.993c6 -9.33301 7.16699 -18.999 3.5 -28.999l-10.5 -29c-9.33301 -10.667 -20.666 -17 -33.999 -19s-26.666 -1.33301 -39.999 2c-5.33301 3.33301 -8.5 7.5 -9.5 12.5s-3.16699 9.5 -6.5 13.5
c-0.666992 14.667 0.166016 29 2.49902 43s10.166 24.667 23.499 32c14 1.33301 27 0.166016 39 -3.50098s22.667 -11.167 32 -22.5z" />
    <glyph glyph-name="j" unicode="j" horiz-adv-x="241" 
d="M207 281c-2.66699 -11.333 -3.3252 -23.6719 -1.99219 -37.0049s0 -25.666 -4 -36.999c0 -4 -0.166992 -9 -0.5 -15s0.5 -11.333 2.5 -16c-2.66699 -7.33301 -3.33398 -15 -2.00098 -23s1.33301 -15.333 0 -22c2.66699 -2 3.83398 -9 3.50098 -21
s-1.16602 -24.667 -2.49902 -38s-2.33301 -26 -3 -38s0 -19 2 -21c0 -5.33301 -1.33301 -10.833 -4 -16.5s-1.33398 -11.167 3.99902 -16.5c0 -7.33301 -1.33301 -15.166 -4 -23.499s-1.33398 -16.166 3.99902 -23.499c-3.33301 -3.33301 -4.83301 -7.83301 -4.5 -13.5
s1.16602 -10.167 2.49902 -13.5c-3.33301 -9.33301 -4.33301 -19.5 -3 -30.5s-0.333984 -20.833 -5.00098 -29.5c2.66699 -2 4.16699 -4 4.5 -6s0.166016 -4 -0.500977 -6s-1.16699 -4 -1.5 -6s0.5 -4 2.5 -6c-2 -5.33301 -3.66699 -11 -5 -17l-4 -18
c-1.33301 -6 -3.33301 -11.667 -6 -17s-6.66699 -10 -12 -14c-0.666992 -6 -2.66699 -10.667 -6 -14s-7.16602 -6.16602 -11.499 -8.49902s-9 -4.5 -14 -6.5s-9.5 -4 -13.5 -6c-19.333 -1.33301 -36.833 0.833984 -52.5 6.50098s-29.834 15.5 -42.501 29.5
c-7.33301 11.333 -11.5 25 -12.5 41s1.5 30.333 7.5 43c7.33301 11.333 17.166 18.5 29.499 21.5s25.166 2.83301 38.499 -0.5c15.333 -8 28.666 -19.333 39.999 -34c3.33301 -1.33301 5.16602 -0.833008 5.49902 1.5s1.16602 4.16602 2.49902 5.49902
c2.66699 6.66699 2.83398 12.334 0.500977 17.001s-5.66602 8.83398 -9.99902 12.501s-9 6.66699 -14 9s-9.16699 5.16602 -12.5 8.49902l-15 2v350c-5.33301 3.33301 -11.333 4 -18 2s-13.334 -0.666992 -20.001 4l-24 2c-1.33301 8 -0.5 15.167 2.5 21.5
s7.83301 11.166 14.5 14.499c25.333 8.66699 50 19 74 31l72 35c4.66699 1.33301 7.66699 1.16602 9 -0.500977s2 -3.83398 2 -6.50098v-9c0 -3.33301 1.33301 -5.66602 4 -6.99902c2 -5.33301 2.83301 -11 2.5 -17s-0.5 -11 -0.5 -15
c-2.66699 -1.33301 -3.16699 -2.66602 -1.5 -3.99902s2.16699 -2.66602 1.5 -3.99902zM186.009 577.994c4 -9.33301 4.16699 -18.333 0.5 -27s-6.16699 -17.334 -7.5 -26.001c-10.667 -9.33301 -22.667 -15.666 -36 -18.999c-6.66699 2 -13.334 3.83301 -20.001 5.5
s-13 4.5 -19 8.5c-5.33301 7.33301 -9.16602 15.333 -11.499 24s-1.83301 17.667 1.5 27c2 10 7.33301 17.167 16 21.5s16.667 8.83301 24 13.5c9.33301 -2 19 -4.33301 29 -7s17.667 -9.66699 23 -21z" />
    <glyph glyph-name="k" unicode="k" horiz-adv-x="440" 
d="M430 79c-7.33301 -8 -14.0068 -16.4941 -20.0068 -25.4941s-12.5 -17.5 -19.5 -25.5s-15 -14.5 -24 -19.5s-19.833 -6.83301 -32.5 -5.5c-12 0.666992 -21.667 4.16699 -29 10.5s-13.666 13.666 -18.999 21.999s-10 17.166 -14 26.499s-8.66699 17.666 -14 24.999l-33 46
l-32 46l-10 -4c-1.33301 -21.333 -2.16602 -43.166 -2.49902 -65.499s0.5 -44.166 2.5 -65.499c3.33301 -5.33301 8.83301 -7.83301 16.5 -7.5s13.167 -2.16699 16.5 -7.5c2 -8 1 -14.333 -3 -19s-9.66699 -7.33398 -17 -8.00098
c-2.66699 0 -5.33398 -0.166992 -8.00098 -0.5s-4.66699 0.5 -6 2.5c-5.33301 0 -11.666 -0.333008 -18.999 -1s-14 0.333008 -20 3c-19.333 8 -39.166 10.5 -59.499 7.5s-39.166 -8.5 -56.499 -16.5c-10 1.33301 -17.333 6.33301 -22 15c0 5.33301 1.5 9.66602 4.5 12.999
s6.5 6.16602 10.5 8.49902s8.16699 4.5 12.5 6.5s8.16602 5 11.499 9c7.33301 4 12.166 9.66699 14.499 17s3.66602 15.166 3.99902 23.499s0.333008 17 0 26s0.166992 17.167 1.5 24.5c-0.666992 34.667 -1.5 70.667 -2.5 108s-0.833008 74 0.5 110
c2 14.667 2.83301 28.667 2.5 42s-1.16602 26.666 -2.49902 39.999s-2.33301 26.833 -3 40.5s-0.333984 28.167 0.999023 43.5c-4 1.33301 -5.33301 3.5 -4 6.5s1.66602 5.83301 0.999023 8.5c-2 3.33301 -2.5 10.833 -1.5 22.5s1.83301 24 2.5 37s0.5 24.667 -0.5 35
s-4.5 16.166 -10.5 17.499c-4.66699 2 -9.66699 3.33301 -15 4s-10.5 1.5 -15.5 2.5s-9.5 3 -13.5 6s-7 7.83301 -9 14.5c2.66699 0.666992 3.33398 2.66699 2.00098 6c0 1.33301 0.333008 3.66602 1 6.99902s2.33398 6 5.00098 8c7.33301 6 15.5 9.66699 24.5 11
s16.833 5.66602 23.5 12.999c22.667 4.66699 42.5 14.334 59.5 29.001l50.5 42c6 2 9.16699 0.666992 9.5 -4s2.16602 -8 5.49902 -10c0.666992 -9.33301 -0.666016 -17.833 -3.99902 -25.5s-5 -16.167 -5 -25.5c-5.33301 -12.667 -7.66602 -28.334 -6.99902 -47.001
s2.16699 -38 4.5 -58s4.5 -39.5 6.5 -58.5s1.66699 -35.167 -1 -48.5c-2 -25.333 -1.5 -50.5 1.5 -75.5s4.5 -49.833 4.5 -74.5c0 -18 1.33301 -35.667 4 -53s3.66699 -36 3 -56l10 -7c16 8 31.833 16.5 47.5 25.5s30.5 19.167 44.5 30.5
c-1.33301 2.66699 -3.66602 4.83398 -6.99902 6.50098l-10.5 5c-3.66699 1.66699 -6.66699 3.83398 -9 6.50098s-3.16602 6.66699 -2.49902 12c5.33301 3.33301 10.5 4.83301 15.5 4.5s10 -1.33301 15 -3s9.83301 -3.5 14.5 -5.5s9.33398 -3.33301 14.001 -4
c6 1.33301 12.5 1 19.5 -1s14.167 -3.33301 21.5 -4c7.33301 -1.33301 14.833 -1.5 22.5 -0.5s14.834 0.5 21.501 -1.5c0 -8 -2.66699 -14.667 -8 -20s-11.666 -9.33301 -18.999 -12c-4 -3.33301 -7.83301 -3.66602 -11.5 -0.999023s-7.83398 2.66699 -12.501 0
c-7.33301 -11.333 -16 -20.5 -26 -27.5s-17.667 -16.167 -23 -27.5l34.5 -41c11.667 -14 22.167 -28.667 31.5 -44c2 -10 6 -19 12 -27s12.333 -16 19 -24c6 2.66699 11.333 6.5 16 11.5s10.667 7.5 18 7.5c5.33301 -2 8.5 -4.5 9.5 -7.5s1 -6.33301 0 -10
s-2.66699 -7.5 -5 -11.5s-3.83301 -7.33301 -4.5 -10v1z" />
    <glyph glyph-name="l" unicode="l" horiz-adv-x="249" 
d="M253 83c2 -9.33301 1.16992 -17.6641 -2.49707 -24.9971s-8.5 -14.5 -14.5 -21.5s-12.667 -13.5 -20 -19.5s-13.666 -12 -18.999 -18c-9.33301 -3.33301 -19.333 -6.33301 -30 -9s-21.5 -4.16699 -32.5 -4.5s-21.333 1 -31 4s-18.167 9.16699 -25.5 18.5
c-11.333 8.66699 -19.166 18.667 -23.499 30s-7.33301 23.333 -9 36s-2.33398 25.834 -2.00098 39.501s-0.166992 27.167 -1.5 40.5c-1.33301 12 -1.83301 25.167 -1.5 39.5s1 29 2 44l3 44.5c1 14.667 1.83301 28 2.5 40c-1.33301 0.666992 -1.83301 6.33398 -1.5 17.001
s0.666016 23 0.999023 37l1 41c0.333008 13.333 -0.5 23 -2.5 29c-2.66699 8 -2.66699 15.333 0 22s3.33398 14.667 2.00098 24c-4 24.667 -5.33301 48.167 -4 70.5s0.666016 46.166 -2.00098 71.499c-1.33301 4 -4.16602 6.83301 -8.49902 8.5s-8.5 3.16699 -12.5 4.5
s-6.83301 3.16602 -8.5 5.49902s-0.5 6.16602 3.5 11.499c19.333 11.333 37.666 25.5 54.999 42.5l51 48.5c3.33301 -0.666992 6.66602 0.333008 9.99902 3s6.66602 5 9.99902 7s6.16602 2.83301 8.49902 2.5s4.16602 -3.5 5.49902 -9.5c-1.33301 -30 -2.5 -59.5 -3.5 -88.5
s-2.5 -58.167 -4.5 -87.5c-1.33301 -17.333 -2.83301 -35.5 -4.5 -54.5s-1.16699 -38.167 1.5 -57.5c2.66699 -18.667 3.83398 -36.834 3.50098 -54.501s1.16699 -35.834 4.5 -54.501c-1.33301 -1.33301 -2.5 -6.5 -3.5 -15.5s-1.66699 -20 -2 -33s-0.5 -27 -0.5 -42v-43
c0 -13.667 0.166992 -25.834 0.5 -36.501s0.833008 -17.667 1.5 -21c0.666992 -4.66699 1 -9 1 -13s0.666992 -7.66699 2 -11c2.66699 -7.33301 4.16699 -15.166 4.5 -23.499s1 -16.666 2 -24.999s3.16699 -16 6.5 -23s9 -12.5 17 -16.5
c23.333 1.33301 43.333 9.66602 60 24.999l11 -1v1z" />
    <glyph glyph-name="m" unicode="m" horiz-adv-x="610" 
d="M597 91c2.66699 -6 2.33594 -12.002 -0.99707 -18.002s-5.66602 -12 -6.99902 -18c-6 -16.667 -13.833 -29.167 -23.5 -37.5s-21.834 -14.833 -36.501 -19.5c-8.66699 0 -18.167 -0.5 -28.5 -1.5s-20.166 -1 -29.499 0s-18 3.83301 -26 8.5s-14 12.334 -18 23.001
c-6.66699 17.333 -10.334 34.833 -11.001 52.5s-0.166992 35.167 1.5 52.5l5 51c1.66699 16.667 1.5 33 -0.5 49c0 8.66699 0.333008 18.167 1 28.5s-2 19.166 -8 26.499c-7.33301 1.33301 -16.833 -0.5 -28.5 -5.5s-20.5 -9.5 -26.5 -13.5
c0 -13.333 -0.666992 -27.166 -2 -41.499s-2.83301 -28.666 -4.5 -42.999s-2.83398 -28.833 -3.50098 -43.5s0 -28.334 2 -41.001c-0.666992 -7.33301 -1.66699 -15.166 -3 -23.499s-1.33301 -16.5 0 -24.5c4.66699 -2 6.33398 -5.5 5.00098 -10.5
s-0.333008 -9.16699 3 -12.5c1.33301 -4.66699 4 -7.83398 8 -9.50098s6 -5.16699 6 -10.5c-2.66699 -4 -6 -6.66699 -10 -8s-8.16699 -2 -12.5 -2h-13.5c-4.66699 0 -8.66699 -1 -12 -3c-12.667 5.33301 -25.667 7 -39 5s-26 -3.66699 -38 -5
c-5.33301 6.66699 -6.66602 14.5 -3.99902 23.5s5.33398 17.167 8.00098 24.5c3.33301 21.333 5 43.333 5 66s1 45.667 3 69c-2 6.66699 -2.66699 14.667 -2 24s1.16699 18.666 1.5 27.999s-0.5 18 -2.5 26s-7 14 -15 18c-11.333 -2 -22.166 -3.66699 -32.499 -5
s-20.166 -5.66602 -29.499 -12.999c-0.666992 -4 -0.333984 -8.16699 0.999023 -12.5s0.333008 -8.16602 -3 -11.499c0 -8.66699 0.333008 -18.667 1 -30s1 -23 1 -35s-0.666992 -23.333 -2 -34s-3.33301 -20 -6 -28c2 -6 2.66699 -13.167 2 -21.5s-1 -16.5 -1 -24.5
s1.66699 -15 5 -21s10 -9.66699 20 -11c3.33301 -0.666992 5.5 -2.33398 6.5 -5.00098s2.5 -5.33398 4.5 -8.00098c-4 -8.66699 -9.16699 -13.667 -15.5 -15s-13.166 -1.33301 -20.499 0s-14.833 3 -22.5 5s-15.167 2.66699 -22.5 2l-99 -14
c-2 3.33301 -3.16699 7.16602 -3.5 11.499s0.5 8.16602 2.5 11.499c1.33301 4.66699 3.5 7.83398 6.5 9.50098s6.33301 3.16699 10 4.5s7.16699 2.83301 10.5 4.5s6 4.5 8 8.5c2.66699 6 3 12.833 1 20.5s-1 14.5 3 20.5c-1.33301 10 -1.66602 21 -0.999023 33
s2 22.667 4 32c-2 5.33301 -2.66699 11.333 -2 18s1.5 13.334 2.5 20.001s1.66699 13 2 19s-0.833984 11.667 -3.50098 17c0 2.66699 -0.333008 5.16699 -1 7.5s-0.666992 5.83301 0 10.5c-4 6.66699 -9.33301 9.83398 -16 9.50098s-13.334 -1.16602 -20.001 -2.49902
s-12.334 -1.33301 -17.001 0s-7.33398 7 -8.00098 17c12 4.66699 23.5 10.667 34.5 18s21.833 15 32.5 23l32.5 24.5c11 8.33301 22.167 15.833 33.5 22.5c3.33301 -0.666992 7 -0.5 11 0.5s7.33301 -0.833008 10 -5.5l8 -26c2.66699 -8.66699 4.66699 -17.667 6 -27
c10 3.33301 19.833 8.5 29.5 15.5l29.5 21c10 7 20 13.167 30 18.5s20.333 8.33301 31 9c15.333 1.33301 31 -4.66699 47 -18c2.66699 -3.33301 4.66699 -9.33301 6 -18s4.66602 -14.334 9.99902 -17.001c15.333 6.66699 30 15.167 44 25.5s29.333 16.5 46 18.5
c8 7.33301 17.333 10 28 8s20.667 -3.66699 30 -5c10 -8.66699 16.667 -18.834 20 -30.501s5.16602 -23.834 5.49902 -36.501s-0.166992 -25.667 -1.5 -39s-2 -25.666 -2 -36.999c2 -2.66699 3 -6 3 -10s-0.333008 -8.16699 -1 -12.5l-2 -12.5
c-0.666992 -4 -0.333984 -7.33301 0.999023 -10c0.666992 -8.66699 1 -17.667 1 -27s0.166992 -18.666 0.5 -27.999s1.33301 -18.333 3 -27s4.5 -16.334 8.5 -23.001c5.33301 -1.33301 10.666 -1.16602 15.999 0.500977s10.333 4.33398 15 8.00098s9.16699 7.5 13.5 11.5
l11.5 11h1z" />
    <glyph glyph-name="n" unicode="n" horiz-adv-x="451" 
d="M449 14c-5.33301 -10.667 -13.6709 -17.0049 -25.0039 -19.0049s-23.5 -2.83301 -36.5 -2.5s-25.833 0.833008 -38.5 1.5s-23 -1.33301 -31 -6c-7.33301 2 -12.666 2.66699 -15.999 2s-6.33301 -1.5 -9 -2.5s-5.66699 -1.66699 -9 -2s-8.33301 0.833984 -15 3.50098
c-2 14.667 -1.5 29.5 1.5 44.5s2.83301 30.167 -0.5 45.5l4 62l4 5c-1.33301 6.66699 -2.16602 15.667 -2.49902 27s-0.666016 23.5 -0.999023 36.5s-0.833008 26 -1.5 39s-2.33398 24.333 -5.00098 34s-6.33398 16.834 -11.001 21.501s-11.334 5.33398 -20.001 2.00098
c-3.33301 0 -7.83301 -1 -13.5 -3s-11.667 -4.5 -18 -7.5s-12.166 -6 -17.499 -9s-9.33301 -5.16699 -12 -6.5c-3.33301 -13.333 -3.66602 -28.166 -0.999023 -44.499s2.66699 -30.833 0 -43.5c0 -2.66699 0.166992 -8.83398 0.5 -18.501s0.5 -20 0.5 -31
s-0.166992 -21.5 -0.5 -31.5s-1.5 -16.333 -3.5 -19c0.666992 -7.33301 0.666992 -12.833 0 -16.5s-1.16699 -6.83398 -1.5 -9.50098s-0.666016 -5.83398 -0.999023 -9.50098s0.5 -9.5 2.5 -17.5c2 -2 5 -3.33301 9 -4s7.83301 -1.66699 11.5 -3s7 -3.16602 10 -5.49902
s4.5 -6.16602 4.5 -11.499s-4.16699 -9.16602 -12.5 -11.499s-15.5 -3.83301 -21.5 -4.5c-5.33301 3.33301 -14 5 -26 5s-21.333 0.666992 -28 2c-10 1.33301 -19 1.33301 -27 0s-15.833 -3 -23.5 -5s-15.167 -3.66699 -22.5 -5s-15.333 -1.33301 -24 0
c-4.66699 4 -6.83398 7.5 -6.50098 10.5s1.83301 6.83301 4.5 11.5c2.66699 6 6.33398 9.66699 11.001 11s9.16699 2.16602 13.5 2.49902s8.5 1.5 12.5 3.5s6.66699 7 8 15c6.66699 12.667 10.5 27.334 11.5 44.001s1 34 0 52s-2.16699 36 -3.5 54s-1.33301 34 0 48
c-3.33301 12.667 -8.66602 19.5 -15.999 20.5s-14.333 0.5 -21 -1.5s-12.167 -3.5 -16.5 -4.5s-5.16602 3.16699 -2.49902 12.5c2.66699 2.66699 5.5 5.66699 8.5 9s6.33301 6.16602 10 8.49902s7.5 4.16602 11.5 5.49902s8.33301 1.33301 13 0
c3.33301 5.33301 8 7.66602 14 6.99902c14 9.33301 27.833 20.666 41.5 33.999s27.834 24.333 42.501 33h16c1.33301 -7.33301 1.16602 -16.5 -0.500977 -27.5s-2.83398 -20.833 -3.50098 -29.5l5 -4c10.667 8 22.667 16.167 36 24.5s27.333 15.333 42 21
s29.5 8.83398 44.5 9.50098s29.833 -2.66602 44.5 -9.99902c11.333 -5.33301 19.5 -13.166 24.5 -23.499s9.16699 -21.166 12.5 -32.499c2.66699 -18.667 3.16699 -37 1.5 -55s-0.166992 -36 4.5 -54c0.666992 -9.33301 0.666992 -20.666 0 -33.999
s-1.5 -27.166 -2.5 -41.499s-1.83301 -28.5 -2.5 -42.5s-0.666992 -26 0 -36c2.66699 -5.33301 7.66699 -9 15 -11s14.833 -3.33301 22.5 -4s14.667 -1.33398 21 -2.00098s9.83301 -2.66699 10.5 -6z" />
    <glyph glyph-name="o" unicode="o" horiz-adv-x="362" 
d="M231 221c-2 19.333 -3.66309 40.168 -4.99609 62.501s-6 40.833 -14 55.5c-4 7.33301 -10.833 10.333 -20.5 9s-16.834 -3 -21.501 -5c-13.333 -6 -21 -13.333 -23 -22s-3.66699 -18.334 -5 -29.001c-0.666992 -13.333 -2.33398 -26.5 -5.00098 -39.5l-8 -38.5
c-2.66699 -12.667 -4.66699 -25.5 -6 -38.5s-1 -25.833 1 -38.5c1.33301 -7.33301 2.66602 -15.833 3.99902 -25.5s3.16602 -19 5.49902 -28s5.16602 -17 8.49902 -24s8 -11.5 14 -13.5c9.33301 -3.33301 20 -3.5 32 -0.5s20.667 8.16699 26 15.5
c3.33301 10.667 6.33301 23 9 37s4.83398 28.167 6.50098 42.5s2.66699 28.5 3 42.5s-0.166992 27 -1.5 39v-1zM352.004 191.002c2 -12.667 1.83301 -23.498 -0.5 -32.498s-4.5 -19.833 -6.5 -32.5c-2 -14 -6.16699 -26.167 -12.5 -36.5s-14 -19.5 -23 -27.5
s-18.5 -15.333 -28.5 -22l-28 -19c-17.333 -2 -33.833 -6 -49.5 -12s-32.167 -10 -49.5 -12c-26.667 1.33301 -51.834 10.666 -75.501 27.999s-41.167 42.333 -52.5 75c-2 11.333 -4 23.5 -6 36.5s-3.16699 26.167 -3.5 39.5s0.5 26.333 2.5 39s5.66699 24.334 11 35.001
c1.33301 9.33301 3.83301 18.333 7.5 27l11.5 26c13.333 28.667 30.833 52.167 52.5 70.5s44.834 28.5 69.501 30.5c22 1.33301 42.5 -2.83398 61.5 -12.501s38.167 -18.834 57.5 -27.501l32.5 -41.5c8.33301 -10.333 14.5 -19.833 18.5 -28.5
c3.33301 -6 5.83301 -12.167 7.5 -18.5s2.66699 -13.5 3 -21.5s0.5 -17 0.5 -27v-36z" />
    <glyph glyph-name="p" unicode="p" horiz-adv-x="450" 
d="M307 153c-2.66699 10 -4.16797 23.4971 -4.50098 40.4971s-1.16602 33.833 -2.49902 50.5s-4.5 32 -9.5 46s-13.833 23 -26.5 27c-11.333 -1.33301 -20.5 -5.83301 -27.5 -13.5s-14.5 -14.167 -22.5 -19.5s-13 -14.166 -15 -26.499s-2.66699 -25.666 -2 -39.999
s2 -28.333 4 -42s3 -24.167 3 -31.5l-2 -3c2.66699 -11.333 5.16699 -22.5 7.5 -33.5s7.83301 -21.167 16.5 -30.5c7.33301 -2.66699 15.333 -4.66699 24 -6s17.334 -0.666016 26.001 2.00098c8.66699 11.333 15.167 24 19.5 38s8.16602 28 11.499 42zM432.999 146.997
c-2 -10 -4.50195 -20.5039 -7.50195 -31.5039s-7 -21.333 -12 -31s-11.5 -18.167 -19.5 -25.5s-17.667 -12.333 -29 -15c-7.33301 -4 -15 -6.83301 -23 -8.5s-15.667 -3.83398 -23 -6.50098c-3.33301 0 -7.5 -0.166992 -12.5 -0.5s-9.5 0.833984 -13.5 3.50098
c-4.66699 0 -10.167 -0.166992 -16.5 -0.5s-12.166 0.166992 -17.499 1.5c-10.667 0.666992 -20.667 3.16699 -30 7.5s-18.666 8.16602 -27.999 11.499c-3.33301 -7.33301 -4.16602 -14.166 -2.49902 -20.499s1.16699 -12.833 -1.5 -19.5
c0.666992 -6 0.833984 -11.5 0.500977 -16.5s-0.833008 -10 -1.5 -15s-1 -10 -1 -15s1.33301 -10.5 4 -16.5c0 -12.667 -0.166992 -32.167 -0.5 -58.5s-0.666016 -54.166 -0.999023 -83.499s-0.5 -57.5 -0.5 -84.5v-60.5c-4.66699 -11.333 -11.667 -17.333 -21 -18
s-18.333 1 -27 5c-2 2.66699 -5 4 -9 4s-7.66699 -0.666992 -11 -2c-18 5.33301 -34.5 11.666 -49.5 18.999s-32.167 13 -51.5 17c-4 2 -5.5 5 -4.5 9s1.16699 7.66699 0.5 11c3.33301 5.33301 8 8.5 14 9.5s12.167 1.66699 18.5 2s12.333 1.16602 18 2.49902
s9.83398 5.66602 12.501 12.999c0 28.667 -0.166992 64.334 -0.5 107.001l-1 131.5c-0.333008 45 -0.833008 88.667 -1.5 131s-2 77.5 -4 105.5c-2 2.66699 -2.83301 6.83398 -2.5 12.501s0.5 11.334 0.5 17.001s-0.666992 10.834 -2 15.501s-4.33301 7.66699 -9 9
c-9.33301 -4.66699 -19.5 -7.16699 -30.5 -7.5s-20.5 3.16699 -28.5 10.5c-0.666992 7.33301 1.16602 13.833 5.49902 19.5s9.83301 9.83398 16.5 12.501c11.333 0.666992 21.166 3.5 29.499 8.5l26.5 15.5c19.333 8 37.666 18.333 54.999 31s34.666 24 51.999 34
c2.66699 -9.33301 3.33398 -19.666 2.00098 -30.999s0 -21.333 4 -30c6 2 10.667 5 14 9s7.66602 8 12.999 12c17.333 13.333 37.166 21.166 59.499 23.499s43.5 -1.16699 63.5 -10.5c12.667 -10 24.667 -21 36 -33s21.333 -25.667 30 -41
c8.66699 -17.333 14.834 -37.166 18.501 -59.499s3.16699 -48.833 -1.5 -79.5h1z" />
    <glyph glyph-name="q" unicode="q" horiz-adv-x="411" 
d="M234 243c-7.33301 10 -16.4971 17.333 -27.4971 22s-22.833 6.66699 -35.5 6c-13.333 -8 -23.833 -18.667 -31.5 -32s-13.334 -28 -17.001 -44s-6 -32.333 -7 -49s-1.5 -32 -1.5 -46c5.33301 -10 11.166 -22 17.499 -36s15.166 -24 26.499 -30
c8 -4 15.667 -4.33301 23 -1s15 6 23 8c10.667 10 18.5 23.5 23.5 40.5s8 35.167 9 54.5s1 38.5 0 57.5s-1.83301 35.5 -2.5 49.5zM411.003 265c-2 -4 -3.8252 -5.49219 -5.49219 -4.49219s-4 2.5 -7 4.5s-7 3.5 -12 4.5s-11.167 -0.5 -18.5 -4.5
c-2.66699 1.33301 -5.83398 2.16602 -9.50098 2.49902s-6.83398 -0.5 -9.50098 -2.5c-6 -4 -7 -8.66699 -3 -14c2 -10 2.83301 -19.167 2.5 -27.5s-0.166016 -18.166 0.500977 -29.499c-2 -0.666992 -3.83301 -4.33398 -5.5 -11.001s-3 -13.834 -4 -21.501
s-1.66699 -14.834 -2 -21.501s-0.5 -10.334 -0.5 -11.001c1.33301 -6.66699 1.5 -13.167 0.5 -19.5l-3 -18.5c-1 -6 -1.66699 -11.833 -2 -17.5s1.16699 -11.5 4.5 -17.5v-56c-2 -8.66699 -2.83301 -18 -2.5 -28s0.5 -18.667 0.5 -26c-2 -6 -3.16699 -13.667 -3.5 -23
s-0.5 -19 -0.5 -29s-0.166992 -19.667 -0.5 -29s-1.83301 -17 -4.5 -23c1.33301 -3.33301 2 -13 2 -29s0.333008 -33 1 -51s2 -34.5 4 -49.5s5.66699 -23.5 11 -25.5c8.66699 1.33301 16 5.16602 22 11.499s13.333 9.83301 22 10.5c3.33301 -2 5 -5 5 -9
s-0.666992 -7.33301 -2 -10c-10 -12 -22 -22.167 -36 -30.5l-40 -24.5l-16 -10l-9 -5.5c-2.66699 -1.66699 -5.83398 -3.5 -9.50098 -5.5s-8.83398 -5 -15.501 -9c-4 -2 -7.33301 -2.33301 -10 -1s-4.83398 3.16602 -6.50098 5.49902s-3.16699 4.83301 -4.5 7.5
s-2.66602 5 -3.99902 7c1.33301 14 0.666016 27.667 -2.00098 41s-2.33398 26.666 0.999023 39.999c-1.33301 2.66699 -2.5 10.834 -3.5 24.501s-1.83301 28.167 -2.5 43.5s-1 29.666 -1 42.999s0.666992 21.333 2 24c0 8.66699 0.5 20.834 1.5 36.501s2 32.167 3 49.5
s1.66699 34.166 2 50.499s0.166016 29.166 -0.500977 38.499c-3.33301 3.33301 -4.83301 7.66602 -4.5 12.999s1.16602 10 2.49902 14c1.33301 1.33301 2 2.33301 2 3c-4 2.66699 -8.33301 1.66699 -13 -3s-9.5 -10.334 -14.5 -17.001s-10 -12.667 -15 -18
s-9.5 -7.66602 -13.5 -6.99902c-1.33301 -0.666992 -4 -0.833984 -8 -0.500977s-7 -0.166992 -9 -1.5l-43 4c-14.667 1.33301 -28.5 4.83301 -41.5 10.5s-25 14.334 -36 26.001s-20.5 28.834 -28.5 51.501c-2 11.333 -2.33301 23.666 -1 36.999s3.33301 26.833 6 40.5
s5.83398 26.834 9.50098 39.501s7.16699 24 10.5 34c20 25.333 43 44 69 56c10.667 2 21.667 3.83301 33 5.5s22.5 2.5 33.5 2.5s21.833 -1.16699 32.5 -3.5s20.667 -6.5 30 -12.5c3.33301 7.33301 4.16602 15.333 2.49902 24s-1.83398 17.334 -0.500977 26.001
c2 6 4.83301 9.33301 8.5 10s7.5 0.5 11.5 -0.5s8.16699 -2.33301 12.5 -4s8.5 -2.5 12.5 -2.5l32 -15.5c10 -5 21.667 -8.5 35 -10.5c3.33301 -4 8.83301 -7.33301 16.5 -10s15 -5.66699 22 -9s12.667 -7.33301 17 -12s4.5 -11.334 0.5 -20.001z" />
    <glyph glyph-name="r" unicode="r" horiz-adv-x="367" 
d="M361 340c5.33301 -14 6.49219 -28.5 3.49219 -43.5s-9.16699 -27.833 -18.5 -38.5c-6.66699 -4.66699 -11.834 -10 -15.501 -16s-9.16699 -9.33301 -16.5 -10s-15 0.833008 -23 4.5s-15.167 8.83398 -21.5 15.501s-11.5 14.667 -15.5 24s-5.66699 19 -5 29
c-9.33301 -3.33301 -17.5 -7.16602 -24.5 -11.499s-14 -9.5 -21 -15.5s-14.333 -12.833 -22 -20.5l-27.5 -27.5c-0.666992 -10 -0.666992 -21.833 0 -35.5s1.5 -27.5 2.5 -41.5s1.66699 -27.5 2 -40.5s-0.166992 -23.833 -1.5 -32.5
c-1.33301 -6 0.333984 -11.167 5.00098 -15.5s9 -7.83301 13 -10.5c2.66699 -2 6 -3.33301 10 -4s8 -1.5 12 -2.5s7.66699 -2.5 11 -4.5s5.66602 -5 6.99902 -9c0.666992 -9.33301 -1.66602 -18 -6.99902 -26c-7.33301 -3.33301 -15 -5.33301 -23 -6
s-16 0.666016 -24 3.99902c-13.333 -1.33301 -25.333 -1.33301 -36 0s-21.667 -0.333984 -33 -5.00098c-2 2.66699 -4.33301 3 -7 1s-5.33398 -3.66699 -8.00098 -5c-10 -2 -20.333 -3 -31 -3s-20.667 -3.33301 -30 -10c-6 -0.666992 -10.667 2.33301 -14 9v16
c0 5.33301 2.66699 8.66602 8 9.99902c9.33301 -1.33301 17.333 1.16699 24 7.5s13.334 13.166 20.001 20.499c0.666992 34.667 0.5 70.5 -0.5 107.5s0.5 72.167 4.5 105.5c0.666992 4.66699 0.333984 10.5 -0.999023 17.5s-3.66602 11.833 -6.99902 14.5
c-3.33301 0 -7.16602 -0.833008 -11.499 -2.5s-8.5 -2.66699 -12.5 -3s-7.66699 0.333984 -11 2.00098s-5.66602 5.5 -6.99902 11.5c0.666992 5.33301 3 9.83301 7 13.5s7.66699 6.83398 11 9.50098l57 29.5c18 9.66699 36.333 22.167 55 37.5
c4 -1.33301 8.16699 -2.83301 12.5 -4.5s7.5 -5.5 9.5 -11.5c2 -8 2.83301 -16.333 2.5 -25s-1 -17.667 -2 -27s-1.66699 -18.333 -2 -27s0.833984 -17 3.50098 -25c6.66699 8 15.334 17.833 26.001 29.5s21.834 23.167 33.501 34.5s23.334 22 35.001 32
s22.167 17.333 31.5 22l22.5 -4c7.66699 -1.33301 15 -3.5 22 -6.5s13 -7.33301 18 -13s8.5 -13.5 10.5 -23.5v-1z" />
    <glyph glyph-name="s" unicode="s" horiz-adv-x="314" 
d="M298 112c-0.666992 -4 -0.833984 -7.99805 -0.500977 -11.998s-0.5 -7.66699 -2.5 -11c2.66699 -9.33301 1 -18 -5 -26s-10.667 -16.667 -14 -26c-11.333 -7.33301 -23 -14 -35 -20s-25 -9.66699 -39 -11h-19.5c-7.66699 0 -14.167 0.333008 -19.5 1
c-9.33301 -1.33301 -18 -0.5 -26 2.5s-16 6.33301 -24 10s-16 7 -24 10s-17 3.83301 -27 2.5c-4 -2 -7.16699 -6 -9.5 -12s-4.83301 -11.667 -7.5 -17s-5.83398 -9.16602 -9.50098 -11.499s-8.5 -1.16602 -14.5 3.50098l-6 6c-1.33301 14 -1.5 27.333 -0.5 40s2.5 25 4.5 37
l6 36c2 12 3 24.667 3 38c2 2 4.33301 3 7 3h7c7.33301 -4.66699 12.333 -11.334 15 -20.001s4.83398 -17.667 6.50098 -27s4 -18.166 7 -26.499s8.83301 -14.5 17.5 -18.5c4.66699 -0.666992 9.33398 -2.16699 14.001 -4.5s9.33398 -4.16602 14.001 -5.49902
s9.33398 -1.83301 14.001 -1.5s9 3.16602 13 8.49902c4.66699 5.33301 8 13.333 10 24s4.66699 19.334 8 26.001c0 18 -3.66699 33.167 -11 45.5s-16.666 22.833 -27.999 31.5s-23.333 16.5 -36 23.5s-24.334 14.167 -35.001 21.5c-15.333 19.333 -25 42 -29 68
c1.33301 12.667 4.5 24.5 9.5 35.5s12.833 19.833 23.5 26.5c14.667 5.33301 28.667 11.166 42 17.499s28.333 8.83301 45 7.5c17.333 -1.33301 34 -4.83301 50 -10.5s31.333 -14.167 46 -25.5h5l31 51c5.33301 2.66699 8.66602 1.66699 9.99902 -3
s3.66602 -8.66699 6.99902 -12c-2.66699 -11.333 -3.16699 -22.5 -1.5 -33.5s3.16699 -21.833 4.5 -32.5s1.5 -20.834 0.5 -30.501s-5.5 -18.834 -13.5 -27.501c-5.33301 -0.666992 -9.5 1.16602 -12.5 5.49902s-5.66699 9.33301 -8 15s-4.83301 11.167 -7.5 16.5
s-6 9 -10 11c-6 2.66699 -12 6.16699 -18 10.5s-12 8.33301 -18 12s-12.333 6 -19 7s-13.667 -0.5 -21 -4.5c-3.33301 -2 -5.83301 -5.33301 -7.5 -10s-2.5 -9.83398 -2.5 -15.501s0.333008 -11.167 1 -16.5s1.66699 -9.33301 3 -12c8.66699 -12.667 19 -22.667 31 -30
l35.5 -22c11.667 -7.33301 22.5 -16 32.5 -26s17.333 -23.667 22 -41c8.66699 -14.667 14 -32 16 -52v1z" />
    <glyph glyph-name="t" unicode="t" horiz-adv-x="328" 
d="M315 369c-0.666992 -6.66699 -0.5 -11.8242 0.5 -15.4912s-0.5 -7.83398 -4.5 -12.501c-6 -0.666992 -12.833 -0.833984 -20.5 -0.500977s-15.5 0.833008 -23.5 1.5s-15.667 1.16699 -23 1.5s-13.666 0.166016 -18.999 -0.500977c-4.66699 -25.333 -7.5 -52.5 -8.5 -81.5
s-3.83301 -57.167 -8.5 -84.5c1.33301 -7.33301 1.83301 -14.833 1.5 -22.5l-1 -23.5c-0.333008 -8 -0.5 -16 -0.5 -24s1.33301 -15.667 4 -23c-2.66699 -7.33301 -1.66699 -12.166 3 -14.499s8.66699 -4.16602 12 -5.49902c6.66699 0 12.667 2 18 6s10.5 8.66699 15.5 14
s10 11 15 17s10.5 10.667 16.5 14c2 -2 2.83301 -4.33301 2.5 -7s-0.5 -5.33398 -0.5 -8.00098c-8 -10.667 -15.333 -22 -22 -34s-13.834 -23 -21.501 -33s-16.167 -18.5 -25.5 -25.5s-20.666 -10.5 -33.999 -10.5c-11.333 -0.666992 -22.333 -0.833984 -33 -0.500977
s-19.667 4.5 -27 12.5c-17.333 17.333 -27.666 38.166 -30.999 62.499s-5 48.166 -5 71.499c-0.666992 24.667 -0.5 49.667 0.5 75s1.83301 50.666 2.5 75.999c3.33301 18 3.33301 36.333 0 55c-8.66699 5.33301 -17.667 7.66602 -27 6.99902
s-18.666 0.666016 -27.999 3.99902c-0.666992 -2 -1.66699 -2.83301 -3 -2.5s-2.66602 0.166016 -3.99902 -0.500977l-2 3c-4.66699 0 -8.83398 -0.333008 -12.501 -1s-7.5 1.33301 -11.5 6c2 2.66699 2.83301 5.16699 2.5 7.5s-0.5 4.5 -0.5 6.5s0.5 3.83301 1.5 5.5
s3.5 3.16699 7.5 4.5c10.667 0.666992 22 1.33398 34 2.00098s23.333 -0.666016 34 -3.99902h7.5c2.33301 0 4.5 1.66699 6.5 5c3.33301 26 4.83301 53.5 4.5 82.5s2.16699 56.167 7.5 81.5c3.33301 4 6.66602 4 9.99902 0s6.66602 -6.66699 9.99902 -8l28 -39l39 -26
c2 -4 4.66699 -6.33301 8 -7l10.5 -2c3.66699 -0.666992 6.5 -1.83398 8.5 -3.50098s2.66699 -5.5 2 -11.5c-1.33301 -11.333 -1.83301 -24.833 -1.5 -40.5s0.166016 -29.834 -0.500977 -42.501l5 -6l81 -2v1z" />
    <glyph glyph-name="u" unicode="u" horiz-adv-x="405" 
d="M395 99c3.33301 -7.33301 3.32715 -14.166 -0.00585938 -20.499s-6.66602 -12.166 -9.99902 -17.499c-14 -7.33301 -27.833 -15.333 -41.5 -24s-27.167 -19.334 -40.5 -32.001c-5.33301 0 -10.833 -1.5 -16.5 -4.5s-11.167 -5.5 -16.5 -7.5s-10.5 -2.66699 -15.5 -2
s-9.5 5 -13.5 13l-1 52c-3.33301 5.33301 -7.33301 6 -12 2l-9.5 -9.5l-13 -13.5l-13 -13.5l-10.5 -10.5c-9.33301 -4.66699 -19.666 -8.16699 -30.999 -10.5s-22 -3.83301 -32 -4.5c-2 2 -4.5 3 -7.5 3s-5.16699 -1 -6.5 -3c-13.333 2 -24.166 10.167 -32.499 24.5
s-14.166 28.5 -17.499 42.5c-1.33301 8 -2 16.833 -2 26.5s0.333008 19.667 1 30s1.16699 20.5 1.5 30.5s-0.166992 19 -1.5 27c2 24 2 48 0 72s-3.66699 49.667 -5 77c-3.33301 0.666992 -7 1 -11 1h-12c-4 0 -7.66699 0.5 -11 1.5s-6 3.16699 -8 6.5
c-1.33301 8 0.5 14.5 5.5 19.5s9.16699 9.5 12.5 13.5c7.33301 -3.33301 16.166 -4.83301 26.499 -4.5s18.833 0.833008 25.5 1.5c8.66699 0 15.834 0.166992 21.501 0.5s10.834 0.666016 15.501 0.999023s9.5 1.16602 14.5 2.49902l19.5 5c10 -1.33301 14 -7.33301 12 -18
s-3.33301 -24.334 -4 -41.001c2 -16 2.33301 -30.833 1 -44.5s-2.83301 -27 -4.5 -40s-3 -26.167 -4 -39.5s0.166992 -27.333 3.5 -42v-18.5c0 -7.66699 0.5 -15.167 1.5 -22.5s2.66699 -14.333 5 -21s5.83301 -11.334 10.5 -14.001c11.333 2 24.166 6.66699 38.499 14
s24.5 17 30.5 29c0.666992 20 1.16699 39.167 1.5 57.5s0.5 36.5 0.5 54.5v54.5v58.5c-0.666992 0.666992 -1.16699 2.66699 -1.5 6s-0.166016 7.33301 0.500977 12s2.16699 9.5 4.5 14.5s6.16602 9.16699 11.499 12.5c5.33301 0.666992 9.66602 0.333984 12.999 -0.999023
s6.5 -2.83301 9.5 -4.5s6.16699 -2.66699 9.5 -3s8 0.5 14 2.5c2.66699 -1.33301 8.83398 -1.5 18.501 -0.5s20 1.83301 31 2.5s20.833 0.333984 29.5 -0.999023s13 -4.66602 13 -9.99902s-1.66699 -9.66602 -5 -12.999s-7.66602 -6 -12.999 -8
s-11.166 -3.83301 -17.499 -5.5s-11.833 -3.83398 -16.5 -6.50098c-4 -9.33301 -6.16699 -20.666 -6.5 -33.999s1.16699 -25 4.5 -35l-4 -11c2.66699 -12 4.16699 -22.5 4.5 -31.5s0.333008 -17.5 0 -25.5s-1 -16.333 -2 -25s-1.83301 -19.334 -2.5 -32.001
c0 -10 -0.5 -21.167 -1.5 -33.5s1.16699 -22.833 6.5 -31.5c8.66699 5.33301 17.667 8.83301 27 10.5s18.333 5.16699 27 10.5z" />
    <glyph glyph-name="v" unicode="v" horiz-adv-x="401" 
d="M389 364c-4 -6 -5.82812 -9.83496 -5.49512 -11.502s-3.16699 -4.83398 -10.5 -9.50098c-11.333 2 -23 -0.666992 -35 -8s-19.667 -19.666 -23 -36.999c-9.33301 -26 -18.166 -52 -26.499 -78s-17.166 -51.667 -26.499 -77c2.66699 -13.333 3.16699 -25.833 1.5 -37.5
s-4.83398 -23.334 -9.50098 -35.001s-9.66699 -23 -15 -34s-10 -22.167 -14 -33.5c-4.66699 -4 -9 -5.83301 -13 -5.5s-8.33301 1.16602 -13 2.49902c-13.333 14.667 -24.833 30.334 -34.5 47.001s-18.5 33.667 -26.5 51s-15.667 35.166 -23 53.499s-15 36.166 -23 53.499
c-5.33301 20.667 -12.166 40.334 -20.499 59.001s-14.833 38.667 -19.5 60c-2 10.667 -5.83301 18.167 -11.5 22.5s-11.5 7.5 -17.5 9.5l-16 5.5c-4.66699 1.66699 -7 5.83398 -7 12.501c-0.666992 4 0.166016 6.83301 2.49902 8.5s5.16602 2.83398 8.49902 3.50098l10.5 2
c3.66699 0.666992 6.83398 2 9.50098 4c16 -1.33301 31.667 -4.16602 47 -8.49902s31.333 -4.5 48 -0.5c5.33301 -3.33301 10.666 -3.83301 15.999 -1.5s10.666 3.83301 15.999 4.5c2 -3.33301 4 -3.83301 6 -1.5s4.33301 3.83301 7 4.5
c5.33301 2.66699 10.833 3.16699 16.5 1.5s9.5 -5.83398 11.5 -12.501c1.33301 -4.66699 1.33301 -8.33398 0 -11.001s-3.33301 -4.66699 -6 -6s-5.5 -2.66602 -8.5 -3.99902s-5.5 -3 -7.5 -5c-3.33301 1.33301 -5.83301 1 -7.5 -1s-3.5 -4.33301 -5.5 -7
c4 -10 8.66699 -20.667 14 -32s10 -21.666 14 -30.999c1.33301 -8 4 -16 8 -24s8.33301 -16 13 -24s9.5 -15.833 14.5 -23.5l13.5 -21.5l10 4c9.33301 18 16.666 37.333 21.999 58l16 61c1.33301 4 0.5 8.5 -2.5 13.5s-5.16699 8.83301 -6.5 11.5
c-6 -0.666992 -12.333 1.83301 -19 7.5s-12.334 10.834 -17.001 15.501c-1.33301 6 -0.833008 9.83301 1.5 11.5s5.5 4.16699 9.5 7.5c17.333 -5.33301 37 -8 59 -8s41 2.66699 57 8c3.33301 -1.33301 6.66602 -3 9.99902 -5s5.66602 -5.33301 6.99902 -10z" />
    <glyph glyph-name="w" unicode="w" horiz-adv-x="598" 
d="M582 340c-0.666992 -5.33301 -2.16504 -10.8311 -4.49805 -16.498s-5.83301 -9.83398 -10.5 -12.501l-16 -2c-4.66699 -0.666992 -9.5 -1.5 -14.5 -2.5l-12.5 -2.5c-8 -11.333 -15.167 -26.166 -21.5 -44.499s-12.5 -38.166 -18.5 -59.499l-18 -65.5
c-6 -22.333 -13 -42.833 -21 -61.5c-1.33301 -15.333 -5.66602 -29.333 -12.999 -42s-13.666 -25.667 -18.999 -39c-8 -3.33301 -15.333 -3.33301 -22 0s-12.834 8 -18.501 14s-11 12.5 -16 19.5s-9.83301 12.833 -14.5 17.5c-13.333 11.333 -23.5 24.5 -30.5 39.5
s-16.167 29.167 -27.5 42.5c-8 -10 -15.333 -20.667 -22 -32s-13 -22.833 -19 -34.5s-12.333 -23.334 -19 -35.001s-14.334 -22.834 -23.001 -33.501c-5.33301 0.666992 -9.66602 2.66699 -12.999 6s-6.33301 7.33301 -9 12s-5 9.33398 -7 14.001s-4.33301 9 -7 13
c-18.667 44 -35.334 89 -50.001 135s-32 91 -52 135c-3.33301 2.66699 -4.83301 6 -4.5 10s-1.5 7 -5.5 9c-4 -2.66699 -9.83301 -3 -17.5 -1s-13.5 4.66699 -17.5 8c-3.33301 9.33301 -5 17.5 -5 24.5s4.66699 14.167 14 21.5c32 -6.66699 64.167 -8.33398 96.5 -5.00098
s63.833 7.33301 94.5 12c6 -1.33301 12.333 -1.83301 19 -1.5s12 -2.83398 16 -9.50098c1.33301 -11.333 -1.66699 -19.5 -9 -24.5l-22 -14.5c-3.33301 -0.666992 -7 -0.5 -11 0.5s-6.66699 -1.16699 -8 -6.5c-1.33301 -8 0.666992 -14.333 6 -19s9 -10.334 11 -17.001
c3.33301 -6 6.5 -14 9.5 -24l9 -30.5c3 -10.333 6.66699 -19.833 11 -28.5s9.83301 -15 16.5 -19c4.66699 5.33301 10 12.5 16 21.5l18 28c6 9.66699 11.5 19 16.5 28s9.5 16.167 13.5 21.5c11.333 -3.33301 18 -9 20 -17s6.66699 -17 14 -27
c5.33301 -4.66699 10.666 -11.5 15.999 -20.5l16.5 -27.5c5.66699 -9.33301 11.5 -18 17.5 -26s12 -13.333 18 -16c10 23.333 19 49.333 27 78s12.667 53.667 14 75c-7.33301 6 -15.333 9.16699 -24 9.5s-17.5 0 -26.5 -1s-17.667 -0.833008 -26 0.5s-15.833 6 -22.5 14
c-3.33301 14.667 1 24.667 13 30c4.66699 -2 9 -2.66699 13 -2l12 2c4 0.666992 8.16699 1.16699 12.5 1.5s9.16602 -0.833984 14.499 -3.50098c10 -2.66699 20.167 -4.16699 30.5 -4.5s20.833 -0.166016 31.5 0.500977s21.167 0.833984 31.5 0.500977
s20.5 -1.83301 30.5 -4.5l3 3c2 -4 4.66699 -6.33301 8 -7s6 -3 8 -7z" />
    <glyph glyph-name="x" unicode="x" horiz-adv-x="423" 
d="M410 6c-6 -7.33301 -13.4961 -10.667 -22.4961 -10s-18.5 2.16699 -28.5 4.5s-19.833 4.33301 -29.5 6s-17.834 -0.5 -24.501 -6.5l-2 2c-1.33301 -3.33301 -2.66602 -4.16602 -3.99902 -2.49902s-3 2.5 -5 2.5l-80 -2c-4 2 -4.83301 5.33301 -2.5 10
s5.66602 9.5 9.99902 14.5s8.83301 9.83301 13.5 14.5s7 8.33398 7 11.001c0 6.66699 -1.5 12.5 -4.5 17.5s-6.33301 9.83301 -10 14.5s-7.16699 9.5 -10.5 14.5s-5 10.833 -5 17.5c-6.66699 -3.33301 -12.5 -8 -17.5 -14s-9.66699 -12.5 -14 -19.5l-13 -21.5
c-4.33301 -7.33301 -9.16602 -13.666 -14.499 -18.999c4 -2.66699 8.5 -5.33398 13.5 -8.00098s7.5 -7.66699 7.5 -15c-3.33301 -4 -7 -6.33301 -11 -7s-7.66699 -2.33398 -11 -5.00098c-9.33301 4.66699 -20 6.16699 -32 4.5s-22.333 -0.833984 -31 2.49902l-36 -12
c-2 4 -3 8.83301 -3 14.5s0.666992 10.167 2 13.5c7.33301 12 16.666 20.833 27.999 26.5s22.666 8.83398 33.999 9.50098c12 8.66699 22.5 20.834 31.5 36.501l25.5 43.5c-3.33301 9.33301 -8.16602 17.833 -14.499 25.5s-11.833 15.834 -16.5 24.501
c-13.333 25.333 -28 49.5 -44 72.5s-34.333 43.833 -55 62.5c-6 0 -13 0.666992 -21 2s-14 5.33301 -18 12c-0.666992 5.33301 0.166016 9.5 2.49902 12.5s5.33301 5.66699 9 8s7.5 4.5 11.5 6.5s7.33301 4.66699 10 8c23.333 -4 46.666 -7.16699 69.999 -9.5
s47 -4.5 71 -6.5c0 -3.33301 1.5 -6.33301 4.5 -9s3.83301 -6.66699 2.5 -12l-17 -23c11.333 -16 23.833 -31 37.5 -45l39.5 -39c8 12.667 15 25.834 21 39.501l18 40.5c-7.33301 7.33301 -15.666 11.333 -24.999 12s-18.333 3 -27 7
c-4.66699 3.33301 -8.83398 7.5 -12.501 12.5s-5.5 11.167 -5.5 18.5c6 6.66699 13.667 8.5 23 5.5s17.666 -5.5 24.999 -7.5c3.33301 0 8.16602 0.166992 14.499 0.5s11.5 0.5 15.5 0.5c8 0 16.5 -0.166992 25.5 -0.5s18.167 -0.5 27.5 -0.5
c8.66699 3.33301 17.334 4.33301 26.001 3s17 -3.33301 25 -6c-1.33301 -6.66699 -2.33301 -13.667 -3 -21s-4 -12.666 -10 -15.999c-5.33301 -4.66699 -11.833 -6.83398 -19.5 -6.50098s-14.5 1.16602 -20.5 2.49902c-15.333 -14.667 -27.333 -31.5 -36 -50.5
s-19.667 -36.5 -33 -52.5c1.33301 -9.33301 5 -17.5 11 -24.5s11.667 -14.167 17 -21.5c8.66699 -6.66699 15.667 -17.834 21 -33.501s11.333 -31.167 18 -46.5s15 -28.333 25 -39s24.333 -14.334 43 -11.001c3.33301 -4 5 -9.33301 5 -16s-0.666992 -12.334 -2 -17.001z
" />
    <glyph glyph-name="y" unicode="y" horiz-adv-x="437" 
d="M410 346c-3.33301 -7.33301 -7.6709 -11.8311 -13.0039 -13.498s-11 -3 -17 -4s-11.5 -2.5 -16.5 -4.5s-8.83301 -7.33301 -11.5 -16c-6 -20 -13.833 -41.667 -23.5 -65l-30.5 -71l-31 -71c-10 -23.333 -18 -45 -24 -65c-7.33301 -7.33301 -11.833 -16 -13.5 -26
s-4.83398 -19.333 -9.50098 -28c-7.33301 -12.667 -13 -25.667 -17 -39s-8.66699 -26.666 -14 -39.999c-8.66699 -17.333 -16.167 -35 -22.5 -53s-13.166 -36 -20.499 -54c-5.33301 -8 -10.166 -16.667 -14.499 -26l-13 -27.5c-4.33301 -9 -9.66602 -17.167 -15.999 -24.5
s-14.166 -13 -23.499 -17l-35 -7c-7.33301 2.66699 -14.833 6.16699 -22.5 10.5s-14.834 9.5 -21.501 15.5s-12.5 13 -17.5 21s-8.16699 17 -9.5 27c-2 14 -1.66699 27.333 1 40s9 22.667 19 30c8 9.33301 16 14.333 24 15s16.167 -0.666016 24.5 -3.99902s16.5 -8 24.5 -14
s15.667 -10.667 23 -14h7c15.333 22 29.833 45.333 43.5 70s22.5 51.667 26.5 81c8.66699 14 12 27 10 39s-6.33301 23.667 -13 35l-21 34c-7.33301 11.333 -12 23.333 -14 36c-8.66699 14.667 -16 30.167 -22 46.5l-18 49c-6 16.333 -12.667 32.166 -20 47.499
s-16.333 29.666 -27 42.999c-5.33301 0 -10 2 -14 6s-8.66699 7.66699 -14 11c0.666992 5.33301 0.333984 11.166 -0.999023 17.499s1.33398 11.166 8.00098 14.499c16.667 -3.33301 33.5 -8 50.5 -14s34.167 -6.66699 51.5 -2c8 -1.33301 15.833 -0.833008 23.5 1.5
s15 4.83301 22 7.5s14.167 4.5 21.5 5.5s14.666 -0.166992 21.999 -3.5c2.66699 -7.33301 3.33398 -13 2.00098 -17s-3.66602 -7.5 -6.99902 -10.5s-7 -5.66699 -11 -8s-7 -5.16602 -9 -8.49902c4 -10 8.16699 -21 12.5 -33l13.5 -36c4.66699 -12 10 -23.667 16 -35
s12.667 -21 20 -29c5.33301 0 9.16602 1.66699 11.499 5s4.33301 7.33301 6 12s3.16699 9.66699 4.5 15s3.66602 9.66602 6.99902 12.999c1.33301 6 4.16602 13.5 8.49902 22.5s9.33301 18.5 15 28.5l16 29l11.5 22c-2.66699 4 -7 7.66699 -13 11s-12 7 -18 11
s-11.167 8.16699 -15.5 12.5s-6.5 9.5 -6.5 15.5c6 6.66699 12.167 9 18.5 7s13 -5 20 -9s14 -7.16699 21 -9.5s13.833 0.166992 20.5 7.5c8.66699 1.33301 17.334 3.5 26.001 6.5s17.334 4.5 26.001 4.5c8 -8.66699 9 -18 3 -28v1z" />
    <glyph glyph-name="z" unicode="z" horiz-adv-x="357" 
d="M330 67c-5.33301 -12 -11.167 -23.502 -17.5 -34.502s-11.166 -23.167 -14.499 -36.5c-7.33301 -6.66699 -14.166 -15.167 -20.499 -25.5s-14.833 -15.833 -25.5 -16.5c-4.66699 4.66699 -7.16699 10.667 -7.5 18s-2.16602 13.666 -5.49902 18.999
c-16.667 -1.33301 -33.167 -0.833008 -49.5 1.5l-48.5 7c-16 2.33301 -31.833 4.16602 -47.5 5.49902s-31.5 0 -47.5 -4c-4 -4.66699 -5.83301 -10.5 -5.5 -17.5s-2.16699 -12.833 -7.5 -17.5c-3.33301 0 -6.66602 0.333008 -9.99902 1s-5.33301 3.66699 -6 9
c-2.66699 6 -3.83398 11.833 -3.50098 17.5s1.33301 11.334 3 17.001s3.5 11.167 5.5 16.5s3.66699 10.666 5 15.999c25.333 46.667 52.5 92.667 81.5 138l85.5 134c-5.33301 5.33301 -11.5 7 -18.5 5s-13.5 -3 -19.5 -3c-12 0.666992 -23.333 1 -34 1s-22 -1.66699 -34 -5
c-8 -13.333 -12.333 -26.666 -13 -39.999c-2.66699 -2.66699 -4.83398 -6.33398 -6.50098 -11.001l-5 -14c-1.66699 -4.66699 -3.66699 -9 -6 -13s-5.5 -6.33301 -9.5 -7c-8 0.666992 -13 6.66699 -15 18c4.66699 21.333 10 42.333 16 63s9.33301 42.667 10 66
c2 7.33301 5.83301 10.5 11.5 9.5s10.167 -2.16699 13.5 -3.5c2.66699 -6 7 -10.333 13 -13s11.667 -1.66699 17 3c11.333 -7.33301 22.5 -10.333 33.5 -9s22 3.5 33 6.5s22 5.33301 33 7s22.167 -0.5 33.5 -6.5c8 -6 15.167 -8.5 21.5 -7.5s12.5 2.83301 18.5 5.5
s12.167 5.16699 18.5 7.5s13.166 1.5 20.499 -2.5c1.33301 -2.66699 1.66602 -5 0.999023 -7s-1.5 -4 -2.5 -6s-1.66699 -3.83301 -2 -5.5s0.5 -3.5 2.5 -5.5c-3.33301 -2 -5 -4.66699 -5 -8v-10c-5.33301 -18 -11.833 -33.167 -19.5 -45.5s-15.667 -23.666 -24 -33.999
l-26.5 -31.5c-9.33301 -10.667 -18 -23 -26 -37c-7.33301 -9.33301 -14.666 -19.5 -21.999 -30.5l-22.5 -32.5l-23 -31c-7.66699 -10 -15.834 -19 -24.501 -27c-3.33301 -3.33301 -5.5 -6.66602 -6.5 -9.99902s-2.5 -6.66602 -4.5 -9.99902c18 0 35.833 -1.16699 53.5 -3.5
s35.167 -0.833008 52.5 4.5c9.33301 -5.33301 19.166 -5 29.499 1s19.5 13.333 27.5 22c4 10 10 19.167 18 27.5s16.667 13.833 26 16.5c3.33301 -5.33301 4.83301 -12.166 4.5 -20.499s-1.16602 -15.5 -2.49902 -21.5z" />
    <glyph glyph-name="braceleft" unicode="{" horiz-adv-x="353" 
d="M330 791c-7.33301 -13.333 -16.667 -25.6641 -28 -36.9971l-33 -32.5c-10.667 -10.333 -20.167 -20 -28.5 -29s-13.5 -17.5 -15.5 -25.5s-1.5 -22.833 1.5 -44.5s6.83301 -44.167 11.5 -67.5c5.33301 -26.667 11.666 -56 18.999 -88c2 -1.33301 3.66699 -3.33301 5 -6
c0.666992 -2 0.666992 -4.83301 0 -8.5s-3 -7.83398 -7 -12.501c-4 -5.33301 -10.833 -11 -20.5 -17s-19.5 -11.667 -29.5 -17c-12 -6.66699 -24.667 -13.334 -38 -20.001c13.333 -6 26 -11.333 38 -16l27.5 -12c9 -4 14.5 -7 16.5 -9s4 -4.83301 6 -8.5l6 -10.5
c2.66699 -4 5 -8.33301 7 -13l-25 -115l-10 -44l-9.5 -40c-3 -12 -5.83301 -22.167 -8.5 -30.5s-4.66699 -13.833 -6 -16.5c-3.33301 -5.33301 -5.66602 -9.5 -6.99902 -12.5s-1.5 -6 -0.5 -9s3 -6.66699 6 -11l12.5 -17.5c10.667 -15.333 23.834 -30.333 39.501 -45
s29.167 -24 40.5 -28c5.33301 -2 9.66602 -5.33301 12.999 -10s4.83301 -8.83398 4.5 -12.501s-3.33301 -6 -9 -7s-14.834 0.833008 -27.501 5.5s-28.167 11 -46.5 19s-36 17.5 -53 28.5s-31.5 23.5 -43.5 37.5s-17.667 29.333 -17 46s2.83398 37.667 6.50098 63
s7.5 50.166 11.5 74.499s7.33301 45.666 10 63.999s3.33398 28.833 2.00098 31.5c-1.33301 1.33301 -5.16602 4.33301 -11.499 9s-14.166 9.83398 -23.499 15.501l-30 18.5l-29.5 18.5c-9 5.66699 -16.5 10.667 -22.5 15s-9 7.16602 -9 8.49902v10
c0 4.66699 0.166992 9.5 0.5 14.5s0.833008 9.33301 1.5 13s1.66699 5.5 3 5.5s9.33301 2.66699 24 8s30.167 11.833 46.5 19.5s31.166 15.334 44.499 23.001s19.666 13.834 18.999 18.501c-0.666992 3.33301 -3.33398 10.333 -8.00098 21l-17 37.5l-21 46.5
c-7.33301 16.667 -13.5 32.334 -18.5 47.001s-8.5 27.667 -10.5 39s-1 19 3 23c6 6 17.333 14.167 34 24.5s34.5 20.5 53.5 30.5s37 18.667 54 26s28.5 11 34.5 11c6.66699 0 15 2.5 25 7.5s19 9 27 12s13.5 3.66699 16.5 2s0.833008 -8.83398 -6.5 -21.501z" />
    <glyph glyph-name="bar" unicode="|" horiz-adv-x="201" 
d="M138 -56c-2 -2 -6.17285 -3.83398 -12.5059 -5.50098s-13.166 -2.33398 -20.499 -2.00098s-14.166 1.83301 -20.499 4.5s-10.5 6.66699 -12.5 12c-0.666992 2.66699 -1.66699 16 -3 40s-2.66602 54.667 -3.99902 92s-2.66602 79.5 -3.99902 126.5s-2.5 95 -3.5 144
s-1.66699 97.333 -2 145s-0.5 90.5 -0.5 128.5s0.5 69.333 1.5 94s2.5 39 4.5 43c4 8 9.83301 13 17.5 15s15.334 2.16699 23.001 0.5s14.667 -4.33398 21 -8.00098s10.833 -7.16699 13.5 -10.5c1.33301 -1.33301 2.5 -14.166 3.5 -38.499s1.83301 -55.666 2.5 -93.999
s1.16699 -81.666 1.5 -129.999s0.5 -97.833 0.5 -148.5s-0.166992 -100.167 -0.5 -148.5s-0.666016 -91.5 -0.999023 -129.5s-1 -68.833 -2 -92.5s-1.83301 -36.167 -2.5 -37.5z" />
    <glyph glyph-name="braceright" unicode="}" horiz-adv-x="353" 
d="M330 373c0 -1.33301 -3 -4.16699 -9 -8.5s-13.5 -9.33301 -22.5 -15l-29.5 -18.5l-30 -18.5c-9.33301 -5.66699 -17.333 -10.834 -24 -15.501s-10.334 -7.66699 -11.001 -9c-1.33301 -2.66699 -0.666016 -13.167 2.00098 -31.5s6 -39.666 10 -63.999
s7.83301 -49.166 11.5 -74.499s5.83398 -46.333 6.50098 -63s-5 -32 -17 -46s-26.5 -26.5 -43.5 -37.5s-34.667 -20.5 -53 -28.5s-33.833 -14.333 -46.5 -19s-21.834 -6.5 -27.501 -5.5s-8.66699 3.33301 -9 7s1.16699 7.83398 4.5 12.501s7.66602 8 12.999 10
c11.333 4 24.833 13.333 40.5 28s28.834 29.667 39.501 45l12.5 17.5c3 4.33301 5 8 6 11s0.833008 6 -0.5 9s-3.66602 7.16699 -6.99902 12.5c-2 2.66699 -4.16699 8.16699 -6.5 16.5s-5 18.5 -8 30.5l-9.5 40l-10 44l-25 115c1.33301 4.66699 3.33301 9 6 13l6.5 10.5
c2.33301 3.66699 4.5 6.5 6.5 8.5s7.33301 5 16 9s18 8 28 12l38 16c-13.333 6.66699 -26 13.334 -38 20.001c-10 5.33301 -19.833 11 -29.5 17s-16.5 11.667 -20.5 17c-7.33301 8.66699 -9.66602 15.667 -6.99902 21c0.666992 2.66699 2.33398 4.66699 5.00098 6
c7.33301 32 13.666 61.333 18.999 88c4.66699 23.333 8.5 45.833 11.5 67.5s3.5 36.5 1.5 44.5s-7.16699 16.5 -15.5 25.5s-17.833 18.667 -28.5 29l-33 32.5c-11.333 11.333 -20.666 23.666 -27.999 36.999c-7.33301 12.667 -9.5 19.834 -6.5 21.501s8.5 1 16.5 -2
s17 -7 27 -12s18.333 -7.5 25 -7.5c6 0 17.5 -3.66699 34.5 -11s35 -16 54 -26s36.833 -20.167 53.5 -30.5s28 -18.5 34 -24.5c4 -4 5 -11.667 3 -23s-5.5 -24.333 -10.5 -39s-11.167 -30.334 -18.5 -47.001l-21 -46.5l-17 -37.5
c-4.66699 -10.667 -7.33398 -17.667 -8.00098 -21c-0.666992 -4.66699 5.66602 -10.834 18.999 -18.501s28.166 -15.334 44.499 -23.001s31.833 -14.167 46.5 -19.5s22.667 -8 24 -8s2.33301 -1.83301 3 -5.5s1.16699 -8 1.5 -13s0.5 -9.83301 0.5 -14.5v-10z" />
    <glyph glyph-name="asciitilde" unicode="~" horiz-adv-x="451" 
d="M385 539c0 -2 -4.16895 -7.50195 -12.502 -16.502s-18 -18.5 -29 -28.5l-32 -28.5c-10.333 -9 -17.833 -14.5 -22.5 -16.5c-9.33301 -4.66699 -18.666 -6.66699 -27.999 -6s-17 4.66699 -23 12l-13 15c-5.33301 6 -11.333 12 -18 18s-13.5 11.333 -20.5 16
s-13.5 7.33398 -19.5 8.00098s-13.333 -2 -22 -8s-17.334 -12.667 -26.001 -20l-24 -21c-7.33301 -6.66699 -12.333 -10.334 -15 -11.001c-6 -1.33301 -11.167 0.333984 -15.5 5.00098s-4.16602 13 0.500977 25c2 6 5.83301 12.167 11.5 18.5s11.834 12.5 18.501 18.5
l18.5 16.5c5.66699 5 9.5 9.16699 11.5 12.5c2 2.66699 6.66699 7.5 14 14.5s15.333 14 24 21s17 13.167 25 18.5s14 8 18 8s9.66699 -3.5 17 -10.5s15.166 -15 23.499 -24l24 -25.5c7.66699 -8 13.834 -12.667 18.501 -14s11 0 19 4s16.333 9 25 15s16.667 11.833 24 17.5
s12.666 9.16699 15.999 10.5c2.66699 1.33301 4.83398 0.333008 6.50098 -3s3 -7.66602 4 -12.999s1.5 -10.833 1.5 -16.5v-11.5z" />
    <glyph glyph-name="exclamdown" unicode="&#xa1;" horiz-adv-x="215" 
d="M178 113c-3.33301 -11.333 -6.16699 -23.1631 -8.5 -35.4961s-5.83301 -24.333 -10.5 -36s-10.667 -21.834 -18 -30.501s-17 -15 -29 -19c-19.333 -1.33301 -36.333 5 -51 19s-26 29.333 -34 46c-6 12.667 -8.33301 27.167 -7 43.5s1.33301 31.166 0 44.499
c1.33301 21.333 5.16602 41.666 11.499 60.999s9.83301 40.333 10.5 63c6.66699 18 12.167 36.5 16.5 55.5l13.5 56.5c4 16 5.83301 32.333 5.5 49s-1 33.334 -2 50.001s-1.33301 33.167 -1 49.5s3.16602 32.166 8.49902 47.499c1.33301 4 3.83301 5.66699 7.5 5
s6.16699 -2 7.5 -4c6.66699 -5.33301 11.5 -11.5 14.5 -18.5s5.16699 -14.667 6.5 -23s2.33301 -16.833 3 -25.5s2 -17 4 -25c-3.33301 -12 -4.66602 -23.833 -3.99902 -35.5s2.16699 -23.334 4.5 -35.001s5 -23.167 8 -34.5s5.16699 -23 6.5 -35
c2.66699 -17.333 7.33398 -34 14.001 -50s11.667 -32.667 15 -50c8 -19.333 11.333 -41 10 -65s-2.33301 -46.667 -3 -68h1zM163.999 745.003c0.666992 -4.66699 1.83105 -9.99805 3.49805 -15.998s2.83398 -11.833 3.50098 -17.5s0.5 -11 -0.5 -16
s-3.5 -8.83301 -7.5 -11.5c-3.33301 -13.333 -10.666 -23 -21.999 -29l-31 -17c-12 1.33301 -24 3 -36 5s-21 9.33301 -27 22c-10 10.667 -13.5 23.5 -10.5 38.5s6.83301 28.5 11.5 40.5c4.66699 9.33301 10.5 16.166 17.5 20.499s14.833 8.5 23.5 12.5
c16 2.66699 30.5 1.16699 43.5 -4.5s23.833 -14.834 32.5 -27.501h-1z" />
    <glyph glyph-name="cent" unicode="&#xa2;" horiz-adv-x="267" 
d="M153 101c-0.666992 -5.33301 -3.33398 -11.166 -8.00098 -17.499s-10 -10.833 -16 -13.5c-5.33301 0 -10.666 1 -15.999 3s-9.33301 6 -12 12c-3.33301 17.333 -2.5 34 2.5 50l15.5 48c6.66699 0 11.5 -1.33301 14.5 -4s5.33301 -6.16699 7 -10.5s3 -9 4 -14
s2.5 -9.16699 4.5 -12.5c-1.33301 -3.33301 -1.16602 -6.83301 0.500977 -10.5l5 -11c1.66699 -3.66699 2.66699 -7.33398 3 -11.001s-0.833984 -6.5 -3.50098 -8.5h-1zM237 430c4 -9.33301 3.99707 -18 -0.00292969 -26s-11 -13.667 -21 -17
c-8 -2.66699 -13.833 -1.66699 -17.5 3s-6.5 10 -8.5 16s-4.5 11.167 -7.5 15.5s-8.16699 4.83301 -15.5 1.5l-23 -40c-8 -20.667 -10 -40.834 -6 -60.501s9 -40.167 15 -61.5c7.33301 -4 14.5 -5.33301 21.5 -4s13.833 3 20.5 5s13.334 3.33301 20.001 4s13 -1.33301 19 -6
c-1.33301 -8 -4.33301 -14.167 -9 -18.5s-10.167 -7.83301 -16.5 -10.5s-13.166 -4.66699 -20.499 -6s-14 -3 -20 -5c-6.66699 -0.666992 -15.834 -1.66699 -27.501 -3s-24 -1.33301 -37 0s-25.5 4.83301 -37.5 10.5s-21.667 15.5 -29 29.5
c-7.33301 14.667 -11.666 29.667 -12.999 45s-0.166016 30.5 3.50098 45.5s9 29.667 16 44s15.167 27.5 24.5 39.5l24.5 19.5c8.33301 6.33301 17 11.833 26 16.5s18.5 7.66699 28.5 9s20.667 0 32 -4s21.833 -9.66699 31.5 -17s18.5 -15.666 26.5 -24.999zM177.997 573
c1.33301 -12.667 0.666992 -25.501 -2 -38.501s-7.33398 -25.167 -14.001 -36.5l-4 1c-3.33301 6 -7.16602 11.667 -11.499 17s-8.33301 11 -12 17s-6.5 12 -8.5 18s-2.33301 12.667 -1 20s4.5 12.5 9.5 15.5s10.333 4.33301 16 4s11.167 -2.16602 16.5 -5.49902
s9 -7.33301 11 -12z" />
    <glyph glyph-name="sterling" unicode="&#xa3;" horiz-adv-x="584" 
d="M567 149c2 -16.667 0.50293 -31.6602 -4.49707 -44.9932s-11 -26.5 -18 -39.5l-20.5 -39.5c-6.66699 -13.333 -10.334 -28 -11.001 -44c-3.33301 -4 -5.83301 -9 -7.5 -15s-3.83398 -11.167 -6.50098 -15.5s-5.83398 -7.5 -9.50098 -9.5s-8.5 -1.33301 -14.5 2
c-6 5.33301 -9 11.5 -9 18.5s0.5 14.167 1.5 21.5s1.16699 14.166 0.5 20.499s-5 11.5 -13 15.5c-31.333 -2.66699 -62.5 -4.5 -93.5 -5.5s-61.5 -2.5 -91.5 -4.5s-59.167 -4.83301 -87.5 -8.5s-55.5 -9.5 -81.5 -17.5c-24 -4.66699 -42.833 -5.33398 -56.5 -2.00098
s-23.834 9 -30.501 17s-10.5 17.333 -11.5 28s-0.833008 21 0.5 31s3.33301 19 6 27s4 13 4 15c13.333 10 25.333 13.667 36 11s20 -7 28 -13s14.333 -11.167 19 -15.5s7.66699 -3.5 9 2.5c2.66699 44 5.16699 89.333 7.5 136s4.83301 93.334 7.5 140.001
c-17.333 -3.33301 -33.333 -6 -48 -8s-24.667 -1 -30 3c-5.33301 3.33301 -8.33301 9.66602 -9 18.999s-0.333984 18.666 0.999023 27.999c2 11.333 4.66699 23 8 35c10 0.666992 19.333 2 28 4c7.33301 1.33301 15 2.83301 23 4.5s14.333 3.83398 19 6.50098
c2.66699 1.33301 5 2 7 2c-0.666992 33.333 -0.666992 67 0 101s-0.333008 65.333 -3 94c-4.66699 3.33301 -9.83398 6.5 -15.501 9.5s-11 6.5 -16 10.5s-9.5 8.66699 -13.5 14s-7 12 -9 20c0 16 6 27.667 18 35c14 -1.33301 28.833 -2.83301 44.5 -4.5
s31.5 -2.83398 47.5 -3.50098s32 -0.5 48 0.5s31 4.16699 45 9.5l20.5 3c9 1.33301 18 2 27 2s17.5 -1.5 25.5 -4.5s13.333 -8.16699 16 -15.5c3.33301 -19.333 1.16602 -32 -6.50098 -38s-17.167 -10.333 -28.5 -13s-22.666 -5.66699 -33.999 -9s-19 -11.333 -23 -24
c1.33301 -28 1.5 -58.833 0.5 -92.5s-2.16699 -69.5 -3.5 -107.5l23 -4c10 -2 21 -3 33 -3s24 0.833008 36 2.5s23.5 4.16699 34.5 7.5s20.5 7.33301 28.5 12s13.333 3.5 16 -3.5s3.5 -15.833 2.5 -26.5s-3.66699 -21.334 -8 -32.001s-9.16602 -17.334 -14.499 -20.001
s-11.5 -4.5 -18.5 -5.5s-15.667 -1.33301 -26 -1s-22.833 1.16602 -37.5 2.49902s-32 3.66602 -52 6.99902c-3.33301 0.666992 -6.5 1.16699 -9.5 1.5s-6.16699 0.833008 -9.5 1.5c-1.33301 -50 -1.16602 -99.5 0.500977 -148.5s6.16699 -94.5 13.5 -136.5l8 -8
c17.333 -6 35.333 -9.83301 54 -11.5s37.5 -2 56.5 -1s37.667 2.33301 56 4s36.166 3.16699 53.499 4.5l13 24c4.66699 8.66699 9.83398 16.5 15.501 23.5s11.834 12.5 18.501 16.5s13.667 4.66699 21 2z" />
    <glyph glyph-name="currency" unicode="&#xa4;" horiz-adv-x="549" 
d="M537 557c0 -6.66699 -1.33203 -14.832 -3.99902 -24.499s-8.66699 -14.5 -18 -14.5s-16.166 4.16699 -20.499 12.5s-8.66602 18.5 -12.999 30.5s-9.5 24.833 -15.5 38.5s-15.333 25.834 -28 36.501c-10.667 9.33301 -24 16.833 -40 22.5s-36.333 8.5 -61 8.5
c-14 0 -28.167 -3 -42.5 -9s-25.5 -15 -33.5 -27c-3.33301 -16.667 -6.83301 -33.167 -10.5 -49.5s-5.83398 -33.166 -6.50098 -50.499l-2 -69c14 0 28 -0.333008 42 -1s28 -1 42 -1c4 0 8 -0.333008 12 -1s8 -1 12 -1c2 0 4.16699 0.333008 6.5 1
s4.16602 2.33398 5.49902 5.00098c1.33301 1.33301 3 3.16602 5 5.49902s4 3.5 6 3.5s3.16699 -1.5 3.5 -4.5s0.5 -5.16699 0.5 -6.5c0 -11.333 -1.66699 -23.666 -5 -36.999c5.33301 -4.66699 7.33301 -9 6 -13s-2 -8.66699 -2 -14c0 -4 0.666992 -7 2 -9
c-1.33301 -1.33301 -4 -2.33301 -8 -3s-8.16699 -1.16699 -12.5 -1.5s-8.33301 -0.5 -12 -0.5h-8.5c-16 0 -32.167 0.333008 -48.5 1s-32.5 1.66699 -48.5 3v-16c0 -11.333 0.166992 -23 0.5 -35s0.833008 -24 1.5 -36c13.333 0 26.833 0.166992 40.5 0.5
s27.167 0.5 40.5 0.5c2.66699 0 5.16699 -0.5 7.5 -1.5s4.83301 -0.833008 7.5 0.5c4 -1.33301 7.33301 -2 10 -2c5.33301 0 9.16602 1.83301 11.499 5.5s4.83301 5.5 7.5 5.5c3.33301 0 6 -1.83301 8 -5.5s3 -7.16699 3 -10.5c0 -6.66699 -1.5 -13 -4.5 -19
s-4.5 -12.333 -4.5 -19c0 -8.66699 3 -15.334 9 -20.001v-1c-3.33301 -1.33301 -8.33301 -2 -15 -2c-7.33301 0 -14.5 1 -21.5 3s-13.833 3 -20.5 3c-12.667 0 -25 -0.333008 -37 -1s-24 -1.66699 -36 -3c2 -18.667 4.33301 -37.167 7 -55.5s7.66699 -35.166 15 -50.499
s17.666 -27.5 30.999 -36.5s32 -13.5 56 -13.5c18.667 0 34.834 4.16699 48.501 12.5s25.834 18.833 36.501 31.5c8.66699 11.333 16.5 23.333 23.5 36l18.5 34.5c5.33301 10.333 10.333 19 15 26s9.66699 10.5 15 10.5s8.5 -2.66699 9.5 -8s1.5 -10 1.5 -14
c0 -23.333 -5.16699 -47.333 -15.5 -72s-23.833 -47.334 -40.5 -68.001c-8 -10 -16.667 -19.333 -26 -28s-18.666 -16 -27.999 -22l-72 -16c-24 -5.33301 -48.667 -8 -74 -8c-19.333 0 -39.166 3.16699 -59.499 9.5s-36.5 17.833 -48.5 34.5
c-9.33301 12.667 -17.666 26.667 -24.999 42s-13.833 31.166 -19.5 47.499s-10.667 32.833 -15 49.5s-7.83301 32.667 -10.5 48c-6.66699 -0.666992 -13.167 -1 -19.5 -1h-18.5h-21.5c-10.333 0 -16.833 1.66699 -19.5 5c2 4 2.5 8.16699 1.5 12.5s-1.5 8.5 -1.5 12.5
c0 2.66699 0.5 4.66699 1.5 6s2.16699 3 3.5 5c0.666992 6 0.166992 12 -1.5 18s-2.5 12 -2.5 18c0 1.33301 0.166992 3.66602 0.5 6.99902s1.5 5 3.5 5c2 -1.33301 4 -2.83301 6 -4.5s3.66699 -3.16699 5 -4.5c1.33301 -2.66699 3.16602 -4.33398 5.49902 -5.00098
s4.5 -1 6.5 -1c4.66699 0 9.16699 0.333008 13.5 1s9.16602 1 14.499 1l12 1c-1.33301 16.667 -2.5 33.167 -3.5 49.5s-0.833008 32.833 0.5 49.5h-9c-6.66699 0 -13.334 -1 -20.001 -3s-13.667 -3 -21 -3c-6.66699 0 -11.667 0.666992 -15 2c6 6 9 12.667 9 20
s-1.5 14 -4.5 20s-4.5 12.333 -4.5 19c0 2.66699 1 5.83398 3 9.50098s4.66699 5.5 8 5.5s6 -1.83301 8 -5.5s5.33301 -5.5 10 -5.5c1.33301 0 3 0.333008 5 1s3.66699 1.33398 5 2.00098c1.33301 -0.666992 3 -1 5 -1c4.66699 0 9.16699 0.166992 13.5 0.5
s9.16602 0.5 14.499 0.5c4.66699 34.667 12.334 68.5 23.001 101.5s25.167 62.5 43.5 88.5s41.666 47 69.999 63s62.833 24 103.5 24c8.66699 0 18.5 -0.833008 29.5 -2.5s22 -3.83398 33 -6.50098s21.667 -5.83398 32 -9.50098s19.5 -7.16699 27.5 -10.5
c15.333 -6 28.5 -14 39.5 -24s20.167 -21.333 27.5 -34c16 -28 24 -59.667 24 -95z" />
    <glyph glyph-name="yen" unicode="&#xa5;" horiz-adv-x="664" 
d="M525 168c-4.66699 -1.33301 -10.3428 -2.00488 -17.0098 -2.00488s-13.5 0.333008 -20.5 1s-13.667 1.5 -20 2.5s-10.833 1.5 -13.5 1.5c-12 0 -26 -0.333008 -42 -1s-33 -1.66699 -51 -3c-1.33301 -26.667 -2.33301 -51.667 -3 -75s-0.333984 -42.666 0.999023 -57.999
c2 -7.33301 7.16699 -11.666 15.5 -12.999s17.333 -1.83301 27 -1.5s18.667 0.333008 27 0s13.166 -3.16602 14.499 -8.49902s0.166016 -9.83301 -3.50098 -13.5s-8.16699 -6.83398 -13.5 -9.50098s-11.166 -5 -17.499 -7s-11.166 -4 -14.499 -6
c-16 2 -33.167 3.66699 -51.5 5s-37 1.83301 -56 1.5s-37.5 -1.83301 -55.5 -4.5s-34.667 -6.33398 -50 -11.001c-3.33301 0.666992 -6.83301 0.666992 -10.5 0s-7.16699 -1.16699 -10.5 -1.5s-6.5 0.333984 -9.5 2.00098s-4.83301 5.16699 -5.5 10.5l-4 23
c-0.666992 4 1 9.33301 5 16c14 -2.66699 25.167 -3.33398 33.5 -2.00098s14.833 4 19.5 8s8.16699 8.5 10.5 13.5s4.16602 10.167 5.49902 15.5c2.66699 14.667 4.83398 31.334 6.50098 50.001s2.83398 38.334 3.50098 59.001c-20 -1.33301 -39 -2.33301 -57 -3
s-34.167 -1 -48.5 -1s-26 0.5 -35 1.5s-14.5 2.5 -16.5 4.5c2 2 2.83301 4.5 2.5 7.5l-1 9c-0.333008 3 -0.5 5.66699 -0.5 8s1 4.5 3 6.5l3 3v6c0 3.33301 0.333008 7 1 11s2 7.66699 4 11s5 6 9 8c1.33301 -3.33301 4 -5.16602 8 -5.49902s8.5 -0.333008 13.5 0
s10 0.833008 15 1.5s9.16699 1 12.5 1c12.667 0.666992 26.667 0.833984 42 0.500977s31 -0.5 47 -0.5c0.666992 15.333 0.833984 30.5 0.500977 45.5s-0.166016 29.167 0.500977 42.5c-17.333 1.33301 -33.666 2.33301 -48.999 3s-28.666 1 -39.999 1
c-2.66699 0 -7 -0.5 -13 -1.5s-12.5 -1.83301 -19.5 -2.5s-13.833 -1 -20.5 -1s-12.334 0.666992 -17.001 2c-3.33301 8.66699 -5.16602 17.5 -5.49902 26.5s5.5 17.833 17.5 26.5c4 2.66699 6.66699 4.16699 8 4.5s3 0.333008 5 0s4.5 -0.5 7.5 -0.5
s8.16699 1.66699 15.5 5c3.33301 -2 6.5 -2.5 9.5 -1.5s6.16699 1.5 9.5 1.5c13.333 -0.666992 27.666 -1.16699 42.999 -1.5s31.333 -0.5 48 -0.5c-13.333 34 -30 65.5 -50 94.5l-63 87.5c-4 8.66699 -9.33301 17.5 -16 26.5s-15 16.833 -25 23.5s-22.333 11.5 -37 14.5
s-32 2.83301 -52 -0.5c-2.66699 3.33301 -3.66699 6.5 -3 9.5s1.66699 5.83301 3 8.5s2.66602 5.66699 3.99902 9s1 7 -1 11c18 6 38.5 12.333 61.5 19s46.833 13 71.5 19s48.834 11.333 72.501 16s45.5 8 65.5 10c3.33301 -8 2.5 -14.5 -2.5 -19.5
s-11.5 -9.33301 -19.5 -13l-24.5 -11c-8.33301 -3.66699 -13.833 -8.16699 -16.5 -13.5s-0.833984 -12 5.49902 -20s19.833 -18.667 40.5 -32l43 -55.5l44 -58.5c3.33301 -4.66699 6.33301 -9.66699 9 -15s5.5 -10.166 8.5 -14.499s6.5 -8 10.5 -11s9 -4.5 15 -4.5
c9.33301 10 20 25.5 32 46.5s23.833 43.167 35.5 66.5s22.5 46.166 32.5 68.499l23 52.5c-1.33301 10 -4.16602 16.167 -8.49902 18.5s-9 3.16602 -14 2.49902s-10.167 -1.5 -15.5 -2.5s-10 0.166992 -14 3.5c-3.33301 2 -7.16602 3.66699 -11.499 5
s-8.16602 3.33301 -11.499 6s-5.66602 6.16699 -6.99902 10.5s0 10.166 4 17.499c35.333 -1.33301 72 -2.83301 110 -4.5s74.667 -2.83398 110 -3.50098c5.33301 -7.33301 7.83301 -14 7.5 -20s-1.5 -13 -3.5 -21l1 -1c-5.33301 -5.33301 -11.166 -7.16602 -17.499 -5.49902
s-13 3.66699 -20 6s-14 3.16602 -21 2.49902s-13.833 -6 -20.5 -16l-42 -62.5l-49.5 -73l-50 -73c-16.333 -23.667 -30.166 -44.5 -41.499 -62.5c-0.666992 -5.33301 -1.33398 -11.5 -2.00098 -18.5s-1.33398 -14.5 -2.00098 -22.5h42c14 0 26.667 -0.333008 38 -1
c3.33301 0.666992 7.5 0.833984 12.5 0.500977s10.167 -0.833008 15.5 -1.5s10 -0.666992 14 0s6.66699 2.33398 8 5.00098c4.66699 0 8 -1.66699 10 -5s3.33301 -7.16602 4 -11.499s0.666992 -8.5 0 -12.5s-1 -6.33301 -1 -7l4 -3c2 -2 2.83301 -4.16699 2.5 -6.5
s-0.666016 -4.83301 -0.999023 -7.5s-0.666016 -5.5 -0.999023 -8.5s0.5 -5.5 2.5 -7.5c-2 -2 -7.66699 -3.5 -17 -4.5s-21 -1.5 -35 -1.5s-29.833 0.333008 -47.5 1s-36.5 1.66699 -56.5 3c-1.33301 -13.333 -2.33301 -26.666 -3 -39.999l-2 -41h49
c16 0 30.667 0.333008 44 1c3.33301 0 6.5 -0.5 9.5 -1.5s6.16699 -0.833008 9.5 0.5c4.66699 -0.666992 9.33398 0.166016 14.001 2.49902s8.83398 4.33301 12.501 6s7 2.66699 10 3s5.16699 -1.83398 6.5 -6.50098c2 -5.33301 3.16699 -11.166 3.5 -17.499
s0.5 -12.5 0.5 -18.5v-17c0 -5.33301 0.666992 -9.33301 2 -12v-1z" />
    <glyph glyph-name="section" unicode="&#xa7;" horiz-adv-x="496" 
d="M375 293c0 8 -1.67188 16.6621 -5.00488 25.9951s-7.66602 18.5 -12.999 27.5s-11 17.5 -17 25.5s-11.667 14.333 -17 19c-8.66699 8 -19 14.333 -31 19s-24.667 8.83398 -38 12.501l-40 10.5c-13.333 3.33301 -25.666 7 -36.999 11
c-9.33301 -5.33301 -18 -12.166 -26 -20.499s-12.333 -18.5 -13 -30.5c-1.33301 -23.333 4.16699 -41.666 16.5 -54.999s28.333 -24.666 48 -33.999s41.334 -17.666 65.001 -24.999s46.167 -16 67.5 -26c6.66699 2 13.334 5.66699 20.001 11s13.334 15 20.001 29z
M471.995 391.995c7.33301 -11.333 11.1729 -23.6738 11.5059 -37.0068s-2 -26.666 -7 -39.999s-12.167 -26.166 -21.5 -38.499s-20 -23.166 -32 -32.499c-6.66699 -3.33301 -13.5 -6.33301 -20.5 -9l-21.5 -8c11.333 -8 20.666 -16.833 27.999 -26.5
s12.666 -20.167 15.999 -31.5c7.33301 -11.333 11.166 -23.666 11.499 -36.999s-2 -26.5 -7 -39.5s-12.167 -25.667 -21.5 -38s-20 -22.833 -32 -31.5c-19.333 -9.33301 -39.833 -17.666 -61.5 -24.999s-44.834 -9.66602 -69.501 -6.99902c-33.333 8 -67.333 13 -102 15
c-16 -2 -26.833 -6 -32.5 -12s-9.83398 -12.167 -12.501 -18.5s-5.66699 -12.5 -9 -18.5s-11 -10 -23 -12c-6.66699 12 -11.5 24.5 -14.5 37.5s-5.16699 26.333 -6.5 40s-2.33301 27.5 -3 41.5s-2.33398 27.667 -5.00098 41c1.33301 3.33301 3 6.5 5 9.5s5 5.83301 9 8.5
c10 -1.33301 18.333 -3.83301 25 -7.5s12.5 -8 17.5 -13s9.5 -10.333 13.5 -16s8.66699 -10.834 14 -15.501l27.5 -18c10.333 -6.66699 21.5 -12.667 33.5 -18s24.667 -9.33301 38 -12s26.666 -2 39.999 2c10.667 5.33301 18.667 11.333 24 18s9.33301 13.667 12 21
c0.666992 16 -2.33301 32 -9 48s-15.334 28.667 -26.001 38s-22.667 17.5 -36 24.5s-27.166 13.833 -41.499 20.5l-42.5 19c-14 6 -26.333 12.667 -37 20l-43.5 28.5c-13.667 9 -25 18.833 -34 29.5s-15 23.167 -18 37.5s-1.5 32.5 4.5 54.5
c2.66699 20 10.334 39.833 23.001 59.5s33 35.834 61 48.501c-17.333 12.667 -30 27.5 -38 44.5s-7.66699 40.167 1 69.5c2.66699 20.667 10.5 41 23.5 61s34.5 36.333 64.5 49l110 9c22 -4 42.5 -8.33301 61.5 -13s38.167 -13.667 57.5 -27c11.333 1.33301 19.333 5 24 11
s8 12.667 10 20s3.66699 14.333 5 21s4.33301 11.334 9 14.001c6.66699 1.33301 11.334 1.33301 14.001 0s4.66699 -3.16602 6 -5.49902s2.33301 -5 3 -8s2 -5.5 4 -7.5l20 -125c-1.33301 -3.33301 -2.83301 -7.33301 -4.5 -12s-3.5 -9.5 -5.5 -14.5s-4.33301 -9.5 -7 -13.5
s-5.33398 -6.66699 -8.00098 -8c-5.33301 5.33301 -11.333 12 -18 20l-20.5 24c-7 8 -14.5 15.5 -22.5 22.5s-16.333 12.5 -25 16.5c-12 11.333 -26.333 20.666 -43 27.999s-33.667 11.666 -51 12.999c-6 -1.33301 -13.5 -3.33301 -22.5 -6s-17.833 -6.66699 -26.5 -12
s-16.167 -12 -22.5 -20s-9.83301 -17.333 -10.5 -28c-1.33301 -20.667 5.16699 -37.667 19.5 -51s32.333 -25.166 54 -35.499s45.167 -20 70.5 -29s49 -19.5 71 -31.5c18 -10 33.5 -21.167 46.5 -33.5s21.5 -26.5 25.5 -42.5z" />
    <glyph glyph-name="dieresis" unicode="&#xa8;" 
d="M178 576c6.66699 -9.33301 7.8291 -18.832 3.49609 -28.499s-7.83301 -18.834 -10.5 -27.501c-10 -10 -22.167 -16 -36.5 -18s-28.166 -1.66699 -41.499 1c-6 3.33301 -9.66699 7.5 -11 12.5s-3.66602 9.5 -6.99902 13.5c-1.33301 13.333 -0.666016 26.833 2.00098 40.5
s11.334 23.5 26.001 29.5c15.333 1.33301 29.333 0.333008 42 -3s23.667 -10 33 -20zM329.995 577.001c5.33301 -8.66699 6.33301 -17.332 3 -25.999s-6.33301 -17 -9 -25c-8.66699 -9.33301 -19 -14.833 -31 -16.5s-23.667 -1.16699 -35 1.5
c-5.33301 3.33301 -8.5 7.16602 -9.5 11.499s-3.16699 8.16602 -6.5 11.499c-0.666992 12.667 0.166016 25.167 2.49902 37.5s9.83301 21.5 22.5 27.5c12.667 1.33301 24.334 0.333008 35.001 -3s20 -9.66602 28 -18.999z" />
    <glyph glyph-name="copyright" unicode="&#xa9;" horiz-adv-x="715" 
d="M488 502c-3.33301 -26.667 -4.16504 -52.833 -2.49805 -78.5s1.83398 -52.5 0.500977 -80.5c-0.666992 -2 -2 -4.16699 -4 -6.5s-4.66699 -2.83301 -8 -1.5c-5.33301 0.666992 -9.66602 2.5 -12.999 5.5s-6 6.66699 -8 11s-3.66699 8.83301 -5 13.5s-3.33301 9 -6 13
l-26.5 39.5c-8.33301 13 -18.166 25.5 -29.499 37.5c-6 2 -12.5 3.83301 -19.5 5.5s-13.167 0.166992 -18.5 -4.5c-8.66699 -5.33301 -16.667 -12.666 -24 -21.999s-11.333 -18.666 -12 -27.999l-4 -4l-1 -101c3.33301 -5.33301 5.16602 -10.833 5.49902 -16.5
s2.16602 -10.834 5.49902 -15.501c0.666992 -16 6.5 -31 17.5 -45s22.167 -26 33.5 -36c20.667 0.666992 39.167 3.66699 55.5 9s33.5 17.666 51.5 36.999c7.33301 1.33301 10.833 -0.833984 10.5 -6.50098s-0.5 -10.5 -0.5 -14.5c-2 -11.333 -5.66699 -22.166 -11 -32.499
s-14.333 -16.5 -27 -18.5c-18 -12 -38 -19.333 -60 -22s-43 -7 -63 -13c-11.333 1.33301 -21.833 3.83301 -31.5 7.5s-19.5 6.83398 -29.5 9.50098c-5.33301 4 -11 8 -17 12s-11.667 8.5 -17 13.5s-10 10.167 -14 15.5s-6 11.666 -6 18.999c-14 25.333 -19.667 54 -17 86
l-5 4c-2.66699 18.667 -3.83398 37.167 -3.50098 55.5s3 35.666 8 51.999s12.5 31.666 22.5 45.999s23.333 26.5 40 36.5c7.33301 7.33301 15.5 12.833 24.5 16.5s18.333 6.33398 28 8.00098s19.334 2.83398 29.001 3.50098s19.167 1.66699 28.5 3
c6.66699 -2 13.5 -3.66699 20.5 -5s13.833 -2.83301 20.5 -4.5s13.167 -4 19.5 -7s12.166 -7.5 17.499 -13.5c4 1.33301 7.33301 3.83301 10 7.5s5.16699 7.5 7.5 11.5s5.16602 7.33301 8.49902 10s7.66602 3.66699 12.999 3zM612.001 281.001
c1.33301 22 3.16992 43.998 5.50293 65.998s1.5 44.833 -2.5 68.5s-13 47.834 -27 72.501s-36.667 50.334 -68 77.001c-6 2.66699 -18.333 7 -37 13s-39 12 -61 18s-43.5 11 -64.5 15s-36.833 5.33301 -47.5 4c-5.33301 -4 -13.333 -9.5 -24 -16.5l-33 -21.5
c-11.333 -7.33301 -21.833 -14.5 -31.5 -21.5s-16.5 -12.5 -20.5 -16.5c-26 -24 -47.667 -50.667 -65 -80s-30.5 -59.166 -39.5 -89.499s-13.833 -60 -14.5 -89s2.66602 -55.167 9.99902 -78.5c6 -20 14.833 -35.5 26.5 -46.5s25 -21 40 -30s31.167 -18.167 48.5 -27.5
s35.333 -22 54 -38l28 -17c11.333 -2.66699 25 -3.83398 41 -3.50098s32.167 1.5 48.5 3.5s31.666 4.5 45.999 7.5s25.166 5.83301 32.499 8.5c16.667 24 34 45.167 52 63.5l49 52c14.667 16.333 27 33 37 50s15.667 35.833 17 56.5zM668.005 241.999
c-6 -23.333 -14.6689 -47.001 -26.002 -71.001s-26.333 -46.167 -45 -66.5s-41.334 -37.666 -68.001 -51.999s-58.334 -23.5 -95.001 -27.5c-26 -2.66699 -52.167 -5.5 -78.5 -8.5s-52.166 -4.33301 -77.499 -4s-50.166 3.33301 -74.499 9s-47.5 15.834 -69.5 30.501
c-31.333 20.667 -54.666 45.334 -69.999 74.001s-25 58.667 -29 90s-3.33301 63 2 95s13.666 62 24.999 90c9.33301 24.667 21.166 50 35.499 76s31.833 50.667 52.5 74s45 43.833 73 61.5s61 30.5 99 38.5c30.667 -0.666992 61.667 -2.83398 93 -6.50098
s60.833 -10 88.5 -19s52.334 -21 74.001 -36s37.834 -33.5 48.501 -55.5c30 -44 47.833 -90.833 53.5 -140.5s1.83398 -99.834 -11.499 -150.501v-1z" />
    <glyph glyph-name="ordfeminine" unicode="&#xaa;" horiz-adv-x="338" 
d="M194 355c0 15.333 -1.16992 31.6709 -3.50293 49.0039s-2.16602 33.666 0.500977 48.999c-2 2.66699 -5 3.66699 -9 3c-2 -6.66699 -6.33301 -10.834 -13 -12.501s-13 -2.5 -19 -2.5c-4.66699 -3.33301 -10.167 -6 -16.5 -8s-10.166 -7 -11.499 -15
c-7.33301 -13.333 -10.5 -28.5 -9.5 -45.5s6.16699 -31.5 15.5 -43.5c4.66699 -3.33301 8.83398 -4.33301 12.501 -3s8.16699 1.33301 13.5 0c8 1.33301 15.167 5.16602 21.5 11.499s12.5 12.166 18.5 17.499zM335.997 368.005
c-10.667 -13.333 -21.6758 -26.1689 -33.0088 -38.502s-24.666 -20.833 -39.999 -25.5c-9.33301 -3.33301 -19.166 -4.83301 -29.499 -4.5s-19.833 2.83301 -28.5 7.5c-2 1.33301 -3.83301 3.33301 -5.5 6s-3.5 5 -5.5 7s-4 3.16699 -6 3.5s-4.66699 -1.16699 -8 -4.5
c-12 -9.33301 -26.167 -15.333 -42.5 -18s-32.166 -2 -47.499 2c-8 2 -16.167 5 -24.5 9s-16.166 8.66699 -23.499 14s-13.333 11.5 -18 18.5s-7.33398 14.833 -8.00098 23.5c-1.33301 16.667 1.83398 33 9.50098 49s18.834 28.667 33.501 38
c4.66699 1.33301 10.167 3.33301 16.5 6s12.166 4.33398 17.499 5.00098l2.5 2.5c1 1 2.16699 1.5 3.5 1.5h7c3.33301 0 6 0.666992 8 2c15.333 1.33301 29.833 4.66602 43.5 9.99902s24.834 15.333 33.501 30c2 12 2.16699 23.333 0.5 34s-5.16699 21.334 -10.5 32.001
c-4.66699 4.66699 -9.83398 7.33398 -15.501 8.00098s-11.167 0.333984 -16.5 -0.999023s-10.666 -3.16602 -15.999 -5.49902s-10.333 -4.16602 -15 -5.49902c-5.33301 -4.66699 -9.16602 -8.66699 -11.499 -12s-1.16602 -8.33301 3.50098 -15c2.66699 -2.66699 4 -6 4 -10
s-0.333008 -7.66699 -1 -11c1.33301 -2.66699 0.833008 -5.5 -1.5 -8.5s-4.16602 -6.16699 -5.49902 -9.5c-7.33301 -8 -15.666 -14.167 -24.999 -18.5s-19.333 -5.5 -30 -3.5c-9.33301 1.33301 -17.166 6.16602 -23.499 14.499s-10.166 17.166 -11.499 26.499
c-2.66699 13.333 0.166016 24.166 8.49902 32.499s18.166 15.5 29.499 21.5c16 8.66699 34.667 16.5 56 23.5s42.666 10.5 63.999 10.5c16.667 0 32.334 -2.83301 47.001 -8.5s27 -16.167 37 -31.5c5.33301 -12.667 10.166 -23.5 14.499 -32.5s7.5 -21.167 9.5 -36.5
c-3.33301 -15.333 -5.66602 -31.166 -6.99902 -47.499l-4 -48.5c2.66699 -3.33301 4 -7.83301 4 -13.5v-18c0 -6.33301 0.5 -12.333 1.5 -18s3.16699 -9.83398 6.5 -12.501c6.66699 2 11.667 4.33301 15 7s5.83301 5.5 7.5 8.5s3.16699 6.16699 4.5 9.5s4 6.66602 8 9.99902
c2.66699 -1.33301 6.66699 -3.66602 12 -6.99902s7.33301 -6 6 -8z" />
    </font>
</defs>
</svg>
