<?xml version="1.0" encoding="Windows-1251"?>
<svg version="1.2" baseProfile="tiny" id="Pinkie Pie Wanna Hug You" xmlns="http://www.w3.org/2000/svg" xmlns:xlink="http://www.w3.org/1999/xlink" x="333px" y="350px" viewBox="-20 0 660 715" xml:space="preserve">
<g>
<path fill="#E980AF" d="M319.6,329.4c-0.1-0.2-0.2-0.4-0.3-0.4c-0.7-0.2-0.4,0.4-0.4,0.6c0.1,2.7,0.2,5.3,0.5,8
c0.9,8.8,2,17.5,3.3,26.3c2.6,17.8,6.8,35.2,13.9,51.7c1.1,2.5,2.2,5,3.2,7.5c0.2,0.4,0.4,0.6,0.8,0.7c0.5,1.4,1.3,2.5,2.3,3.5c6.4,7.7,10,16.7,12.8,26.2c4.7,16.3,10.3,32.4,17.4,47.9c1.4,3.1,2.8,6.2,4.2,9.2c0.5,1.1,1.1,1.7,2.4,1.8c5.5,0.4,9.9,2.9,13.2,7.4c3,4.1,5.5,8.4,8.1,12.7c0.5,1.1,1,2.2,1.6,3.3c3.8,6.9,7,14.1,10.3,21.3c0.4,1,1,2,1.4,3.1c3.6,7.6,6.7,15.4,9.8,23.2c0.4,1,0.8,2,1.2,3c7.9,20.6,14.8,41.5,20.1,62.9c2.2,8.8,3.9,17.8,4.7,26.9c0.2,2.4,0.1,4.8,0.1,7.3c-0.3,1.6-0.2,3.3-1.3,4.6c-2.3,4-6.2,6-10.3,7.5c-6.8,2.6-13.8,3.7-21,4.3c-7.1,0.6-14.1,0.6-21.2,0.3c-8.1-0.4-16.2-1.4-23.9-4.5c-0.4-0.1-0.7-0.3-1.1-0.5c-6.7-3.2-8.1-6.1-5.9-13.1c3.8-11.9,5.7-24.1,5.6-36.6c0-0.8,0.1-1.5-0.4-2.2c-0.3-1.9,0-3.9-0.5-5.8c-0.3-12.1-2-24.1-4.5-35.9c-0.3-1.2-0.5-2.5-0.8-3.7c-1.2-5-2.7-9.9-4.1-14.9c-0.3-1.2-0.7-2.4-1.2-3.6c-1.7-5.2-3.6-10.3-5.6-15.4c-0.5-1.2-1.2-1.9-2.5-2c-3.4-0.4-6.6-1.4-9.8-2.5c-1.2-0.6-2.4-1-3.6-1.6c-11-4.4-19.6-11.9-27-21c-4.2-5.1-7.9-10.5-11-16.3c-0.7-1.3-1.6-2.5-2-4c-0.4-2.3-1.8-4.2-2.7-6.3c-2.4-5.4-4.5-11-6.3-16.6c-0.2-0.7-0.3-1.6-1.4-0.6c-9.5,8.7-17.9,18.1-23.2,30c-0.1,0.3-0.3,0.7-0.5,1.1c0.7,0,1.3-0.1,1.8-0.1c5.4-0.2,7.9,2.1,8,7.5c0.1,4.9-0.3,9.8-0.8,14.7c-1.3,12.6-3.6,25-6.4,37.4c-6.4,27.5-15.8,54.1-26.7,80.1c-2.1,5.1-4.7,10-7.9,14.6c-4.7,6.8-11.4,10.8-19.1,13.1c-12.5,3.8-25.3,4.4-38.2,3.8c-5.6-0.3-11.3-1.1-16.6-3.4c-2.6-1.1-5-2.4-5.7-5.4c-0.6-2.4,0.4-4.4,1.5-6.3c3.1-5.6,7.2-10.5,11.1-15.5c9-11.9,16.9-24.5,23.9-37.7c8.2-15.3,16-30.8,22.3-46.9c3.3-8.4,6.3-16.8,7.7-25.7c1.1-6.8,0.9-13.7,0.5-20.6c-0.4-6.2-1.1-12.4-1.7-18.6c-0.9-9.2-1.7-18.4-2.2-27.6c-0.5-8.9-0.6-17.8-0.5-26.7c0.3-19.2,1.8-38.2,6-57c0.8-3.9,0.9-8,1.3-11.9c1.1-10.3,3.2-20.3,5.5-30.4c3-13.2,6.6-26.3,10.7-39.2c0.4-1.3,0.1-1.8-1.1-2.2c-22.3-9.3-45.1-17.5-68.2-24.6c-10.4-3.2-20.8-6.2-31.4-8.8c-15.4-3.7-31-6.5-46.6-8.8c-14.1-2.1-28.2-3.7-42.3-5.7c-4.4-0.6-8.8-1.3-13.1-2.3c-11.9-2.6-19.6-9.9-23.4-21.3c-2.9-8.6-3.1-17.4-0.3-26.1c3.2-10,7.3-11.7,16.4-12.6c10.9-1.1,21.9-0.4,32.8,0.7c14.7,1.4,29.3,3,43.8,6.1c15.1,3.3,29.9,7.7,44.5,13.1c0.9,0.3,1.7,0.8,2.7,0.7c0.8-0.4,1.3,0.2,1.9,0.6c4.6,3.3,9.6,5.1,15.3,4.7c0.9-0.1,1.8-0.2,2.6,0.4c0.2,0.9-0.6,0.9-1.1,0.9c-0.9,0.1-1.9,0.1-2.7-0.1c7.6,3.2,14.9,6.8,22.4,10.9c-0.4-1.9-0.9-3.4-1.4-5c-2.2-6.8-3.1-13.8-3.8-20.8c-0.6-5.2-0.9-10.5-0.8-15.8c0-0.6-0.1-1.2,0-1.7c0.9-2.7-0.3-4.6-2.4-6.2c-2.1-1.7-3.5-4-4.9-6.3c-0.3-0.5-0.6-1.1-1.2-1.5c-1.1-2.8-1.4-5.8-1.9-8.7c-0.8-4.9-1.3-9.8-1.2-14.7c0-0.9-0.2-1.8,0.7-2.5c1,0.3,0.8,1.2,0.8,1.9c0.5,8.8,3.2,17,7,24.8c1.9,4,5.1,7.3,8.7,10.1c1.1,0.9,2.4,1.4,1,3.4c-0.9,1.2-0.6,3.1-0.5,4.7c0.5,5.5,0.6,11,1.2,16.5c-0.2,1.5-1.8,1.9-2.3,3c0.8-0.3,1.7-0.9,2.7,0c0.6,1.5,0.5,3.3,1.4,4.8c0,1.1-0.9,1.1-1.5,1.4c-1.6,0.8-2.5,2.1-2.7,4c1.5-0.7,2.3-2.7,4.2-1.9c0.9,1.3,1.1,2.8,1.5,4.3c3.9,13.2,10.1,25.2,19.8,35.1c9.7,9.8,21.5,16,34.9,19c1.3,0.3,2.4,0.8,3.4,1.7c5.1,4.7,11,7.8,18,8.6c8,0.9,15.1-1.2,21.2-6.6c3.6-3.2,6.4-7,8.6-11.4c0.3-0.6,0.6-1.8,1.4-1.5c0.9,0.4,0.3,1.4,0.1,2.2c-0.3,1.4-1.2,2.5-1.6,4.2c2.5-0.8,4.7-1.9,6.8-3c6.1-3.1,11.6-7.1,16.5-12c6.6-6.6,11.8-14.3,15.6-22.9c1.6-3.6,3-7.2,4.1-10.9c0.4-1.3,0.8-2.7,0.7-4.1c2.2-0.3,4.8,1,6,3.1c-0.1,3.2-1.7,6-2.6,8.9c-0.3,1-0.7,1.9-1.1,2.8c-0.2,0.3-0.3,0.7-0.5,1c-2.1,4.6-4.3,9.2-7.1,13.4c-0.2,0.3-0.4,0.6-0.6,0.9c-9.5,14.3-22.5,24.2-38.8,29.5c-1.7,0.9-3.9,0.7-5.3,2.4c-3.6,3.8-7.7,6.7-12.9,7.7c-7,1.4-13.5-0.4-19.7-3.6c-0.8-0.4-1.6-0.8-2.3-1.4c-1.8-1.6-4.1-1.9-6.4-2.3c-1.3-0.2-2,0.3-2.4,1.5c-1.1,3.2-2.2,6.4-3.2,9.6c-5.1,15.9-9.8,31.9-13.6,48.2c-2.3,9.9-4.4,19.8-5.8,29.8c-0.7,5.5-1.1,11-1.4,16.5c-0.3,5.9-0.4,11.7-0.2,17.6c0.2,7.2,0.3,14.4,1.5,21.5c1.4,8.2,4.4,15.8,9.3,22.6c6.3,8.8,15.2,13.3,25.6,15.2c6.9,1.2,13.8,1.1,20.8,0.4c2.3-0.3,2.4-0.4,1.9-2.8c-1.9-8.2-3.2-16.5-3.9-24.9c-0.2-2.9-0.5-5.8-0.4-8.8c0-1-0.1-2.6,1.2-2.7c1.3-0.2,1.4,1.4,1.7,2.4c1.4,5.5,2.1,11.1,3.1,16.7c2.9,15.9,7.3,31.4,14.8,45.9c8.3,15.9,19.5,29.2,34.9,38.7c3.8,2.4,7.8,4.3,12.2,5.4c9.3,2.3,17.6,0.8,24.4-6.4c0.4-0.4,0.7-0.7,1.1-1.1c0.5-0.4,1-1.1,1.6-0.6c0.6,0.4,0.4,1.2,0.2,1.8c-1.3,3.7-3.9,6.5-7,8.9c-2,1.5-4.2,2.6-6.7,3.3c-2,0.6-2,0.7-1.3,2.7c5.6,15.6,10,31.5,12.6,47.8c1.2,7.1,1.8,14.3,2.3,21.5c0.3,5.5,0.8,10.9,0.7,16.4c-0.2,10.8-1.2,21.5-4.4,31.9c-1.1,3.5-0.8,4.1,2.1,6.3c2.5,1.9,5.4,3,8.3,3.7c5.8,1.5,11.7,2.3,17.8,2.3c9.8,0.1,19.6-0.4,29.2-2.7c3.2-0.8,6.3-1.9,9.2-3.6c1.9-1.1,2.9-2.6,3.3-4.8c0.8-4.9,0-9.7-0.7-14.4c-2-13.6-5.7-26.8-9.7-39.9c-5.7-18.7-12.4-37-19.7-55c-4.6-11.2-9.4-22.3-14.9-33.1c-2.9-5.7-5.9-11.3-9.5-16.6c-0.9-1.3-1.8-2.5-3.4-2.9c-0.7-0.2-1.5-0.5-2,0.1c-0.5,0.6,0.1,1.2,0.3,1.7c1.2,2.5,2.4,4.9,3.7,7.4c0.3,0.6,0.6,1.1,0.8,1.7c0.3,0.7,0.8,1.5,0,2.1c-0.8,0.6-1.4-0.2-2-0.7c-3.2-3-5.4-6.8-7.5-10.5c-9.2-15.9-16.8-32.6-22.7-50c-2.7-8-5.1-16-7.5-24.1c-2.2-7.4-6.1-13.9-11.4-19.5c-3.1-3.2-6.3-6.3-9.5-9.5c-1-0.9-1.8-2-2.6-3.1c-0.3-0.4-0.7-0.9-0.3-1.4c0.4-0.6,1-0.5,1.6-0.3c1.3,0.4,2.5,0.9,3.7,1.5c0.6,0.3,1.2,0.7,2.1,0.9c-0.4-1.4-1.1-2.6-1.6-3.9c-5.4-12.5-8.9-25.6-11.2-39c-2.1-12.3-3.7-24.7-5.2-37.1c-0.2-1.8-0.4-3.5-0.5-5.3c-0.1-2.1-0.4-2.3-2.6-2.4c-0.8,0-1.5,0-2.3-0.1c-0.7-0.1-1.5-0.3-1.6-1.1c-0.1-0.8,0.6-1.1,1.1-1.4c2.5-1.3,5.3-1.9,7.9-2.8c0.9-0.3,1.8-0.5,2.8-0.8c0.6-0.2,1.3-0.3,1.8,0.2C320.3,325.5,320.1,327.5,319.6,329.4z"/>

<path fill="#BF1B75" d="M173.9,164.8c-0.7,2.6-0.4,5.2-0.2,7.8c0.4,6.1,1.5,12.1,2.7,18c0,0.1,0.2,0.2,0.2,0.3c1.7,2.6,1.9,5.8,2.9,8.7c1.5,4.7,3,9.5,4.3,14.3c1.2,4.5,2,9,0.9,13.6c-1.6,6.9-5,8.6-11.5,9.4c-0.4,0-0.8-0.1-1-0.4c-4.1-0.1-8.3,0.2-12.3-1.5c-2.7-1.1-5-2.8-7.5-4.3c-8.7-7.8-13.7-17.7-17.1-28.6c-0.2-0.6-0.3-1.2-0.6-2.2c8.4,6.7,16.8,12.7,26.9,15.6c1.6,0.5,3.2,0.9,5.4,1.5c-4.2-4.5-7.9-8.8-11.3-13.2c-8.9-11.3-17.3-23.2-22.6-36.6c-9.1-23-9.2-46.1,4.2-67.3c11.5-18.2,28.9-27.8,50.9-28.1c3.5,0,7,0.5,10.4,1.5c1.3,0.4,2,0.1,2.8-1c2.7-4,6.3-6.8,11.2-7.6c3.4-0.5,6.6,0.4,9.6,1.8c3.1,1.4,5.8,3.4,8.7,5.9c-0.6-3.6-1.3-6.8-1.6-10.1c-0.7-8.9-0.2-17.7,3.3-26.1c5-11.9,14.3-18.8,26.6-21.9c22.8-5.7,48.8,2.7,59.9,29.3c0.3,0.7,0.4,1.3,1.6,1.1c12.8-2.7,24.2,0.5,34.7,7.9c9.7,6.9,16.5,16.2,22.1,26.5c7.9,14.6,12.5,30.1,12.2,46.8c-0.1,8-1.2,15.9-4.5,23.3c-2.2,4.8-5.1,9-9.5,12c-0.8-0.1-0.8-0.7-0.7-1.2c0.2-1.6,0-3.1,0.3-4.7c0.2-0.7,0.6-1.3,1-1.8c5-6.4,7.1-13.7,7.6-21.6c0.5-9-0.8-17.8-3.2-26.4c-0.1-0.5-0.1-1.3-0.7-1.4c-0.6-0.1-0.9,0.6-1.2,1.1c-2.6,3.4-5.6,6.4-8.7,9.4c-0.6,0.6-1.1,1.3-2,1.3c-0.9-0.4-1.1-1.2-1.2-2.1c0.1-1.2,1-1.9,1.8-2.6c3.4-2.9,6.3-6.3,9.2-9.7c0.8-0.9,1-1.8,0.6-3c-4-11.9-9-23.1-17-32.9c-6.7-8.3-15-14.4-25.7-16.4c-4-0.8-8.1-0.6-12.1,0.1c-1.5,0.3-1.8,0.9-1.5,2.4c1.3,5.8,1.9,11.7,1.9,17.6c0.1,6.6,0.2,13.3-0.4,19.9c-0.9,8.5-2.4,16.9-4.8,25.1c-0.7,2.4-1.4,4.8-2.3,7.1c-0.3,0.9-0.6,1.8-1.4,2.4c-0.2,0.1-0.5,0.2-0.7,0.1c-1.7-1.2-2.4-0.3-2.9,1.3c-0.3,1-0.9,1.9-1.4,2.9c-5.5,10.7-14,18.7-23.6,25.5c-3.2,2.2-6.5,4.3-10,6c-3,1.5-3,1.5-4.2-1.5c-3-7.3-7.3-13.8-12.9-19.2c-6.8-6.7-14.9-11.3-24.5-12.6c-2.9-0.6-5.8-0.5-8.7-0.5c-2.5-0.2-5,0.4-7.4,0.7c-1.7,0.1-3.4,0.7-5.1,1c-9.7,2.5-18.9,6.3-26.9,12.5c-1.4,1.3-2.8,2.6-4.1,4.1c-4.6,5.5-7.1,11.9-8,19C174.5,163.6,174.6,164.3,173.9,164.8z"/>

<path fill="#E980AF" d="M363.6,267.8c2.4-0.2,4.4-1.5,6.6-2.4c19.3-8,39-15.1,59.1-21.1c15.5-4.6,31.1-8.5,47-11.5c9-1.7,18.1-2.8,27.2-3.8c15.6-1.7,31.3-2.7,47.1-2.1c11,0.4,22,1.4,32.5,4.9c1.3,0.4,2.5,1,3.7,1.4c8.9,3,12.1,10.4,13.8,18.6c3,14.2-2.1,25.3-13.5,33.9c-4.9,3.7-10.3,6.4-15.9,8.6c-2.1,0.8-4.3,1.1-6.5,1.3c-5.5,0.4-11.1,0.4-16.6,0.4c-11,0.1-22,0.1-33,0.5c-12.5,0.4-24.9,1.1-37.4,1.9c-13.2,0.9-26.4,2.2-39.5,3.8c-20.6,2.5-41.1,6-61.4,10.5c-1.4,0.3-2.7,0.6-4.1,0.9c-0.9-1.4-0.5-2.6,0.3-3.9c2.5-1.2,5.2-1.5,7.9-2.1c22.8-5,45.7-9.3,68.9-12c9.3-1.1,18.6-1.8,28-2.5c9.1-0.6,18.3-1.2,27.4-1.6c7.1-0.3,14.1-0.5,21.2-0.8c9-0.3,18.1-0.2,27.1-0.4c2.9-0.1,5.8-0.2,8.8-0.4c2.7-0.1,5.3-0.7,7.7-1.9c7.1-3.4,13.8-7.4,18.8-13.7c7.3-9.2,7.2-21.1,1.4-30.8c-1.1-1.9-3-2.9-5-3.7c-7.5-3.3-15.5-4.9-23.6-6c-11.2-1.5-22.5-1.4-33.8-1.1c-10.8,0.3-21.6,1.5-32.3,3c-16.6,2.3-32.9,5.5-49.1,9.7c-25.1,6.5-49.7,14.9-73.6,24.9c-0.8,0.3-1.6,0.7-2.4,1.1c-0.4,0.2-0.8,0.2-1.1-0.1c-1.7-1.2-3.6-2.2-5.5-3.1C363.7,268.3,363.6,268.1,363.6,267.8z"/>

<path fill="#BF1B75" d="M342.6,427.3c-0.9-1-2.2-1.8-1.9-3.5c7.9-6.1,17-9.1,26.8-10.3c6-0.7,11.9-1.3,17.9-0.3c10,1.5,16.8,8.6,18.8,19.7c1.5,8.2,0.8,16.3-0.9,24.3c-0.4,1.7,0.1,2,1.6,2.3c11,2.2,21.6,5.4,31.4,10.9c8.7,4.9,15.1,11.6,17.5,21.6c2.1,9,0.8,17.7-1.9,26.3c-1.3,4.1-2.9,8-5,11.8c-0.8,1.4-0.5,1.7,0.9,2c11,2.6,21.3,6.9,30.3,14c13.1,10.2,19.5,23.6,18.6,40.2c-0.6,12-5.5,22.4-12.6,31.8c-6.3,8.3-13.9,15.2-22.5,21.1c-0.6,0.4-1.3,0.6-1.7,1.4c3.7,1.4,7.3,3,10.6,5.1c9.2,6.1,10.8,13,5.1,22.4c-2.7,4.5-6.4,8-10.6,11.1c-4.9,3.6-10.2,6.7-16,8.9c0.3-1.5,0.5-3.1,0.8-4.6c0.5-0.9,1.3-1.3,2.2-1.8c6-3.3,11.5-7.3,16.1-12.4c2.6-2.9,4.8-6.1,4.9-10.3c0.1-3.4-1.3-6.1-3.9-8.3c-4.5-3.7-10-5-15.5-6.1c-1.1-0.2-2.3-0.3-3.4-0.5c-1.1-0.2-1.2-0.8-0.5-1.6c0.4-0.4,0.9-0.7,1.4-1c7-5,13.7-10.4,19.7-16.6c0.4-0.4,1.2-0.8,1-1.5c-0.2-0.7-1.1-0.5-1.7-0.6c-9.6-1.2-18.4-4.5-25.9-10.7c-5.3-4.3-7.5-10.1-8.2-16.7c-0.4-3.2-0.6-6.3-0.1-9.5c0.3-1.6-0.1-1.8-1.7-1.2c-2.4,0.9-4.9,1.4-7.4,1.9c-0.6,0.1-1.3,0.4-1.8-0.2c-0.4-0.9-0.7-1.8-1.1-2.7c0.2-0.8,0.9-0.8,1.5-0.9c4.9-1,9.7-2.5,14.5-4.3c0.6-0.2,1.4-0.7,2,0c0.5,0.5,0.1,1.2-0.1,1.8c-1.3,3.7-2,7.5-2.1,11.4c-0.2,8.6,3.3,15.2,10.4,20.1c6.9,4.8,14.6,7.1,22.9,7.7c1.4,0.1,2.8,0,3.8-1.3c6.4-7.9,11.5-16.5,13.5-26.7c2.5-13.1-0.6-24.9-8.8-35.3c-6.7-8.5-15.7-13.8-25.7-17.6c-2.8-1.1-5.7-1.9-8.5-2.8c-1.7-0.5-2.5,0-3.3,1.5c-6.2,11-15,19-27.2,23c-0.9,0.3-1.8,0.8-2.7,0.1c-0.4-1-0.8-2-1.3-3c0-1,0.8-1.1,1.5-1.2c5.4-1.5,9.8-4.6,13.9-8.2c3.9-3.4,7.4-7.2,10.3-11.5c1.3-1.9,1.2-2.2-1-2.7c-4.5-1-9.1-1.6-13.6-1.5c-6.4,0.1-12.8,1.4-18.9,3.4c-0.8,0.2-1.5,0.8-2.4,0.2c-0.7-0.9-1.2-1.9-1.6-3.1c0.3-0.8,1-0.9,1.7-1.2c5.7-2.1,11.6-3.2,17.7-3.7c6.6-0.5,12.9,0.2,19.3,1.4c2.3,0.4,2.5,0.4,3.5-1.8c3.8-8.4,6.6-17.1,6.9-26.5c0.2-9.3-3-17.2-10.5-23.1c-7.3-5.7-15.7-8.9-24.5-11.2c-5.2-1.4-10.6-2.4-15.9-3c-2.3-0.3-2.5-0.6-2.1-2.8c1.4-7.1,2.2-14.3,2-21.6c-0.2-4.3-0.8-8.5-2.5-12.5c-2.5-5.9-7.1-9.2-13.5-9.3c-10.2-0.2-20.2,1.6-29.8,4.9c-2.8,1-5.5,2.4-8,4.1C344.3,427,343.6,427.7,342.6,427.3z"/>

<path fill="#BF1B75" d="M373.2,309.8c-0.1,1.3-0.3,2.5-0.4,3.8c-1,4.9-2.3,9.7-5,13.9c-5.6,8.9-13.1,15.4-23.8,17.3c-11.4,2-22-4.7-24.4-15.4c-0.5-2,0-3.9,0.4-5.8c-0.1-2,1-3.6,1.9-5.3c2.2-3.9,4.8-7.4,8.1-11c-2.4,0.3-4.4,0.5-6.4,0.6c-6.4,0.4-12.8,0.8-19.2-0.2c-3.3-0.5-6.4-1.7-8.8-4.1c-0.5-0.5-1.1-0.9-1.1-1.7c0.7-1.5,2.2-1.2,3.4-1.7c0.6-0.2,1.3-0.4,2-0.6c0.6-0.3,1.1,0.1,1.6,0.3c4.2,2.3,8.8,3.2,13.5,3.8c1.8,0.2,3.4-0.2,4.9-1.4c5.8-4.8,11.3-9.9,15.1-16.5c2.5-4.2,3.7-8.8,3.3-13.7c-0.1-0.6-0.1-1.3,0.2-1.9c0.1-0.2,0.3-0.5,0.4-0.7c1.4-0.5,1.5,0.7,1.7,1.4c0.7,3,0.4,5.9-0.5,8.9c-1.8,6-5.4,10.9-9.4,15.6c-2.5,2.9-5.4,5.5-8.3,8.2c2.4,0.1,4.7-0.2,7.1-0.4c2.8-0.2,5.6-0.7,8.3-1c0.5-0.1,1.1-0.3,1.4,0.2c0.3,0.6-0.2,1.1-0.6,1.5c-2.4,2.1-4.7,4.3-6.7,6.8c-2.5,3.1-4.8,6.3-6.1,10.1c-1.2,3.5-1.4,7,0.2,10.4c2.3,5.1,7,6.9,12,7.8c6.5,1.2,12-1.3,16.9-5.4c6.8-5.8,11.9-12.7,13.6-21.7c0-0.2,0.1-0.4,0-0.6c-3.7,4-7.7,7.6-12.8,9.8c-3.5,1.5-7.2,2.1-11,1.6c-1.6-0.2-3.3-0.2-4.9-0.7c-0.6-0.2-1.4-0.2-1.5-1c-0.1-0.6,0.5-1,1-1.3c3.8-2.8,7.5-5.7,11-8.9c6.7-6.2,13.3-12.5,17.1-21c0.5-1,0.9-2.1,1.2-3.2c1.6-6.9,0.3-9.9-6.1-13.8c-3.6-2.2-7.6-3.6-11.7-4.7c-0.4-0.1-0.9-0.2-1.3-0.4c-0.4-0.2-0.9-0.4-0.9-0.9c-0.1-0.6,0.5-0.7,0.8-0.9c2.1-0.9,4.1-1.6,6.2-2.6c12.9-6.1,23.9-14.3,31.5-26.6c3.1-5,5.3-10.5,6.3-16.6c-3.6,5.1-8.1,8.6-13.8,10.7c-5.6,2-11.4,2.5-17.4,1c1.2,1.9,2.3,3.6,2.8,5.7c1.5,6.5-1.5,13.4-7.5,17c-3,1.8-6.2,2.9-9.8,2.9c-0.7,0-1.9,0.3-1.5-1.2c0.1-0.3,0.2-0.5,0.4-0.8c0.8-0.7,1.9-0.7,2.9-0.9c5.1-0.9,9.3-3.2,11.8-7.9c2.9-5.4,0.8-10.2-2.2-14.8c-0.4-0.6-1-1.2-1.4-1.8c-0.2-0.4-0.5-0.8-0.3-1.2c0.3-0.4,0.8-0.4,1.2-0.3c0.5,0.1,1,0.2,1.5,0.3c4.4,1.1,8.9,1.3,13.5,0.7c6.8-0.9,11.9-4.7,16.5-9.6c4.2-4.5,4.8-9.7,4.1-15.6c-1.3-10.2-5.1-19.1-11.6-27c-1.9-2.3-3.8-4.8-6.3-6.6c-0.8-0.6-1.5-1.2-1.9-2.1c-0.1-1.1-0.4-2.2,1.1-2.6c12.6,8,19.7,19.6,22.5,34c2.1,11,2.2,21.9-2,32.5c-4.7,11.8-13.3,20.2-23.8,26.9c-4.2,2.7-8.6,4.9-13.6,6.8c2,0.7,3.7,1.3,5.4,1.9c2.3,1,4.5,2.2,6.6,3.7c3.4,1.5,4.6,4.5,5,7.9c0.3,2.3-0.5,4.5-1.2,6.7c-3.7,11.9-10.9,21.3-20.8,28.6c-1.5,1.1-3,2.2-4.6,3c-0.3,0.1-0.6,0.4-0.7,0.3c3.6-1.3,7.5-2.3,10.7-4.7c4.7-3.1,8.4-7.1,11.9-11.4c0.6-0.8,1.1-2.1,2.2-1.8c1,0.3,0.9,1.8,0.9,2.7C373.6,305.1,374.2,307.5,373.2,309.8z"/>

<path fill="#E97FAF" d="M375.1,165.6c-0.7,0.8-0.8,1.7-0.7,2.7c0.4,0.7,0.2,1.5,0,2.2c-1.9,9.9-5.7,19-12.5,26.7c-1.5,1.7-3.1,3.2-4.9,4.5c-1.2,0.9-1.7,2-1.6,3.4c0.1,3.2,0.1,6.4,0,9.6c-0.1,5.8-0.8,11.6-1.9,17.3c-0.1,0.7-0.1,1.5-1.1,1.5c-1.8-1.6-3.6-3.1-6.1-3.5c-0.3,0-0.3-0.4-0.2-0.6c1-0.5,1.5-1.3,1.6-2.4c0.7-6.3,1.3-12.5,1.3-18.8c0-0.3,0.1-0.6,0-0.8c-1.3-2.1,0.2-3.2,1.6-4.3c10.8-9.2,15.7-21.5,18.3-35c0.9-4.4,1.1-9,1.5-13.5c0.3-3.1-0.3-6.1-0.7-9.1c-1.4-10.1-3.6-20.1-7.6-29.5c-2.4-5.7-5.3-11.2-9.8-15.6c-1.1-1.1-2.4-2.1-3.8-2.8c-2-1-3.2-0.8-4.8,0.7c-2.8,2.7-4.3,6.1-5.6,9.7c-3.9,10.4-6,21.2-7.8,32c-0.2,1.1-0.3,2.3-0.6,3.4c-0.4,1.5-1,1.6-2.1,0.5c-1.8-2-3.6-4.1-5.5-6.1c-3.7-3.8-8-6.9-12.2-10c0.6-1.4,1.4-2.7,1.8-4.1c0.4-1.3,0.9-1.7,2-0.7c0.3,0.3,0.8,0.5,1.1,0.7c2.6,0.7,4.3,2.6,6.2,4.2c1.9,1.6,3.7,3.2,5.6,5.2c0.6-3.3,0.6-6.2,1-9c1-7.2,2.5-14.2,5.5-20.8c2.2-5,5.3-9.3,10.4-11.8c2.1-1,4.1-1,6.2,0.1c4.9,2.5,8.4,6.6,11.5,10.9c1.9,2.6,3.4,5.5,5.1,8.3c0.5,0.9,0.7,1.9,0.8,2.9c0.3,0.6,0.6,1.3,0.8,1.9c0.8,0.4,1.1,1.2,1.4,2c3.4,8.8,5.7,17.9,6.4,27.4c0.2,2.2,0.4,4.4,0.4,6.7c0,1.2-0.1,2.3-0.5,3.4c0.1,2.1-0.3,4.1,0,6.2C375,162.6,374.6,164.1,375.1,165.6z"/>

<path fill="#BF1B75" d="M365.6,597.7c0.3,1.1,0.5,2.3,0.8,3.4c-0.1,0.8-0.4,1.6-0.7,2.3c-4.1,10.8-2.5,20.9,3.2,30.6c0.7,1.1,1.8,2,2.1,3.3c0.3,1.9,0.7,3.8,0,5.8c-8.3-6.4-13.3-14.5-12.9-25.3c0.2-4.9,1.7-9.5,3.5-14c0.3-0.7,0.6-1.4,1-2.4c-0.8,0-1.5,0-2.1,0c-16.5,0.2-32.2-2.7-46.7-10.7c-13-7.2-22.4-17.8-27.6-31.7c-6.2-16.5-1.8-31.7,12.4-42.4c1.1,1,1.6,2.4,2.2,3.8c-0.4,1.4-1.6,2.1-2.5,3c-6.2,6.3-9.4,13.8-9.2,22.7c0.2,6.1,2.1,11.7,5.1,17.1c7.4,13.3,18.5,22.1,32.6,27.4c9.8,3.7,20,5.7,30.6,6.2c2.3,0.1,4.6,0.4,6.9,0.4C364.5,597.2,365.1,597.3,365.6,597.7z"/>

<path fill="#F8B7D1" d="M294.5,301.8c3.4,3.8,7.8,5.4,12.7,5.7c7,0.5,14,0.2,21-0.6c0.9-0.1,1.7-0.1,3-0.2c-4.8,5.2-8.8,10.5-11.2,16.9c-4.2,0.9-8.3,2.2-12.3,3.9c-0.4,0.2-1,0.3-0.8,0.9c0.1,0.5,0.6,0.6,1.1,0.6c1.1,0,2.3,0.1,3.4,0c1.4-0.2,2,0.5,2.1,1.8c0.3,5.1,1,10.2,1.6,15.3c0.7,5.7,1.4,11.3,2.3,16.9c1.3,8.6,2.7,17.3,4.8,25.7c2.4,9.9,6,19.4,10.1,28.7c0.1,0.2,0.2,0.4,0.4,1c-2.9-1.2-5.3-2.8-8.5-3.4c0.9,1.6,1.8,2.7,2.8,3.7c2.9,2.9,5.8,5.8,8.6,8.7c6.7,6.7,11.1,14.7,13.7,23.8c3.8,13.7,8.2,27.2,13.9,40.3c5.8,13.3,12,26.4,20.2,38.4c1.1,1.6,2.4,2.9,4,4.1c0.6-1,0-1.5-0.3-2.1c-1.6-3.3-3.2-6.6-4.9-9.9c-0.8-1.5-0.3-1.8,1.2-1.8c2,0,3.6,0.9,4.7,2.5c5,7.7,9.3,15.7,13.3,24c3.8,8.1,7.5,16.3,10.9,24.6c3.5,8.5,6.9,17.1,10,25.7c3.7,10,7.1,20.1,10.3,30.3c4.2,13.7,8.1,27.5,10.2,41.7c0.7,4.7,1.4,9.4,0.5,14.2c-0.3,1.9-1.1,3.4-2.7,4.4c-4.1,2.8-8.7,4-13.5,5c-9.8,2-19.7,2.3-29.6,1.8c-6.4-0.3-12.7-1.2-18.7-3.7c-2.1-0.9-4-2.2-5.8-3.6c-1.6-1.2-1.5-2.8-1.1-4.3c1.9-6.1,3.3-12.3,3.9-18.6c0.7-7.4,1.4-14.9,0.6-22.4c-0.3-2.8-0.2-5.7-0.4-8.6c-0.7-8.4-1.5-16.8-3-25.1c-2.6-14.3-6.5-28.3-11.2-42.1c-0.5-1.4-1.8-3-1.3-4.2c0.6-1.3,2.7-1,4.1-1.6c5.3-2.3,9.3-5.9,11.5-11.3c0.2-0.4,0.3-0.8,0.1-1.5c-0.9,0.4-1.5,1.3-2.2,1.9c-3.5,3.7-7.7,6.3-12.8,7.1c-4.3,0.7-8.6,0.5-12.8-0.8c-7.6-2.3-14.2-6.5-20.3-11.4c-12.4-9.9-21.5-22.4-28.3-36.6c-5.5-11.6-9.2-23.8-11.8-36.3c-1.4-7.1-2.6-14.2-3.9-21.3c-0.2-1.3-0.6-2.6-1.5-3.9c-0.9,1.8-0.8,3.5-0.7,5.2c0.3,4.3,0.6,8.6,1.1,12.9c0.6,5.5,1.6,10.9,2.8,16.3c0.3,1.2,0.6,2.5,0.9,3.7c0.2,0.8,0.1,1.3-0.9,1.4c-10.1,1.3-20.1,1.3-29.9-1.9c-11.7-3.8-19.4-11.9-24.2-23c-2.1-4.7-3.6-9.6-4.4-14.7c-0.5-3.3-0.7-6.7-0.9-10c-0.4-8.1-0.7-16.2-0.4-24.2c0.5-11.5,1.7-22.8,4-34.1c4.2-20.9,9.8-41.3,16.3-61.6c1.4-4.4,2.8-8.7,4.4-13c0.4-1,0.7-1.2,1.9-1.2c3.5,0.2,6.3,1.9,9.2,3.6c7,3.9,14.4,5.8,22.3,3.1c3.2-1.1,6.1-2.9,8.5-5.3C293.2,302.8,293.8,302.3,294.5,301.8z"/>

<path fill="#F8B7D1" d="M309.7,127.8c1.8,0.1,2.9,1.5,4.2,2.5c5.6,4,10.3,8.8,14.7,14.3c0.9-2.2,1-4.4,1.4-6.6c2-11.5,4.3-22.9,9-33.7c1.1-2.5,2.5-4.7,4.5-6.6c1.5-1.4,3-1.7,4.9-0.8c4.3,2.2,7.2,5.9,9.6,9.8c6,9.8,9.2,20.7,11.1,32c0.9,5.1,2.1,10.1,1.9,15.2c-0.5,11.6-2.5,23-7.7,33.5c-3.3,6.7-7.7,12.7-13.8,17.2c-0.4,0.3-1.4,0.6-0.2,1.3c0.5,0.3,0.3,0.9,0.3,1.4c0,6.9-0.5,13.7-1.4,20.5c-0.2,1.6-0.9,1.7-2,1.7c-1.6,0.7-3.2,1.2-5,0.4c-0.5-0.9-0.1-1.7,0.1-2.6c1.8-6.5,2.5-13.3,2.7-20c0.1-2.8,0-5.7-0.6-8.5c0-0.5,0.3-1,0.4-1.5c0.1-1.5,1.1-2,2.5-2.1c2.1,0,4.1-0.3,6-1c4.3-1.4,7-4.2,7.9-9.1c-2.7,3.3-5.8,5.9-9.8,7c-1.4,0.4-2.9,0.6-4.3,0.8c-1.3,0.2-2-0.3-2.2-1.6c-0.3-1.8-0.8-3.6-1.5-5.3c-0.5-1.3-0.1-2.1,1.2-2.4c1.3-0.4,2.5-0.8,3.7-1.4c5.6-2.7,9.8-6.5,9.6-13.3c-1,1.6-1.9,3.3-3.1,4.9c-2.9,3.9-7.2,5.8-11.5,7.5c-1.2,0.4-2.1,0.1-2.8-0.9c-0.7-0.9-1.3-1.9-2-2.8c-0.9-1.2-0.6-2,0.5-2.9c2.1-1.7,3.6-3.8,4.8-6.1c2.1-3.9,1.8-7.7-0.6-11.8c0.1,3.4-0.4,6.5-1.7,9.3c-0.9,2.2-2.3,4.1-4,5.8c-1.8,1.7-2.6,1.6-4.4-0.1c-2.6-2.5-5.5-4.4-8.8-5.7c-5.5-2.2-10.8-1.8-16.1,0.6c-8.2,3.7-14.1,9.9-18.5,17.6c-4.6,8.1-7.1,17-8.4,26.2c-1.5,10.8-0.6,21.3,2.6,31.7c0.2,0.7,0.2,1.5,0.9,2c0.9,1.4,1.1,3,1.7,4.4c-0.5,0.9,0.3,0.5,0.5,0.5c4.3-0.7,8.7-0.7,13.1-0.8c7.6-0.1,14.7,1.8,21.9,3.9c3,0.9,6.1,1.8,9.1,2.9c-0.6-0.7-1.6-0.7-2-1.4c1.6-2.6,3.9-4.8,5.3-7.6c0.2-0.4,0.4-0.8,1-0.8c1.9,1.4,4,2.7,4.8,5.2c0.2,0.8,0.6,1.5,0.5,2.2c1.1-4.1-0.5-7.1-4.3-9.2c0.2-1.6,0.5-3.1,2.2-4c1.7,0.1,3.4-0.1,5.1,0c0.7,0,1.5-0.1,2.1,0.6c0.5,0.4,0.8,0.8,0.5,1.6c-3.7,12.6-9.3,24.1-18.3,33.9c-7.3,8-16,13.8-26,17.8c-0.2,0.1-0.5,0.1-0.9,0.1c0.7-2.4,2-4.5,2.3-6.9c-1.6,3.1-3.3,6.1-5.5,8.8c-7.2,8.9-16.4,12.6-27.8,10.7c-6.4-1.1-11.6-4.3-16.3-8.6c-0.8-0.7-1.6-1.1-2.7-1.3c-10.8-2.5-20.8-7-29.5-14c-13.3-10.7-21.3-24.8-26-41c-0.4-1.3-0.8-2.7-1.2-4c0.7-1.1,1.8-1,2.8-1.1c1.5-0.2,3,0.1,4.5-0.1c1.4,0.9,1.5,2.5,1.7,3.9c-0.1,0.2-0.2,0.4-0.4,0.6c-3.3,3.1-3.6,4.1-3.4,8.3c0.6-2.6,1.4-5.4,4.8-6.4c0.9,0.3,1,1.1,1.3,1.8c2.8,5.3,6,10.2,10.8,13.9c3.4,2.6,7.2,3.9,11.6,3.5c2.8-0.3,5.3-1.4,7.4-3.3c5.2-4.6,8.4-10.4,9.7-17.3c0.1-0.6,0-1.2,0.6-1.5c1-2.2,1.1-4.7,1.6-7c1.6-8.1,2-16.3,1.5-24.5c-0.8-12.6-4.2-24.6-11.3-35.2c-2.8-4.2-6.3-7.7-11-9.7c-6.7-2.8-12.7-1.2-18.1,3.4c-0.8,0.7-1.5,1.4-2.2,2.1c-1,1-1.9,0.8-2.7-0.3c-1.8-2.4-2.9-5.1-3.6-7.9c-0.5-2.1-0.7-4.2-0.7-6.7c-2.3,4.1-1.8,7.9-0.2,11.7c0.8,2,2,3.9,3.4,5.5c0.9,1,1,2,0.3,3.1c-0.6,0.9-1,1.9-1.5,2.9c-0.4,0.9-1.2,1.3-2,0.9c-4.1-2-8-4.3-9.8-8.9c-0.9-4.5-1.9-8.9-2.2-13.5c-0.2-4.6-0.5-9.2-0.6-13.8c0-0.8,0.1-1.5,0.6-2.2c1.7-1.8,3.7-3.1,5.8-4.2c6.3-3.5,12.9-6.3,19.8-8.2c0.5-0.1,1-0.1,1.5-0.2c1,1.8,0.9,3.8,1,5.7c0.3,3.7,1.1,7.4,0.4,10.7c0-1.9,1.2-3.6,2.7-5c4.9-4.5,10-8.6,15.9-11.8c0.6-0.3,1.1-0.6,1.8-0.7c5,0.3,9.5,2.2,13.8,4.6c11.3,6.3,18.7,16.1,23.8,27.8c0.9,2.2,0.9,2.2,3,1.1c12.9-6.9,24.1-15.7,32-28.3C308.4,130,309.1,128.9,309.7,127.8z"/>

<path fill="#F8B7D1" d="M42.1,213.4c7.1,0.4,14.2,0.8,21.2,1.5c11.2,1.1,22.3,2.9,33.4,4.8c8.9,1.5,17.7,3.9,26.4,6.4c12.1,3.5,24,7.6,35.6,12.3c11.6,4.7,23,9.9,34,15.9c0.8,0.4,1.3,1,1.6,1.8c4.7,11,11.6,20.5,20.5,28.4c8.5,7.5,18.4,12.6,29.4,15.6c1.5,0.4,1.5,0.8,1,2.2c-1.5,4.1-2.9,8.3-4.2,12.5c-0.4,1.2-0.7,1.8-2.2,1.1c-20.1-8.6-40.5-16.3-61.4-22.9c-16-5.1-32.3-9.3-48.8-12.6c-10.2-2-20.4-4-30.6-5.6c-9.2-1.5-18.5-2.9-27.8-4c-8.1-1-16.2-2.3-24.3-3.3c-3.1-0.4-6.3-1-9.4-1.5c-4-0.7-7.3-2.9-10.4-5.4c-8.7-6.9-11.5-16.3-11-26.9c0.2-4.6,1.2-9.2,3.1-13.5c1.3-2.8,3.7-4.1,6.5-4.8c1.6-0.4,3.2-0.9,4.8-1.1C33.9,213.8,38,213.4,42.1,213.4z"/>

<path fill="#F8B7D1" d="M222.1,445.8c1.4,8.5,4,16.4,8.4,23.7c6.4,10.7,15.9,17.2,28,20.1c5.6,1.3,11.3,1.8,17,1.9c1.8,0,3.5-0.7,5.7-0.2c-12.4,12.9-21.7,27.3-24,45.3c1.8-1.5,2.6-3.5,3.7-5.4c1.1-2,6-2.6,7.6-1c0.5,0.5,0.4,1.2,0.5,1.8c0.3,6.2-0.7,12.3-1.7,18.3c-2.2,13.1-5.1,26-8.3,38.8c-2.2,8.7-4.6,17.3-7.1,25.9c-3.7,12.6-7.7,25.1-12.8,37.3c-3.3,8-6.8,15.9-12.1,22.9c-2.4,3.2-5.5,5.5-8.9,7.4c-6.7,3.8-14,5.8-21.6,7c-3.8,0.6-7.7,0.9-11.5,1c-7.3,0-14.7-0.3-21.7-2.9c-0.7-0.2-1.3-0.5-1.9-0.9c-2-1.3-2.2-2.2-0.8-4.1c10.8-14.7,20.5-30,29.6-45.7c5.3-9.2,10.5-18.5,15.1-28c7.1-14.6,13.5-29.6,17.5-45.4c1.7-6.8,3-13.7,3-20.8c0-5.7,0-11.3-0.5-17c-0.6-6.5-1-13-1.8-19.5c-0.6-5.1-0.7-10.2-1.3-15.3c-1.3-11.3-1.2-22.7-1.1-34.1c0-3,0.6-5.9,0.4-8.9C221.4,447,221.6,446.4,222.1,445.8z"/>

<path fill="#EF438B" d="M342.6,427.3c1.6-0.9,3.2-1.9,4.7-2.8c6.6-3.8,13.8-5.3,21.2-6.5c4-0.6,8-1.1,12.1-1.2c9.3-0.3,15.2,4.6,17.4,13.3c1.6,6.2,1.5,12.6,1,18.9c-0.4,4.3-1,8.5-1.9,12.8c-0.2,1.1,0.3,1.2,1.2,1.3c12.3,1.4,24.1,4.3,35,10.2c5.4,2.9,10,6.7,13.2,12.1c2.1,3.6,3.3,7.5,3.6,11.7c0.9,11.3-2.6,21.6-7.2,31.7c-0.6,1.3-1.2,1.6-2.6,1.3c-5.1-1.3-10.3-1.8-15.4-1.8c-8.3,0-16.4,1.4-24.2,4.5c-2.6-4-4.9-8.2-7.7-12c-3.5-4.9-8-7.7-14.1-7.8c-1,0-1.5-0.5-1.8-1.3c-7.8-16.6-14.3-33.7-19.9-51.1c-1.9-5.9-3.2-12-5.6-17.8c-2.2-5.3-5.1-10.1-8.7-14.5C342.8,427.9,342.7,427.6,342.6,427.3z"/>

<path fill="#EF438B" d="M413.8,560.3c4.1-0.5,7.8-2.3,11.3-4.4c8.2-4.8,14.5-11.5,18.8-20c0.5-0.9,0.9-1.2,2-0.9c10.1,2.5,19.6,6.5,27.8,12.9c9.6,7.6,15.6,17.4,17.3,29.7c1.5,10.7-1.3,20.5-6.4,29.8c-2,3.7-4.6,7.2-7.1,10.6c-1.1,1.4-2.3,2.2-4.2,2.1c-11-0.7-20.7-4.1-28.6-12.1c-3.1-3.2-4.6-7.2-5.4-11.5c-0.5-3.1-0.3-6.1,0.1-9.1c0.4-2.9,1.2-5.8,2.2-8.7c-1.4-0.2-2.3,0.6-3.3,0.9c-4.8,1.8-9.7,3-14.6,4.2C420.5,575.8,417.4,567.9,413.8,560.3z"/>

<path fill="#EF438B" d="M346.1,255.9c0.6,1.4,1.9,0.8,2.8,0.7c6.3-1,11.4-3.7,14.3-9.7c2.7-5.6,1.9-10.7-2-15.4c-0.1-0.1-0.2-0.3-0.3-0.5c0,0,0-0.1,0-0.2c13.5,3,24.5-0.9,32.8-12.4c-1.2,13.8-12.9,35.9-45.1,48c0.7,0.7,1.6,0.6,2.4,0.9c5.5,1.7,11,3.5,15.5,7.5c3,2.7,3.4,6,2.8,9.6c-1,6.1-4.4,11-8.3,15.6c-6.6,7.8-14.3,14.4-22.6,20.4c3.1,1.9,12.4,2.1,16.9-0.1c5.1-2.5,8.9-5.4,13.7-10.8c0.1,1.9-0.3,3.6-0.9,5.2c-3.2,9.6-9.1,17.2-17.9,22.1c-7.8,4.4-15.7,3.3-22.3-2.3c-3.6-3.1-4.7-8.3-2.6-14.2c2.3-6.4,6.6-11.4,11.6-15.8c0.5-0.5,1-0.9,1.5-1.4c0.3-0.3,0.6-0.4,0.6-1c-5.9,0.9-11.8,1.6-18.3,1.8c2.1-1.9,3.9-3.4,5.5-5c6.5-6.4,12.3-13.2,14.1-22.5c0.4-2,0.3-4-0.2-6.1c-0.2-0.7-0.3-1.2-1.2-1.2C341.6,265.1,343.8,260.4,346.1,255.9z"/>

<path fill="#EF438B" d="M365.6,597.7c-12.2,0-24.1-1.4-35.7-5.3c-11.2-3.7-21.2-9.5-29.1-18.5c-6.6-7.5-11.4-16.1-12.3-26.3c-0.7-7.8,1.6-14.9,6.3-21.2c1.7-2.2,3.6-4.2,5.8-6c2.5,3.8,4.7,7.8,7.5,11.4c5,6.7,10.5,12.9,17.1,18.1c4,3.2,8.7,5.4,13.3,7.6c0.4,0.4,0.5,0.9,0.6,1.4c1.1,5.9,4.1,10.8,8.7,14.6c4.2,3.6,8.5,7.1,13.7,9.2C363,587.7,364.5,592.7,365.6,597.7z"/>

<path fill="#EF438B" d="M352.3,233.4c1.2-1.7,1-3.8,1.3-5.7c1.3-7.7,1.3-15.5,1.2-23.3c0-1.1,0.3-1.8,1.1-2.4c7.5-5.5,12-13.1,15.2-21.6c1.5-3.9,2.3-7.9,3.2-11.9c9.3,7.8,15.9,17.2,18.9,29.1c1.3,5,1.5,10,1.4,15.1c0,1.2-0.8,2-1.4,2.9c-4.1,6.9-9.7,12.1-17.8,13.9c-5.7,1.3-11.5,0.8-17.1-0.7c-0.3-0.1-0.6-0.2-1,0c0.9,1.8,2.4,3.2,3.4,5c5.6,9.7-0.5,18.3-9.3,20.7c-1.6,0.4-3.4,0.6-5,0.8c1.3-4,3.1-7.8,3.9-11.9c0.4-0.2,0.7,0.3,1.1,0c-0.1-1-0.9-1.8-0.7-2.9c0.4-2.2,1.2-4.3,1.2-6.6C352,233.6,352.1,233.4,352.3,233.4z"/>

<path fill="#EF438B" d="M424.8,586.3c3.4-0.6,6.9-1.1,10.1-2.6c1.2-0.5,1.4-0.2,1.4,1c0,2.1-0.6,4.2-0.4,6.3c0.5,6,1,11.9,4.9,16.9c3.2,4.2,7.6,7.1,12.3,9.4c5.6,2.8,11.6,4.5,17.8,5c0.6,0.1,1.6,0,1.9,0.6c0.3,0.7-0.7,1.1-1.1,1.6c-6.4,6.7-13.5,12.5-21.1,17.8c-0.4,0.3-0.7,0.6-1.3,1.2c3.9,0.3,7.4,1.1,10.9,2.1c3.6,1.1,6.9,2.6,9.8,5c4,3.4,4.8,9.6,1.9,14.4c-3.1,5.1-7.4,8.8-12.1,12.3c-3.1,2.3-6.5,4.2-9.9,6.1c0.3-10.3-1.7-20.4-4-30.4c-3.7-16.5-8.8-32.7-14.3-48.7C429.3,598.3,427,592.3,424.8,586.3z"/>

<path fill="#F8B7D1" d="M173.9,164.8c0.6-8,3.1-15.3,8.4-21.4c1.1,0.2,0.9,1.1,0.9,1.8c0.1,5.8,0.9,11.5,3,17c0.3,0.8,0.2,1.6,0.1,2.4c-0.6,6.9,2.6,11.6,8.5,14.7c0.7,0.4,1.4,0.7,2.1,1c1.2,0.5,1.6,1.3,1.2,2.6c-0.5,1.5-0.9,3-1.2,4.6c-0.3,1.3-1,1.9-2.4,1.9c-1.8,0-3.4-0.4-4.9-1.4c-2.3-1.6-4.4-3.5-6.1-5.8c0.5,5.2,3.9,8.7,9.7,9.6c2.1,0.3,3.4,1.3,3.9,3.3c-1.4,9.3-0.8,18.6,0.7,27.9c0.2,1.1,0.6,2.2,0,3.4c-2.1,0.6-4.2,0.3-6.3,0.1c-0.8-1.3-0.5-2.8-0.7-4.2c-0.5-4.7-0.6-9.4-0.8-14c-0.1-1.3,0.3-2.5,0.3-3.8c0-1.1,0.9-0.3,1.3-0.8c-1-1.3-2.5-2-3.7-3.1c-6.1-5.3-9.2-12.3-11.4-19.9c-0.5-1.8-0.9-3.7-1.5-5.5C174.1,171.8,173.8,168.3,173.9,164.8z"/>

<path fill="#EF438B" d="M402.3,535.8c5.1-1.7,10.3-3,15.7-3.7c5.2-0.7,10.4-0.4,15.5,0.4c1.7,0.3,3.5,0.7,5.2,1c1.2,0.2,1.7,0.4,0.8,1.7c-6.1,9-13.4,16.6-23.7,20.8c-1.1,0.5-2.4,0.3-3.3,1.3C409.1,550.1,405.7,542.9,402.3,535.8z"/><path fill="#EF438B" d="M338.4,270c1.6,8-1.6,14.5-6.2,20.6c-3.8,5-8.5,9.1-13.3,13c-0.6,0.5-1.3,0.5-2,0.5c-6-0.2-11.8-1.5-17-4.6c7.6-2.6,14.7-6.2,21.2-11C327.9,283.4,333.5,277,338.4,270z"/>

<path fill="#FEFEFE" d="M172.1,236.4c0.6-0.1,1.3-0.1,1.9-0.2c7.6-1.4,10.4-4.7,10.6-12.4c0.1-3.2-0.4-6.3-1.3-9.4c-2.2-7.8-4.9-15.5-6.7-23.5c0.9-0.1,0.9,0.7,1.2,1.2c1.9,3,4,5.7,6.8,7.9c0.7,0.6,0.8,1.2,0.8,2c-0.8,12.1,0.6,24.1,3,36c0.7,3.7,2.6,7,3.1,11.1c-7.9-4.4-15.9-8.3-24.4-12C169,236.5,170.6,237.2,172.1,236.4z"/>

<path fill="#EF438B" d="M370.9,637.5c-5.8-5.9-7.6-13.3-8.1-21.2c-0.3-4.9,0.4-9.6,2.7-14c0.2-0.4,0.5-0.7,0.7-1.1c1.2,4.3,2,8.8,2.6,13.2C369.9,622.1,370.9,629.7,370.9,637.5z"/>

<path fill="#EF438B" d="M341.9,559.1c3.6,1,7.3,2.2,11,2.6c0.5,0.1,1,0.1,1.2,0.7c2.2,5.6,4.6,11.1,6.1,16.9c-0.5,0.3-1,0-1.4-0.3c-5-3.4-10-6.8-13.6-11.8c-1.5-2.1-2.7-4.4-3.4-7C341.7,559.9,341.6,559.5,341.9,559.1z"/>

<path fill="#C01B75" d="M341.9,559.1c1.4,6.4,5.5,11,10.5,14.9c2.5,1.9,5,3.9,7.8,5.4c0.7,1.1,0.9,2.2,1.2,3.4c-0.8,0.4-1.5-0.1-2.1-0.4c-6.6-3.5-12.4-7.9-16.9-13.8c-2.4-3.1-3.7-6.9-4-10.9C339.6,558,340.8,558.4,341.9,559.1z"/>

<path fill="#040303" d="M351,240.7c0.5,1.1,1.1,2.2,1,3.5c-0.9,0.1-1-0.9-1.7-1c-1.6-1.6-3.5-2.7-5.8-2.9c-2.1-0.4-4.2-0.2-6.3,0.1c-0.5,0.1-1,0.3-1-0.5c-0.2-1.2,0.4-2,1.4-2.7c2.5-0.9,5-0.5,7.5-0.1C348.1,237.8,350.2,238.4,351,240.7z"/>

<path fill="#F7B7D1" d="M193.5,234.2c-1.8-1.3-1.2-3.3-1.6-5.1c0.4-1.1,1.4-0.7,2.2-0.8c1.5-0.3,2.9,0.7,4.4,0c1.2,1.8,1.7,3.8,1.4,6C197.8,234.5,195.7,234.8,193.5,234.2z"/>

<path fill="#030203" d="M193.5,234.2c2.1-0.3,4.3-0.4,6.4-0.1c1,0.5,1.2,1.3,0.9,2.3c-0.1,1-0.8,0.5-1.3,0.5c-2.1-0.1-4.2-0.3-6.2,0.5c-1.8,0.5-3,1.9-4.4,3.2C188.6,237.3,189.8,235.7,193.5,234.2z"/>

<path fill="#050404" d="M198.5,228.4c-0.1,0.5,0.4,1.3-0.9,0.8c-1.8-0.7-3.8-0.7-5.7-0.2c-1.1-0.1-2,0.5-3.3,0.8c0.7-1.6,1.8-2.5,2.9-3.4c2-0.8,4.1-0.4,6.1,0C198.5,226.9,198.9,227.5,198.5,228.4z"/>

<path fill="#EF438B" d="M143.2,210.2c3.1,2.3,5.5,4.4,8.5,5.9c5.4,2.8,11,4.4,17,2.8c2.5-0.7,2.5-1,0.8-2.8c-9.4-9.8-17.4-20.7-24.1-32.5c-5.1-9-9.1-18.4-11.8-28.5c-2.1-8.1-2.7-16.3-2-24.6c1-12,5.6-22.8,13.1-32.2c4.1-5.2,9.6-8.8,15.2-12.3c6.4-4,13.4-6.8,20.9-7.9c10-1.4,19.6-0.1,28.8,4c9.2,4.1,17.1,10,24,17.2c0.4,0.4,0.7,1.3,1.4,1c0.6-0.2,0.4-1,0.5-1.5c2.1-9.2,5.7-17.7,12.8-24.2c6.4-5.8,13.9-9.2,22.6-10c10.3-1,18.9,2.6,26.4,9.4c2.2,2,3.5,4.7,4.9,7.2c3.5,6.2,5.9,12.8,6.6,19.9c0.6,7.2-0.4,14.3-3.2,21.1c-2.9,6.8-7,12.8-11.9,18.3c-4.9,5.5-10.5,10.1-16.5,14.3c-1.1,0.8-1.5,0.7-2-0.5c-2.2-4.9-5-9.4-8.3-13.6c-8.3-10.5-18.8-17.9-32.2-20.1c-9.9-1.6-19.7-0.2-29.2,3.2c-8,2.9-15.7,6.3-22.3,11.9c-7.6,6.4-12.2,14.7-13.4,24.7c-1.5,11.8,0.7,23.1,3.8,34.4c2,7.2,4.3,14.2,5.9,21.5c0.7,3,0.8,5.9,0.6,8.9c-0.2,2.2-1.4,3.8-3.5,4.9c-7.2,3.6-13.7,1.9-19.8-2.6c-5.6-4.2-9.6-9.8-13-15.8C143.7,211.3,143.6,211,143.2,210.2z"/>

<path fill="#EF438B" d="M367.1,113.7c-3.2-6.5-6.9-12.7-12.2-17.8c-1.2-1.2-2.6-2.2-4.1-3.1c-3.7-2.3-7.1-1.8-10.4,1.1c-4.2,3.7-6.7,8.4-8.5,13.6c-2.4,6.9-3.7,13.9-4.2,21.2c-0.1,1.3-0.5,2.6-0.4,4c0,0.4,0.2,1-0.3,1.2c-0.5,0.2-0.8-0.4-1.1-0.7c-3.5-3.5-7.2-6.6-11.2-9.4c2-3.3,2.7-7.1,3.8-10.7c2-6.6,3.2-13.3,4.1-20.1c1.2-9.1,1.1-18.3,0.7-27.4c-0.2-5.1-0.7-10.2-2.2-15.2c-0.3-1,0.3-1.1,1-1.3c5.5-1.4,11-1.3,16.5,0.2c8.3,2.3,15.1,7,20.8,13.4c8,8.9,13.2,19.3,17.4,30.4c0.7,1.9,1.3,3.9,2,5.7c0.4,1,0.2,1.7-0.5,2.6c-3.2,3.8-6.4,7.6-10.3,10.7C367.7,112.4,367.1,112.9,367.1,113.7z"/>

<path fill="#EF438B" d="M314.8,109.8c0.5-7.8-1.3-15.2-4.3-22.2c-4.2-9.9-10.1-18.5-19.7-24c-6.5-3.6-13.4-5.3-20.9-4.2c-2.5,0.4-4.8,0.6-7.2-1.2c-2.3-1.7-5.3-1.6-8.1-1.4c-1.4,0.1-2-0.4-2.3-1.8c-1-4.3-2.7-8.2-6.6-10.8c-2.5-1.6-5.3-2-8.2-2.3c-1.2-0.1-1.7-0.2-1.2-1.6c3.8-10.1,10.7-17.1,21.2-20.3c4.7-1.4,9.4-2.2,14.3-1.9c5.7,0.4,11.4,1,16.8,2.8c1.2,0.4,1.9,1.1,2.4,2.2c3.4,8.2,4.3,16.8,3.8,25.6c-0.3,4.3-0.7,8.7-2.2,12.9c-0.4,1-0.1,1.4,1,1.7c5,1.6,9.8,3.6,14.1,6.6c4.5,3.2,7.8,7.4,10.7,12c0.7,1.1,0.7,2.2,0.5,3.3C318.1,93.5,316.9,101.7,314.8,109.8z"/>

<path fill="#EF438B" d="M235.1,80.6c-1.4-6.7-2.2-13.4-2.1-20.2c0-5,0.6-10.1,1.8-15.1c0.4-1.8,1.4-2.4,3-1.8c1.1,0.4,2.3,0.2,3.4,0.5c5.9,1.4,8,6,9.3,11.2c0.1,0.3,0.1,0.6,0.1,0.9c0.6,2.7,0.9,2.8,3.8,2.5c2.5-0.3,5.1-0.2,7.4,1.1c0.3,0.2,0.8,0.4,0.8,0.7c0.1,0.6-0.6,0.6-0.9,0.7c-5.6,2.1-10.6,5.1-15.2,8.9c-4.7,4-8.2,8.8-10.8,14.3c-1.2,2.6-2.3,5.4-2.7,8.3c-0.1,0.4-0.2,1-0.5,1.2c-0.6,0.3-0.8-0.4-1.2-0.7c-4.2-4.4-8.8-8.4-14-11.7c-3.3-2.1-6.7-4-10.3-5.4c-1.4-0.6-1.3-1-0.4-2c3.4-3.8,7.8-4.6,12.5-4.1c6.3,0.8,10.6,4.8,14.6,9.3C234,79.7,234.3,80.2,235.1,80.6z"/>

<path fill="#EF438B" d="M319.2,80.2c-1.9-2.7-3.5-4.8-5.3-6.9c-4.8-5.5-11.2-8.4-17.9-10.9c-1.4-0.5-1.8-1-1.2-2.4c1.1-2.8,1.3-5.8,1.4-8.8c0.4-9.2,0.3-18.4-3.2-27.2c-0.2-0.4-0.6-0.8-0.2-1.2c0.5-0.5,1,0,1.4,0.3c7,3.5,12.7,8.6,16.7,15.3c4.4,7.4,6.6,15.6,7.6,24.1C319.2,68.2,319.4,73.9,319.2,80.2z"/>

<path fill="#EF438B" d="M375.5,155c0.2-12.2-1.8-24-6-35.4c-0.5-1.4-1.1-2.7-1.6-4.1c4.1-3.6,7.7-7.5,11-11.8c0.3-0.4,0.6-1,1.1-1c0.7,0.1,0.6,0.9,0.8,1.4c2.6,9.3,4.2,18.7,3.5,28.4C383.6,140.8,381.2,148.5,375.5,155z"/>

<path fill="#E97FAF" d="M235.2,125.9c-0.4,0.9-1.3,1-2,1.4c-5.3,3-10.1,6.8-14.7,10.8c-1.9,1.7-3.1,3.7-3.9,6.2c0-4.4-0.4-8.7-0.9-13.1c-0.1-1.4-0.6-2.7-0.4-4.2c1.6-0.6,3.2-1,4.9-1.1c0.7,0.7,0.1,1.4,0.2,2.1c0,0.7-0.1,1.4,0.2,2.2c2.5-1.7,4.6-3.9,7.4-5.1C229.1,125.1,232.2,124.8,235.2,125.9z"/>

<path fill="#E980B0" d="M185.9,165c0.6-2.2-0.7-4-1.3-5.9c-1.3-4.5-1.9-9.1-1.9-13.8c0-0.6,0.2-1.3-0.4-1.8c1.2-1.4,2.4-2.7,3.9-3.8c0.1,7.9,0.2,15.8,1.5,23.7c0.3,2.1,1.1,4,1.1,6.1c-1.2-0.1-1.2-1.3-1.7-2C186.7,166.7,186.5,165.7,185.9,165z"/>

<path fill="#EF438C" d="M226,125.2c-2.2,2-4.9,3.5-7.1,5.6c-0.7,0.7-0.9,0.2-1-0.5c-0.1-1.5,0.1-2.9,0.3-4.3C220.8,125.4,223.4,125,226,125.2z"/>

<path fill="#F8B7D1" d="M352.9,314.4c10.3-7.8,17.7-17.5,21.2-30.1c1.4-5.2,0.2-9.4-3.9-12.8c0.4-1.1,1.6-1.1,2.5-1.5c10.2-4.3,20.6-8.3,31.1-12c16.4-5.8,33.1-10.8,50-14.8c11.6-2.8,23.2-5.1,35-6.8c7.4-1.1,14.9-2.1,22.4-2.9c4-0.5,8.1-0.5,12.1-0.8c7.8-0.6,15.7-0.5,23.5-0.3c11.9,0.3,23.8,1.7,35.1,5.7c2.3,0.8,4.5,1.8,6.6,3c2.5,1.5,3.5,4.2,4.5,6.7c4.9,12,1.3,24.5-8.9,32.6c-4.9,3.9-10.2,6.9-15.9,9.4c-1.8,0.8-3.7,0.9-5.6,1c-4.5,0.3-9,0.5-13.5,0.4c-10.1-0.1-20.1,0.4-30.2,0.5c-6.5,0.1-12.9,0.5-19.4,0.7c-6.3,0.2-12.5,0.7-18.8,1.1c-7.8,0.6-15.5,1.2-23.3,1.9c-13,1.3-25.9,3.1-38.7,5.4c-11.9,2.1-23.8,4.4-35.6,7c-3.3,0.7-6.6,1.4-9.8,2.1c-0.1-3.2,0.2-6.4-0.5-9.5c-0.7-0.1-0.8,0.5-1,0.9c-3.1,3.9-6.4,7.6-10.3,10.7c-0.8,0.7-1.7,1.4-2.7,1.8c-1.4,0.6-2.8,1.1-4.3,1.3C353.8,315,353.1,315.4,352.9,314.4z"/>

<path fill="#E87CAD" d="M352.9,314.4c1.2,0.6,2.2-0.3,3.4-0.4c0.8-0.1,1.6-0.4,2.4-0.3c-3.2,2.6-7.1,3.6-11.1,4.4C349.3,316.8,351.1,315.6,352.9,314.4z"/>

<path fill="#040303" d="M352.3,233.4c0,0.1-0.1,0.3-0.1,0.4c-0.9,0.4-1.7-0.1-2.5-0.4c-2.1-0.7-4.2-1-6.3-0.4c-1.1-0.1-2.5,1.1-3.4-0.6c0-1,0-2,1.2-2.4c1.6-0.1,3.2-0.3,4.9-0.4C348.6,230,351,230.9,352.3,233.4z"/>

<path fill="#81DDFE" d="M336.4,491.4c-0.4,0.2-0.9,0.7-1.1-0.2c-0.2-0.9-0.5-1.8-0.8-2.7c-0.6-1.7-0.9-3.3-2.8-4.4c-2.3-1.5-3.2-4.2-4.2-6.7c-2.3-5.6-3.9-11.4-3.7-17.6c0.1-1.6-0.1-3.6,1.7-4.1c1.8-0.5,2.8,1.3,3.6,2.6c3.3,5.3,5,11.3,5.8,17.4c0.3,2.3,0.5,4.5,0,6.8c-0.3,1.6,1,2.6,1.6,4c0.5,1.2,2.1,2.1,1,3.7C337.4,490.8,337.2,491.4,336.4,491.4z"/>

<path fill="#FEF6A1" d="M332.6,454.7c-0.5,0.3-0.9,0.5-1.2-0.2c-0.2-0.7-0.5-1.3-0.7-2c-0.9-2.8-2.1-5.3-4.3-7.5c-4.3-4.3-6.2-10.1-7.5-16c-0.5-2.2-1-4.4-0.4-6.7c0.4-1.8,1.4-2.3,3-1.4c1.9,1,3.1,2.9,4.1,4.7c3.1,5.4,5.7,11.1,5.5,17.4c-0.1,3.3,1,5.9,2.5,8.5c0.5,0.9,0.3,1.5-0.2,2.2C333.6,454.3,333.2,454.6,332.6,454.7z"/>

<path fill="#81DDFE" d="M345.3,485.2c-0.8-0.3-0.9-1-0.8-1.7c0.3-2.2-0.3-4.2-1.2-6.2c-1.8-4-2.4-8.4-2.9-12.8c-0.4-3.5-0.7-7.1,0-10.6c0.2-1.4,0.2-3.3,1.7-3.5c1.5-0.3,2.1,1.5,2.6,2.8c1.6,3.8,2.4,7.9,2.9,12c0.5,4.1,0.9,8.2,0,12.3c-0.5,2.3-1.1,4.5-0.4,6.9c0.1,0.5-0.1,0.9-0.7,1C346,485.6,345.6,485.7,345.3,485.2z"/>

<path fill="#FEF4A3" d="M345.3,485.2c0.4,0.1,0.8,0.1,1.2,0.2c0.1,9.3,2.1,18.2,4.7,27c1.2,4.1,2.4,8.2,2.2,12.5c-0.1,2.5-1,4.4-2.3,4.4c-2.2,0-2.2-2.1-2.9-3.5c-0.1-0.3-0.2-0.6-0.2-0.9c-0.2-0.9-0.9-2.1,0.2-2.6c1.1-0.5,1.1,1.1,1.6,1.7c0.3,0.4,0.4,1.1,1,0.9c0.7-0.1,0.7-0.8,0.7-1.4c0.2-3.8-1.1-7.4-2.1-11c-1.4-5.4-3.2-10.7-3.8-16.3C345,492.7,344.3,489,345.3,485.2z"/>

<path fill="#FEF3A3" d="M336.4,491.4c0.4-0.4,0.8-0.8,1.2-1.2c1.7,5.4,2.7,11.1,3.9,16.6c0.8,3.6,1.5,7.2,2.3,10.8c0.1,0.6,0.3,1.6,1.1,1.6c1.1-0.1,0.7-1.2,0.8-1.9c0.1-2.4-0.2-4.7-0.6-7c-0.1-0.8-0.1-1.6-0.2-2.5c1,0,1.2,0.8,1.4,1.4c1.4,3.6,1.7,7.3,0.8,11c-0.1,0.4-0.3,0.8-0.6,1.2c-0.5,0.8-1,1.8-2.1,1.7c-1.2,0-1.5-1.1-1.8-2c-1.1-3.2-1.6-6.5-2.1-9.8C339.4,504.6,338,498,336.4,491.4z"/>

<path fill="#83DCFD" d="M332.6,454.7c0.3-0.4,0.6-0.7,0.9-1.1c1.6,3.1,2.4,6.5,3.5,9.8c2.8,8.8,4.8,17.7,7.3,26.6c0.4,1.4,0.1,2.7-0.5,3.9c-0.7,1.6-2.1,1.8-3,0.3c-1-1.6-1.5-3.3-1.6-5.4c1.3,0.7,1.3,2,1.9,2.8c0.3,0.4,0.5,1,1.1,0.8c0.5-0.2,0.3-0.8,0.3-1.2c0-2.5-1-4.7-1.5-7c-2.2-9.5-5-18.9-8-28.2C333,455.5,332.8,455.1,332.6,454.7z"/>

<path fill="#FEFEFE" d="M341.1,230c-0.3,0.7-0.6,1.5-0.9,2.2c0,2-0.4,3.8-1.8,5.3c-0.4,0.8-0.8,1.6-1.2,2.4c-0.6,1.3-1.2,2.5-1.8,3.8c0.1,1-0.1,1.8-1.2,2c-1.3,2.5-3,4.7-4.6,7c-0.4,0.5-0.7,1-1.5,1c-0.9,0.3-1.6-0.3-2.3-0.6c-9-3.9-18.4-6.3-28.3-6.2c-3.4,0.1-6.7,0.5-10,1.5c-0.7,0.2-1.4,0.6-2.2,0.3c-1.6-1-1.1-2.9-1.9-4.2c-1.3-2.4-1.3-5.2-1.6-7.8c-1.3-14.8-0.3-29.3,5.5-43.1c2.8-6.6,6.3-12.7,11.2-17.9c8.9-9.4,21.2-10.7,30.7-2.8c3.6,3,6.3,6.6,8.6,10.7c2.2,4,4,8.1,5.4,12.4c0.3,0.8,0.6,1.7,0.3,2.6c0.3,0.5,0.8,0.8,0.7,1.5c-0.3,3.3,0.4,6.6,0.1,10c-0.3,4.6-0.8,9.2-1.7,13.7C342.2,225.8,341.6,227.9,341.1,230z"/>

<path fill="#FEFEFE" d="M198.5,228.4c-0.3-0.6-0.2-1.4-0.8-1.9c-0.4-3.2-0.9-6.5-1.3-9.7c-0.7-5.6-1-11.2-0.3-16.8c0.2-1.7,0-3.6,0.8-5.2c-0.2-0.3-0.2-0.7-0.1-1.1c2.2-7.5,4.4-15.1,9.4-21.4c2.6-3.3,5.7-6.1,10-7.3c3.1-0.9,6.1-0.7,8.9,0.8c2.9,1.6,5.5,3.6,7.7,6.2c7.6,9.2,11.2,20,12.9,31.6c1.6,10.2,1.6,20.5,0.6,30.8c-0.2,1.9-0.5,3.7-1.1,5.5c-0.6,4.3-2.1,8.3-4.3,12c-2.7,4.5-6,8.5-11.2,10c-5.2,1.5-9.9,0.2-14.1-3.1c-5.2-4.1-8.8-9.4-11.6-15.3c-0.1-0.2-0.3-0.4-0.4-0.6c-1-0.6-1.3-1.5-1.2-2.6c-0.5-1.3-0.9-2.6-1.4-3.9c-0.3-0.8-0.6-1.6-0.9-2.3C199.5,232.2,199,230.3,198.5,228.4z"/>

<path d="M343.4,198.5c-1.2-3.4-2.3-6.9-3.8-10.2c-2.4-5-5.2-9.8-9.2-13.7c-8.2-8.1-19.7-8.7-28.5-1.3c-7.3,6.1-11.7,14.2-15.1,22.9c-4.4,11.5-5.4,23.5-4.8,35.7c0.2,4.2,0.6,8.4,1.4,12.5c-0.6-0.1-0.6-0.6-0.8-1.1c-6.9-22.9-4.3-44.6,9-64.6c3.7-5.5,8.8-9.5,14.8-12.3c7.5-3.5,14.6-2.8,21.4,1.6c1.9,1.2,3.7,2.5,5.2,4.2c0.8,0.9,1.4,0.7,2.2,0c3.9-3.3,5.7-7.6,6.2-12.5c0.1-1.2,0-2.5,0-3.9c2.8,2.5,3.7,7.5,2.4,11.3c-1.2,3.3-3.3,5.9-5.9,8.1c-1,0.9-1.1,1.5-0.2,2.4c0.4,0.4,0.7,0.9,1,1.4c1.7,2.6,1.7,2.5,4.6,1.5c5.6-2.1,9.9-5.7,12.6-11.1c0.3-0.6,0.6-1.1,0.9-1.7c1,2.8,0,6.8-2.3,9.8c-2.6,3.3-6.2,5.3-10.2,6.4c-2,0.6-2.3,1.2-1.4,3c0.6,1.3,1,2.8,1.1,4.2c0.1,1.5,0.8,1.5,2,1.4c6-0.6,10.8-3.3,14.1-8.4c0.5,2.5-0.5,5.3-2.6,7.4c-2.9,3-6.7,4-10.7,4.3c-1.6,0.1-3.1,0-2.9,2.3C344,198.2,343.6,198.4,343.4,198.5z"/>

<path fill="#E980AF" d="M294.9,258.9c-1,0-1.9,0-2.9,0c3.1-3.7,11-1.9,12.8,3c-0.7-0.4-1.4-0.8-2-1.1c-0.4-0.2-0.8-0.5-1.2-0.2c-0.4,0.3-0.2,0.8-0.1,1.2c0.8,3.6,1.1,7.3,1,11c-0.3,9.9-3.9,18.3-12.1,24.3c-6.3,4.6-13.2,6-20.9,5c-7.1-0.9-12.9-4.2-17.5-9.5c-4.3-5-7.1-10.8-8.8-17.1c-0.1-0.4,0-1-0.6-1.1c-0.5-0.1-0.7,0.4-1,0.8c-0.4,0.4-0.7,0.9-1,1.4c-0.3,0.4-0.6,0.8-0.9,1.2c-0.7-3.7,4-10.1,10.1-8.9c-1.1,0.6-2.2,1.1-3.2,1.7c-0.3,0.2-0.7,0.5-0.5,0.9c0.1,0.4,0.5,0.3,0.8,0.3c0.7,0.1,1.4,0.3,2.1,0.3c9.8,0.4,19.4-0.5,28.8-3.4c5.9-1.9,11.3-4.6,16.1-8.4C294.3,260.1,294.8,259.8,294.9,258.9z"/>

<path d="M245.1,239.9c1.8-13.5,1.9-27-0.7-40.4c-1.7-8.6-4.5-16.7-9.6-23.9c-2.1-3-4.6-5.8-7.7-7.9c-5.1-3.5-9.9-3.6-15.1-0.3c-3.3,2.2-5.8,5.2-7.8,8.6c-3,5-4.9,10.5-6.5,16.1c-0.3,0.9-0.6,1.8-0.8,2.7c-0.2,0-0.5-0.1-0.5-0.1c-0.3-2.2-2-1.9-3.5-2.2c-6.2-1.2-9.9-5.5-9.9-11.9c1.7,2.6,3.5,4.6,5.6,6.2c1.8,1.4,3.7,2.4,6.1,2.5c1.1,0,1.6-0.3,1.8-1.4c0.3-1.6,0.7-3.2,1.2-4.8c0.4-1.2,0.3-1.8-1-2.2c-1.2-0.4-2.4-1.1-3.5-1.8c-5.2-3.2-7.7-7.8-7.2-13.9c0.6-0.6,0.6-0.1,0.8,0.3c0.6,1.5,1.1,3,2.2,4.2c2.2,3.8,5.5,6.3,9.4,8.1c0.9,0.4,1.3,0.2,1.5-0.7c0-0.1,0.1-0.2,0.2-0.3c1.9-2.6,1.8-4.6-0.4-7.3c-3.2-3.9-4.3-8.6-2.6-13.7c0.3-1,0.7-2,1.7-3c0.1,3,0.2,5.7,0.9,8.3c0.7,2.6,1.8,5,3.3,7.3c0.8,1.2,1.3,1.5,2.4,0.2c3.7-4.4,8.5-6.8,14.4-6.8c5.2,0,9.3,2.5,12.8,6c6.4,6.2,9.9,14.1,12.6,22.4c4.8,15.2,4.3,30.5,1.3,45.9c-0.3,1.4-0.5,2.9-1,4.3C245.1,240.9,245.3,239.7,245.1,239.9z"/>

<path fill="#E980B0" d="M352.5,172.6c6.9-18.1,5.7-36.4,2.3-54.9c4.4,8.8,6.7,18.1,6.5,27.9C361.1,155.5,358.5,164.7,352.5,172.6z"/>

<path fill="#E981B0" d="M285.3,248.7c5.5-2.3,11.3-2.7,17.1-2.2c9,0.7,17.6,3.1,25.7,7.2c1,0.6,2.1,1.2,3.1,1.8c0.2,0.1,0.3,0.3,0.4,0.8c-15.6-5.5-31.3-9.7-48-5.9C283.7,249,284.8,249.2,285.3,248.7z"/>

<path fill="#E981B0" d="M249.9,245c4.1-4.4,18.4-4.1,21.7-0.2C264.5,243.8,257.5,243.9,249.9,245z"/>

<path fill="#060405" d="M334.2,245.6c0.4-0.7,0.8-1.3,1.2-2c4.2,1.1,5.8,5,4.4,10.4c-0.7-0.2-0.5-0.8-0.6-1.3c-0.6-2.6-1.8-4.8-4.3-6C334.5,246.5,334,246.3,334.2,245.6z"/>

<path fill="#070506" d="M202.2,240.3c0.4,0.9,0.8,1.7,1.2,2.6c-3.4,1.3-3.8,4.6-4.7,7.7C197.1,246.4,198.6,242.4,202.2,240.3z"/>

<path fill="#E981B0" d="M252.4,257.2c-2.8,1.1-4.9,0.7-6.1-1.1c-1-1.4-0.4-4,1.4-5.8C247.6,253.7,249.2,255.8,252.4,257.2z"/>

<path fill="#EA81B0" d="M268.8,256.9c3.2-2.4,3.5-2.8,4-6c1.8,1.1,2.3,3.3,1.3,5.2C273.2,257.5,270.9,257.9,268.8,256.9z"/>

<path fill="#E77FAE" d="M343.3,232.5c3.2-0.9,6,0.1,8.9,1.3c0.4,2.5-0.6,4.7-1.2,6.9c-1.2-1.4-2.8-2.4-4.6-3.1c-0.6-0.7-0.4-1.6-0.2-2.4c0.3-1.3,0.2-2.3-1.5-2.2C344.2,233.1,343.6,233,343.3,232.5z"/>

<path fill="#F8B7D1" d="M343.3,232.5c1.2,0.3,2.9-0.6,3.6,0.4c0.7,0.9-0.3,2.4-0.5,3.6c0,0.4,0,0.8,0,1.1c-2.7-0.4-5.3-0.4-8-0.1c0.6-1.8,1.2-3.5,1.8-5.3c0,0.6,0.3,0.7,0.9,0.6C341.8,232.6,342.6,232.6,343.3,232.5z"/>

<path fill="#3388A3" d="M297.1,206.5c0.8-7.7,8.3-16.6,15.1-18c4.8-1,10.2,1.4,12.7,5.5c0.5,0.7,0.9,1.5,1.4,2.2c-1,1-2.3,1.3-3.5,1.8c-0.8,0-1.2-0.6-1.8-1c-2.5-1.6-3.9-1.4-5.9,0.8c-0.2,0.2-0.4,0.5-0.8,0.6c-6.1-0.7-9.5,2.8-12,7.7c-0.3,0.7-0.4,1.5-1.4,1.7c-0.8-0.2-1.5,0-2.2,0.2C297,208.6,296.9,208.5,297.1,206.5z"/>

<path fill="#7AD6F2" d="M323.5,231.8c-1.9,2.8-4.4,4.9-7.6,6.1c-5.5,2.1-10.7,0.6-14.6-4.1c-2.3-2.8-3.9-6-4.6-9.7c1.5,0,2.6-1.5,4.2-0.8c1,1.3,1.5,2.9,2.5,4.2c3.7,5.2,9.7,5.7,14.2,1.2c0.6-0.6,1-1.3,1.8-1.6C321,228.6,322.9,229.6,323.5,231.8z"/>

<path fill="#51A8C4" d="M300.9,223.4c-0.8-0.1-1.5,0.4-2.1,0.7c-0.7,0.4-1.3,0.5-1.9,0c-1.4-5.9-1.5-11.8,0.3-17.6c-0.1,1.5,0.4,1.6,1.7,1c0.6-0.3,1.7-1.4,2.2,0.3c0.4,0.6,0.3,1.2,0.1,1.8c-1,4.1-1.1,8.1-0.1,12.2C301.2,222.4,301.4,222.9,300.9,223.4z"/>

<path fill="#AEE7FE" d="M323.5,231.8c-1.1-1.7-3.1-2.6-3.9-4.5c-0.1-0.2-0.2-0.4-0.1-0.5c1.2-2.2,1.9-4.6,3.2-6.8c2.1-0.8,4.1-1.1,6,0.3C328.2,224.7,326.1,228.3,323.5,231.8z"/>

<path fill="#70CAE5" d="M328.8,220.3c-2-0.4-4-0.7-6,0c-0.7-1.1-0.2-2.2,0-3.3c0.3-1.6,0.2-2.7-1.7-3c-0.2,0-0.3-0.2-0.3-0.4c0.2-0.6,0.8-0.7,1.2-0.6c2.1,0.1,3.1-1,3.6-2.8c0.1-0.4,0.3-0.7,0.6-1c1.5-0.4,2.9-1,3.5-2.7c0.8,4.2,0.5,8.4-0.5,12.5C329,219.5,328.9,219.9,328.8,220.3z"/>

<path fill="#54ABC7" d="M329.6,206.5c-0.1,2.4-0.6,2.7-3.1,2.7c-0.4-0.3-0.4-0.8-0.4-1.2c-0.2-3.1-1.2-6-2.9-8.6c-0.3-0.5-0.7-0.9-0.5-1.6c1.1-0.8,2.3-1.4,3.6-1.6C328.4,199.4,329.3,202.9,329.6,206.5z"/>

<path fill="#1F718C" d="M214.9,201.2c0.9-3,2.2-5.8,4.4-8.1c3.9-4,8.7-4.4,13.2-1.1c3.5,2.6,5.6,6.3,7.2,10.3c0.5,1.4,0.8,2.8,1.2,4.2c0.2,0.6,0.5,1.3-0.3,1.7c-0.7,0.4-1.5-0.1-2.1-0.6c-0.6-0.8-0.7-1.7-0.9-2.7c-1-3.7-2.9-6.7-6.3-8.7c-3.1-1.8-5.3-1-6.5,2.4c-0.2,0.5-0.3,1-0.6,1.4c-1.4,1-2.7,2-3.8,3.3c-0.3,0.3-0.6,0.7-1.1,0.6c-0.9-0.8-2-1.2-3.1-1.6C215.7,202.1,214.8,202.2,214.9,201.2z"/>

<path fill="#7BD6F2" d="M242,219.6c-0.4,5.8-2,11.3-6.2,15.6c-3.8,3.9-8.8,4.2-13.1,0.8c-1.6-1.3-3.1-2.7-4.1-4.5c-0.4-0.8,0.1-1.3,0.6-1.8c0.9-0.8,1.6-1.8,2.5-2.5c0.7,0,1.1,0.5,1.6,0.9c6.2,6,12.2,2,14.3-4.2c0.4-1.1,0.3-2.4,1-3.4C239.6,219.1,241,220.3,242,219.6z"/>

<path fill="#64BDD9" d="M214.9,201.2c0.9,0.7,2.1,0.8,3.1,1.2c0.7,0.3,1.5,0.5,1.5,1.4c0.4,0.7,0,1.2-0.2,1.8c-1.4,3.6-1.9,7.3-1.1,11.2c0.2,1,0.6,2-0.1,2.9c-2.4,0.8-3.4,0.5-4.2-1c-0.7-5.2-0.9-10.5,0.3-15.7C214.3,202.4,214.3,201.7,214.9,201.2z"/>

<path fill="#ADE7FD" d="M213.8,218.8c1.2,1.5,2.8,0.5,4.2,0.8c0.2,0,0.4,0,0.5,0.2c0.9,2.3,2,4.6,3.3,6.7c0.1,0.2,0.1,0.5,0,0.7c-0.2,1.2-1.3,1.7-1.9,2.5c-0.5,0.6-1.2,1-1.2,1.8C216,227.6,214.5,223.4,213.8,218.8z"/>

<path fill="#50A7C2" d="M242,219.6c-0.3,0.6-0.7,1.2-1.5,0.7c-0.5-0.3-1-0.2-1.4,0.1c-0.8-0.8-0.6-1.8-0.6-2.7c0-2.2-0.2-4.3-0.9-6.3c-0.1-1.4,0.2-2.8,1-4c0.9,0.2,2.3,1.7,2.3-0.8C242.4,210.8,242.2,215.2,242,219.6z"/>

<path fill="#C43474" d="M293.3,265.5c1-1.4,2.6-2.1,4-3.1c1.1-0.8,1.1,0.4,1.2,1c0.3,2.3,0.8,4.7,0.7,7c-0.1,5.7-0.9,11.2-3.8,16.3c-1.4,2.4-3,4.7-5.3,6.4c-0.9,0.1-1.7-0.3-2.1-1.1c0-1.1,0.3-2.3,0.1-3.4c-0.4-4.1-2.7-6.8-6.7-7.7c-0.6-0.1-1.1-0.2-1.7-0.3c-2.1-0.3-2.1-0.3-2.3,1.7c-0.1,1.1-1.5,2.2-2.8,2.1c-1.7-0.1-1.8-1.3-1.7-2.8c-2.6,1.6-4.5,3.7-5.6,6.4c-1.3,3.1-0.4,6.1,2.3,8.1c0.6,0.4,1.2,0.7,1.8,1.1c0.1,1.3-1,1.6-1.9,2.1c-5-0.5-9.2-2.7-12.9-5.9c-5.2-4.6-8.3-10.5-10.1-17.2c-0.3-1.1-0.2-1.4,1-1.1c1.5,0.3,3,0.2,4.4,0.9c0.9,0,1.5,0.5,2.3,0.9c4.7,2.5,9.6,3.4,14.9,2.9c3.6-0.3,7.1-0.9,10.4-2.2c5-2,8.9-5.4,11.9-9.8C292,266.8,292.4,265.9,293.3,265.5z"/>

<path fill="#FEFDFE" d="M255,275.8c7.3,0.1,14.6-0.1,21.6-2.5c5-1.7,9.7-4.1,14.3-6.6c0.5,1-0.3,1.7-0.8,2.3c-4.8,5.8-10.9,9.2-18.4,10c-4.9,0.6-9.8,0.5-14.5-1.3C256.4,277.4,255.1,277.2,255,275.8z"/>

<path fill="#F46F33" d="M288.3,291.9c0.6,0.4,1.3,0.7,1.9,1.1c-5.9,5.4-12.7,7.7-20.7,6.1c0.4-0.8,1.3-1.3,1.9-1.9c0.9-1.7,2.6-2.4,4.4-2.7c1.4-0.2,2.6-0.7,3.8-1.5c1.6-1.1,3.4-1.7,5.3-2C286.2,290.9,287.4,290.8,288.3,291.9z"/>

<path fill="#C0D2E0" d="M255,275.8c1.6,1.7,3.9,2.2,6,2.5c8.5,1.4,16.6,0.4,23.7-4.8c2.5-1.8,4.9-3.9,6.2-6.8c0.7-0.5,1.3-1.2,2.3-1.2c-4.8,9.1-12.6,13.4-22.5,14.5c-6.8,0.7-13.2-0.1-18.8-4.2C253,274.9,254,275.9,255,275.8z"/>

<path d="M321,213.5c0.6,0.9,2.2-0.5,2.5,1c0.1,1-0.1,2-0.2,3c-0.1,0.9-0.3,1.9-0.4,2.8c-0.7,2.5-1.8,4.8-3.1,7c-0.2,0.2-0.3,0.4-0.5,0.6c-5.3,6.5-12.8,5.9-16.9-1.4c-0.5-1-1.3-1.8-1.4-3c-1.5-5.2-1.4-10.4,0.1-15.6c1-2,1.9-4.1,3.4-5.9c2.6-3,5.7-4.8,9.9-3.8c0.4,0.4,0.3,0.8,0.2,1.3c-0.6,5.6,1.2,10.2,6,13.5C320.7,213.1,320.9,213.3,321,213.5z"/>

<path fill="#FEFEFE" d="M321,213.5c-4.7-1.8-8.1-8.7-6.9-14.3c0.1-0.4,0.2-0.7,0.2-1.1c2.3-3.6,4.5-3.7,8.4-0.4c2.6,3.4,4.1,7.1,3.8,11.4c-0.1,0.2-0.2,0.4-0.3,0.7C325.3,213,324.5,213.6,321,213.5z"/>

<path d="M237.9,211.1c1.2,2.1,1.1,4.5,1.2,6.8c0,0.8,0,1.6,0,2.5c-0.5,1.5-0.6,3.2-1.3,4.7c-3,7.2-9.7,8.5-15.1,2.9c-0.3-0.3-0.5-0.5-0.8-0.8c-1.7-2.3-2.9-4.9-3.8-7.6c-0.5-3-1.1-6-0.6-9c0.3-2.3,0.9-4.6,2.1-6.7c1.4-1.4,2.5-3.3,4.6-3.8c0.8,1.4,0.7,3,1.3,4.5c1,2.9,2.8,5.1,5.1,7c2.4,1.9,4.2,1.9,6.6,0C237.3,211.3,237.6,211.1,237.9,211.1z"/>

<path fill="#FEFEFE" d="M237.9,211.1c-1.7,2.5-3.6,3.1-6.3,1.8c-3.1-1.5-4.9-4.1-6.3-7.2c-0.8-1.8-1.3-3.7-1.2-5.6c0.2-0.9,0.3-1.8,0.7-2.6c0.9-2.1,2.7-3,5-2.4c3,0.8,5,3,6.6,5.5c1.3,2.1,2,4.4,2.3,6.8C238.4,208.6,238.1,209.8,237.9,211.1z"/>

<path fill="#8F155F" d="M288.3,291.9c-3.5-1-6.6,0.1-9.3,2.3c-0.4,0.3-0.7,0.7-1.3,0.7c-2.5-0.2-4.3,1.1-6.2,2.3c-4.1-0.9-6.3-5.8-4.4-9.8c1.4-3,3.6-5.3,6.7-7c0,0.5,0,0.7-0.1,1c-0.3,0.8-0.6,1.7,0.3,2.2c0.8,0.5,1.7,0.1,2.5-0.4c0.9-0.6,0.9-1.3,0.4-2.1c-0.5-0.8-0.2-1.3,0.7-1.4c4.2-0.8,9.8,2.6,10.9,6.8C288.9,288.2,289.3,290.1,288.3,291.9z"/>

<path fill="#FCFCFC" d="M309.1,210c0.1-1.1,0.5-2,1.9-2.1c1.6,0,3.4,2,3.4,4c0,1.2-0.5,2.1-1.8,2.2C311,214.1,309.1,212,309.1,210z"/>

<path fill="#F9F9F9" d="M222.6,212.5c0.1-1,0.6-1.8,1.9-1.7c1.8,0,3.8,2.4,3.7,4.2c-0.1,1.1-0.7,1.8-1.8,1.8C224.7,216.8,222.6,214.5,222.6,212.5z"/>
</g>
</svg>
